<?xml version="1.0" encoding="UTF-8"?>
<svg version="1.1" viewBox="0 0 1764 2048" width="1280" height="1280" xmlns="http://www.w3.org/2000/svg">
<path transform="translate(431,989)" d="m0 0h26l16 3 19 8 20 11 19 12 22 14 34 22 22 14 15 9 18 10 26 12 31 12 36 12 27 7 27 5 30 4 14 1h41l32-3 30-5 30-7 29-9 28-10 24-10 29-14 24-14 23-15 34-22 22-14 24-15 19-10 17-6 12-2h28l33 3 32 5 32 8 27 9 30 13 23 12 19 12 17 12 14 11 11 10 8 7 12 12 7 8 9 10 13 17 13 18 10 15 15 25 15 28 16 34 13 33 12 36 8 28 11 44 10 51 7 44 5 40 3 33 3 51 1 29v76l-2 25-4 27-6 27-8 26-9 24-14 28-11 18-12 17-9 11-12 14-19 19-11 9-15 12-18 12-15 9-27 14-28 11-27 8-26 6-36 6-16 2h-1056l-43-6-34-7-30-9-27-11-21-10-22-13-20-14-16-13-15-14-16-16-9-11-10-12-12-18-9-15-9-17-11-26-9-28-6-24-6-37-2-16v-107l5-66 4-39 5-37 7-41 9-45 12-48 12-39 12-33 11-26 14-29 11-21 16-27 12-18 13-18 8-10 11-13 9-10 24-24 11-9 17-13 15-10 24-14 16-8 18-8 24-9 23-7 27-6 26-4 19-2z"/>
<path transform="translate(803)" d="m0 0h78l49 7 30 6 30 8 29 10 24 10 25 12 25 14 22 14 32 24 14 12 10 9 8 7 26 26 7 8 9 10 11 14 13 17 11 16 12 19 14 25 13 27 11 28 9 27 9 36 5 28 4 35 1 13v63l-4 41-5 29-5 22-8 29-11 31-11 25-13 26-16 27-13 19-14 19-14 17-11 12-7 8-30 30-8 7-13 11-18 14-18 13-19 12-21 12-23 12-25 11-28 10-27 8-26 6-36 6-28 3-16 1h-53l-34-3-28-4-33-7-25-7-27-9-24-10-29-14-25-14-27-18-19-14-17-14-12-11-8-7-17-16-7-8-8-8-9-11-9-10-13-17-13-18-14-22-13-23-11-22-12-29-8-23-8-27-7-32-5-34-3-38v-47l3-37 4-28 6-29 8-30 10-29 10-24 13-27 12-21 10-16 13-19 9-12 13-16 9-11 14-15 7-7 7-8 8-7 9-9 11-9 9-8 17-13 18-13 14-9 15-9 18-10 31-15 34-13 27-8 25-6 31-6 30-4z"/>
</svg>
