<?xml version="1.0" encoding="UTF-8"?>
<svg version="1.1" xmlns="http://www.w3.org/2000/svg" width="512" height="512">
<path d="M0 0 C10.21514438 7.22424932 18.88799747 16.96181105 27.71931458 25.7691803 C28.42955591 26.47659426 29.13979725 27.18400822 29.87156105 27.91285896 C33.62354918 31.64995881 37.3727324 35.38984479 41.11946106 39.13221741 C44.9656175 42.97287571 48.82098019 46.80415188 52.67855358 50.63333797 C55.66835521 53.60443629 58.65135047 56.58229899 61.6325779 59.56199837 C63.05051419 60.97692972 64.47092507 62.38938614 65.89395714 63.79919243 C83.94315152 81.69242072 83.94315152 81.69242072 88.42634583 93.11683655 C88.8156427 94.08234436 89.20493958 95.04785217 89.60603333 96.0426178 C93.94238971 108.71122923 91.80065883 121.90945502 86.42634583 133.86683655 C80.62309954 144.76308106 72.05488109 151.79440277 60.74665833 156.3707428 C47.64495666 161.67898865 37.75181317 168.49343565 31.55134583 181.80433655 C30.37483819 184.76653165 29.38314826 187.7284628 28.55134583 190.80433655 C28.37877258 191.41889709 28.20619934 192.03345764 28.02839661 192.66664124 C23.77713012 211.71684051 36.62366816 234.6118829 46.13728333 250.14027405 C48.47619998 253.79402875 50.97445713 257.31560995 53.55134583 260.80433655 C53.95707825 261.36266174 54.36281067 261.92098694 54.78083801 262.49623108 C60.07544791 269.74955273 65.80924715 276.4751526 71.95368958 283.0191803 C74.27426781 285.50725891 76.51392918 288.04359636 78.73884583 290.61683655 C82.39385161 294.73608702 86.33516153 298.27301467 90.55134583 301.80433655 C91.50911926 302.63835999 92.4668927 303.47238342 93.45368958 304.3316803 C115.54647865 323.50719761 145.1169006 345.30795116 175.59040833 344.1285553 C180.62527799 343.71643086 184.91367694 342.77726751 189.55134583 340.80433655 C190.22036926 340.53750061 190.8893927 340.27066467 191.57868958 339.9957428 C202.4394358 335.15679646 210.43166205 327.4724668 214.67073059 316.47084045 C214.92008362 315.81776917 215.16943665 315.16469788 215.42634583 314.49183655 C220.57251577 301.03820725 228.8829127 291.12617472 241.99665833 284.81214905 C253.95854741 280.09323868 269.00698043 279.71328414 281.02400208 284.5504303 C295.44682924 291.70611425 306.50700314 304.59794269 317.75447083 315.8394928 C319.20547037 317.28727169 320.65654184 318.73497851 322.10768127 320.18261719 C325.13168824 323.20067236 328.15365818 326.22075034 331.1743927 329.24208069 C335.03132928 333.09911923 338.89512337 336.94920892 342.76068497 340.79760075 C345.75308192 343.77884877 348.74089204 346.76466164 351.72745514 349.75175285 C353.14989891 351.17302289 354.57394986 352.59268644 355.99968719 354.01065254 C357.99470589 355.99580288 359.98320551 357.98727491 361.97029114 359.98036194 C362.55015778 360.55460907 363.13002441 361.1288562 363.72746277 361.72050476 C374.71986146 372.79686798 381.19760221 385.17907137 381.92634583 400.92933655 C381.39693469 424.2565145 367.41142189 438.0573886 351.84822083 453.78089905 C351.35417 454.28027355 350.86011917 454.77964806 350.35109711 455.29415512 C347.7391836 457.93251722 345.12379106 460.56737874 342.50593567 463.19984436 C340.36959699 465.34952956 338.24077714 467.50625846 336.11824036 469.66957092 C333.51914587 472.3185314 330.90747607 474.95448641 328.2868576 477.58214951 C327.3051916 478.57042874 326.32769835 479.56287495 325.35495758 480.55994034 C316.49552594 489.62831604 306.57089821 497.42593052 294.11384583 500.74183655 C293.45964661 500.93584045 292.80544739 501.12984436 292.13142395 501.32972717 C270.89057295 507.47447786 246.54092261 504.33448289 225.55134583 498.80433655 C224.58680481 498.55264709 223.62226379 498.30095764 222.62849426 498.04164124 C202.42548388 492.62829669 183.04219255 484.56830277 164.54255676 474.84486389 C162.4008776 473.72570786 160.24656037 472.63361044 158.09040833 471.5426178 C125.18421446 454.74960922 94.61049893 432.96692519 66.33454895 409.28334045 C64.00366638 407.35008654 61.62441015 405.48198318 59.23884583 403.61683655 C54.4804198 399.83927858 50.04775326 395.75320386 45.60603333 391.6129303 C43.31944943 389.48975583 40.98713419 387.42698009 38.63337708 385.3785553 C27.84636018 375.97563411 17.61905774 365.96775243 7.48884583 355.86683655 C6.60881897 354.99140198 5.72879211 354.11596741 4.82209778 353.21400452 C0.42846275 348.80987748 -3.81980798 344.34409405 -7.87321472 339.62489319 C-10.28087715 336.84263087 -12.80690394 334.175015 -15.32365417 331.49183655 C-19.80285577 326.67678212 -24.05635188 321.73901811 -28.17521667 316.60902405 C-30.24032489 314.06134758 -32.34812315 311.56162826 -34.48112488 309.07118225 C-61.54942334 277.44054678 -85.73547799 241.51956607 -103.44865417 203.80433655 C-104.09589823 202.46001129 -104.74429018 201.11623796 -105.39396667 199.77308655 C-115.16031317 179.42869243 -123.07273639 157.97767923 -127.44865417 135.80433655 C-127.67295105 134.69590393 -127.67295105 134.69590393 -127.90177917 133.56507874 C-132.99718976 107.70367374 -132.31239996 81.52643094 -117.65974426 58.84037781 C-113.45314811 53.06431308 -108.36628585 48.14946485 -103.30412292 43.1285553 C-102.12680835 41.94853793 -100.95008739 40.76792804 -99.77392578 39.58676147 C-97.32191918 37.12889922 -94.86293289 34.6783102 -92.39860535 32.23280334 C-89.26165069 29.11866068 -86.14303806 25.98686236 -83.02945995 22.8493681 C-80.60786621 20.41323108 -78.17671559 17.98681025 -75.74268532 15.56310463 C-74.58967477 14.41273653 -73.43955592 13.25946163 -72.29257774 12.10307884 C-65.88258174 5.65206741 -59.64647817 -0.04536727 -51.44865417 -4.19566345 C-50.20265694 -4.82889275 -50.20265694 -4.82889275 -48.93148804 -5.47491455 C-33.71561659 -12.73868332 -13.57890087 -8.81336054 0 0 Z " fill="#000000" transform="translate(130.4486541748047,8.195663452148438)"/>
</svg>
