<?xml version="1.0" encoding="UTF-8"?>
<svg version="1.1" xmlns="http://www.w3.org/2000/svg" width="512" height="512">
<path d="M0 0 C2.53097637 1.20522684 4.63633689 2.34442201 6.9375 3.875 C17.32877519 10.6901353 28.18047687 10.30408005 40.17797852 10.31884766 C41.91327883 10.32815693 43.6485747 10.33832708 45.38386536 10.34928894 C50.07325611 10.37649032 54.76261699 10.391709 59.45206571 10.40471697 C64.36081429 10.42039082 69.26950225 10.44716741 74.1782074 10.4727478 C83.46395142 10.51946043 92.74970694 10.55624085 102.0355081 10.58942068 C112.61112752 10.62769526 123.18668595 10.67709141 133.76225388 10.72740483 C155.50812416 10.83061286 177.25403309 10.91990935 199 11 C199.00410889 12.06436279 199.00821777 13.12872559 199.01245117 14.2253418 C199.03427448 18.18611634 199.08859606 22.14590195 199.15258789 26.10620117 C199.17574025 27.81801859 199.19015715 29.5299779 199.19555664 31.24194336 C199.20486703 33.70776498 199.24589779 36.17136374 199.29296875 38.63671875 C199.28706978 39.77919319 199.28706978 39.77919319 199.28105164 40.94474792 C199.39135195 44.98978081 199.834258 46.79674603 202.42394733 49.97255325 C206.65178339 53.30001335 209.93088727 53.1285204 215.21801758 53.16113281 C216.47644974 53.17074036 217.7348819 53.1803479 219.03144836 53.19024658 C220.40247414 53.1950952 221.77350203 53.19937387 223.14453125 53.203125 C224.55694072 53.20888187 225.96935018 53.21463953 227.38175964 53.22039795 C230.34150556 53.23089072 233.30122445 53.23674453 236.26098633 53.24023438 C240.04036157 53.24571305 243.81937547 53.26973459 247.59863758 53.29820633 C250.51642375 53.31689644 253.434124 53.3220417 256.35196495 53.32357025 C257.74453391 53.32658336 259.13710183 53.33456628 260.52961159 53.34775543 C270.71987488 53.59221896 270.71987488 53.59221896 280 50 C282.50442112 46.24336832 282.34885437 43.18991875 282.4140625 38.83203125 C282.43342865 38.03721848 282.4527948 37.2424057 282.4727478 36.42350769 C282.53249442 33.88661405 282.57890883 31.34967491 282.625 28.8125 C282.66318435 27.09177716 282.70223635 25.37107335 282.7421875 23.65039062 C282.83819179 19.43374835 282.92224076 15.2170166 283 11 C283.89691716 10.99761165 284.79383432 10.99522329 285.71793079 10.99276257 C307.56960281 10.93355579 329.42116505 10.85796934 351.27271748 10.76428509 C361.84008599 10.71937211 372.40742115 10.67994707 382.97485352 10.65356445 C392.18837452 10.63054795 401.40178955 10.59710914 410.61522645 10.55129844 C415.4909958 10.52741548 420.3666605 10.50865444 425.24248695 10.50238609 C429.83816741 10.49631292 434.43358029 10.47623281 439.02916145 10.44572449 C440.70964445 10.43697993 442.39016246 10.4332142 444.07066727 10.43499184 C455.66999587 10.44338249 466.25252626 9.99653734 476.1875 3.3125 C481.2758942 0.20548569 484.09535348 -1.11984675 490 0 C495.5 3 495.5 3 497 6 C497.10291213 8.12893299 497.13953772 10.26115762 497.14717102 12.39256287 C497.15084771 13.05621308 497.1545244 13.71986329 497.1583125 14.40362412 C497.16936753 16.63814972 497.17319634 18.87262885 497.17700195 21.10717773 C497.18326557 22.70536955 497.18991227 24.30355991 497.19691467 25.90174866 C497.2179812 31.16235333 497.22832395 36.42295836 497.23828125 41.68359375 C497.24232876 43.49548928 497.24644568 45.30738465 497.25063133 47.11927986 C497.26969385 55.63717349 497.28391895 64.15505842 497.2922433 72.67296928 C497.30200038 82.49449926 497.32827533 92.31580293 497.36874419 102.13725322 C497.398964 109.73315824 497.41371799 117.32899864 497.41702431 124.92496258 C497.41936942 129.45873328 497.42825837 133.99226254 497.45348549 138.52596855 C497.47687199 142.79828453 497.48095725 147.07020199 497.47072411 151.34256554 C497.47023108 152.90375346 497.476482 154.46496169 497.49028015 156.02608871 C497.61095744 170.4994294 494.6191294 180.94861053 485 192 C476.3700407 200.50410573 464.43773604 204.16200745 452.57507896 204.13142776 C451.46210696 204.13450672 451.46210696 204.13450672 450.32665068 204.13764787 C447.83260846 204.14331634 445.3386215 204.1418608 442.84457397 204.14044189 C441.04143511 204.14302562 439.23829682 204.1460388 437.43515933 204.1494453 C432.47380063 204.15751773 427.5124564 204.159305 422.55109191 204.16004276 C417.20258556 204.1618929 411.85408673 204.16944006 406.50558472 204.17617798 C394.80716922 204.18976373 383.10875714 204.19578645 371.41033506 204.20018864 C364.10629548 204.20295074 356.80225722 204.20718805 349.49821854 204.21169281 C329.27713034 204.22388597 309.0560432 204.23418508 288.8349514 204.2375679 C286.89339499 204.23789725 286.89339499 204.23789725 284.91261522 204.23823325 C282.96640022 204.23856067 282.96640022 204.23856067 280.98086774 204.2388947 C278.35166573 204.23933817 275.72246373 204.23978473 273.09326172 204.24023438 C271.1369972 204.24056652 271.1369972 204.24056652 269.14121218 204.24090537 C248.00987035 204.24485321 226.87856301 204.26230658 205.74723451 204.2855939 C184.05417367 204.30930736 162.36113014 204.32176976 140.66805613 204.32293582 C128.48735783 204.3238526 116.30670445 204.32960571 104.12601852 204.34775543 C93.7535227 204.36315635 83.38108569 204.36827692 73.00858061 204.36001733 C67.71714254 204.35611077 62.42582291 204.3570408 57.13439941 204.37107468 C52.28707965 204.38381303 47.43996734 204.38261655 42.59264787 204.37048396 C40.84227474 204.36852686 39.09188691 204.371606 37.34153442 204.38032833 C22.01867007 204.45182951 8.48126508 202.51764446 -3.3046875 191.85546875 C-13.73365268 180.44127875 -15.45211273 168.86542369 -15.41992188 154.00292969 C-15.42727133 152.3939658 -15.4358601 150.78500718 -15.44558716 149.17605591 C-15.46770847 144.82923718 -15.47073894 140.48260851 -15.46883965 136.13574123 C-15.46871962 132.50219403 -15.47729588 128.86868664 -15.48561716 125.23515058 C-15.50481368 116.66585436 -15.50774717 108.09665557 -15.50097656 99.52734375 C-15.49432314 90.69013341 -15.51726084 81.85333912 -15.55429029 73.01621318 C-15.58496614 65.41938903 -15.59635009 57.82269896 -15.59245348 50.2258141 C-15.59038551 45.69231304 -15.5958741 41.15913658 -15.62034607 36.62569427 C-15.64257868 32.36714883 -15.640765 28.10928303 -15.62041855 23.85073471 C-15.61700339 22.28864135 -15.62211945 20.72650247 -15.63640213 19.16447067 C-15.65456336 17.03111383 -15.64187441 14.90007124 -15.62145996 12.76678467 C-15.62217247 11.57369061 -15.62288498 10.38059654 -15.62361908 9.15134811 C-14.81861353 5.08339575 -13.14821853 3.60457819 -10 1 C-6.78118963 -0.60940519 -3.49230956 -0.45015878 0 0 Z " fill="#000000" transform="translate(15,266)"/>
<path d="M0 0 C1.34144879 -0.00435559 2.68289509 -0.00954154 4.02433777 -0.01548767 C7.6443582 -0.02879946 11.26427372 -0.02946501 14.88431382 -0.02692437 C17.91822851 -0.02584909 20.95212245 -0.03075231 23.98603266 -0.03552979 C31.15086071 -0.04659845 38.31563631 -0.04707763 45.48046875 -0.04101562 C52.84395906 -0.03498078 60.20725805 -0.04728042 67.57071573 -0.06858569 C73.91754133 -0.08626655 80.2643064 -0.09219279 86.61115569 -0.08894795 C90.3908307 -0.08714488 94.17036929 -0.08967252 97.95002174 -0.10366249 C101.5083415 -0.11634201 105.06636566 -0.11420248 108.62468147 -0.1012516 C110.53313104 -0.09780116 112.44159008 -0.10898939 114.3500061 -0.12081909 C128.50277878 -0.03558096 140.03072136 3.22176441 150.68823242 12.7746582 C158.51097543 20.99489832 162.6496523 31.66120478 162.59838867 42.88793945 C162.59516602 44.13510742 162.59194336 45.38227539 162.58862305 46.66723633 C162.58024414 47.96081055 162.57186523 49.25438477 162.56323242 50.5871582 C162.5587207 51.90006836 162.55420898 53.21297852 162.54956055 54.56567383 C162.53779191 57.80204831 162.52135002 61.03832998 162.50073242 64.2746582 C163.06781072 64.27189282 163.63488901 64.26912745 164.2191515 64.26627827 C178.05932133 64.19983546 191.89946297 64.15048094 205.73975849 64.11922169 C212.43301382 64.10379587 219.12614654 64.08240995 225.81933594 64.04833984 C232.28380144 64.01564153 238.74815614 63.99778302 245.21269798 63.99002647 C247.67373586 63.98450177 250.13476798 63.97371352 252.59575844 63.95746803 C256.05420459 63.93555495 259.51219825 63.93269712 262.97070312 63.93408203 C263.97843781 63.9232962 264.98617249 63.91251038 266.02444458 63.90139771 C279.22543285 63.95825453 290.79314993 68.17817781 300.57885742 77.12231445 C308.14330196 85.59387734 311.80518903 95.23887269 311.79125977 106.51391602 C311.8013356 107.703265 311.8013356 107.703265 311.81161499 108.91664124 C311.83050725 111.52042019 311.83451493 114.1239401 311.83666992 116.7277832 C311.84310469 118.55230817 311.84983355 120.37683213 311.85684204 122.20135498 C311.86879344 126.02089833 311.87252514 129.84035139 311.87133789 133.65991211 C311.871135 138.52962595 311.89841597 143.39875427 311.93288231 148.26832962 C311.95523451 152.03640345 311.95917287 155.80433831 311.95811844 159.57247162 C311.9604627 161.3664425 311.96921922 163.16041791 311.98478317 164.95432281 C312.09273144 178.68315834 310.91805413 189.55760929 301.50073242 200.2746582 C300.99928711 200.88051758 300.4978418 201.48637695 299.98120117 202.1105957 C294.51881419 208.19763522 286.57648871 212.73906536 278.50073242 214.2746582 C276.04003609 214.36588726 273.60851032 214.40525957 271.14825439 214.39491272 C270.03444338 214.39619436 270.03444338 214.39619436 268.89813113 214.39750189 C266.40919507 214.39914944 263.92032635 214.39364716 261.43139648 214.38818359 C259.64757794 214.38790154 257.86375927 214.38805981 256.0799408 214.3886261 C251.2352807 214.38891336 246.39064529 214.38302806 241.54599094 214.37605214 C236.48376655 214.36980683 231.42154161 214.36921387 226.35931396 214.36802673 C216.77233936 214.3649169 207.18537614 214.35670818 197.59840655 214.34667724 C186.68437547 214.33550533 175.77034384 214.33000293 164.85630846 214.32498181 C142.40444347 214.3145253 119.95258858 214.29693256 97.50073242 214.2746582 C97.47495117 213.32204102 97.44916992 212.36942383 97.42260742 211.38793945 C97.36588867 210.13368164 97.30916992 208.87942383 97.25073242 207.5871582 C97.20432617 206.34579102 97.15791992 205.10442383 97.11010742 203.82543945 C96.42066084 199.80808725 95.38169602 198.1083067 92.50073242 195.2746582 C89.12938426 194.15087548 86.55153765 194.133983 82.99731445 194.11352539 C82.34166504 194.10856049 81.68601562 194.10359558 81.01049805 194.09848022 C78.84316963 194.08388467 76.6759144 194.07706114 74.50854492 194.0715332 C73.00023395 194.06577978 71.491923 194.06002207 69.98361206 194.05426025 C66.82118388 194.04375781 63.65878106 194.03791014 60.49633789 194.03442383 C56.44882793 194.0289394 52.40165442 194.00490957 48.35424995 193.97645187 C45.23838325 193.95780673 42.12259731 193.95261891 39.00667953 193.95108795 C37.51477086 193.94806533 36.02286348 193.94004992 34.53100967 193.92690277 C32.44139413 193.90980162 30.35259704 193.9117318 28.26293945 193.91821289 C27.07507843 193.91456726 25.88721741 193.91092163 24.6633606 193.90716553 C21.14663404 194.31580391 19.30844954 195.15172262 16.50073242 197.2746582 C14.07593506 200.91185425 14.11410665 203.13169302 13.87573242 207.4621582 C13.8009668 208.73446289 13.72620117 210.00676758 13.64916992 211.31762695 C13.60018555 212.29344727 13.55120117 213.26926758 13.50073242 214.2746582 C-9.90871868 214.3682054 -33.31814166 214.43868832 -56.7277422 214.48190689 C-67.59785533 214.50250969 -78.46785216 214.53058665 -89.33789062 214.57641602 C-98.81503765 214.61635365 -108.29210041 214.6421076 -117.76932925 214.65101218 C-122.78491729 214.65621519 -127.80026431 214.66839654 -132.81577492 214.69757843 C-137.54274642 214.72485702 -142.26937907 214.73307816 -146.99642181 214.72708893 C-148.72531924 214.72818362 -150.45422875 214.73606307 -152.18305779 214.7514801 C-165.51705654 214.86449121 -176.17336829 213.34826758 -186.49926758 204.2746582 C-187.10512695 203.77321289 -187.71098633 203.27176758 -188.33520508 202.75512695 C-194.41779383 197.29673399 -198.97437986 189.34798976 -200.49926758 181.2746582 C-200.60852056 178.633364 -200.66672796 176.01765197 -200.67626953 173.37597656 C-200.68284073 172.58351532 -200.68941193 171.79105408 -200.69618225 170.97457886 C-200.71587373 168.35455216 -200.72757137 165.7345828 -200.73754883 163.11450195 C-200.74162436 162.21619722 -200.74569988 161.31789249 -200.74989891 160.39236641 C-200.77074646 155.63348752 -200.78505134 150.87463731 -200.79443359 146.11572266 C-200.80546823 141.22241624 -200.83983773 136.32956828 -200.87960529 131.4364233 C-200.90587307 127.65549428 -200.91413463 123.87467258 -200.91771507 120.09366035 C-200.92255834 118.29130536 -200.93410711 116.48895443 -200.95275307 114.68668938 C-201.09383233 100.14106786 -199.38870635 88.68255411 -189.49926758 77.2746582 C-178.45757395 66.90817606 -167.02198281 63.94257021 -152.19628906 64.04760742 C-150.55571785 64.04716934 -150.55571785 64.04716934 -148.88200378 64.04672241 C-145.29470675 64.04810715 -141.70762174 64.06362806 -138.12036133 64.0793457 C-135.62215793 64.08307887 -133.12395307 64.08592441 -130.62574768 64.08792114 C-124.73987735 64.09475707 -118.85408433 64.1104932 -112.96824557 64.13062012 C-105.60294861 64.15525421 -98.23764212 64.16592856 -90.87231445 64.17700195 C-77.74792744 64.1984098 -64.62360228 64.23212892 -51.49926758 64.2746582 C-51.52283325 63.08090576 -51.52283325 63.08090576 -51.546875 61.86303711 C-51.60977183 58.20865164 -51.64843133 54.5543806 -51.68676758 50.8996582 C-51.7119043 49.64797852 -51.73704102 48.39629883 -51.76293945 47.10668945 C-51.8720621 33.21173943 -48.35027396 22.38719325 -38.87426758 12.0246582 C-27.77305823 1.53900349 -14.55888619 -0.02910641 0 0 Z M-8.49926758 44.2746582 C-8.49926758 50.8746582 -8.49926758 57.4746582 -8.49926758 64.2746582 C33.74073242 64.2746582 75.98073242 64.2746582 119.50073242 64.2746582 C119.50073242 57.6746582 119.50073242 51.0746582 119.50073242 44.2746582 C77.26073242 44.2746582 35.02073242 44.2746582 -8.49926758 44.2746582 Z " fill="#000000" transform="translate(200.499267578125,41.725341796875)"/>
</svg>
