<?xml version="1.0" encoding="UTF-8"?>
<svg version="1.1" viewBox="0 0 2048 2048" width="1280" height="1280" xmlns="http://www.w3.org/2000/svg">
<path transform="translate(34,1065)" d="m0 0h17l11 4 15 10 13 8 19 9 18 6 19 4 17 2 127 1h563l1 1 1 134 3 10 5 9 7 7 12 6 8 2h268l13-4 9-6 7-8 4-9 2-10 1-132h542l144-1 22-2 19-4 20-7 16-8 15-9 14-9 8-3 4-1h15l11 4 9 6 5 5 7 10 3 6v641h-3l-1 10-9 27-12 23-10 14-8 10-15 15-13 10-18 11-19 9-19 6-20 4-25 2h-1699l-23-1-20-3-21-6-23-10-13-8-11-8-13-11-11-11-13-17-8-13-8-16-6-16-6-23-1-4v-635l8-15 7-7 10-6zm2012 668 1 3z"/>
<path transform="translate(758,170)" d="m0 0h528l22 2 16 3 23 8 23 12 14 10 14 12 11 11 13 17 9 15 8 17 7 21 4 21 1 11v96h431l17 1 22 4 18 6 15 7 13 7 13 9 11 9 7 6v2h2l7 8 11 14 8 13 8 16 6 15 6 21 2 2v318h-2l-6 23-8 20-10 18-10 14-12 14-7 7-14 11-10 7-18 10-20 8-25 6-19 2h-693l-1-47-3-13-7-11-7-6-10-5-8-2h-268l-9 2-9 5-8 7-6 10-3 10-1 49-1 1h-693l-19-2-21-5-21-8-17-9-13-9-11-9-19-19-12-16-11-19-8-20-5-18-3-12v-307l4-15 5-16 6-15 9-17 9-13 8-10 5-6h2l2-4h2l1-3 8-7 18-13 18-10 20-8 19-5 12-2 13-1h435v-46l1-55 4-24 5-17 9-20 7-13 12-17 12-13 10-10 13-10 16-10 21-10 15-5 18-4zm65 171-54 1-1 17v67h511v-84l-87-1z"/>
</svg>
