<?xml version="1.0" encoding="UTF-8"?>
<svg version="1.1" xmlns="http://www.w3.org/2000/svg" width="90" height="90">
<path d="M0 0 C4.00511674 2.0154781 6.2705162 4.42472112 8.5 8.27734375 C9.86643982 12.78404898 9.55278809 16.38415475 7.67578125 20.66796875 C7.0828125 21.73917969 6.48984375 22.81039063 5.87890625 23.9140625 C4.1845459 27.2118249 4.1845459 27.2118249 3.12890625 30.3515625 C4.43102681 33.88850528 4.43102681 33.88850528 7.12890625 36.3515625 C10.38277755 43.34738578 10.13629854 51.33863067 7.62890625 58.5390625 C4.43452291 65.56447202 -0.5579366 70.59597234 -7.55859375 73.8515625 C-12.72758258 75.71079569 -17.56292719 75.51990305 -22.98828125 75.1015625 C-26.63371027 75.41769727 -27.53489507 76.65312178 -29.87109375 79.3515625 C-31.80859375 79.4765625 -31.80859375 79.4765625 -33.87109375 78.3515625 C-35.70528591 76.44379243 -37.25576383 74.46046546 -38.87109375 72.3515625 C-41.34609375 72.8465625 -41.34609375 72.8465625 -43.87109375 73.3515625 C-43.53078125 74.99125 -43.53078125 74.99125 -43.18359375 76.6640625 C-42.87109375 80.3515625 -42.87109375 80.3515625 -43.99609375 82.3515625 C-45.87109375 83.3515625 -45.87109375 83.3515625 -48.18359375 83.18359375 C-51.58280004 82.1312232 -53.24150377 80.54775836 -55.74609375 78.0390625 C-56.54789063 77.25917969 -57.3496875 76.47929688 -58.17578125 75.67578125 C-59.87109375 73.3515625 -59.87109375 73.3515625 -59.75390625 71.18359375 C-58.87109375 69.3515625 -58.87109375 69.3515625 -56.87109375 67.3515625 C-53.74609375 67.2265625 -53.74609375 67.2265625 -50.87109375 67.3515625 C-50.21109375 65.7015625 -49.55109375 64.0515625 -48.87109375 62.3515625 C-51.18109375 60.3715625 -53.49109375 58.3915625 -55.87109375 56.3515625 C-54.87109375 52.3515625 -54.87109375 52.3515625 -52.87109375 50.3515625 C-49.24609375 50.7265625 -49.24609375 50.7265625 -45.87109375 51.3515625 C-45.99484375 49.4334375 -45.99484375 49.4334375 -46.12109375 47.4765625 C-46.08647371 40.13711459 -43.64145973 33.85306429 -38.62109375 28.4765625 C-33.15073695 23.50882395 -26.94848611 21.12091059 -19.87109375 19.3515625 C-20.09796875 18.1553125 -20.32484375 16.9590625 -20.55859375 15.7265625 C-21.07812358 11.39460051 -20.3959948 9.01674144 -17.87109375 5.3515625 C-12.80657123 0.24564062 -7.23572913 -2.50758045 0 0 Z " fill="#393C6F" transform="translate(69.87109375,2.6484375)"/>
<path d="M0 0 C2.62550147 2.24128174 3.2082665 2.79319455 4 6 C4.01561262 10.38714638 3.59289587 14.65639333 3 19 C6.153368 19.70074844 8.72724974 20 12 20 C11.875 21.6875 11.875 21.6875 11 24 C9.4840625 25.2065625 9.4840625 25.2065625 7.9375 26.4375 C4.7295034 28.66688159 4.7295034 28.66688159 4.625 31.8125 C4.74875 32.534375 4.8725 33.25625 5 34 C7.31 34.99 9.62 35.98 12 37 C12 38.98 12 40.96 12 43 C4.84120535 47.58162858 -1.62392621 47.67052559 -10 47 C-10.66 46.67 -11.32 46.34 -12 46 C-10.1682243 41.28971963 -10.1682243 41.28971963 -8.875 39.0625 C-7.62830685 36.12386615 -7.54808713 34.16339009 -8 31 C-10.12642284 28.52875183 -12.25020999 26.54984601 -14.875 24.625 C-16 23 -16 23 -15.875 19.5 C-14.97558295 15.9023318 -14.43298126 15.43298126 -12 13 C-12.24205349 9.68181015 -12.24205349 9.68181015 -14 7 C-14.04063832 5.33382885 -14.042721 3.66611905 -14 2 C-9.04187624 0.0167505 -5.26209908 -0.67898053 0 0 Z " fill="#F9F9FB" transform="translate(54,27)"/>
<path d="M0 0 C3.63467079 1.62400184 4.77408696 2.66113044 7 6 C7.96185783 13.83227089 5.16408283 19.69000608 0.5546875 25.96875 C-0.58581048 27.35038184 -1.78627005 28.68223606 -3 30 C-7.39858739 28.51399075 -9.07923289 25.21002189 -11.25 21.375 C-11.61351562 20.78332031 -11.97703125 20.19164063 -12.3515625 19.58203125 C-15.06081771 14.86629757 -15.55825627 11.42467199 -15 6 C-12.02288625 -0.25777636 -6.3163266 -1.18868139 0 0 Z " fill="#F1F1F5" transform="translate(68,6)"/>
<path d="M0 0 C3.89697158 3.63717348 5.78283669 6.01581314 6.37109375 11.390625 C6.5082231 19.36025998 6.22086077 24.60444556 1 31 C0.443125 30.195625 -0.11375 29.39125 -0.6875 28.5625 C-3.21864487 25.75771784 -4.32579134 25.30618405 -8 25 C-7.875 23.3125 -7.875 23.3125 -7 21 C-5.989375 20.21625 -4.97875 19.4325 -3.9375 18.625 C-0.65956426 16.28219324 -0.65956426 16.28219324 -0.625 12.6875 C-0.74875 11.800625 -0.8725 10.91375 -1 10 C-3.97 10 -6.94 10 -10 10 C-10 8.02 -10 6.04 -10 4 C-7.66666667 4 -5.33333333 4 -3 4 C-1.29467677 2.05990478 -1.29467677 2.05990478 0 0 Z " fill="#F3F3F6" transform="translate(69,35)"/>
<path d="M0 0 C2.5 1.5 2.5 1.5 4 4 C4.791013 8.02098277 4.62153384 10.96411027 2.5 14.5 C-1.02309336 16.61385602 -3.99667231 16.9352036 -8 16 C-11.2883921 13.28707652 -11.90851499 11.65183071 -12.5 7.4375 C-12 4 -12 4 -10.5 1.5625 C-6.97441116 -0.64099302 -4.04985528 -0.79669284 0 0 Z " fill="#3A3D70" transform="translate(68,9)"/>
<path d="M0 0 C1.36716078 7.45724059 1.36716078 7.45724059 -0.4375 10.125 C-0.953125 10.74375 -1.46875 11.3625 -2 12 C-2.4491436 16.22194982 -1.7987144 19.17773189 0 23 C-4.34134615 26.10096154 -4.34134615 26.10096154 -7.67578125 25.58984375 C-8.44277344 25.39519531 -9.20976562 25.20054688 -10 25 C-10.90562607 10.67098306 -10.90562607 10.67098306 -6.38671875 4.55078125 C-2.31738035 0 -2.31738035 0 0 0 Z " fill="#F5F5F8" transform="translate(38,32)"/>
<path d="M0 0 C0.99 0.66 1.98 1.32 3 2 C2.59841967 4.8913784 2.25596589 6.67236367 0.4375 9 C-1.17611498 10.93912525 -1.17611498 10.93912525 -1.4375 13.5 C-0.86820611 16.75310796 0.63674747 17.78445075 3 20 C3 20.99 3 21.98 3 23 C3.33 23.33 3.66 23.66 4 24 C4.30172745 27.39443386 4.35204436 29.39192338 2.625 32.375 C2.08875 32.91125 1.5525 33.4475 1 34 C0.34 34 -0.32 34 -1 34 C-1.90064221 31.4782018 -2.19407719 30.42696982 -1.0625 27.9375 C-0.711875 27.298125 -0.36125 26.65875 0 26 C0 25.01 0 24.02 0 23 C-0.99 22.34 -1.98 21.68 -3 21 C-4.96239344 17.28178085 -5.44415242 14.17503279 -5 10 C-3.625 8 -3.625 8 -2 6 C-1.27648573 4.01985568 -0.59734611 2.02178685 0 0 Z " fill="#414475" transform="translate(40,34)"/>
<path d="M0 0 C0.33 0.66 0.66 1.32 1 2 C-3.06482512 7.8664509 -7.47509294 13.73754647 -14 17 C-14 19.31 -14 21.62 -14 24 C-18.2742558 22.4169423 -20.26531794 19.49431596 -23 16 C-19.71023192 14.90341064 -18.28696233 15.20046862 -15 16 C-14.74863281 15.26007813 -14.49726563 14.52015625 -14.23828125 13.7578125 C-11.56176667 7.79686836 -5.79146591 2.89573295 0 0 Z " fill="#ECEDF1" transform="translate(37,58)"/>
<path d="M0 0 C3.63467079 1.62400184 4.77408696 2.66113044 7 6 C7.25760279 8.69452521 7.08900053 11.28548375 7 14 C6.01 13.67 5.02 13.34 4 13 C3.33984375 11.1875 3.33984375 11.1875 2.9375 9 C2.57299127 6.85944703 2.57299127 6.85944703 2 5 C-1.11549872 3.44225064 -4.6044388 3.43519378 -8 4 C-9.83431653 5.14156336 -9.83431653 5.14156336 -11 7 C-11.36146457 9.28330101 -11.36146457 9.28330101 -11.1875 11.6875 C-11.16042969 12.49574219 -11.13335937 13.30398437 -11.10546875 14.13671875 C-11.07066406 14.75160156 -11.03585938 15.36648437 -11 16 C-11.99 16 -12.98 16 -14 16 C-15.63225144 12.73549711 -15.6640209 9.51540474 -15 6 C-11.61820656 -0.14402168 -6.5786631 -1.23805099 0 0 Z " fill="#DFE0E8" transform="translate(68,6)"/>
<path d="M0 0 C2.9375 0.875 2.9375 0.875 4.9375 3.875 C4.6133631 7.19740324 4.32973697 8.48276303 1.9375 10.875 C-1.0625 11.125 -1.0625 11.125 -4.0625 10.875 C-6.0625 8.875 -6.0625 8.875 -6.375 5.9375 C-6.0625 2.875 -6.0625 2.875 -4.9375 0.9375 C-3.0625 -0.125 -3.0625 -0.125 0 0 Z " fill="#F3F4F6" transform="translate(65.0625,11.125)"/>
<path d="M0 0 C1.1577506 3.47325181 1.06866652 6.36067448 1 10 C-3.2742558 8.4169423 -5.26531794 5.49431596 -8 2 C-4.71023192 0.90341064 -3.28696233 1.20046862 0 2 C0 1.34 0 0.68 0 0 Z " fill="#E1E1E9" transform="translate(22,72)"/>
<path d="M0 0 C2.56231463 3.56893823 2.03861266 6.10831014 1.75 10.4375 C0.76 10.1075 -0.23 9.7775 -1.25 9.4375 C-2.28131735 6.82887376 -2.68057449 4.19702365 -3.25 1.4375 C-5.89 0.7775 -8.53 0.1175 -11.25 -0.5625 C-11.25 -0.8925 -11.25 -1.2225 -11.25 -1.5625 C-6.53297306 -2.74175673 -4.0323466 -2.8002407 0 0 Z " fill="#DDDDE6" transform="translate(73.25,9.5625)"/>
<path d="M0 0 C3.875 1.75 3.875 1.75 5 4 C5.30343947 7.48955396 5.39470082 9.37505704 3.5 12.375 C3.005 12.91125 2.51 13.4475 2 14 C1.34 13.67 0.68 13.34 0 13 C0.09539063 12.38511719 0.19078125 11.77023438 0.2890625 11.13671875 C0.39992187 10.32847656 0.51078125 9.52023438 0.625 8.6875 C0.74101563 7.88699219 0.85703125 7.08648437 0.9765625 6.26171875 C1.21533407 3.71276785 1.21533407 3.71276785 -1 1 C-0.67 0.67 -0.34 0.34 0 0 Z " fill="#4A4D7C" transform="translate(42,54)"/>
<path d="M0 0 C0.99 0.66 1.98 1.32 3 2 C3.44935048 5.44502033 3.37778761 7.34745776 1.625 10.375 C1.08875 10.91125 0.5525 11.4475 0 12 C-0.66 12 -1.32 12 -2 12 C-3.12377697 8.69564916 -2.89554742 6.9493138 -1.5625 3.75 C-1.27503906 3.04359375 -0.98757812 2.3371875 -0.69140625 1.609375 C-0.46324219 1.07828125 -0.23507813 0.5471875 0 0 Z " fill="#E4E5EB" transform="translate(41,56)"/>
<path d="M0 0 C3.53677664 -0.32152515 5.3962104 -0.4131192 8.375 1.625 C10.4131192 4.6037896 10.32152515 6.46322336 10 10 C9.34 10 8.68 10 8 10 C7.814375 9.05125 7.62875 8.1025 7.4375 7.125 C6.26599195 3.61628301 6.26599195 3.61628301 2.375 2.625 C1.26125 2.41875 0.1475 2.2125 -1 2 C-0.67 1.34 -0.34 0.68 0 0 Z " fill="#393C6F" transform="translate(62,9)"/>
<path d="M0 0 C0.66 0 1.32 0 2 0 C5 6.625 5 6.625 5 10 C1.31197956 8.77065985 0.27643027 7.06140622 -2 4 C-1.34 2.68 -0.68 1.36 0 0 Z " fill="#D8D9E3" transform="translate(35,68)"/>
<path d="M0 0 C4.49029126 -0.36407767 4.49029126 -0.36407767 6.75 1.25 C8.12041836 3.16858571 8.6018827 4.69091968 9 7 C8.34 7 7.68 7 7 7 C6.01 8.485 6.01 8.485 5 10 C4.67 8.02 4.34 6.04 4 4 C2.35 3.67 0.7 3.34 -1 3 C-0.67 2.01 -0.34 1.02 0 0 Z " fill="#575985" transform="translate(61,60)"/>
<path d="M0 0 C0.99 0 1.98 0 3 0 C3.33 3.3 3.66 6.6 4 10 C3.01 10 2.02 10 1 10 C-0.60725635 6.78548731 -0.05748185 3.56387464 0 0 Z " fill="#E0E1E9" transform="translate(53,12)"/>
<path d="M0 0 C3.34373475 0.55728913 6.03312999 1.35173889 9 3 C8.67 3.99 8.34 4.98 8 6 C4.65750371 5.40312566 2.53563658 4.26396123 0 2 C0 1.34 0 0.68 0 0 Z " fill="#E8E8EE" transform="translate(19,57)"/>
<path d="M0 0 C0.99 0 1.98 0 3 0 C1.95125002 2.62187494 1.35068687 3.79371361 -1.125 5.25 C-1.74375 5.4975 -2.3625 5.745 -3 6 C-3 5.34 -3 4.68 -3 4 C-4.32 3.67 -5.64 3.34 -7 3 C-5.5459375 2.5359375 -5.5459375 2.5359375 -4.0625 2.0625 C-1.15934208 1.30476658 -1.15934208 1.30476658 0 0 Z " fill="#4F5280" transform="translate(69,19)"/>
<path d="M0 0 C1.65 1.32 3.3 2.64 5 4 C4.01 4.99 3.02 5.98 2 7 C1.01 6.34 0.02 5.68 -1 5 C-0.67 3.35 -0.34 1.7 0 0 Z " fill="#575985" transform="translate(38,50)"/>
<path d="M0 0 C0.66 0.33 1.32 0.66 2 1 C1.01 3.97 0.02 6.94 -1 10 C-1.99 8.68 -2.98 7.36 -4 6 C-2.84826645 3.53199953 -1.95216435 1.95216435 0 0 Z " fill="#545683" transform="translate(60,9)"/>
<path d="M0 0 C0.99 0.66 1.98 1.32 3 2 C2.67 3.32 2.34 4.64 2 6 C1.67 5.67 1.34 5.34 1 5 C0.01 6.485 0.01 6.485 -1 8 C-1.66 7.67 -2.32 7.34 -3 7 C-2.01 4.69 -1.02 2.38 0 0 Z " fill="#63658E" transform="translate(40,34)"/>
<path d="M0 0 C3.35770877 2.23847252 3.2145965 2.40958399 4 6 C4.66 6.66 5.32 7.32 6 8 C1.125 7.125 1.125 7.125 0 6 C-0.04080783 4.00041636 -0.04254356 1.99954746 0 0 Z " fill="#61648C" transform="translate(56,40)"/>
<path d="M0 0 C3.625 -0.1875 3.625 -0.1875 7 0 C6.67 0.66 6.34 1.32 6 2 C3.35139573 2.59355614 0.70802678 2.74209269 -2 3 C-1.34 2.01 -0.68 1.02 0 0 Z " fill="#F7F7F9" transform="translate(61,6)"/>
</svg>
