<?xml version="1.0" encoding="UTF-8"?>
<svg version="1.1" xmlns="http://www.w3.org/2000/svg" width="437" height="512">
<path d="M0 0 C1.30365551 1.08998583 2.59459989 2.19528814 3.875 3.3125 C4.84308594 4.08464844 5.81117188 4.85679688 6.80859375 5.65234375 C20.39756874 16.99564697 29.52749573 36.51195309 31.11425781 53.94042969 C31.933348 67.2151819 30.77654835 78.94964038 25.875 91.3125 C25.606875 92.00553223 25.33875 92.69856445 25.0625 93.41259766 C16.77608674 114.41155811 4.4052484 133.63954759 -8.125 152.3125 C-5.393539 155.97171387 -2.66041555 159.62621134 0.1484375 163.2265625 C11.30592479 177.61930632 19.7815201 193.77831469 25.125 211.1875 C25.35912598 211.94047363 25.59325195 212.69344727 25.83447266 213.46923828 C29.91541678 227.46146462 31.40877507 241.23958979 31.25 255.75 C31.24534729 256.51386017 31.24069458 257.27772034 31.23590088 258.06472778 C31.15527648 269.37680344 30.73082708 280.32212983 27.875 291.3125 C27.68695801 292.07916992 27.49891602 292.84583984 27.30517578 293.63574219 C17.64013879 332.21900045 -7.40038482 366.23018144 -41.375 386.9375 C-55.58853009 395.31090798 -70.1248866 401.27811558 -86.125 405.3125 C-86.80981445 405.49184082 -87.49462891 405.67118164 -88.20019531 405.85595703 C-113.84789276 412.27744667 -145.42651995 410.16589151 -170.125 401.3125 C-169.795 402.3025 -169.465 403.2925 -169.125 404.3125 C-168.23639813 410.86593881 -168.23639813 410.86593881 -170.30078125 414.2265625 C-172.14832502 416.36953689 -174.09976939 418.33581944 -176.125 420.3125 C-177.07490272 421.28191206 -178.0226989 422.25339127 -178.96875 423.2265625 C-187.86991455 432.31502757 -187.86991455 432.31502757 -194.95703125 432.8359375 C-198.32847067 432.02193231 -199.82649782 429.84540043 -202.125 427.3125 C-202.97578125 426.41273438 -203.8265625 425.51296875 -204.703125 424.5859375 C-209.98523697 418.85592715 -215.05255211 413.03887466 -219.94140625 406.96484375 C-222.11897068 404.31982363 -224.37818763 401.78037475 -226.6875 399.25 C-231.06543926 394.44814057 -235.12689996 389.43268261 -239.125 384.3125 C-245.81565542 388.54654328 -252.47762068 392.82342146 -259.125 397.125 C-259.8667749 397.60493408 -260.6085498 398.08486816 -261.37280273 398.5793457 C-264.30075411 400.475642 -267.2224069 402.37743793 -270.125 404.3125 C-269.15643395 410.10110651 -268.03690029 415.77063542 -266.5 421.4375 C-263.95221818 431.70824545 -263.95221818 431.70824545 -265.125 436.3125 C-267.02566431 439.43636411 -269.49854905 441.78948804 -272.125 444.3125 C-273.07576428 445.27976125 -274.02350575 446.24999991 -274.96875 447.22265625 C-283.66411631 456.1109988 -283.66411631 456.1109988 -288.75 456.8125 C-292.3705942 456.73983675 -294.00519466 455.95464981 -296.65454102 453.5168457 C-297.35000031 452.87776276 -298.04545959 452.23867981 -298.76199341 451.58023071 C-303.57680214 446.95955395 -308.31384327 442.26646649 -313.02734375 437.54296875 C-314.15680112 436.41418627 -315.28640679 435.28555216 -316.41615295 434.15705872 C-318.76677288 431.80790344 -321.11559853 429.45697305 -323.46313477 427.10473633 C-326.47484833 424.08728656 -329.49108298 421.07440201 -332.50864315 418.06280041 C-334.83437067 415.74067829 -337.15772141 413.41618995 -339.48034859 411.09096718 C-340.59241884 409.97822964 -341.70523298 408.86623503 -342.81879997 407.75499535 C-344.36722409 406.20910164 -345.91242241 404.66005509 -347.45678711 403.11010742 C-348.33644638 402.22965256 -349.21610565 401.34919769 -350.12242126 400.44206238 C-353.0838828 397.29281438 -353.66824691 394.87736602 -353.58203125 390.51171875 C-352.65922105 386.07118764 -349.26928118 383.38140457 -346.125 380.3125 C-345.17509728 379.34308794 -344.2273011 378.37160873 -343.28125 377.3984375 C-334.45544878 368.38692157 -334.45544878 368.38692157 -329.14453125 368.08984375 C-323.78030473 368.14890931 -318.94850185 369.42460847 -313.8125 370.875 C-312.06884504 371.36424531 -310.3228005 371.84507252 -308.57421875 372.31640625 C-307.81455811 372.53111572 -307.05489746 372.7458252 -306.2722168 372.96704102 C-303.80650665 373.3637414 -302.42831615 373.28116758 -300.125 372.3125 C-298.70611821 370.71919625 -298.70611821 370.71919625 -297.609375 368.6640625 C-297.16634033 367.91044434 -296.72330566 367.15682617 -296.2668457 366.38037109 C-295.80753662 365.57422363 -295.34822754 364.76807617 -294.875 363.9375 C-290.64172424 356.74100256 -286.21863822 349.93860817 -281.125 343.3125 C-288.3765143 335.81926856 -296.30743071 329.11435381 -304.40625 322.5625 C-307.89134335 319.67828481 -311.2189783 316.63999012 -314.55859375 313.58984375 C-318.25435483 310.31034799 -322.10605666 307.23499772 -325.97265625 304.16015625 C-328.95304981 301.60166959 -329.07658142 300.6635347 -329.625 296.6875 C-329.51148827 290.93967875 -326.04625723 288.13975448 -322.125 284.3125 C-321.17509728 283.34308794 -320.2273011 282.37160873 -319.28125 281.3984375 C-310.55750977 272.49113015 -310.55750977 272.49113015 -305.8984375 271.91015625 C-299.1308446 271.99731233 -292.90924098 275.20494331 -286.75 277.75 C-285.45492876 278.27272901 -284.15935882 278.79422426 -282.86328125 279.31445312 C-273.79816277 282.97591861 -273.79816277 282.97591861 -271.125 284.3125 C-271.26429932 283.71131348 -271.40359863 283.11012695 -271.54711914 282.49072266 C-273.33956313 273.89811974 -273.56826336 265.42393719 -273.5625 256.6875 C-273.5625705 255.91860443 -273.56264099 255.14970886 -273.56271362 254.35751343 C-273.47384689 229.01213133 -268.26123895 202.77244668 -254.125 181.3125 C-253.35941204 179.90419623 -252.60574562 178.48919383 -251.875 177.0625 C-246.40826452 167.13695839 -238.88172466 158.50586148 -231.125 150.3125 C-230.30515625 149.42820313 -229.4853125 148.54390625 -228.640625 147.6328125 C-207.93231414 126.00549376 -180.12682857 112.65855891 -151.125 106.3125 C-150.00996094 106.06628906 -148.89492187 105.82007813 -147.74609375 105.56640625 C-137.95935007 103.75404631 -128.03581296 104.13463895 -118.125 104.3125 C-118.58390625 103.31992188 -119.0428125 102.32734375 -119.515625 101.3046875 C-128.56692189 81.43917428 -133.31004425 61.39438055 -126.51953125 39.87109375 C-122.41674911 29.40152925 -117.55660812 19.82962391 -110.125 11.3125 C-109.35285156 10.34441406 -108.58070313 9.37632813 -107.78515625 8.37890625 C-99.77117411 -1.22163081 -88.61503866 -7.26593272 -77.125 -11.6875 C-76.01253906 -12.12191406 -74.90007812 -12.55632813 -73.75390625 -13.00390625 C-49.0695884 -21.04522205 -20.46495623 -15.7264261 0 0 Z " fill="#303369" transform="translate(379.125,31.6875)"/>
<path d="M0 0 C3.36820987 3.94011234 5.22451361 8.52698103 7.04003906 13.33642578 C8.29862629 16.43363273 10.07326565 19.03666576 11.98828125 21.76611328 C12.61476563 22.70841797 13.24125 23.65072266 13.88671875 24.62158203 C15.3819392 26.74410761 16.8961772 28.7431793 18.52734375 30.75439453 C18.95781006 31.30901367 19.38827637 31.86363281 19.83178711 32.43505859 C21.039294 33.98372241 22.28420289 35.50301392 23.53125 37.02001953 C25.69464355 42.44365322 23.796244 46.16320904 21.92578125 51.51611328 C21.49100275 52.84381514 21.05998465 54.17275237 20.63208008 55.50268555 C19.67681958 58.46577437 18.71756681 61.42747426 17.75195312 64.38720703 C17.50372803 65.14888184 17.25550293 65.91055664 16.99975586 66.6953125 C16.4915816 68.24411163 15.97854571 69.79132396 15.46069336 71.33691406 C10.17077532 86.7012705 10.17077532 86.7012705 12.67578125 102.39111328 C16.23378522 109.31013831 20.38630583 114.04031257 27.92578125 116.51611328 C35.92722511 117.38974031 43.47974392 117.21952821 51.0390625 114.19580078 C55.25488824 112.6770561 58.74752082 112.96625841 62.73828125 114.82861328 C65.78197314 117.17660417 66.82000105 118.91669213 67.48828125 122.70361328 C65.94930831 133.13442989 52.58065025 141.03647313 44.92578125 147.51611328 C42.98986844 149.1621901 41.05557672 150.81011618 39.12329102 152.46044922 C37.94496022 153.46625281 36.76459231 154.46967689 35.58178711 155.47021484 C28.25594535 161.7059994 21.76198283 167.70242639 20.6875 177.74267578 C20.45623158 185.21629749 21.71414571 191.80984407 26.7265625 197.59423828 C34.62874471 204.89800281 41.64086544 205.93021506 51.98632812 206.04345703 C57.01477416 206.18012143 60.58764475 206.68195323 64.92578125 209.51611328 C66.90528288 212.48536572 67.2980788 213.74758925 67.77734375 217.15673828 C67.90625 218.06294922 68.03515625 218.96916016 68.16796875 219.90283203 C68.29429687 220.84771484 68.420625 221.79259766 68.55078125 222.76611328 C68.751875 224.16023438 68.751875 224.16023438 68.95703125 225.58251953 C70.33453546 235.52022848 70.33453546 235.52022848 69.92578125 240.51611328 C54.17484842 258.18789158 21.90262455 268.59690507 -1.07421875 270.51611328 C-15.91571927 271.2648072 -30.67706561 271.54388827 -45.07421875 267.51611328 C-46.37535118 267.19581918 -47.67748506 266.87957237 -48.98046875 266.56689453 C-64.0463266 262.87229509 -64.0463266 262.87229509 -69.07421875 259.51611328 C-70.07421875 256.51611328 -70.07421875 256.51611328 -68.95361328 254.04272461 C-68.37724121 253.07101318 -67.80086914 252.09930176 -67.20703125 251.09814453 C-66.25521973 249.47465088 -66.25521973 249.47465088 -65.28417969 247.81835938 C-64.94350464 247.24817078 -64.60282959 246.67798218 -64.25183105 246.09051514 C-63.19671549 244.32442323 -62.15383804 242.55164191 -61.11425781 240.77636719 C-59.73880426 238.42919416 -58.35927702 236.08451369 -56.97558594 233.7421875 C-54.55966496 229.64306323 -52.17548632 225.52760253 -49.82421875 221.39111328 C-49.47891113 220.79661377 -49.13360352 220.20211426 -48.77783203 219.58959961 C-42.3366785 208.25024897 -40.19978285 195.97398129 -42.7578125 183.06689453 C-46.91890234 168.47718119 -54.92908629 157.6623224 -68.19921875 150.26611328 C-70.48640345 149.0077377 -72.7804476 147.76248772 -75.07421875 146.51611328 C-83.84546306 141.45813094 -88.25320599 133.62252824 -91.3828125 124.20751953 C-93.53141862 115.84373638 -91.83253197 107.83246615 -87.890625 100.23486328 C-85.09828315 95.74180331 -81.8145807 92.18315873 -78.01171875 88.51611328 C-70.13150565 80.87289907 -66.132709 72.70210636 -65.69921875 61.64111328 C-65.87175962 52.99250229 -69.21485451 47.103509 -74.609375 40.53564453 C-78.86590925 34.66730265 -79.48030782 30.16959253 -79.26171875 23.14111328 C-79.24141602 21.89394531 -79.24141602 21.89394531 -79.22070312 20.62158203 C-79.18560934 18.58614263 -79.13181103 16.55104038 -79.07421875 14.51611328 C-69.6049823 9.50799336 -60.49419747 5.2368855 -50.07421875 2.51611328 C-49.02234375 2.21447266 -49.02234375 2.21447266 -47.94921875 1.90673828 C-35.88499565 -1.41092307 -10.8795509 -7.78318154 0 0 Z " fill="#FEFEFE" transform="translate(273.07421875,153.48388671875)"/>
<path d="M0 0 C13.42162997 10.53081736 23.18715135 24.971447 26 42 C29.0930167 78.62584408 -0.52440993 117.08102687 -21 145 C-21.91289795 146.24547607 -21.91289795 146.24547607 -22.84423828 147.51611328 C-26.44136681 152.41635252 -30.05137777 157.30677094 -33.67822266 162.18505859 C-34.82611331 163.76123501 -35.91840786 165.37761179 -37 167 C-37.66 167 -38.32 167 -39 167 C-40.29003906 165.57324219 -40.29003906 165.57324219 -41.765625 163.546875 C-42.31879395 162.79277344 -42.87196289 162.03867188 -43.44189453 161.26171875 C-44.03856934 160.43285156 -44.63524414 159.60398438 -45.25 158.75 C-45.87116699 157.89535156 -46.49233398 157.04070312 -47.13232422 156.16015625 C-49.09758719 153.44671683 -51.05051499 150.72479295 -53 148 C-53.90830566 146.73446289 -53.90830566 146.73446289 -54.83496094 145.44335938 C-104.88803625 75.50618565 -104.88803625 75.50618565 -102 42 C-99.22385855 25.71448231 -90.08953212 11.1921359 -77.3125 0.8125 C-53.96707865 -15.55719784 -23.44067342 -17.68331504 0 0 Z " fill="#FCFCFD" transform="translate(368,44)"/>
<path d="M0 0 C11.86682065 4.59705665 19.70123634 24.69347644 24.6875 35.6875 C38.92947491 68.32752796 38.57185338 105.55759343 25.97802734 138.56494141 C19.95042977 153.572245 11.24965903 169.29172177 0 181 C-0.66 181 -1.32 181 -2 181 C-2.08636719 179.96101562 -2.17273438 178.92203125 -2.26171875 177.8515625 C-3.30731307 166.89583839 -5.04308637 157.69663996 -13.86328125 150.25390625 C-21.24275988 145.92335298 -27.87319841 145.56334648 -36.19726562 145.47265625 C-40.94792907 145.34333475 -44.12242355 145.05965017 -48 142 C-50.57189679 138.57080428 -50.502142 135.16060514 -50 131 C-46.66958535 125.71727331 -41.73488297 122.22386229 -36.89453125 118.35546875 C-33.32318523 115.4492317 -29.9444939 112.36327946 -26.546875 109.2578125 C-23.85047856 106.86744879 -21.06725599 104.62119059 -18.25 102.375 C-11.0156945 96.48946332 -4.68845574 90.63807321 -3.68359375 80.94921875 C-3.37190576 72.23200937 -4.73632991 66.88112119 -10.3125 60.25 C-18.02589112 53.7922772 -25.08292596 52.25528856 -35 53 C-37.38546502 53.62690194 -37.38546502 53.62690194 -39.5625 54.5 C-44.66051335 56.42220175 -49.61518583 57.04112097 -55 56 C-57.83880089 54.27096792 -58.3687914 53.09367148 -60 50 C-60.97546605 44.47235907 -59.12520744 40.18448649 -57.1484375 35.109375 C-55.47106301 30.56791209 -54.21678483 25.92611691 -52.9296875 21.26171875 C-52.03988497 18.13993255 -51.05004062 15.0711365 -50 12 C-45.42543006 16.36625619 -41.66846552 21.158773 -37.84179688 26.1796875 C-34.42720359 30.78006561 -34.42720359 30.78006561 -29.1875 32.375 C-22.88679005 31.63374001 -18.96103817 24.64176707 -15.1875 19.875 C-14.66631592 19.22063965 -14.14513184 18.5662793 -13.6081543 17.89208984 C-9.74507145 13.01309536 -6.0368278 8.04548498 -2.42578125 2.9765625 C-1 1 -1 1 0 0 Z " fill="#FDFDFD" transform="translate(359,199)"/>
<path d="M0 0 C9.29557491 8.55882614 14.96195769 19.52306739 15.83984375 32.08984375 C16.29290962 46.77963339 12.14281958 59.43490917 2.12890625 70.3203125 C-8.53592753 80.42214601 -21.60991605 84.60294625 -36.10546875 84.31640625 C-49.09641705 83.3374233 -60.17388712 77.36657172 -69.07421875 67.984375 C-78.2897728 56.29253261 -81.39606897 43.7453546 -80.37109375 29.0703125 C-78.32577227 16.04213031 -71.56819526 5.30643295 -61.37109375 -2.9296875 C-41.58742521 -15.894713 -18.58093375 -15.12188019 0 0 Z " fill="#31346A" transform="translate(362.37109375,59.9296875)"/>
<path d="M0 0 C0.14695312 1.25103516 0.14695312 1.25103516 0.296875 2.52734375 C1.74957851 13.46018999 4.50266483 20.64242175 11.51171875 29.15234375 C13.76434053 31.94890569 14.1779051 33.71734966 14.25 37.25 C14.27578125 37.99765625 14.3015625 38.7453125 14.328125 39.515625 C13.52769051 45.57605755 10.09127004 49.17970741 5.75 53.1875 C-4.93166776 63.40996908 -11.84946821 76.19264848 -12.375 91.125 C-12.11639964 105.98590071 -6.29303977 118.05745548 3.640625 128.7578125 C6.85016831 131.80794141 10.12027084 133.88378409 14 136 C10.9964784 137.00117387 9.57591534 136.96626494 6.5 136.7421875 C0.10762387 136.6842015 -4.47398003 139.13754382 -10 142.125 C-10.92039063 142.599375 -11.84078125 143.07375 -12.7890625 143.5625 C-18.29572971 146.43217165 -23.5483474 149.53954083 -28.7109375 152.99169922 C-31.61196834 154.2695637 -33.00225055 153.8902662 -36 153 C-37.20914063 152.66226563 -38.41828125 152.32453125 -39.6640625 151.9765625 C-49.87291702 148.65846205 -49.87291702 148.65846205 -52.57421875 144.68359375 C-53.39626401 141.7651156 -53.73673299 139.02004871 -54 136 C-54.19335938 134.95457031 -54.38671875 133.90914062 -54.5859375 132.83203125 C-57.60584046 115.47739412 -57.26987842 97.07951368 -53 80 C-52.73316406 78.78828125 -52.46632813 77.5765625 -52.19140625 76.328125 C-47.30701649 55.74856281 -36.9089488 36.82993998 -23 21 C-22.30390625 20.17113281 -21.6078125 19.34226563 -20.890625 18.48828125 C-4.98547881 0 -4.98547881 0 0 0 Z " fill="#FDFDFD" transform="translate(178,178)"/>
<path d="M0 0 C-5.94936595 20.05512071 -19.81068838 38.04507804 -34 53 C-35.05081532 54.24231905 -36.0937309 55.49140814 -37.125 56.75 C-40.40557444 60.5939972 -44.0971509 63.80083655 -48 67 C-48.84433594 67.70511719 -49.68867188 68.41023438 -50.55859375 69.13671875 C-59.70937854 76.48894292 -69.62993006 82.54170515 -79.62109375 88.6796875 C-86.73964968 92.41100474 -86.73964968 92.41100474 -92 98 C-92.40548556 103.78738478 -91.23394319 108.48113586 -89.5625 113.9375 C-87.84391489 119.61316341 -86.25462214 125.04820754 -86 131 C-87.59642848 133.75140086 -89.48620972 134.9479263 -92 137 C-95.40353022 135.52877384 -97.61255749 133.63057487 -100.21777344 131.00927734 C-101.03832214 130.18857758 -101.85887085 129.36787781 -102.70428467 128.52230835 C-103.58046448 127.63580597 -104.45664429 126.74930359 -105.359375 125.8359375 C-106.26375305 124.92872955 -107.1681311 124.02152161 -108.09991455 123.08682251 C-110.49796458 120.68115581 -112.88994618 118.26954264 -115.28070068 115.85662842 C-117.72385171 113.39297656 -120.17271206 110.93501423 -122.62109375 108.4765625 C-127.41933788 103.65626427 -132.21182732 98.83030157 -137 94 C-135.3722197 90.63827981 -134.10658668 88.20731159 -131 86 C-124.27720412 86.43160496 -118.17692449 88.29020828 -111.79882812 90.359375 C-106.52062945 91.94420083 -101.27560529 93.15133934 -96 91 C-93.40253091 88.46438445 -91.79245085 85.5445986 -90.0625 82.375 C-89.03807753 80.6318599 -88.01201401 78.88968327 -86.984375 77.1484375 C-86.48357422 76.27799805 -85.98277344 75.40755859 -85.46679688 74.51074219 C-83.37113175 70.92355508 -81.12246033 67.45201922 -78.8125 64 C-78.40523682 63.39043457 -77.99797363 62.78086914 -77.57836914 62.15283203 C-69.07162163 49.59696159 -58.82436669 37.538461 -47 28 C-46.09121094 27.25363281 -45.18242187 26.50726563 -44.24609375 25.73828125 C-11.96212716 0 -11.96212716 0 0 0 Z " fill="#FCFCFC" transform="translate(183,331)"/>
<path d="M0 0 C6.31402599 4.4892277 11.8946353 11.71801442 13.3125 19.4375 C14.20691986 29.85583504 12.23221708 38.83611761 6.10546875 47.3984375 C0.25599935 54.05077525 -7.88820503 57.80866079 -16.60546875 58.75390625 C-23.55304582 59.02687823 -28.72242894 58.00539297 -34.6875 54.4375 C-35.73744141 53.81875 -35.73744141 53.81875 -36.80859375 53.1875 C-43.4980151 48.73631604 -47.78873748 42.18973852 -50.0625 34.5 C-52.00606096 24.45826838 -50.64135167 16.97517572 -45.40234375 8.3125 C-34.69728845 -7.43198245 -15.75036927 -9.40758097 0 0 Z " fill="#FDFDFD" transform="translate(348.6875,69.5625)"/>
<path d="M0 0 C8.943745 2.23593625 15.32063679 8.26105315 20 16 C24.04050085 23.31556521 25.26864529 30.71649255 24 39 C21.5717969 46.72109257 17.58999739 53.64707309 13.5625 60.625 C13.00240234 61.60984375 12.44230469 62.5946875 11.86523438 63.609375 C10.26114556 66.41699836 8.63724737 69.21160313 7 72 C6.52030762 72.82209961 6.04061523 73.64419922 5.54638672 74.49121094 C4.42297634 76.36397353 3.21982031 78.18855609 2 80 C1.34 80 0.68 80 0 80 C-1.70867461 75.94608573 -3.3881507 71.88069809 -5.0625 67.8125 C-5.54783203 66.66201172 -6.03316406 65.51152344 -6.53320312 64.32617188 C-6.98759766 63.21435547 -7.44199219 62.10253906 -7.91015625 60.95703125 C-8.33433838 59.93585205 -8.75852051 58.91467285 -9.19555664 57.86254883 C-10.28675758 53.97959555 -9.73917255 51.58975103 -8.0637207 47.98632812 C-7.68820068 47.34115234 -7.31268066 46.69597656 -6.92578125 46.03125 C-6.50796387 45.30164063 -6.09014648 44.57203125 -5.65966797 43.8203125 C-5.21510254 43.05460937 -4.77053711 42.28890625 -4.3125 41.5 C5.37257371 26.24415097 5.37257371 26.24415097 7 9 C5.12644032 5.44669716 2.98062071 2.68255864 0 0 Z " fill="#FAFBFC" transform="translate(192,315)"/>
<path d="M0 0 C2.27802299 2.07249344 3.54186704 3.80496716 4.65405273 6.67016602 C5.08481361 7.76259361 5.08481361 7.76259361 5.52427673 8.87709045 C5.97438866 10.05361427 5.97438866 10.05361427 6.43359375 11.25390625 C6.91240746 12.47713844 6.91240746 12.47713844 7.40089417 13.7250824 C8.42052353 16.33473147 9.42920736 18.94845257 10.4375 21.5625 C11.44273782 24.14522506 12.45014237 26.72709777 13.45767212 29.30892944 C14.10402774 30.96963834 14.7476014 32.63143291 15.38827515 34.29434204 C17.30062791 39.25455659 19.29483178 44.16346593 21.48852539 49.00756836 C22.17014479 51.66279314 21.81792678 53.40117645 21 56 C18.4375 58.3125 18.4375 58.3125 16 60 C10.1848151 53.7234852 4.60336142 47.35846971 -0.7734375 40.69921875 C-3.71378491 37.13469233 -6.80363359 33.72070241 -9.9140625 30.3046875 C-12.67366097 27.25569294 -15.34071334 24.13659453 -18 21 C-16.45258791 17.26042079 -14.14700474 14.97476972 -11.25 12.1875 C-7.2577908 8.28207796 -3.55526438 4.30374109 0 0 Z " fill="#FAFAFB" transform="translate(170,384)"/>
<path d="M0 0 C5.10038184 1.19666008 9.821099 3.14103375 14.67382812 5.09570312 C15.7307486 5.51601303 16.78766907 5.93632294 17.87661743 6.36936951 C21.24096441 7.70876658 24.60193824 9.05640742 27.96289062 10.40429688 C30.2478291 11.31565036 32.53298301 12.22646392 34.81835938 13.13671875 C40.41071507 15.36549311 46.0003265 17.60103906 51.58789062 19.84179688 C51.58789062 22.84179688 51.58789062 22.84179688 48.91992188 25.58398438 C47.75414714 26.63651243 46.58058661 27.68046513 45.40039062 28.71679688 C44.23935111 29.75487233 43.07918341 30.79392375 41.91992188 31.83398438 C41.35869629 32.33510742 40.7974707 32.83623047 40.21923828 33.35253906 C37.93000696 35.44237909 35.7568798 37.62787572 33.58789062 39.84179688 C30.14009976 38.34173297 27.76428529 36.33770425 25.02539062 33.77929688 C21.46492135 30.51161215 17.84856143 27.37700494 14.08789062 24.34179688 C9.53051586 20.65464219 5.15966636 16.80778004 0.82617188 12.86132812 C-1.85823085 10.4392754 -4.61092722 8.12697179 -7.41210938 5.84179688 C-3.21242232 -0.21069329 -3.21242232 -0.21069329 0 0 Z " fill="#FBFBFC" transform="translate(77.412109375,322.158203125)"/>
</svg>
