<?xml version="1.0" encoding="UTF-8"?>
<svg version="1.1" viewBox="0 0 2048 2048" width="1280" height="1280" xmlns="http://www.w3.org/2000/svg">
<path transform="translate(817,134)" d="m0 0h345l6 2v936h-3l-6-7-11-9-14-10-19-11-18-8-21-7-18-4-18-2h-32l-22 3-24 6-20 8-16 8-16 10-14 11-15 14-7 7-11 14-8 12-9 15-9 21-7 24-3 16-2 17v27l4 28 7 25 8 19 11 21 10 14 9 11 11 12 10 9 14 11v2l-17 3-27 6-24 8-18 8-19 10-18 12-12 9-11 10-8 7-7 8h-2l-2 4-9 10-10 14-10 15-14 27-9 24-5 17-2 6-3-3-13-27-12-18-11-14-9-10-8-8-14-11-14-10-19-11-18-8-24-8-22-5 1-4 8-6 13-13 14-19 12-23 8-23 4-21 1-10v-22l-3-24-7-25-8-18-9-16-11-15-12-13-10-9-17-12-16-9-1-23v-658l1-29 3-27 5-26 5-19 9-27 10-23 10-20 14-23 14-19 13-16 12-13 19-19 11-9 10-8 18-13 20-12 23-12 23-10 30-10 31-7 20-3zm-28 149-7 3-7 6-3 6-1 5v7l4 10 8 7 5 2 66 1 13-2 9-6 4-7 1-4v-10l-4-9-8-7-6-2zm179 0-7 3-6 5-4 8-1 4v7l4 10 8 7 5 2 42 1h27l10-2 7-4 6-8 1-3v-13l-4-8-5-5-8-4zm-354 168-9 2-9 8-3 6-1 11 4 10 2 3h2v2l8 4 11 1h63l9-3 7-6 4-8v-13l-4-8-8-7-8-2zm181 0-9 1-9 6-4 6-2 7v8l4 9 5 5 4 3 3 1 29 1h44l10-3 7-6 4-9v-11l-5-10-6-5-4-2-6-1zm179 0-11 2-9 8-4 11 1 10 4 7 6 6 5 2 11 1h63l9-3 8-7 3-7v-13l-4-8-7-6-4-2-6-1zm-365 169-8 4-5 6-3 6-1 4v7l4 9 5 6 9 4h75l8-4 5-5 4-8v-12l-5-10-6-5-5-2zm179 0-8 4-6 7-3 8v9l5 10 6 5 7 3h74l9-4 7-8 2-6v-10l-4-9-5-5-8-4zm179 0-8 4-6 7-3 10 1 9 3 6 4 5 7 4 4 1 63 1 11-1 10-5 4-5 3-6v-13l-4-8-4-5-8-4zm-357 168-10 5-6 9-2 6v7l4 10 9 8 11 2h64l9-2 8-6 4-6 1-3v-13l-4-8-8-7-6-2zm180 0-8 3-6 5-4 7-1 5v8l4 9 8 7 5 2 6 1h64l10-2 8-6 5-10v-11l-4-9-7-6-8-3zm179 0-7 3-6 4-4 6-2 9 1 9 5 8 6 5 5 2 6 1h65l9-2 6-4 6-8 2-10-2-9-4-6-6-5-7-3zm-354 168-9 2-6 4-5 6-3 9v7l4 9 5 6 10 4h73l9-4 7-8 2-5v-13l-4-8-7-6-5-2-9-1zm-5 169-10 5-6 8-2 7v7l4 10 8 7 5 2 8 1h63l8-2 9-6 4-6 1-3v-13l-5-10-9-6-5-1z" fill="#FEFEFE"/>
<path transform="translate(1214,511)" d="m0 0h348l1 501v148l-4 4-12 7-12 8-11 9-7 6-2 3h-2l-2 4-8 9-10 15-11 21-6 17-4 15-3 19v32l4 23 6 20 7 16 10 17 10 13 9 10 15 15-9 3-20 5-20 7-23 11-17 11-12 9-12 11-8 7-12 14-8 11-9 14-10 18-5 12h-3l-6-22-8-21-11-23-13-21-13-17-12-14-13-13-11-9-13-10-17-11-20-11-19-8-24-8-22-5-20-3-2-1 2-4 14-10 8-8 5-4 7-8 13-16 11-18 8-16 6-15 5-16 5-25 1-9v-33l-3-22-6-23-6-16 1-5 4-8zm122 107-8 4-6 7-3 10 1 9 5 9 8 6 4 1h103l8-4 7-8 2-5v-12l-4-8-5-5-5-3-2-1zm-1 169-9 6-4 5-2 5-1 9 3 9 4 6 8 5 4 1h101l9-4 7-8 2-6v-11l-5-10-8-6-3-1zm36 169-8 5-5 6-3 8v9l4 9 8 7 6 2 36 1h20l11-1 8-4 7-8 2-6v-10l-3-8-4-5-10-5z" fill="#fff"/>
<path transform="translate(108,1760)" d="m0 0h1829l3 1 1 151-3 2h-1828l-3-3v-148z" fill="#FEFEFE"/>
<path transform="translate(918,1425)" d="m0 0h209l19 2 20 4 19 6 15 6 19 10 15 10 13 10 13 12 12 12 13 17 10 16 9 17 9 24 5 19 3 20 1 13v89l-1 1h-596v-92l2-18 4-20 6-20 9-21 8-15 8-12 9-12 9-10 1-2h2l2-4 5-5h2v-2l8-7 13-10 14-9 23-12 21-8 18-5z" fill="#fff"/>
<path transform="translate(1562,1488)" d="m0 0h141l22 1 19 3 17 5 21 9 14 8 16 12 12 11 8 8 10 13 11 18 7 15 7 21 4 22 1 28v50l-1 1h-474l-1-2v-55l1-20 4-22 5-16 8-19 8-14 10-14 9-10 1-2h2l2-4 8-7 17-13 16-9 15-7 19-6 21-4z" fill="#fff"/>
<path transform="translate(351,1488)" d="m0 0h125l28 1 22 4 16 5 16 7 12 6 17 12 14 12 7 7 9 11 9 13 10 18 8 21 4 16 2 13 1 12v66l-1 1h-473l-1-1v-74l4-24 8-24 8-16 6-10 10-14 12-13 10-10 15-11 15-9 17-8 19-6 22-4z" fill="#fff"/>
<path transform="translate(1009,1060)" d="m0 0h30l19 3 17 5 16 7 15 8 16 12 13 12 9 10 10 14 12 23 6 18 4 19 1 9v26l-2 16-5 19-6 15-8 16-12 17-11 12-7 7-14 11-17 10-15 7-23 7-19 3h-30l-22-4-21-7-16-8-13-8-16-13-12-12-10-13-8-13-8-16-5-13-4-16-2-13-1-18 2-23 6-25 9-21 11-18 7-9 11-12 8-8 13-10 15-9 18-8 11-4 19-4z" fill="#fff"/>
<path transform="translate(397,1193)" d="m0 0h32l15 3 15 5 19 10 12 9 12 11 8 10 7 11 8 16 5 16 2 10 1 10v15l-2 17-4 14-5 13-9 16-10 13-10 10-13 10-14 8-15 6-20 5-10 1h-18l-19-3-15-5-16-8-11-7-12-11-10-10-10-14-10-21-5-18-2-13v-18l3-19 5-16 8-17 9-13 11-12 7-7 12-9 19-10 15-5z" fill="#fff"/>
<path transform="translate(1619,1193)" d="m0 0h31l15 3 15 5 16 8 14 10 13 12 11 14 6 9 8 18 5 19 2 15v11l-3 22-6 18-8 16-7 11-9 10-5 6-17 13-19 10-19 6-19 3h-19l-18-3-15-5-16-8-14-9-12-11-9-10-10-15-8-17-5-17-2-13v-22l3-18 5-16 8-16 7-11 9-11 8-8 13-10 18-10 18-6z" fill="#FEFEFE"/>
</svg>
