<?xml version="1.0" encoding="UTF-8"?>
<svg version="1.1" viewBox="0 0 2048 2048" width="1280" height="1280" xmlns="http://www.w3.org/2000/svg">
<path transform="translate(1035,307)" d="m0 0h73l65 3 48 4 44 5 51 8 48 10 30 8 27 8 29 10 30 13 23 12 17 11 13 10 10 9 9 9 10 14 8 16 9 25 1 9v433l32 1 49 3 52 5 45 6 41 7 42 9 37 10 20 6 32 12 25 11 21 11 21 14 11 9 12 11 10 12 8 13 7 17 3 8v490h-2l-3 10-8 16-8 12-15 16-12 10-10 7-16 10-22 12-28 12-34 12-28 8-40 10-47 9-40 6-43 5-49 4-41 2-42 1h-20l-42-1-44-2-57-5-33-4-40-6-42-8-33-8-29-8-38-13-24-10-16-8-17-9-15-10-14-11-12-11-9-11-9-14-5-10-4-13v-3h-21l-50-2-60-5-41-5-39-6-40-8-4-1h-8l-8 7-19 14-17 11-20 12-26 14-24 11-26 10-24 8-30 8-36 7-34 4-14 1h-57l-33-3-36-6-29-7-27-8-22-8-24-10-25-12-23-13-21-13-17-12-16-12-14-12-11-9-10-10-8-7-7-7-7-8-7-7-8-10-11-13-14-19-16-24-13-22-15-29-12-28-10-28-8-27-6-26-6-35-2-14-1-5v-90l3-17 6-35 6-26 9-31 9-25 13-30 10-20 13-23 18-27 10-14 16-20 12-14 10-10 7-8 7-7 8-7 7-7 11-9 12-10 19-14 15-10 19-12 22-12 16-8 17-8 28-11 24-8 27-7 23-5 24-4 28-3 15-1h45l36 3 28 4 6 1-1-20-4-162-1-19 2-15 5-17 10-18 11-13 3-4h2v-2l22-18 22-14 21-11 26-11 25-9 29-9 27-7 36-8 33-6 47-7 48-5 42-3zm-5 83-58 3-45 4-48 6-46 8-40 9-35 10-32 11-23 10-19 10-13 9-7 6-6 8-1 2v6l7 9 9 8 14 9 23 12 19 8 36 12 24 7 26 6 41 8 38 6 54 6 43 3 43 2h72l48-2 51-4 44-5 46-7 45-9 32-8 29-9 27-10 20-9 17-9 14-10 10-9 3-5v-6l-7-9-13-10-15-9-16-8-26-11-37-12-30-8-37-8-34-6-42-6-53-5-47-3-30-1zm466 203-16 7-15 7-28 11-38 12-48 12-41 8-53 8-45 5-53 4-41 2h-96l-56-3-36-3-44-5-40-6-42-8-42-10-35-10-28-10-30-13-9-4 2 84 1 30 12 5 27 12 19 10 23 13 21 14 18 13 7 5 19 5 33 7 43 7 39 5 43 4 30 2 24 1 59 1 41-1 53-3 45-4 47-6 47-8 40-9 33-9 30-10 24-10 20-10 17-11 12-11 4-6 1-6 1-7 2-4 1-107zm-1023 169-29 2-33 5-30 7-26 8-31 12-17 8-22 12-10 6-24 16-17 13-14 12-4 3v2l-4 2-24 24v2h-2l-9 11-11 13-10 14-12 18-13 22-14 28-11 28-9 28-8 34-5 33-2 33v20l2 32 4 29 6 28 8 28 10 27 8 18 8 17 12 21 13 20 11 15 10 13 9 10 7 8 15 16 10 9 11 10 14 11 13 10 20 13 17 10 23 12 25 11 25 9 25 7 33 7 33 4 16 1h37l25-2 28-4 28-6 24-7 20-7 20-8 29-14 19-11 14-9 17-12 14-11 13-11 13-12 19-19 7-8v-2h2l13-17 10-13 13-20 12-21 8-16 8-17 10-26 9-30 6-27 4-26 2-21 1-33-2-36-5-35-6-27-8-27-9-24-13-29-13-24-14-22-14-19-11-14-12-13-7-8-17-17-8-7-17-14-19-14-17-11-19-11-23-12-28-12-30-10-28-7-28-5-28-3-21-1zm1023 58-24 11-27 11-23 8-30 9-32 8-33 7-47 8-37 5-39 4-39 3-40 2-38 1h-31l-38-1-56-3-54-5-16-2h-5l7 11 11 17 15 26 11 22 12 28 12 34 4 12 5 1 31 2 26 1h55l12-12 16-12 19-12 25-13 29-12 19-7 33-10 41-10 35-7 44-7 42-5 45-4 60-3 1-106zm-7 189-42 2-48 4-42 5-43 7-42 9-33 9-36 12-26 11-17 9-12 8-13 11-5 8 1 6 8 10 14 11 19 11 19 9 20 8 38 12 37 9 35 7 36 6 50 6 48 4 35 2 42 1h24l40-1 53-3 44-4 41-5 37-6 35-7 40-10 23-7 23-8 23-10 20-10 12-8 10-8 7-8 2-5-4-7-10-10-17-11-15-8-21-9-25-9-29-9-32-8-39-8-45-7-43-5-49-4-47-2zm-513 111v71l-2 29-4 29-2 14 34 2 23 1h25v-48l-2-95zm988 92-24 11-25 10-30 10-36 10-46 10-39 7-43 6-47 5-60 4-27 1h-90l-43-2-42-3-46-5-47-7-32-6-36-8-41-11-27-9-32-13-18-8v60l1 65 2 5 11 9 17 11 27 13 30 11 33 10 33 8 35 7 45 7 42 5 51 4 49 2h74l46-2 51-4 43-5 45-7 40-8 32-8 30-9 30-11 29-14 16-10 11-9 6-7 3-10 1-5 1-19v-91zm-1020 132-11 26-11 23-12 22-7 11-18 27-16 21-1 4 51 7 49 5 45 3 25 1h16v-26l-2-111-1-8-70-3-30-2zm1021 93-25 11-13 6-27 10-25 8-38 10-43 9-41 7-46 6-41 4-45 3-20 1-36 1h-44l-35-1-54-3-52-5-44-6-41-7-33-7-36-9-29-9-25-9-28-12-6-3h-2v23l1 59 1 37 3 6 7 8 13 10 21 12 27 12 36 12 33 9 32 7 47 8 46 6 44 4 32 2 24 1h96l54-3 44-4 46-6 35-6 34-7 35-9 20-6 28-10 21-9 22-12 14-10 10-9 4-8v-122z"/>
<path transform="translate(483,833)" d="m0 0h13l10 3 10 6 8 9 5 10 2 8 1 23 19 7 19 10 14 10 10 9 2 1v2h2v2h2l7 8 9 12 8 13 9 19 5 15 4 19 1 7v22l-4 12-8 11-10 7-11 4-11 1-12-3-8-4-10-9-6-11-2-5-3-25-4-13-8-15-9-10-13-9-11-5-11-3-8-1h-12l-16 3-11 5-10 6-10 9-7 10-7 14-3 13-1 8v9l3 15 5 12 9 14 7 7 14 9 12 5 9 2 27 2 18 3 21 6 18 8 12 7 14 10 13 12 11 12 11 16 10 19 7 20 4 19 1 7v32l-5 25-6 18-12 23-11 15-9 10-10 10-12 9-13 8-16 8-16 6h-2v41l-4 13-7 10-8 7-12 5-7 1h-9l-13-4-11-8-6-8-4-8-2-8-1-40-21-8-19-10-16-12-12-11-7-7-13-17-9-16-7-16-5-16-4-23v-20l3-10 6-10 7-7 11-6 8-2h13l10 3 11 7 8 10 4 9 2 12 2 15 4 13 6 12 9 11 10 8 16 8 11 3 6 1h14l15-3 14-6 14-10 8-9 8-14 4-13 1-5v-22l-4-15-7-14-9-11-10-8-16-8-11-3-8-1-20-1-18-3-15-4-16-6-17-9-14-10-13-11-7-7-11-14-9-14-8-16-5-13-5-20-2-13v-27l3-20 5-17 6-16 12-21 13-16 7-8 11-10 17-12 17-9 16-6 6-2 1-22 4-13 6-9 9-8 8-4z"/>
<path transform="translate(2047,1085)" d="m0 0"/>
</svg>
