<?xml version="1.0" encoding="UTF-8"?>
<svg version="1.1" viewBox="0 0 2048 2048" width="1280" height="1280" xmlns="http://www.w3.org/2000/svg">
<path transform="translate(359)" d="m0 0h1330v2l6 2 11 8 7 10 3 8 1 8v349h140l21 2 15 4 15 7 12 7 15 13 11 14 8 14 6 14 4 18v28l-3 15-6 16-4 8-8 12-7 9-8 7-10 8-16 9-18 6-17 3-28 2v1221l-1 10h22l18 2 15 4 16 7 12 8 14 12 9 11 10 16 6 15 3 12 1 7v27l-3 14-5 15-8 15-9 12-4 5-8 7-12 9-16 8-13 5-10 3h-1709v-2l-16-5-16-8-10-7-10-9-7-7-10-14-9-19-4-14-2-17v-9l3-21 6-18 9-16 7-9 10-11 14-11 17-9 15-5 12-2 12-1h21v-1233l-15 1-22-2-16-4-12-5-14-8-10-8-12-12-10-14-7-14-5-15-2-10-1-11v-10l3-20 6-18 6-11 9-13 3-4h2l2-4 10-9 15-10 15-7 16-4 19-2h142v-353l3-10 7-11 8-7zm54 81v306l4 1h1214l4-1v-306zm-226 388-9 3-6 4-4 6-3 9 1 11 4 8 8 7 5 2 7 1h655l26 1 10 3 9 6 8 9 4 8 2 8v10l-2 9-5 10-6 7-10 6-11 3-576 1-3 1v1233h493l3-1 1-386 2-10 6-11 6-7 10-6 6-2 11-1h390l13 2 12 6 8 8 6 12 1 4 1 27v364l1 1h492l3-1 1-130v-860l-1-243-580-1-11-4-9-6-8-11-4-11v-13l4-13 7-10 10-7 7-3 5-1 23-1h656l9-1 10-6 5-6 2-5 1-10-3-9-4-6-6-5-9-3zm682 1023v342h114v-342zm196 0v342h114v-342zm-879 424-10 4-7 7-3 7-1 10 3 10 7 8 9 4 21 1h1647l12-1 10-5 6-8 3-9-1-10-4-8-8-7-8-3z"/>
<path transform="translate(1361,1410)" d="m0 0h298l11 1 11 4 9 7 7 9 4 9 1 4v207l-3 11-7 11-8 7-8 4-8 2-296 1-19-1-11-4-9-6v-2h-2l-7-10-3-8-1-6v-204l4-13 8-11 9-7 10-4zm41 82v113h218v-113z"/>
<path transform="translate(389,1410)" d="m0 0h298l12 2 12 6 9 9 6 11 2 14v188l-1 15-4 10-6 8-9 8-10 4-5 1-297 1-18-1-11-4-9-7-7-9-4-9-2-14v-189l2-14 4-9 7-9 9-7 10-4zm38 82v113h218l1-1v-112z"/>
<path transform="translate(1099,673)" d="m0 0h210l10 3 9 6 8 8 6 13 1 5v203l-2 10-5 10-8 9-10 6-7 2-9 1h-198l-12-3-8-4-7-6-7-11-3-9-1-8v-195l2-12 5-10 9-10 9-5zm51 81-2 1v112l4 1 109-1v-113z"/>
<path transform="translate(1099 1e3)" d="m0 0h210l10 3 9 6 7 7 7 14 1 5v203l-2 10-5 10-8 9-8 5-10 3-9 1h-195l-12-2-10-5-7-6-7-11-3-9-1-8v-195l2-12 5-10 9-10 8-5zm51 81-2 1v112h113v-113z"/>
<path transform="translate(410 1e3)" d="m0 0h210l11 4 9 6 7 8 5 10 1 4 1 13v169l-1 29-4 11-6 9-9 7-9 4-14 2h-195l-14-3-11-7-7-8-5-10-2-9v-204l3-10 6-10 2-3h2v-2l11-7zm52 81-3 1v112h113v-111l-2-2z"/>
<path transform="translate(410,673)" d="m0 0h209l10 3 10 6 8 9 5 10 2 16v165l-1 33-3 10-6 10-8 7-8 4-7 2-9 1h-197l-13-3-11-7-7-8-5-10-2-9v-204l3-10 6-10 2-3h2v-2l11-7zm52 81-3 1v112h113v-111l-2-2z"/>
<path transform="translate(754 1e3)" d="m0 0h210l10 3 10 6 8 9 5 11 1 4v208l-3 10-6 10-7 7-12 6-14 2h-196l-10-2-12-6-9-9-6-12-1-4v-209l3-10 6-10 9-8 11-5zm52 81-2 1-1 20v92h113v-113z"/>
<path transform="translate(754,673)" d="m0 0h210l10 3 10 6 8 9 5 11 1 4v208l-3 10-6 10-7 7-12 6-14 2h-196l-10-2-12-6-8-8-7-14-1-4v-208l3-10 6-10 9-8 11-5zm52 81-2 1-1 21v91h113v-113z"/>
<path transform="translate(1443 1e3)" d="m0 0h211l11 4 9 6 7 8 5 10 1 4v211l-4 11-8 11-11 7-9 3-9 1h-195l-12-2-10-5-9-8-6-10-3-13v-202l2-9 6-11 9-9 12-6zm51 81-1 1v112h112l1-25v-87l-1-1z"/>
<path transform="translate(1444,673)" d="m0 0h209l10 3 10 6 8 9 5 10 1 4v211l-4 11-7 10-10 7-11 4-9 1h-196l-14-3-10-6-8-9-5-10-2-10v-202l2-9 6-11 9-9 12-6zm50 81-1 1v112h112l1-27v-85l-5-1z"/>
<path transform="translate(857,123)" d="m0 0h28l16 3 16 6 14 8 13 11 10 11 7 10 8 16 5 16 3 20v22l-2 16-5 17-8 17-10 14-10 11-13 10-15 8-15 5-16 3h-25l-20-4-15-6-15-9-13-12-8-9-9-14-7-16-4-13-2-12-1-12v-12l2-17 4-16 6-15 9-15 8-10 8-7 9-8 16-9 18-6zm10 57-12 3-9 6-7 7-7 14-3 14v24l4 15 5 10 9 10 9 5 8 2h14l11-4 11-8 7-11 4-11 2-12v-18l-3-15-4-10-6-8-7-7-12-5z"/>
<path transform="translate(567,124)" d="m0 0 11 1 10 5 8 9 4 11v54l67-1 1-52 4-11 9-10 9-5 13-1 10 3 8 6 6 8 3 8v172l-4 10-7 8-5 4-10 3h-10l-11-4-9-8-5-10-1-5-1-57h-66l-1 60-4 9-6 8-8 5-8 2h-9l-10-3-8-6-7-10-2-10v-165l3-10 6-8 7-6 7-3z"/>
<path transform="translate(1247,123)" d="m0 0h42l19 1 7 3 8 6 5 8 2 6v10l-4 11-7 8-7 4-13 2h-39v21h43l9 4 8 7 5 9 1 3v12l-6 12-7 6-6 3-5 1h-42v23h48l10 4 9 8 4 8 1 3v13l-4 8-7 8-8 4-4 1-17 1h-58l-16-2-8-5-7-7-4-8-1-4v-166l4-10 8-9 8-5 4-1z"/>
<path transform="translate(1024,126)" d="m0 0h107l9 2 8 6 6 7 4 11v7l-4 11-8 9-8 4-5 1h-25v125l-1 14-5 10-8 8-9 4-11 1-8-2-8-4-8-9-4-9-1-7v-127l1-4h-26l-9-3-10-9-4-7-1-4v-11l4-11 8-8 8-4z"/>
<path transform="translate(1403,121)" d="m0 0h8l10 3 8 6 6 7 4 11v135h47l10 4 8 7 5 10 1 4v7l-4 11-8 9-8 4-5 1h-84l-9-4-8-7-4-5-3-8-1-8v-156l2-10 3-6 8-9 10-5z"/>
<path transform="translate(1017,520)" d="m0 0h15l12 4 9 7 6 7 5 10 1 4v16l-3 10-6 9-10 9-10 4-5 1h-15l-11-4-10-7-6-8-5-11-1-6v-8l3-12 5-9 4-5 10-7 7-3z"/>
</svg>
