<?xml version="1.0" encoding="UTF-8"?>
<svg version="1.1" viewBox="0 0 2048 2048" width="1280" height="1280" xmlns="http://www.w3.org/2000/svg">
<path transform="translate(573,127)" d="m0 0h772l35 2 28 4 24 6 27 9 17 7 16 8 18 10 15 10 19 14 15 13 13 12 14 15 9 11 14 19 12 19 11 20 10 23 9 25 8 32 4 28 1 11 1 26v513l-1 74-3 11-8 16-11 12-10 7-8 4-16 4h-17l-13-3-15-8-12-11-9-13-5-13-2-17-1-591-3-24-5-21-8-21-10-20-8-12-9-12-12-13-8-8-14-11-15-10-21-11-25-9-25-5-33-2h-761l-20 1-21 3-22 6-19 8-14 7-18 12-11 9-12 11-11 12-13 18-11 19-8 19-7 23-3 19-1 11-1 51v976l1 25 3 23 5 20 8 20 8 16 8 13 8 11 13 15 7 7 11 9 15 11 16 9 19 9 19 6 20 4 19 2 487 1 19 2 12 5 11 7 11 11 7 11 5 13 2 10v10l-3 15-5 12-8 11-9 9-14 8-12 4-8 1h-502l-24-2-24-4-30-8-25-9-24-11-22-12-12-8-14-10-11-9-10-9-8-7-16-16-7-8-12-15-12-17-9-15-12-22-12-29-7-21-6-26-4-26-2-28v-1043l2-26 4-26 7-28 10-29 11-24 12-22 12-18 9-12 13-16 11-12 13-13 8-7 15-12 20-14 15-9 23-12 18-8 20-7 25-7 21-4 26-3z"/>
<path transform="translate(1521,1215)" d="m0 0h29l25 2 25 4 28 7 28 10 20 9 21 11 11 7 16 11 13 10 14 12 13 12 14 15 9 11 14 19 12 19 11 20 10 23 9 25 6 23 4 21 3 26v51l-2 24-5 32-6 27-8 27-9 25-11 25-9 19-13 23-12 19-12 17-15 20-11 13-8 10h-2l-2 4-7 8h-2l-2 4-17 17-8 7-9 9-11 9-15 13-9 7-12 9-14 10-21 14-21 13-14 8-15 6-9 2h-19l-12-3-16-8-16-9-22-14-17-12-11-8-28-22-10-9-11-9-21-21-6-5-7-8-10-10-9-11-13-15-9-12-13-18-14-22-15-26-14-29-13-33-8-26-6-24-5-27-3-23-2-28v-31l3-30 4-22 6-24 8-24 10-23 12-23 15-23 9-12 13-16 11-12 13-13 8-7 15-12 20-14 15-9 23-12 18-8 20-7 25-7 27-5zm-3 130-21 3-19 5-19 7-23 12-14 10-11 9-10 9-13 14-13 18-11 19-8 19-6 19-4 22-1 10v38l4 31 5 23 8 26 11 26 8 16 8 15 12 19 13 18 13 16 12 14 8 8 7 8 4 4h2l1 3 8 7 12 11 11 9 14 11 18 13 11 7 5-2 23-16 16-13 10-8 11-10 8-7 23-23 7-8 9-10 15-20 10-14 13-21 13-25 9-21 9-27 6-25 4-27 1-12v-32l-3-23-5-21-8-21-10-20-10-15-8-10-11-12-9-9-14-11-15-10-21-11-22-8-16-4-21-3z"/>
<path transform="translate(820,800)" d="m0 0h24l13 4 11 6 11 9 9 12 4 8 3 9 1 5v23l-5 15-7 12-4 5h-2l-2 4-42 42-5 6-52 52-1 2h-2v2h-2v2h-2v2h-2v2h-2l-2 4-64 64-11 7-12 5-9 2h-20l-11-3-14-7-11-9-12-13-22-24-10-11-7-8-3-3v-2h-2l-7-8-11-12-9-10-9-12-6-13-2-7-1-8v-9l3-16 8-16 4-6h2l2-4 8-7 11-6 7-3 9-2h22l16 5 10 6 10 9 11 11 7 8 12 13 7 7 3-1 7-8 74-74 5-6 41-41 10-7 11-5z"/>
<path transform="translate(820,416)" d="m0 0h23l12 3 10 5 13 10 8 10 5 9 4 11 1 5v23l-5 15-7 12-4 5h-2l-2 4-42 42-5 6-52 52-1 2h-2v2h-2v2h-2v2h-2v2h-2l-2 4-64 64-11 7-12 5-9 2h-20l-11-3-14-7-11-9-12-13-22-24-10-11-7-8-3-3v-2h-2l-7-8-11-12-9-10-9-12-6-13-2-7-1-8v-9l3-16 8-16 4-6h2l2-4 8-7 11-6 11-4 5-1h22l11 3 14 7 12 11 10 10 7 8 12 13 7 7 3-1 7-8 78-78 7-8 34-34 13-9 13-5z"/>
<path transform="translate(820,1184)" d="m0 0h24l13 4 11 6 11 9 9 12 4 8 3 9 1 5v23l-5 15-8 13-3 4h-2l-2 4-46 46-5 6-52 52-1 2h-2v2h-2v2h-2v2h-2v2h-2l-2 4-60 60-13 8-10 4-10 2h-19l-11-3-14-7-11-9-12-13-22-24-9-10-7-8-14-15-9-10-10-11-9-12-6-13-2-7-1-8v-9l3-16 8-16 4-6h2l2-4 8-7 11-6 11-4 5-1h22l11 3 14 7 10 9 12 12v2h2l7 8 9 10 8 8 3-1 7-8 74-74 5-6 41-41 10-7 14-6z"/>
<path transform="translate(1023,895)" d="m0 0h321l17 2 12 5 11 7 11 11 8 13 4 11 1 5v22l-4 13-6 12-11 12-9 7-13 6-14 3h-336l-13-3-12-6-10-8-7-7-7-11-5-13-2-12 1-16 5-16 7-11 10-11 10-7 15-6z"/>
<path transform="translate(1023,511)" d="m0 0h320l18 2 12 5 11 7 11 11 8 13 4 11 1 5v22l-5 16-6 10-9 10-10 8-13 6-14 3h-336l-13-3-12-6-10-8-7-7-7-11-5-13-2-12 1-16 5-16 7-11 10-11 10-7 15-6z"/>
<path transform="translate(1021,1279)" d="m0 0h43l15 2 12 5 9 6 10 9 8 11 6 13 2 9 1 10-2 15-5 13-6 10-11 12-11 7-10 4-14 3h-53l-13-3-14-7-12-11-8-10-6-13-3-15v-9l3-16 5-12 10-13 10-9 14-7 11-3z"/>
<path transform="translate(1532,1471)" d="m0 0 16 1 13 4 11 6 10 9 8 9 7 14 3 11v22l-4 14-7 12-9 10-10 8-13 6-12 3h-19l-12-3-12-6-10-8-7-7-7-11-5-13-2-11v-9l3-16 4-9 6-10 10-11 10-7 14-6z"/>
</svg>
