<?xml version="1.0" encoding="UTF-8"?>
<svg version="1.1" xmlns="http://www.w3.org/2000/svg" width="512" height="512">
<path d="M0 0 C1.83038818 -0.00574036 1.83038818 -0.00574036 3.69775391 -0.01159668 C6.27312039 -0.01431401 8.84851456 -0.00696555 11.42382812 0.00976562 C15.36130422 0.03117553 19.29695553 0.00995544 23.234375 -0.015625 C25.73958735 -0.01298169 28.24479857 -0.00785667 30.75 0 C31.9251416 -0.00809692 33.1002832 -0.01619385 34.31103516 -0.02453613 C40.62987661 0.04780466 44.60203267 0.23004094 49.375 4.53125 C54.3412715 9.88082433 54.0311372 15.47746902 54.125 22.40625 C54.16947266 24.01113281 54.16947266 24.01113281 54.21484375 25.6484375 C54.285228 28.27611608 54.33807994 30.90292364 54.375 33.53125 C54.92212646 33.65129395 55.46925293 33.77133789 56.03295898 33.89501953 C69.80802615 36.95294924 83.24278133 40.4433536 96.1640625 46.2109375 C99.25880008 47.72139852 99.25880008 47.72139852 102.375 47.53125 C104.28522595 45.04323555 104.28522595 45.04323555 106.125 41.90625 C109.73298062 36.26794819 113.25307035 31.59221482 119.375 28.53125 C129.43696824 27.19979863 135.16148836 31.02188566 142.92602539 36.95288086 C144.58874496 38.23905137 146.24186521 39.53688298 147.89453125 40.8359375 C152.51387714 44.44787984 157.30057021 47.82038709 162.0859375 51.20703125 C162.61985107 51.58649902 163.15376465 51.9659668 163.70385742 52.35693359 C164.88082822 53.18399416 166.06680575 53.99831077 167.2590332 54.80322266 C172.76168437 58.57372996 175.44396195 62.04607537 176.82421875 68.6953125 C177.59831019 78.43166263 170.06062173 86.31333305 164.375 93.53125 C165.90878174 97.14600047 168.09120748 99.47723019 170.8125 102.28125 C177.15912765 109.13376826 182.2964606 116.71142058 187.375 124.53125 C187.84856934 125.25650879 188.32213867 125.98176758 188.81005859 126.72900391 C189.49769287 127.80093994 189.49769287 127.80093994 190.19921875 128.89453125 C190.61647217 129.54333252 191.03372559 130.19213379 191.46362305 130.8605957 C192.375 132.53125 192.375 132.53125 192.375 134.53125 C193.48617188 134.098125 194.59734375 133.665 195.7421875 133.21875 C212.33107782 126.9309803 212.33107782 126.9309803 219.375 128.53125 C225.32867136 131.50808568 228.8554872 135.68689006 231.09838867 141.90332031 C231.6747552 143.63488421 232.23896866 145.37052601 232.79296875 147.109375 C233.2470385 148.4983902 233.2470385 148.4983902 233.71028137 149.91546631 C234.34648466 151.87050573 234.97737458 153.82728123 235.60327148 155.78564453 C236.55626273 158.76177143 237.52970308 161.73062036 238.50585938 164.69921875 C239.1236349 166.60636991 239.74021056 168.51391024 240.35546875 170.421875 C240.64399216 171.30031067 240.93251556 172.17874634 241.2297821 173.08380127 C243.36893908 179.83867751 245.33025565 186.34706452 243.25 193.28125 C239.19618586 200.30786118 234.64360844 202.58847059 227.1875 204.84375 C226.36830078 205.10736328 225.54910156 205.37097656 224.70507812 205.64257812 C218.74472403 207.53125 218.74472403 207.53125 216.375 207.53125 C216.519375 208.66820312 216.66375 209.80515625 216.8125 210.9765625 C218.72745609 226.63725412 218.37262227 241.81869921 217.375 257.53125 C217.92438232 257.69206055 218.47376465 257.85287109 219.03979492 258.01855469 C221.55104042 258.76094081 224.05663765 259.52090081 226.5625 260.28125 C227.42681641 260.53390625 228.29113281 260.7865625 229.18164062 261.046875 C235.49663793 262.98250636 239.88489663 264.80795764 243.1875 270.84375 C245.63165008 278.43347919 243.77208584 284.35683056 241.3125 291.62109375 C240.84638306 293.0378817 240.84638306 293.0378817 240.37084961 294.48329163 C239.38191058 297.48175017 238.37870244 300.47520507 237.375 303.46875 C236.6995714 305.50814934 236.02508189 307.54785996 235.3515625 309.58789062 C233.70356443 314.57266585 232.04384377 319.5534175 230.375 324.53125 C225.88591576 325.59944573 223.42937535 325.17734216 219.0625 323.59375 C217.99386719 323.21347656 216.92523438 322.83320313 215.82421875 322.44140625 C215.01597656 322.14105469 214.20773437 321.84070313 213.375 321.53125 C215.16913645 312.27185615 218.25005098 303.44156575 221.21240234 294.5078125 C221.89777213 292.43605109 222.57792914 290.36262953 223.2578125 288.2890625 C223.66402832 287.0633252 224.07024414 285.83758789 224.48876953 284.57470703 C225.51479 281.5794994 225.51479 281.5794994 225.375 278.53125 C224.14523437 278.15613281 222.91546875 277.78101563 221.6484375 277.39453125 C220.01539258 276.87833889 218.38259281 276.36137051 216.75 275.84375 C215.53763672 275.47733398 215.53763672 275.47733398 214.30078125 275.10351562 C208.28878054 273.17283247 203.48158623 270.88263718 200 265.34375 C198.60271404 259.0559632 199.33933238 252.64715501 199.875 246.28125 C200.72171723 235.97549168 200.46191503 225.86738591 199.609375 215.57421875 C198.56738581 202.04572573 198.56738581 202.04572573 202.375 196.53125 C206.48127514 192.64923471 210.74873627 191.03764538 216 189.28125 C217.1446875 188.8790625 217.1446875 188.8790625 218.3125 188.46875 C221.52177834 187.36520868 223.94930606 186.53125 227.375 186.53125 C225.56561761 181.31491997 223.75071351 176.10055721 221.93066406 170.88793945 C221.312279 169.11438123 220.69540639 167.34029491 220.08007812 165.56567383 C219.1953807 163.01503408 218.30526226 160.4663427 217.4140625 157.91796875 C217.14002594 157.12412277 216.86598938 156.33027679 216.58364868 155.51237488 C215.42752556 152.22096678 214.31980953 149.4484643 212.375 146.53125 C211.40820312 146.8921875 210.44140625 147.253125 209.4453125 147.625 C200.58644872 150.82846915 193.05055541 153.39048367 183.75 150.34375 C179.33992738 147.41744013 177.06204515 142.5837924 174.47265625 138.10546875 C169.31651982 129.19192213 163.11245321 121.00854043 156.5234375 113.11328125 C146.23346091 100.7466003 146.23346091 100.7466003 146.125 94.78125 C146.09921875 93.94078125 146.0734375 93.1003125 146.046875 92.234375 C146.80300882 86.00527257 150.954491 81.08702407 154.5625 76.15625 C155.02591797 75.51558594 155.48933594 74.87492187 155.96679688 74.21484375 C157.098966 72.6508163 158.23643874 71.09063034 159.375 69.53125 C158.69308594 69.304375 158.01117188 69.0775 157.30859375 68.84375 C153.64497929 67.20463621 150.61729739 64.94023765 147.4375 62.53125 C146.11519236 61.54475605 144.79225933 60.55909989 143.46875 59.57421875 C142.79585938 59.07196777 142.12296875 58.5697168 141.4296875 58.05224609 C138.12824869 55.60833405 134.78464888 53.22448382 131.4375 50.84375 C130.5239978 50.1930957 130.5239978 50.1930957 129.59204102 49.52929688 C128.18697362 48.52908632 126.78108698 47.53002673 125.375 46.53125 C122.09389762 49.55772137 119.89193761 52.73583231 117.5625 56.53125 C114.21686681 61.59290907 112.13005727 64.51193166 106.375 66.53125 C98.72582004 67.65980154 92.82084175 65.01672017 85.9375 61.96875 C75.76265361 57.65020014 65.62657435 54.43545744 54.87915039 51.86499023 C48.16186621 50.2158619 42.78638124 48.85729308 38.5625 43.03125 C34.41671111 34.30327339 36.375 27.23899774 36.375 16.53125 C22.185 16.53125 7.995 16.53125 -6.625 16.53125 C-6.295 23.13125 -5.965 29.73125 -5.625 36.53125 C-9.16398305 45.96853814 -9.16398305 45.96853814 -13.625 48.53125 C-15.13511721 49.04704351 -16.6593784 49.52222162 -18.19140625 49.96875 C-19.08174561 50.22889893 -19.97208496 50.48904785 -20.8894043 50.75708008 C-23.41954228 51.47310574 -25.95354878 52.17027576 -28.4921875 52.85546875 C-38.56335252 55.58282646 -48.22357938 58.70496646 -57.78857422 62.90307617 C-64.22542028 65.65292173 -70.25957779 67.35784493 -77.1875 65.65625 C-84.25802642 62.07997445 -89.39266835 54.01200785 -93.625 47.53125 C-93.625 46.87125 -93.625 46.21125 -93.625 45.53125 C-94.12201416 45.89774658 -94.61902832 46.26424316 -95.13110352 46.6418457 C-105.95148038 54.61992921 -116.77937556 62.5875191 -127.625 70.53125 C-125.45873232 74.27112722 -123.06894494 77.74451265 -120.5 81.21875 C-115.47054983 88.02600948 -115.47054983 88.02600948 -115.375 93.28125 C-115.34921875 94.12171875 -115.3234375 94.9621875 -115.296875 95.828125 C-115.9703157 101.37599364 -118.89603245 105.12280433 -122.6875 109.03125 C-130.89018958 117.92525216 -137.50512961 127.8939036 -143.49414062 138.3815918 C-149.92200968 149.5063966 -149.92200968 149.5063966 -155.4375 151.46875 C-156.34435547 151.82259766 -156.34435547 151.82259766 -157.26953125 152.18359375 C-163.74534879 153.13939435 -170.04573444 150.97828501 -176.125 148.96875 C-176.85203125 148.73478516 -177.5790625 148.50082031 -178.328125 148.25976562 C-180.09580261 147.68992219 -181.86070969 147.11149596 -183.625 146.53125 C-183.70991699 147.07185059 -183.79483398 147.61245117 -183.88232422 148.16943359 C-185.34581173 156.43433129 -188.04417014 164.23835538 -190.75 172.15625 C-191.22321955 173.55579925 -191.69587997 174.95553767 -192.16796875 176.35546875 C-193.31388201 179.74959868 -194.46731496 183.14111448 -195.625 186.53125 C-195.07561768 186.68682373 -194.52623535 186.84239746 -193.96020508 187.00268555 C-191.4474628 187.72458567 -188.94277615 188.47137003 -186.4375 189.21875 C-185.57318359 189.46302734 -184.70886719 189.70730469 -183.81835938 189.95898438 C-178.51988727 191.56273647 -175.24668115 193.13147329 -171.625 197.53125 C-171.026875 198.253125 -170.42875 198.975 -169.8125 199.71875 C-167.29558182 205.67987201 -168.59748758 212.41187359 -169.125 218.71875 C-169.87120624 227.88642666 -169.86270694 236.98989558 -169.29296875 246.1640625 C-169.20668213 247.6337146 -169.20668213 247.6337146 -169.11865234 249.13305664 C-169.00009398 251.07073485 -168.86687371 253.00758528 -168.71728516 254.94311523 C-168.38898226 260.30042151 -168.40950912 263.97197189 -171.625 268.53125 C-175.56303948 272.51224992 -180.05608885 274.0440374 -185.25 275.78125 C-186.3946875 276.1834375 -186.3946875 276.1834375 -187.5625 276.59375 C-190.77177834 277.69729132 -193.19930606 278.53125 -196.625 278.53125 C-196.04214233 280.16537842 -196.04214233 280.16537842 -195.44750977 281.83251953 C-194.00185797 285.88981477 -192.56282159 289.94943046 -191.12573242 294.00976562 C-190.50382683 295.7639828 -189.88014902 297.51757277 -189.25463867 299.27050781 C-188.35384589 301.79588073 -187.45953213 304.32346949 -186.56640625 306.8515625 C-186.2872084 307.62992462 -186.00801056 308.40828674 -185.72035217 309.2102356 C-184.27998744 313.30841655 -183.18233249 317.19911964 -182.625 321.53125 C-184.5153376 322.23371995 -186.41256828 322.91765849 -188.3125 323.59375 C-189.36824219 323.97660156 -190.42398438 324.35945313 -191.51171875 324.75390625 C-194.7741614 325.56849356 -196.42160491 325.2935108 -199.625 324.53125 C-201.66475253 318.59964293 -203.67336725 312.65813102 -205.66137695 306.70898438 C-206.34023775 304.68936138 -207.02601002 302.67204715 -207.71899414 300.65722656 C-208.71797559 297.74874493 -209.69122028 294.83267087 -210.66015625 291.9140625 C-210.97155045 291.02510284 -211.28294464 290.13614319 -211.60377502 289.22024536 C-213.78809767 282.51894639 -214.75472956 275.75875713 -211.46961975 269.23782349 C-206.52318428 261.68933632 -195.9476858 259.52602876 -187.625 257.53125 C-186.965 257.53125 -186.305 257.53125 -185.625 257.53125 C-185.769375 256.40589844 -185.91375 255.28054688 -186.0625 254.12109375 C-187.98991076 238.46667383 -187.70136956 223.23471299 -186.625 207.53125 C-187.17438232 207.37567627 -187.72376465 207.22010254 -188.28979492 207.05981445 C-190.8025372 206.33791433 -193.30722385 205.59112997 -195.8125 204.84375 C-196.67681641 204.59947266 -197.54113281 204.35519531 -198.43164062 204.10351562 C-205.18211403 202.06026888 -208.89149251 199.53599632 -212.5 193.28125 C-214.82553007 185.52948311 -212.09592085 177.97051514 -209.67578125 170.4921875 C-209.38068161 169.56709381 -209.08558197 168.64200012 -208.78153992 167.68887329 C-208.15814619 165.74619398 -207.53012958 163.80499258 -206.89770508 161.86523438 C-205.93975268 158.91319188 -205.00942822 155.95334 -204.08007812 152.9921875 C-203.46781546 151.0958143 -202.85393685 149.1999619 -202.23828125 147.3046875 C-201.96615311 146.42847748 -201.69402496 145.55226746 -201.41365051 144.64950562 C-199.33163099 138.39226623 -196.49978283 132.72204193 -190.56416321 129.36605835 C-182.71877576 125.98862476 -174.22675319 129.7086941 -166.75 132.4375 C-163.86219357 133.64136681 -163.86219357 133.64136681 -161.625 133.53125 C-160.045302 130.99461957 -158.57267309 128.45454399 -157.125 125.84375 C-150.54178697 114.31891491 -142.64550013 104.28246103 -133.625 94.53125 C-136.34295717 89.42149052 -139.47607692 85.03057334 -143.13671875 80.546875 C-146.44341774 76.06851101 -146.20179279 70.86449347 -145.625 65.53125 C-141.38665796 56.52477317 -131.55990572 50.92936638 -123.64453125 45.37109375 C-120.68190996 43.28911033 -117.74795837 41.17139966 -114.82421875 39.03515625 C-114.0132373 38.4436377 -113.20225586 37.85211914 -112.36669922 37.24267578 C-110.76871828 36.07574819 -109.17263179 34.90622117 -107.57861328 33.73388672 C-106.84755371 33.20166504 -106.11649414 32.66944336 -105.36328125 32.12109375 C-104.71399658 31.64534912 -104.06471191 31.16960449 -103.39575195 30.67944336 C-98.89855107 27.76336233 -93.78398794 27.96610265 -88.625 28.53125 C-80.3784092 32.49595712 -75.05709993 41.443806 -69.625 48.53125 C-68.64402344 48.08394531 -67.66304687 47.63664062 -66.65234375 47.17578125 C-36.35345818 33.53125 -36.35345818 33.53125 -22.625 33.53125 C-22.64594727 32.86593262 -22.66689453 32.20061523 -22.68847656 31.51513672 C-22.77200609 28.47899698 -22.82377603 25.44309957 -22.875 22.40625 C-22.90851563 21.35953125 -22.94203125 20.3128125 -22.9765625 19.234375 C-23.05329791 13.17227778 -22.9807583 9.16104608 -18.625 4.53125 C-12.98610201 -0.54609313 -7.32764061 -0.05048868 0 0 Z " fill="#FFFFFF" transform="translate(240.625,7.46875)"/>
<path d="M0 0 C42.24 0 84.48 0 128 0 C128 63.36 128 126.72 128 192 C123.71 192 119.42 192 115 192 C114.97421875 190.83984375 114.9484375 189.6796875 114.921875 188.484375 C114.38902191 171.82109317 110.7465152 158.12255793 98.3125 146.1875 C85.15966666 134.99957164 70.67676804 132.65665095 54 134 C40.86170458 136.39008206 29.79172465 144.32806584 22 155 C16.52922635 164.20404837 13.7869527 172.78680611 13.375 183.4375 C13.31699219 184.67790039 13.31699219 184.67790039 13.2578125 185.94335938 C13.16446908 187.96191073 13.08119039 189.98092331 13 192 C8.71 192 4.42 192 0 192 C0 128.64 0 65.28 0 0 Z M28 28 C28 35.92 28 43.84 28 52 C35.92 52 43.84 52 52 52 C52 44.08 52 36.16 52 28 C44.08 28 36.16 28 28 28 Z M76 28 C76 35.92 76 43.84 76 52 C83.92 52 91.84 52 100 52 C100 44.08 100 36.16 100 28 C92.08 28 84.16 28 76 28 Z M28 76 C28 83.92 28 91.84 28 100 C35.92 100 43.84 100 52 100 C52 92.08 52 84.16 52 76 C44.08 76 36.16 76 28 76 Z M76 76 C76 83.92 76 91.84 76 100 C83.92 100 91.84 100 100 100 C100 92.08 100 84.16 100 76 C92.08 76 84.16 76 76 76 Z " fill="#FFFFFF" transform="translate(192,168)"/>
<path d="M0 0 C8.34468007 4.97590182 13.53387008 11.86345977 16.109375 21.2578125 C17.10789012 32.35758522 16.45884702 41.9922991 9.359375 51.0703125 C5.39825739 55.3338055 0.62024319 58.42085644 -4.890625 60.2578125 C-3.56611328 60.29648437 -3.56611328 60.29648437 -2.21484375 60.3359375 C11.51449403 60.98479987 21.47973472 64.26557546 31.08203125 74.32421875 C40.51731971 85.52236365 40.67269736 97.13292157 40.5 111.05078125 C40.4941057 112.64798422 40.49003311 114.24519496 40.48779297 115.84240723 C40.46697386 121.71016152 40.41112909 127.57774951 40.359375 133.4453125 C40.276875 146.5834375 40.194375 159.7215625 40.109375 173.2578125 C3.149375 173.2578125 -33.810625 173.2578125 -71.890625 173.2578125 C-71.973125 160.1196875 -72.055625 146.9815625 -72.140625 133.4453125 C-72.17704102 129.31668701 -72.21345703 125.18806152 -72.25097656 120.93432617 C-72.26904297 115.84240723 -72.26904297 115.84240723 -72.2723999 113.44892883 C-72.2784905 111.79853485 -72.29245005 110.14815721 -72.31292725 108.49787903 C-72.48045954 94.269011 -71.17016647 83.02588663 -60.890625 72.2578125 C-50.94114104 62.7597229 -40.33695032 60.65040594 -26.890625 60.2578125 C-28.086875 59.7009375 -29.283125 59.1440625 -30.515625 58.5703125 C-38.66909354 54.44324818 -43.61843651 48.89061545 -47.0078125 40.48828125 C-49.36824453 31.85077113 -49.04225604 21.48157859 -45.1484375 13.3671875 C-35.94791101 -2.06226686 -16.31539333 -7.82919881 0 0 Z " fill="#FFFFFF" transform="translate(271.890625,322.7421875)"/>
<path d="M0 0 C1.1088707 -0.01058945 1.1088707 -0.01058945 2.24014282 -0.02139282 C32.97641168 -0.24840581 32.97641168 -0.24840581 45.9765625 3.203125 C47.16427246 3.50911621 47.16427246 3.50911621 48.37597656 3.82128906 C83.10816259 12.97395949 115.21536638 32.22805251 136.9765625 61.203125 C137.76289063 62.21246094 138.54921875 63.22179687 139.359375 64.26171875 C158.02372311 88.76097648 170.36709231 120.71692484 170.0390625 151.703125 C170.03455078 152.52554688 170.03003906 153.34796875 170.02539062 154.1953125 C170.01374739 156.19794896 169.99581806 158.20054727 169.9765625 160.203125 C164.3665625 160.203125 158.7565625 160.203125 152.9765625 160.203125 C152.89019531 158.78644531 152.80382812 157.36976563 152.71484375 155.91015625 C150.53204009 124.18802598 141.38273485 93.45230461 119.9765625 69.203125 C119.2340625 68.35234375 118.4915625 67.5015625 117.7265625 66.625 C115.5072642 64.12079178 113.25351837 61.65491112 110.9765625 59.203125 C110.42613281 58.59855469 109.87570312 57.99398437 109.30859375 57.37109375 C84.17715857 30.87449419 46.71040792 18.3406104 10.9765625 17.203125 C-27.88257864 16.58249587 -62.99712313 33.14521398 -91.0234375 59.203125 C-91.93222656 60.03070313 -91.93222656 60.03070313 -92.859375 60.875 C-120.19810844 86.80187397 -130.92452352 123.73841042 -133.0234375 160.203125 C-138.6334375 160.203125 -144.2434375 160.203125 -150.0234375 160.203125 C-151.04478455 117.3065488 -134.06386211 78.1006097 -104.80737305 47.00830078 C-99.90074334 41.93247695 -94.66989387 37.44379237 -89.0234375 33.203125 C-88.01410156 32.41679688 -87.00476563 31.63046875 -85.96484375 30.8203125 C-61.88728195 12.47722635 -30.45598946 0.19452021 0 0 Z " fill="#FFFFFF" transform="translate(246.0234375,79.796875)"/>
<path d="M0 0 C5.82485779 3.51996782 10.54466582 8.98962934 12.5625 15.5 C13.3658611 23.31875864 13.70085302 31.14093328 8.5625 37.5 C5.53220006 40.56623235 2.44196004 43.56026998 -1.4375 45.5 C-0.1690625 45.53867187 -0.1690625 45.53867187 1.125 45.578125 C10.74962997 46.0593565 16.82020834 47.25068733 23.4375 54.4375 C27.58742937 59.29195226 28.81505096 63.48853599 28.78955078 69.85083008 C28.78930908 71.1292981 28.78906738 72.40776611 28.78881836 73.72497559 C28.77874932 75.07316282 28.76841629 76.42134811 28.7578125 77.76953125 C28.75579834 79.00296265 28.75378418 80.23639404 28.75170898 81.50720215 C28.74125516 86.109006 28.71333258 90.71075678 28.6875 95.3125 C28.64625 105.604375 28.605 115.89625 28.5625 126.5 C2.1625 126.5 -24.2375 126.5 -51.4375 126.5 C-51.52 116.27 -51.6025 106.04 -51.6875 95.5 C-51.74212402 90.67568359 -51.74212402 90.67568359 -51.79785156 85.75390625 C-51.80953964 83.19011095 -51.81973118 80.6263082 -51.828125 78.0625 C-51.84858887 76.74314453 -51.86905273 75.42378906 -51.89013672 74.06445312 C-51.89335212 65.56294332 -51.23386441 59.83223294 -45.47265625 53.2578125 C-44.82167969 52.71898437 -44.17070312 52.18015625 -43.5 51.625 C-42.52740234 50.79355469 -42.52740234 50.79355469 -41.53515625 49.9453125 C-37.05109818 46.85573804 -33.00960291 46.20133957 -27.625 45.875 C-26.46355469 45.80023438 -25.30210937 45.72546875 -24.10546875 45.6484375 C-23.22503906 45.59945312 -22.34460938 45.55046875 -21.4375 45.5 C-22.30375 44.984375 -23.17 44.46875 -24.0625 43.9375 C-29.41124832 40.36321795 -33.49267179 35.67349138 -35.4375 29.5 C-36.24264105 21.66391792 -36.56210392 13.88077423 -31.4375 7.5 C-23.13577971 -1.21767287 -11.72105717 -5.1940371 0 0 Z " fill="#FFFFFF" transform="translate(379.4375,361.5)"/>
<path d="M0 0 C5.82485779 3.51996782 10.54466582 8.98962934 12.5625 15.5 C13.3658611 23.31875864 13.70085302 31.14093328 8.5625 37.5 C5.53220006 40.56623235 2.44196004 43.56026998 -1.4375 45.5 C-0.1690625 45.53867187 -0.1690625 45.53867187 1.125 45.578125 C10.74962997 46.0593565 16.82020834 47.25068733 23.4375 54.4375 C27.58742937 59.29195226 28.81505096 63.48853599 28.78955078 69.85083008 C28.78930908 71.1292981 28.78906738 72.40776611 28.78881836 73.72497559 C28.77874932 75.07316282 28.76841629 76.42134811 28.7578125 77.76953125 C28.75579834 79.00296265 28.75378418 80.23639404 28.75170898 81.50720215 C28.74125516 86.109006 28.71333258 90.71075678 28.6875 95.3125 C28.64625 105.604375 28.605 115.89625 28.5625 126.5 C2.1625 126.5 -24.2375 126.5 -51.4375 126.5 C-51.52 116.27 -51.6025 106.04 -51.6875 95.5 C-51.74212402 90.67568359 -51.74212402 90.67568359 -51.79785156 85.75390625 C-51.80953964 83.19011095 -51.81973118 80.6263082 -51.828125 78.0625 C-51.84858887 76.74314453 -51.86905273 75.42378906 -51.89013672 74.06445312 C-51.89335212 65.56294332 -51.23386441 59.83223294 -45.47265625 53.2578125 C-44.82167969 52.71898437 -44.17070313 52.18015625 -43.5 51.625 C-42.52740234 50.79355469 -42.52740234 50.79355469 -41.53515625 49.9453125 C-37.05109818 46.85573804 -33.00960291 46.20133957 -27.625 45.875 C-26.46355469 45.80023438 -25.30210937 45.72546875 -24.10546875 45.6484375 C-23.22503906 45.59945312 -22.34460938 45.55046875 -21.4375 45.5 C-22.30375 44.984375 -23.17 44.46875 -24.0625 43.9375 C-29.41124832 40.36321795 -33.49267179 35.67349138 -35.4375 29.5 C-36.24264105 21.66391792 -36.56210392 13.88077423 -31.4375 7.5 C-23.13577971 -1.21767287 -11.72105717 -5.1940371 0 0 Z " fill="#FFFFFF" transform="translate(155.4375,361.5)"/>
<path d="M0 0 C29.04 0 58.08 0 88 0 C88 32.34 88 64.68 88 98 C85.03 96.02 82.06 94.04 79 92 C77.25332513 91.01822414 75.48724413 90.06822585 73.6875 89.1875 C72.88699219 88.78917969 72.08648437 88.39085937 71.26171875 87.98046875 C62.07412241 83.9975902 49.27972895 84.70398185 40 88 C27.18454412 93.77825341 19.79005628 102.80986137 14.5625 115.6875 C14.0298061 117.12064717 13.5041113 118.55655087 13 120 C11.02090602 120.02686553 9.04171029 120.04633375 7.0625 120.0625 C5.96035156 120.07410156 4.85820313 120.08570313 3.72265625 120.09765625 C1 120 1 120 0 119 C-0.09584998 117.45646869 -0.1218807 115.90854892 -0.12025452 114.36204529 C-0.12162918 113.35938629 -0.12300385 112.35672729 -0.12442017 111.32368469 C-0.12082489 110.21454208 -0.11722961 109.10539948 -0.11352539 107.96264648 C-0.11367142 106.80182556 -0.11381744 105.64100464 -0.1139679 104.44500732 C-0.11326817 100.58701748 -0.10547298 96.72907522 -0.09765625 92.87109375 C-0.09579228 90.20451272 -0.09431912 87.53793436 -0.09336853 84.87135315 C-0.09025548 78.5567112 -0.08204244 72.24208649 -0.07201904 65.92745215 C-0.05976297 58.03562244 -0.05427524 50.14378996 -0.04882812 42.25195312 C-0.03907701 28.16795531 -0.01904673 14.08399512 0 0 Z M20 24 C20 29.28 20 34.56 20 40 C25.28 40 30.56 40 36 40 C36 34.72 36 29.44 36 24 C30.72 24 25.44 24 20 24 Z M52 24 C52 29.28 52 34.56 52 40 C57.28 40 62.56 40 68 40 C68 34.72 68 29.44 68 24 C62.72 24 57.44 24 52 24 Z " fill="#FFFFFF" transform="translate(88,256)"/>
<path d="M0 0 C29.04 0 58.08 0 88 0 C88.04016367 29.69880147 88.04016367 29.69880147 88.05025387 44.31758404 C88.05580566 52.23915388 88.06286533 60.16071325 88.07543945 68.08227539 C88.0853866 74.35184694 88.0918535 80.62141061 88.09408849 86.89098984 C88.09539555 90.21265621 88.09899997 93.53429466 88.10573006 96.85595512 C88.11293628 100.55819947 88.11399112 104.26039631 88.11352539 107.96264648 C88.11712067 109.07178909 88.12071594 110.1809317 88.12442017 111.32368469 C88.1230455 112.32634369 88.12167084 113.32900269 88.12025452 114.36204529 C88.12117631 115.23867042 88.1220981 116.11529554 88.12304783 117.01848507 C88 119 88 119 87 120 C84.98035801 120.07244053 82.95832876 120.08377188 80.9375 120.0625 C79.83277344 120.05347656 78.72804688 120.04445313 77.58984375 120.03515625 C76.73519531 120.02355469 75.88054687 120.01195312 75 120 C74.5978125 118.89205078 74.5978125 118.89205078 74.1875 117.76171875 C69.11865256 104.63940646 62.23455082 94.78783708 49.26953125 88.72265625 C38.15269812 84.31668995 27.0289661 83.72930461 15.81640625 88.296875 C10.02520926 91.10209901 5.3050466 94.210681 0 98 C0 65.66 0 33.32 0 0 Z M20 24 C20 29.28 20 34.56 20 40 C25.28 40 30.56 40 36 40 C36 34.72 36 29.44 36 24 C30.72 24 25.44 24 20 24 Z M52 24 C52 29.28 52 34.56 52 40 C57.28 40 62.56 40 68 40 C68 34.72 68 29.44 68 24 C62.72 24 57.44 24 52 24 Z " fill="#FFFFFF" transform="translate(336,256)"/>
<path d="M0 0 C4.68796317 2.8950501 8.77605467 6.42344712 10.234375 11.89453125 C11.17869885 18.83071529 11.38519025 25.0220555 7.546875 31.08203125 C5.15927273 34.13317144 2.83269938 36.3070352 -0.765625 37.89453125 C-0.18554688 37.9925 0.39453125 38.09046875 0.9921875 38.19140625 C9.55389612 39.83028117 15.27436735 43.70849607 20.234375 50.89453125 C21.81810608 54.32708115 22.48176027 57.00456453 22.46142578 60.77661133 C22.46118408 61.7302356 22.46094238 62.68385986 22.46069336 63.66638184 C22.45046143 64.65561646 22.44022949 65.64485107 22.4296875 66.6640625 C22.42767334 67.58296265 22.42565918 68.50186279 22.42358398 69.4486084 C22.4131513 72.86813375 22.38522874 76.28758772 22.359375 79.70703125 C22.318125 87.35890625 22.276875 95.01078125 22.234375 102.89453125 C1.114375 102.89453125 -20.005625 102.89453125 -41.765625 102.89453125 C-41.848125 95.30453125 -41.930625 87.71453125 -42.015625 79.89453125 C-42.05204102 77.51363281 -42.08845703 75.13273437 -42.12597656 72.6796875 C-42.13766959 70.77214456 -42.14785996 68.86459157 -42.15625 66.95703125 C-42.17671387 65.98314453 -42.19717773 65.00925781 -42.21826172 64.00585938 C-42.22201086 56.61255713 -40.7194734 51.26532446 -35.80078125 45.65234375 C-30.21709565 41.03060002 -26.02045073 38.90683252 -18.765625 37.89453125 C-19.838125 37.21390625 -20.910625 36.53328125 -22.015625 35.83203125 C-25.75522715 33.08611649 -28.43814818 30.42037326 -29.765625 25.89453125 C-30.71218895 19.05457785 -30.91984238 12.78802266 -27.203125 6.76953125 C-20.35582416 -1.72238689 -10.37023648 -4.14516515 0 0 Z " fill="#FFFFFF" transform="translate(465.765625,377.10546875)"/>
<path d="M0 0 C4.68796317 2.8950501 8.77605467 6.42344712 10.234375 11.89453125 C11.17869885 18.83071529 11.38519025 25.0220555 7.546875 31.08203125 C5.15927273 34.13317144 2.83269938 36.3070352 -0.765625 37.89453125 C-0.18554688 37.9925 0.39453125 38.09046875 0.9921875 38.19140625 C9.55389612 39.83028117 15.27436735 43.70849607 20.234375 50.89453125 C21.81810608 54.32708115 22.48176027 57.00456453 22.46142578 60.77661133 C22.46118408 61.7302356 22.46094238 62.68385986 22.46069336 63.66638184 C22.45046143 64.65561646 22.44022949 65.64485107 22.4296875 66.6640625 C22.42767334 67.58296265 22.42565918 68.50186279 22.42358398 69.4486084 C22.4131513 72.86813375 22.38522874 76.28758772 22.359375 79.70703125 C22.318125 87.35890625 22.276875 95.01078125 22.234375 102.89453125 C1.114375 102.89453125 -20.005625 102.89453125 -41.765625 102.89453125 C-41.848125 95.30453125 -41.930625 87.71453125 -42.015625 79.89453125 C-42.05204102 77.51363281 -42.08845703 75.13273437 -42.12597656 72.6796875 C-42.13766959 70.77214456 -42.14785996 68.86459157 -42.15625 66.95703125 C-42.17671387 65.98314453 -42.19717773 65.00925781 -42.21826172 64.00585938 C-42.22201086 56.61255713 -40.7194734 51.26532446 -35.80078125 45.65234375 C-30.21709565 41.03060002 -26.02045073 38.90683252 -18.765625 37.89453125 C-19.838125 37.21390625 -20.910625 36.53328125 -22.015625 35.83203125 C-25.75522715 33.08611649 -28.43814818 30.42037326 -29.765625 25.89453125 C-30.71218895 19.05457785 -30.91984238 12.78802266 -27.203125 6.76953125 C-20.35582416 -1.72238689 -10.37023648 -4.14516515 0 0 Z " fill="#FFFFFF" transform="translate(65.765625,377.10546875)"/>
</svg>
