<?xml version="1.0" encoding="UTF-8"?>
<svg version="1.1" xmlns="http://www.w3.org/2000/svg" width="200" height="200">
<path d="M0 0 C1.0209375 0.4640625 1.0209375 0.4640625 2.0625 0.9375 C1.84851562 1.66839844 1.63453125 2.39929688 1.4140625 3.15234375 C0.98618681 6.54207005 1.64357088 7.65052695 3.4375 10.5 C7.53404698 17.10253522 7.72687221 23.24976447 7.0625 30.9375 C5.12501865 39.08425895 0.67670933 45.65446965 -6.14453125 50.5078125 C-10.72549233 53.2392203 -14.62246964 54.59824274 -19.9375 54.9375 C-19.9375 57.2475 -19.9375 59.5575 -19.9375 61.9375 C-2.7775 61.9375 14.3825 61.9375 32.0625 61.9375 C32.0625 60.2875 32.0625 58.6375 32.0625 56.9375 C31.50264404 56.95844727 30.94278809 56.97939453 30.3659668 57.00097656 C27.82749414 57.08416202 25.289308 57.13616381 22.75 57.1875 C21.86892578 57.22101563 20.98785156 57.25453125 20.08007812 57.2890625 C19.23251953 57.30195313 18.38496094 57.31484375 17.51171875 57.328125 C16.73143311 57.34907227 15.95114746 57.37001953 15.1472168 57.39160156 C13.0625 56.9375 13.0625 56.9375 11.30932617 55.42089844 C9.55642627 51.92951449 9.63330355 48.63293474 9.6640625 44.8125 C9.66119232 44.02858887 9.65832214 43.24467773 9.65536499 42.43701172 C9.65332736 40.78287024 9.65883619 39.1287045 9.67138672 37.47460938 C9.6874456 34.94606529 9.67152883 32.41911951 9.65234375 29.890625 C9.65432624 28.28124648 9.65817003 26.67186895 9.6640625 25.0625 C9.65798981 24.3082373 9.65191711 23.55397461 9.6456604 22.77685547 C9.70309285 18.47975848 10.00435024 16.01101002 13.0625 12.9375 C15.37719727 12.42956543 15.37719727 12.42956543 18.12890625 12.41992188 C19.16007568 12.40731323 20.19124512 12.39470459 21.25366211 12.38171387 C22.36620361 12.38981079 23.47874512 12.39790771 24.625 12.40625 C25.76783447 12.4024231 26.91066895 12.39859619 28.08813477 12.39465332 C30.50570557 12.3919299 32.92330562 12.39932097 35.34082031 12.41601562 C39.04819226 12.4374174 42.75362606 12.41622662 46.4609375 12.390625 C48.80729596 12.3932682 51.15365321 12.39839301 53.5 12.40625 C54.6125415 12.39815308 55.72508301 12.39005615 56.87133789 12.38171387 C57.90250732 12.39432251 58.93367676 12.40693115 59.99609375 12.41992188 C61.3581897 12.42469543 61.3581897 12.42469543 62.74780273 12.42956543 C65.0625 12.9375 65.0625 12.9375 66.87915039 14.71984863 C68.0625 16.9375 68.0625 16.9375 68.0625 20.9375 C68.784375 21.06125 69.50625 21.185 70.25 21.3125 C73.0625 21.9375 73.0625 21.9375 75.25 23 C80.62983804 24.79327935 86.10611531 24.85815162 91.25 22.4375 C92.178125 21.9425 93.10625 21.4475 94.0625 20.9375 C99.99039167 20.1690696 104.22058082 21.64173989 109.0625 24.9375 C113.62494181 29.0390891 115.82400054 33.81136187 116.28955078 39.91357422 C116.27384033 41.43748779 116.27384033 41.43748779 116.2578125 42.9921875 C116.24814453 44.65507812 116.24814453 44.65507812 116.23828125 46.3515625 C116.21314453 48.06472656 116.21314453 48.06472656 116.1875 49.8125 C116.17847656 50.9778125 116.16945312 52.143125 116.16015625 53.34375 C116.13667432 56.20854577 116.10383141 59.07291535 116.0625 61.9375 C117.34125 61.89625 118.62 61.855 119.9375 61.8125 C122.1171875 61.7421875 122.1171875 61.7421875 124.0625 61.9375 C126.0625 63.9375 126.0625 63.9375 126.328125 66.46875 C126.32296875 67.4484375 126.3178125 68.428125 126.3125 69.4375 C126.32023437 70.90703125 126.32023437 70.90703125 126.328125 72.40625 C126.0625 74.9375 126.0625 74.9375 124.0625 76.9375 C120.4375 77.0625 120.4375 77.0625 117.0625 76.9375 C117.09730469 77.98550781 117.13210937 79.03351563 117.16796875 80.11328125 C117.19610937 81.49217147 117.22340924 82.87107902 117.25 84.25 C117.27513672 84.94029297 117.30027344 85.63058594 117.32617188 86.34179688 C117.36743172 89.18872605 117.35441997 91.40664198 115.96484375 93.93359375 C113.04286669 95.47558165 110.68370766 95.01859879 107.4375 94.6875 C106.26960937 94.57921875 105.10171875 94.4709375 103.8984375 94.359375 C101.0625 93.9375 101.0625 93.9375 100.0625 92.9375 C100.0625 87.6575 100.0625 82.3775 100.0625 76.9375 C59.8025 76.9375 19.5425 76.9375 -21.9375 76.9375 C-21.9375 82.2175 -21.9375 87.4975 -21.9375 92.9375 C-22.9375 93.9375 -22.9375 93.9375 -26.31640625 94.03515625 C-27.71097077 94.02848369 -29.10551743 94.01652532 -30.5 94 C-31.21091797 93.99548828 -31.92183594 93.99097656 -32.65429688 93.98632812 C-34.41540013 93.97450864 -36.17646036 93.95657263 -37.9375 93.9375 C-39.47016582 90.87216836 -39.04026471 87.66995728 -39 84.3125 C-38.99548828 83.60609375 -38.99097656 82.8996875 -38.98632812 82.171875 C-38.97453875 80.42704725 -38.95660324 78.682263 -38.9375 76.9375 C-39.68 77.164375 -40.4225 77.39125 -41.1875 77.625 C-43.9375 77.9375 -43.9375 77.9375 -46.2265625 76.84765625 C-48.52407425 74.28262601 -48.41210813 72.77525934 -48.3125 69.375 C-48.29960938 68.40433594 -48.28671875 67.43367188 -48.2734375 66.43359375 C-47.9375 63.9375 -47.9375 63.9375 -45.9375 61.9375 C-43.87451172 61.71044922 -43.87451172 61.71044922 -41.3671875 61.7421875 C-40.47128906 61.74863281 -39.57539062 61.75507813 -38.65234375 61.76171875 C-37.71519531 61.77847656 -36.77804688 61.79523438 -35.8125 61.8125 C-34.86761719 61.82152344 -33.92273437 61.83054688 -32.94921875 61.83984375 C-30.61172708 61.86345478 -28.27473877 61.89638484 -25.9375 61.9375 C-25.9375 59.6275 -25.9375 57.3175 -25.9375 54.9375 C-26.9275 54.855 -27.9175 54.7725 -28.9375 54.6875 C-32.80204592 54.16123053 -35.76535315 52.67424653 -39.140625 50.77734375 C-41.05988972 49.72578777 -41.05988972 49.72578777 -43.9375 49.9375 C-46.0625 49.625 -46.0625 49.625 -47.9375 48.9375 C-48.4325 47.4525 -48.4325 47.4525 -48.9375 45.9375 C-46.2975 43.2975 -43.6575 40.6575 -40.9375 37.9375 C-41.4325 37.03 -41.9275 36.1225 -42.4375 35.1875 C-44.92285668 29.32491224 -44.93995084 22.71402865 -43.31640625 16.59765625 C-40.97410981 11.17393871 -36.94846471 7.91115257 -31.9375 4.9375 C-25.92468663 2.93322888 -18.55035405 2.89052242 -12.6875 5.4375 C-11.32625 6.18 -11.32625 6.18 -9.9375 6.9375 C-9.49019531 6.42058594 -9.04289062 5.90367188 -8.58203125 5.37109375 C-3.58243997 -0.07622213 -3.58243997 -0.07622213 0 0 Z M-24.9375 8.9375 C-25.5975 9.5975 -26.2575 10.2575 -26.9375 10.9375 C-23.9675 11.4325 -23.9675 11.4325 -20.9375 11.9375 C-20.9375 10.9475 -20.9375 9.9575 -20.9375 8.9375 C-22.2575 8.9375 -23.5775 8.9375 -24.9375 8.9375 Z M-4.9375 9.9375 C-6.33975034 12.99531208 -6.33975034 12.99531208 -4.5 16 C-2.11536532 21.23294832 -1.93474661 26.68563306 -3.62890625 32.1796875 C-6.14644877 37.76252237 -9.65240093 41.54201163 -15.30078125 43.94140625 C-20.48081627 45.69428608 -24.54277934 46.41840371 -29.9375 44.9375 C-31.61084039 43.94870795 -33.27901823 42.95101664 -34.9375 41.9375 C-36.4225 42.4325 -36.4225 42.4325 -37.9375 42.9375 C-37.21659864 46.15898832 -37.21659864 46.15898832 -34.25 47.625 C-27.42593388 50.27567031 -18.22985592 50.39495622 -11.5 47.4375 C-6.08324078 44.14084869 -2.05157835 39.45628583 0.5 33.6875 C1.57191174 26.54142174 2.14502978 19.61631452 -0.9375 12.9375 C-1.5975 12.9375 -2.2575 12.9375 -2.9375 12.9375 C-2.9375 11.9475 -2.9375 10.9575 -2.9375 9.9375 C-3.5975 9.9375 -4.2575 9.9375 -4.9375 9.9375 Z M-33.9375 13.9375 C-33.6075 15.5875 -33.2775 17.2375 -32.9375 18.9375 C-31.9475 18.9375 -30.9575 18.9375 -29.9375 18.9375 C-29.2775 17.9475 -28.6175 16.9575 -27.9375 15.9375 C-30.75259993 13.6601499 -30.75259993 13.6601499 -33.9375 13.9375 Z M-16.625 15.4375 C-17.058125 15.9325 -17.49125 16.4275 -17.9375 16.9375 C-16.6175 17.9275 -15.2975 18.9175 -13.9375 19.9375 C-13.2775 17.9575 -12.6175 15.9775 -11.9375 13.9375 C-14.94009517 13.60531808 -14.94009517 13.60531808 -16.625 15.4375 Z M16.0625 17.9375 C16.0625 29.1575 16.0625 40.3775 16.0625 51.9375 C21.3425 51.9375 26.6225 51.9375 32.0625 51.9375 C32.10375 50.205 32.145 48.4725 32.1875 46.6875 C32.21070312 45.71296875 32.23390625 44.7384375 32.2578125 43.734375 C32.05771288 40.86894844 31.37482823 39.43144648 30.0625 36.9375 C30.23917812 33.5806158 30.44100745 30.97332092 32.1875 28.0625 C35.14556112 26.28766333 37.64050046 26.05549998 41.0625 25.9375 C43.94267082 27.15357212 45.51488499 28.24053544 47.4375 30.6875 C48.34827569 33.9662925 47.7457432 36.64551005 47.0625 39.9375 C46.7325 40.2675 46.4025 40.5975 46.0625 40.9375 C45.99023498 42.79037502 45.9786878 44.64583878 46 46.5 C46.020625 48.294375 46.04125 50.08875 46.0625 51.9375 C51.3425 51.9375 56.6225 51.9375 62.0625 51.9375 C62.0625 40.7175 62.0625 29.4975 62.0625 17.9375 C46.8825 17.9375 31.7025 17.9375 16.0625 17.9375 Z M-26.0625 21.9375 C-26.68125 22.5975 -27.3 23.2575 -27.9375 23.9375 C-26.56766497 27.09865776 -25.9484362 27.9302092 -22.9375 29.9375 C-21.2875 28.2875 -19.6375 26.6375 -17.9375 24.9375 C-19.21812485 23.2300002 -20.55517557 21.56376404 -21.9375 19.9375 C-24.18112573 19.7090451 -24.18112573 19.7090451 -26.0625 21.9375 Z M-8.9375 20.9375 C-9.5975 22.2575 -10.2575 23.5775 -10.9375 24.9375 C-9.9475 26.2575 -8.9575 27.5775 -7.9375 28.9375 C-7.9375 26.2975 -7.9375 23.6575 -7.9375 20.9375 C-8.2675 20.9375 -8.5975 20.9375 -8.9375 20.9375 Z M-37.9375 21.9375 C-38.2675 23.5875 -38.5975 25.2375 -38.9375 26.9375 C-37.9475 27.4325 -37.9475 27.4325 -36.9375 27.9375 C-36.6075 26.2875 -36.2775 24.6375 -35.9375 22.9375 C-36.5975 22.6075 -37.2575 22.2775 -37.9375 21.9375 Z M98.0625 26.9375 C92.83065813 35.16091725 90.28758065 41.1983924 90.1328125 51.13671875 C90.0625 53.9375 90.0625 53.9375 89.0625 55.9375 C87.08340602 55.96436553 85.10421029 55.98383375 83.125 56 C82.02285156 56.01160156 80.92070312 56.02320313 79.78515625 56.03515625 C77.0625 55.9375 77.0625 55.9375 76.0625 54.9375 C75.9814794 52.83396505 75.92330093 50.72954048 75.875 48.625 C75.41989154 40.97446979 72.96091332 35.44677729 69.0625 28.9375 C68.7325 28.9375 68.4025 28.9375 68.0625 28.9375 C68.04268066 29.6488208 68.02286133 30.3601416 68.00244141 31.09301758 C67.90725133 34.31238816 67.79754771 37.5311045 67.6875 40.75 C67.64109375 42.42932617 67.64109375 42.42932617 67.59375 44.14257812 C67.53574219 45.75229492 67.53574219 45.75229492 67.4765625 47.39453125 C67.4451416 48.38428955 67.4137207 49.37404785 67.38134766 50.39379883 C67.0625 52.9375 67.0625 52.9375 65.0625 55.9375 C62.6796875 56.44921875 62.6796875 56.44921875 59.9375 56.625 C58.57238281 56.72361328 58.57238281 56.72361328 57.1796875 56.82421875 C56.48101562 56.86160156 55.78234375 56.89898437 55.0625 56.9375 C55.0625 58.5875 55.0625 60.2375 55.0625 61.9375 C73.2125 61.9375 91.3625 61.9375 110.0625 61.9375 C111.92588998 39.54624597 111.92588998 39.54624597 107.0625 30.9375 C103.02247747 27.66746034 103.02247747 27.66746034 98.0625 26.9375 Z M-31.9375 29.9375 C-34.2148501 32.75259993 -34.2148501 32.75259993 -33.9375 35.9375 C-31.9575 35.2775 -29.9775 34.6175 -27.9375 33.9375 C-29.2575 32.6175 -30.5775 31.2975 -31.9375 29.9375 Z M-14.9375 29.9375 C-15.9635734 31.25087396 -16.96477325 32.58414105 -17.9375 33.9375 C-15.9575 34.5975 -13.9775 35.2575 -11.9375 35.9375 C-12.5975 33.9575 -13.2575 31.9775 -13.9375 29.9375 C-14.2675 29.9375 -14.5975 29.9375 -14.9375 29.9375 Z M-25.5 38.4375 C-25.974375 38.9325 -26.44875 39.4275 -26.9375 39.9375 C-24.2975 39.9375 -21.6575 39.9375 -18.9375 39.9375 C-22.19224541 36.77578897 -22.19224541 36.77578897 -25.5 38.4375 Z M46.0625 56.9375 C46.0625 58.5875 46.0625 60.2375 46.0625 61.9375 C47.3825 61.9375 48.7025 61.9375 50.0625 61.9375 C50.0625 60.2875 50.0625 58.6375 50.0625 56.9375 C48.7425 56.9375 47.4225 56.9375 46.0625 56.9375 Z M-42.9375 66.9375 C-42.9375 68.5875 -42.9375 70.2375 -42.9375 71.9375 C11.1825 71.9375 65.3025 71.9375 121.0625 71.9375 C121.0625 70.2875 121.0625 68.6375 121.0625 66.9375 C66.9425 66.9375 12.8225 66.9375 -42.9375 66.9375 Z " fill="#FFFFFF" transform="translate(60.9375,93.0625)"/>
<path d="M0 0 C0.639375 0.33 1.27875 0.66 1.9375 1 C2.68288536 5.54415655 3.34132192 9.58662329 2.0625 14.0625 C-0.03592259 16.96326064 -2.2156693 18.93590246 -4.875 21.3125 C-8.08126766 24.25960423 -8.08126766 24.25960423 -9.34375 28.2265625 C-8.82870411 30.65586226 -8.06661054 32.72834307 -7.0625 35 C-2.1464939 46.80929878 -2.1464939 46.80929878 -3.0625 52 C-5.5625 54.9375 -5.5625 54.9375 -8.0625 57 C-13.21364363 54.57757029 -15.44081845 50.96806806 -18.375 46.3125 C-18.82939453 45.61060547 -19.28378906 44.90871094 -19.75195312 44.18554688 C-20.86504559 42.46318275 -21.96509803 40.73240351 -23.0625 39 C-25.0425 39.66 -27.0225 40.32 -29.0625 41 C-28.7325 41.825 -28.4025 42.65 -28.0625 43.5 C-26.83342351 47.8017677 -26.56605661 50.53200949 -27.0625 55 C-29.25 58.0625 -29.25 58.0625 -32.0625 60 C-34.5625 60.3125 -34.5625 60.3125 -37.0625 59 C-38.42278737 56.96807074 -39.60134439 54.86851138 -40.80078125 52.73828125 C-41.42533203 51.87783203 -41.42533203 51.87783203 -42.0625 51 C-44.69028044 50.49864801 -44.69028044 50.49864801 -47.0625 51 C-49.0625 49 -49.0625 49 -49.25 46.0625 C-49.518125 45.051875 -49.78625 44.04125 -50.0625 43 C-53.50233432 41.19234122 -53.50233432 41.19234122 -57.0625 40 C-58.517776 37.08944799 -58.51317148 35.21908202 -58.0625 32 C-55.53048533 29.53128569 -53.66151504 28.04288546 -50.0234375 27.9453125 C-46.65611239 28.33627534 -43.3174373 29.05064329 -40.0625 30 C-39.0725 28.35 -38.0825 26.7 -37.0625 25 C-38.0525 24.67 -39.0425 24.34 -40.0625 24 C-40.67738281 23.37996094 -41.29226562 22.75992188 -41.92578125 22.12109375 C-44.8712482 19.19716586 -48.2676942 17.57882179 -51.91796875 15.66015625 C-54.0625 14 -54.0625 14 -54.9609375 11.44921875 C-55.0625 9 -55.0625 9 -53.5 6.75 C-50.44160133 4.5542266 -48.84074131 4.18567357 -45.0625 4 C-41.06347797 5.16215645 -37.3174419 6.94832553 -33.51953125 8.63867188 C-32.74738281 8.96544922 -31.97523437 9.29222656 -31.1796875 9.62890625 C-30.48472168 9.93900635 -29.78975586 10.24910645 -29.07373047 10.56860352 C-27.01081759 11.1993917 -27.01081759 11.1993917 -24.91650391 10.20288086 C-22.66601864 8.74276222 -21.24737811 7.08312202 -19.5625 5 C-14.24278708 -1.57709961 -7.97137546 -2.60289811 0 0 Z " fill="#FFFFFF" transform="translate(71.0625,32)"/>
<path d="M0 0 C4.75814358 2.66873921 8.00029965 6.12589896 9.75 11.375 C10.71286067 21.00360674 8.73672244 27.96262378 2.625 35.4375 C1.1171875 37.16015625 1.1171875 37.16015625 -0.25 38.375 C-0.91 38.375 -1.57 38.375 -2.25 38.375 C-2.58 39.035 -2.91 39.695 -3.25 40.375 C-4.66655793 40.4022415 -6.08327045 40.42150467 -7.5 40.4375 C-8.28890625 40.44910156 -9.0778125 40.46070313 -9.890625 40.47265625 C-13.41821028 40.32664693 -15.42489766 40.16934194 -18.03125 37.66015625 C-22.24225577 32.21456015 -25.14237888 26.93582059 -27.25 20.375 C-27.47816406 19.71757813 -27.70632812 19.06015625 -27.94140625 18.3828125 C-28.6061512 14.05776305 -26.33891886 10.05601378 -24.25 6.375 C-17.58204804 -1.06954075 -9.55532018 -4.3697005 0 0 Z " fill="#FFFFFF" transform="translate(152.25,72.625)"/>
<path d="M0 0 C4.98628111 3.5947608 8.97500897 7.7435187 10.03125 13.9609375 C10.82355287 25.88509576 2.54055067 35.52590016 -4.19921875 44.671875 C-6.42989217 47.06335482 -7.24237604 47.34843426 -10.3125 47.9375 C-27.42865729 25.64385741 -27.42865729 25.64385741 -27.875 16.5625 C-26.69470771 8.95617193 -22.88076158 4.98101723 -17.1875 0.125 C-11.6333846 -2.16909114 -5.66021321 -1.81554009 0 0 Z M-14.8125 12.0625 C-16.56427508 14.85899994 -16.56427508 14.85899994 -16.25 18.0625 C-15.08865978 21.63553372 -15.08865978 21.63553372 -12.3125 23.9375 C-9.44612718 25.02642339 -9.44612718 25.02642339 -6.3125 24.9375 C-3.30270117 23.59634601 -3.30270117 23.59634601 -1.3125 20.9375 C-0.67515538 16.97180012 -0.69250328 14.90469488 -2.875 11.5 C-7.23486838 8.70521258 -10.84914301 8.69364656 -14.8125 12.0625 Z " fill="#FFFFFF" transform="translate(177.3125,14.0625)"/>
<path d="M0 0 C3.36939433 0.33693943 5.42910583 1.88819408 8 4 C7.8125 5.875 7.8125 5.875 7 8 C4.5625 9.3125 4.5625 9.3125 2 10 C1.34 9.67 0.68 9.34 0 9 C-0.73075648 6.6859378 -1.40138258 4.35171131 -2 2 C-1.34 1.34 -0.68 0.68 0 0 Z " fill="#FFFFFF" transform="translate(99,39)"/>
<path d="M0 0 C1.32 0.66 2.64 1.32 4 2 C3.8125 3.875 3.8125 3.875 3 6 C0.4375 7.25 0.4375 7.25 -2 8 C-2.99 7.01 -3.98 6.02 -5 5 C-3.35 3.35 -1.7 1.7 0 0 Z " fill="#FFFFFF" transform="translate(93,47)"/>
<path d="M0 0 C2.97 0.495 2.97 0.495 6 1 C6.33 2.65 6.66 4.3 7 6 C5.3125 6.75 5.3125 6.75 3 7 C0.25 5.0625 0.25 5.0625 -2 3 C-1.34 2.01 -0.68 1.02 0 0 Z " fill="#FFFFFF" transform="translate(133,46)"/>
<path d="M0 0 C1.9375 0.3125 1.9375 0.3125 4 1 C5 4 5 4 4.0625 6.1875 C3.5365625 7.0846875 3.5365625 7.0846875 3 8 C0.03 7.505 0.03 7.505 -3 7 C-2.01 4.69 -1.02 2.38 0 0 Z " fill="#FFFFFF" transform="translate(113,69)"/>
<path d="M0 0 C1.65 0.33 3.3 0.66 5 1 C5.33 2.98 5.66 4.96 6 7 C4.35 7.33 2.7 7.66 1 8 C0.26919734 6.02253397 -0.39421747 4.01927511 -1 2 C-0.67 1.34 -0.34 0.68 0 0 Z " fill="#FFFFFF" transform="translate(111,58)"/>
<path d="M0 0 C-0.33 1.65 -0.66 3.3 -1 5 C-5.75 6.125 -5.75 6.125 -8 5 C-7.67 3.35 -7.34 1.7 -7 0 C-3.86650268 -1.04449911 -3.01031744 -0.93423645 0 0 Z " fill="#FFFFFF" transform="translate(110,78)"/>
<path d="M0 0 C2.4375 0.1875 2.4375 0.1875 5 1 C6.375 2.9375 6.375 2.9375 7 5 C6.67 5.66 6.34 6.32 6 7 C3.03 6.505 3.03 6.505 0 6 C-0.38218767 4.34385343 -0.71395102 2.67542976 -1 1 C-0.67 0.67 -0.34 0.34 0 0 Z " fill="#FFFFFF" transform="translate(92,76)"/>
<path d="M0 0 C1.98 0 3.96 0 6 0 C6.33 1.65 6.66 3.3 7 5 C6.01 5.66 5.02 6.32 4 7 C2.35 6.01 0.7 5.02 -1 4 C-0.67 2.68 -0.34 1.36 0 0 Z " fill="#FFFFFF" transform="translate(154,56)"/>
<path d="M0 0 C1.98 0.66 3.96 1.32 6 2 C5.625 4.4375 5.625 4.4375 5 7 C4.01 7.495 4.01 7.495 3 8 C0.9375 7.3125 0.9375 7.3125 -1 6 C-1.875 4 -1.875 4 -2 2 C-1.34 1.34 -0.68 0.68 0 0 Z " fill="#FFFFFF" transform="translate(144,51)"/>
<path d="M0 0 C1.65 0.33 3.3 0.66 5 1 C5.33 2.98 5.66 4.96 6 7 C4.68 7.33 3.36 7.66 2 8 C0.4375 5.6875 0.4375 5.6875 -1 3 C-0.67 2.01 -0.34 1.02 0 0 Z " fill="#FFFFFF" transform="translate(84,68)"/>
<path d="M0 0 C1.65 0.33 3.3 0.66 5 1 C5.33 2.98 5.66 4.96 6 7 C4.35 7 2.7 7 1 7 C0.67 6.01 0.34 5.02 0 4 C-0.66 3.67 -1.32 3.34 -2 3 C-1.34 2.01 -0.68 1.02 0 0 Z " fill="#FFFFFF" transform="translate(106,48)"/>
<path d="M0 0 C1.98 0 3.96 0 6 0 C6.66 1.32 7.32 2.64 8 4 C7.34 4.66 6.68 5.32 6 6 C2.875 5.625 2.875 5.625 0 5 C-0.33 4.01 -0.66 3.02 -1 2 C-0.67 1.34 -0.34 0.68 0 0 Z " fill="#FFFFFF" transform="translate(122,42)"/>
<path d="M0 0 C2.97 0.495 2.97 0.495 6 1 C6.33 2.32 6.66 3.64 7 5 C5.25 6.125 5.25 6.125 3 7 C0.75 6.125 0.75 6.125 -1 5 C-0.67 3.35 -0.34 1.7 0 0 Z " fill="#FFFFFF" transform="translate(89,33)"/>
<path d="M0 0 C0.99 0.33 1.98 0.66 3 1 C4 4 4 4 3.0625 6.1875 C2.5365625 7.0846875 2.5365625 7.0846875 2 8 C0.35 7.67 -1.3 7.34 -3 7 C-2.625 4.0625 -2.625 4.0625 -2 1 C-1.34 0.67 -0.68 0.34 0 0 Z " fill="#FFFFFF" transform="translate(86,56)"/>
<path d="M0 0 C2.31 0 4.62 0 7 0 C7.5625 1.9375 7.5625 1.9375 8 4 C7 5 7 5 3.4375 5.0625 C2.303125 5.041875 1.16875 5.02125 0 5 C-0.33 4.01 -0.66 3.02 -1 2 C-0.67 1.34 -0.34 0.68 0 0 Z " fill="#FFFFFF" transform="translate(77,31)"/>
<path d="M0 0 C0 1.98 0 3.96 0 6 C-1.65 6 -3.3 6 -5 6 C-5.33 4.35 -5.66 2.7 -6 1 C-4 0 -4 0 0 0 Z " fill="#FFFFFF" transform="translate(116,40)"/>
</svg>
