<?xml version="1.0" encoding="UTF-8"?>
<svg version="1.1" viewBox="0 0 2048 2048" width="1280" height="1280" xmlns="http://www.w3.org/2000/svg">
<path transform="translate(999,723)" d="m0 0h697l5 2 15 14 30 30v2h2l7 8 13 14 7 8 12 14 13 16 12 15 13 17 11 15 13 18 18 27 14 22 15 25 8 14 10 18 15 28 11 22 15 33 16 38 11 29 14 40 12 39 11 41 9 38 8 41 7 44 3 21h2v94l-2 2-5 29-7 29-10 30-10 23-8 17-12 21-10 16-11 15-11 14-12 14-28 28-11 9-15 12-16 11-21 13-20 11-24 11-27 10-28 8-29 6-31 4-16 1h-565l-2-6-5-22-7-21-8-17-11-18-13-16-16-16-16-12-15-9-16-8-24-8-12-3-13-2-2-4v-198l1-2 24-5 24-8 19-9 16-10 10-8 14-12 11-12 13-18 11-20 8-21 5-19 3-23v-102l-2-21-6-25-8-21-9-17-8-12-10-13-17-17-17-13-15-9-16-8-20-7-17-4-17-2-22-1-173-1 2-6 10-19 12-23 10-17 11-19 15-24 11-17 13-19 12-17 14-19 14-18 10-13 11-13 12-14 9-11 30-32 3-4h2v-2h2v-2h2v-2h2v-2h2v-2l8-7 18-18zm335 92-12 4-11 8-8 9-5 10-3 12-1 38-8 3-19 7-16 8-13 8-13 10-5 4v2l-4 2-12 13-8 11-9 14-8 16-7 18-4 13-4 23-1 13v15l2 18 5 22 6 16 8 16 9 13 12 14 13 11 18 13 19 11 22 12 16 8 1 1 1 220-19-5-15-5-22-11-18-11-12-5-4-1h-17l-13 4-11 7-8 9-7 14-2 9v13l3 11 5 10 10 11 17 11 15 9 19 9 11 5 17 6 19 5 32 5v38l3 13 6 11 6 7 8 6 11 5 9 2h14l13-4 11-7 8-8 6-10 3-10 1-9 1-39 24-8 16-7 18-10 17-12 10-9 8-7 8-8 11-14 9-12 10-18 9-19 6-18 5-21 2-13 1-13v-22l-3-24-5-20-8-21-9-17-8-12-8-10-9-10-8-8-14-11-15-10-23-12-37-14-5-2h-3v-170l11 5 11 6 10 9 10 7 11 4 5 1h15l13-4 11-7 9-9 6-12 3-13v-8l-3-13-6-12-9-10-7-7-15-11-16-9-17-8-21-7-18-4h-3v-28l-2-14-4-10-7-10-8-7-12-6-6-2z" fill="#FEFEFE"/>
<path transform="translate(217,1163)" d="m0 0h721l18 2 12 5 11 7 9 9 8 14 3 8 1 6v100l-4 14-5 9-6 8-7 7-12 7-12 4-7 1h-736l-15-4-11-6-12-11-7-11-5-12-2-16v-84l3-16 7-14 7-9 10-8 14-7 8-2z" fill="#FDFDFD"/>
<path transform="translate(218,1803)" d="m0 0h721l17 2 12 5 11 7 9 9 8 14 3 8 1 6v100l-4 14-9 15-8 8-10 6-12 5-11 2h-735l-15-4-11-6-12-11-7-11-5-12-2-17v-83l2-12 5-13 7-10 5-5 8-7 14-7 8-2z" fill="#FDFDFD"/>
<path transform="translate(58,1483)" d="m0 0h720l18 2 12 5 11 7 8 8 7 11 5 12 1 6v100l-4 14-8 14-9 9-10 6-12 5-11 2h-735l-15-4-11-6-11-10-7-10-6-13-1-3v-110l8-16 6-9h2l2-4 13-9 12-5z" fill="#FDFDFD"/>
<path transform="translate(1343,43)" d="m0 0h10l14 3 16 7 14 7 26 10 23 7 23 5 29 4 14 1h32l31-3 26-5 17-4 7-1h15l12 3 12 6 10 8 7 8 7 12 4 13v19l-4 15-13 32-12 24-12 20-13 19-13 17-12 14-7 8h-2l-2 4-8 8h-491l-20-20-9-11-8-9-13-18-11-17-12-21-14-29-10-27-2-8v-20l4-13 6-11 9-10 7-6 14-7 12-3h15l24 5 21 4 22 3 16 1h30l31-3 31-6 27-8 28-11 25-12 10-3z" fill="#FEFEFE"/>
<path transform="translate(1057,423)" d="m0 0h580l21 2 13 4 14 7 12 9 7 6 10 13 6 10 6 17 2 9v27l-4 16-6 14-7 11-11 12-8 7-15 9-18 6-13 2h-597l-17-3-15-6-14-9-12-11-10-13-8-16-4-13-2-14v-10l2-14 5-16 7-14 9-11 6-7 13-10 16-8 13-4z" fill="#FDFDFD"/>
<path transform="translate(1394,1270)" d="m0 0 5 1 15 8 13 10 10 12 8 16 3 9 2 12v18l-3 17-7 19-9 16-9 11-9 9-16 11-3 1z" fill="#fff"/>
<path transform="translate(1292 1e3)" d="m0 0h3v114l-5-2-9-7-8-7-6-9-4-12-1-6v-14l4-18 5-12 7-12z" fill="#fff"/>
</svg>
