<?xml version="1.0" encoding="UTF-8"?>
<svg version="1.1" viewBox="0 0 2048 2048" width="1280" height="1280" xmlns="http://www.w3.org/2000/svg">
<path transform="translate(641,255)" d="m0 0h765l3 3-1 1053h63v-766l2-2h446l2 3v1118l-2 1-10-7-18-10-21-8-21-5-19-2-24-1 1-4 6-12 5-15 3-15 1-9v-84l-3-19-5-16-5-12-9-15-10-13-9-9-13-10-14-8-16-7-19-5-17-2h-11l-18 2-17 4-17 7-16 10-10 8-10 9-11 14-9 15-8 20-3 11-2 15-1 19v55l2 22 4 17 6 16 5 10-1 1-34 2-18 3-10 3-9-1-19-4-20-2-21-1 1-4 6-12 6-19 3-20v-83l-3-20-5-16-6-13-6-11-12-16-9-9-13-10-14-8-16-7-19-5-17-2h-11l-18 2-16 4-16 6-17 10-11 9-10 9-11 14-9 15-8 19-4 18-2 24v61l2 20 4 17 6 16 5 10-1 1-34 2-7 1h-16l-25-2-17-1 1-4 6-12 6-19 3-20v-84l-3-19-5-16-7-16-7-11-10-13-9-9-13-10-14-8-16-7-19-5-17-2h-11l-18 2-17 4-17 7-16 10-10 8-10 9-11 14-9 15-8 19-4 18-2 24v61l2 20 4 17 6 16 4 7v4l-35 2-7 1h-16l-24-2-17-1 1-4 6-12 6-19 3-20v-84l-3-19-5-16-7-16-7-11-10-13-9-9-13-10-14-8-16-7-19-5-18-2h-10l-18 2-16 4-16 6-17 10-11 9-10 9-11 14-9 15-8 20-3 11-2 15-1 19v55l2 22 4 17 6 16 4 7v4l-34 2-18 3-10 3-9-1-12-3-14-2-34-2 1-4 6-12 6-19 3-20v-83l-3-20-5-16-6-13-6-11-12-16-9-9-13-10-14-8-16-7-19-5-17-2h-11l-18 2-17 4-17 7-18 11-14 12-10 11-10 15-8 16-6 17-3 19-1 17v59l2 21 4 17 6 16 4 7v4l-35 2-22 4-21 7-23 12-11 8-2-2v-1118l2-2h446l2 3-1 765h63v-1054zm96 97-1 2v61h63v-63zm128 0-1 24v39h63v-63zm128 0-1 24v39h63v-63zm128 0-1 24v39h63v-63zm128 0-1 24v39l60 1 3-1v-63zm-512 128-1 2v61h63v-63zm128 0-1 29v34h63v-63zm128 0-1 29v34h63v-63zm128 0-1 29v34h63v-63zm128 0-1 31v32l60 1 3-1v-63zm-1056 128-1 2v61h63v-63zm128 0-1 24v39h63v-63zm128 0-1 17v46h63v-63zm288 0-1 2v61h63v-63zm128 0-1 29v34h63v-63zm128 0-1 29v34h63v-63zm128 0-1 29v34h63v-63zm128 0-1 29v34l60 1 3-1v-63zm288 0-1 3v60h63v-63zm128 0-1 24v39h63v-63zm128 0-1 21v42h63v-63zm-1600 128-1 2v61h63v-63zm128 0-1 31v32h63v-63zm128 0-1 26v37h63v-63zm288 0-1 2v61h63v-63zm128 0-1 29v34h63v-63zm128 0-1 29v34h63v-63zm128 0-1 29v34h63v-63zm128 0-1 29v34l60 1 3-1v-63zm288 0-1 2v61h63v-63zm128 0-1 31v32h63v-63zm128 0-1 27v36h63v-63zm-1600 128-1 2v61h63v-63zm128 0-1 31v32h63v-63zm128 0-1 25v38h63v-63zm288 0-1 2v61h63v-63zm128 0-1 29v34h63v-63zm128 0-1 29v34h63v-63zm128 0-1 29v34h63v-63zm128 0-1 29v34l60 1 3-1v-63zm288 0-1 2v61h63v-63zm128 0-1 31v32h63v-63zm128 0-1 27v36h63v-63zm-1600 128-1 2v61h63v-63zm128 0-1 31v32h63v-63zm128 0-1 25v38h63v-63zm288 0-1 2v61h63v-63zm128 0-1 29v34h63v-63zm128 0-1 29v34h63v-63zm128 0-1 29v34h63v-63zm128 0-1 29v34l60 1 3-1v-63zm288 0-1 2v61h63v-63zm128 0-1 31v32h63v-63zm128 0-1 27v36h63v-63zm-1600 128-1 2v61h63v-63zm128 0-1 31v32h63v-63zm128 0-1 25v38h63v-63zm288 0-1 2v61h63v-63zm128 0-1 29v34h63v-63zm128 0-1 29v34h63v-63zm128 0-1 29v34h63v-63zm128 0-1 29v34l60 1 3-1v-63zm288 0-1 2v61h63v-63zm128 0-1 31v32h63v-63zm128 0-1 27v36h63v-63zm-1600 128-1 2v61h63v-63zm128 0-1 28v35h63v-63zm128 0-1 29v34h63v-63zm288 0-1 2v61h63v-63zm128 0-1 35v28h63v-63zm128 0-1 27v36h63v-63zm128 0-1 31v32h63v-63zm128 0-1 32v31h63v-63zm288 0-1 31v32h63v-63zm128 0-1 27v36h63v-63zm128 0-1 29v34h63v-63z" fill="#FCFCFC"/>
<path transform="translate(897,1695)" d="m0 0h255l20 2 16 5 14 7 11 8 10 9 8 10 9 15 6 17 2 12 1 138-1 2h-64l-1-1v-127h-62v126l-1 2h-192l-1-2v-126l-62 1v125l-1 2h-64l-1-1v-131l2-16 5-16 8-16 10-13 10-10 13-9 15-7 14-4z" fill="#FCFCFC"/>
<path transform="translate(1600,1695)" d="m0 0h225l20 2 18 6 16 9 13 11 9 10 7 11 6 12 4 12 2 12 1 138-1 2h-64l-1-1v-127h-62v126l-1 2h-160l-1-2-1-139-3-20-4-15-7-18-9-17-7-10z" fill="#FCFCFC"/>
<path transform="translate(223,1695)" d="m0 0h224l1 4-3 1-2 5-9 16-8 19-5 17-3 20-1 25v116l-1 2h-160l-1-2v-126l-62 1v125l-1 2h-64l-1-1v-131l2-16 5-16 8-16 10-13 10-10 13-9 15-7 14-4z" fill="#FCFCFC"/>
<path transform="translate(1280,1695)" d="m0 0h193l19 2 16 5 17 9 13 10 11 12 7 11 6 12 4 12 2 12 1 138-1 2h-64l-1-1v-127h-62v126l-1 2h-128l-1-2-1-139-3-20-4-15-7-18-10-19-7-9z" fill="#FCFCFC"/>
<path transform="translate(574,1695)" d="m0 0h194v4l-7 9-8 15-8 20-4 14-3 21-1 25v115l-1 2h-128l-1-2v-126l-62 1v125l-1 2h-64l-1-1v-129l2-18 5-16 8-16 11-14 7-7 14-10 16-8 14-4z" fill="#FCFCFC"/>
<path transform="translate(705,127)" d="m0 0h637l3 3-1 62h-640l-1-1v-62z" fill="#FAFAFA"/>
<path transform="translate(701,1439)" d="m0 0 15 1 13 4 11 6 10 9 8 9 8 16 2 9v86l-4 14-6 11-11 12-9 7-10 5-9 3-6 1h-19l-12-3-12-6-10-8-7-7-7-11-4-9-3-16v-71l2-13 4-12 7-11 10-11 10-7 14-6z" fill="#FEFEFE"/>
<path transform="translate(1020,1439)" d="m0 0 16 1 13 4 11 6 10 9 8 9 8 16 2 9v86l-4 14-6 11-11 12-9 7-13 6-12 3h-19l-12-3-12-6-10-8-7-7-7-11-4-9-2-8-1-9v-70l2-13 4-12 7-11 10-11 10-7 14-6z" fill="#FEFEFE"/>
<path transform="translate(349,1439)" d="m0 0 15 1 13 4 11 6 10 9 8 9 8 16 2 9v86l-4 14-6 11-11 12-9 7-13 6-12 3h-19l-12-3-12-6-10-8-7-7-7-11-4-9-2-8-1-9v-70l2-13 4-12 7-11 10-11 10-7 14-6z" fill="#FEFEFE"/>
<path transform="translate(1341,1439)" d="m0 0 15 1 13 4 11 6 12 11 6 7 8 16 2 9v86l-4 14-6 11-11 12-9 7-13 6-12 3h-19l-12-3-12-6-10-8-7-7-7-11-4-9-2-8-1-9v-71l3-16 5-12 10-13 10-9 16-8 9-2z" fill="#FEFEFE"/>
<path transform="translate(1693,1439)" d="m0 0 15 1 13 4 11 6 12 11 6 7 8 16 2 9v86l-5 16-6 10-9 10-10 8-13 6-12 3h-19l-12-3-12-6-10-8-7-7-7-11-4-9-2-8-1-9v-70l2-13 4-12 7-11 10-11 10-7 14-6z" fill="#FEFEFE"/>
</svg>
