<?xml version="1.0" encoding="UTF-8"?>
<svg version="1.1" xmlns="http://www.w3.org/2000/svg" width="512" height="512">
<path d="M0 0 C63.97875 -0.12375 63.97875 -0.12375 129.25 -0.25 C142.73520508 -0.28641602 156.22041016 -0.32283203 170.11425781 -0.36035156 C186.53662109 -0.37841797 186.53662109 -0.37841797 194.21600342 -0.3817749 C199.59839902 -0.38551301 204.9806345 -0.400219 210.36297607 -0.42230225 C217.21960324 -0.45039289 224.07599848 -0.45798125 230.93267965 -0.4522891 C233.45462241 -0.45348012 235.97657283 -0.46146451 238.49846888 -0.47686052 C241.89471984 -0.49663814 245.29007044 -0.49200447 248.68634033 -0.48101807 C249.68216 -0.49266872 250.67797966 -0.50431938 251.70397568 -0.51632309 C258.42383682 -0.45754598 258.42383682 -0.45754598 261.47272873 1.96365738 C261.97672825 2.63565044 262.48072777 3.30764351 263 4 C265.76409672 5.26719972 265.76409672 5.26719972 269 5 C271.64 3.35 274.28 1.7 277 0 C322.87 0 368.74 0 416 0 C416 95.04 416 190.08 416 288 C342.08 288 268.16 288 192 288 C191.95101562 269.57800781 191.90203125 251.15601563 191.8515625 232.17578125 C191.81619323 220.53189642 191.78033676 208.88801619 191.7421875 197.24414062 C191.72217904 191.12931364 191.70229452 185.01448627 191.68261719 178.8996582 C191.68014575 178.13324959 191.67767431 177.36684098 191.67512798 176.57720786 C191.63539384 164.19934367 191.60265821 151.82147034 191.57250018 139.44357953 C191.54140123 126.74331852 191.50279851 114.04309635 191.45720994 101.342879 C191.4293098 93.50430512 191.40728338 85.6657597 191.39273749 77.82714947 C191.38096275 71.81949279 191.35875495 65.81192121 191.33261681 59.80430794 C191.32352731 57.33759327 191.31784761 54.87086339 191.31578636 52.40413284 C191.31247357 49.04265475 191.29702242 45.68144604 191.2784729 42.32002258 C191.281375 40.84774475 191.281375 40.84774475 191.28433573 39.34572393 C191.36362953 32.87360842 191.36362953 32.87360842 189 27 C185.20782089 24.77497798 181.68679393 24.74882536 177.3581543 24.74603271 C176.37698529 24.74135274 176.37698529 24.74135274 175.37599468 24.73657823 C173.19197674 24.72862361 171.00823859 24.73491182 168.82421875 24.74121094 C167.25525754 24.73849994 165.68629761 24.7349384 164.11734009 24.73059082 C159.86120606 24.72147743 155.60516906 24.72500675 151.34903336 24.73134899 C146.89373769 24.7364144 142.43845029 24.73171603 137.9831543 24.72857666 C130.50144968 24.7249386 123.01978456 24.72973192 115.53808594 24.73925781 C106.88968205 24.75014206 98.24137246 24.74661637 89.59297085 24.735605 C82.16609357 24.72652758 74.73924466 24.72524908 67.31236362 24.73048234 C62.8772839 24.73359953 58.4422485 24.73401825 54.00717163 24.72740936 C49.83750369 24.72162993 45.66795728 24.72564376 41.49830246 24.73719788 C39.96847104 24.73984126 38.43862938 24.73908485 36.90880203 24.73467255 C34.81967875 24.72920288 32.73094426 24.73606815 30.6418457 24.74603271 C29.47305374 24.74678677 28.30426178 24.74754082 27.10005188 24.74831772 C23.8926938 25.00871181 21.77724807 25.37047831 19 27 C16.05809509 31.49771296 16.7113116 37.13755554 16.7215271 42.32002258 C16.7157347 43.36968411 16.7099423 44.41934564 16.70397437 45.50081509 C16.68694956 49.02311671 16.68409569 52.54528749 16.68115234 56.06762695 C16.6718559 58.59050316 16.66168765 61.11337628 16.65071106 63.63624573 C16.62903256 69.07043381 16.6134281 74.50458551 16.60334396 79.93880653 C16.58875356 87.79574822 16.56321573 95.65262437 16.53501268 103.50952759 C16.48955125 116.25706679 16.45293376 129.00461543 16.421875 141.75219727 C16.3916868 154.1347011 16.35733529 166.51718185 16.31738281 178.8996582 C16.31369049 180.04469408 16.31369049 180.04469408 16.30992357 181.21286199 C16.29754892 185.04243128 16.2850924 188.87200031 16.27259517 192.7015692 C16.16903709 224.46768163 16.07997793 256.23381918 16 288 C10.72 288 5.44 288 0 288 C0 192.96 0 97.92 0 0 Z M210 27 C207.33431599 31.19839146 207.71712498 35.9385073 207.73930359 40.76109314 C207.73547804 41.64317918 207.73165249 42.52526522 207.72771102 43.43408114 C207.71739272 46.38962709 207.72137096 49.34497835 207.7253418 52.30053711 C207.72099469 54.4195931 207.71581155 56.53864751 207.70985413 58.65769958 C207.69645311 64.41383883 207.69588666 70.16991245 207.69841743 75.92606425 C207.69948633 80.72989448 207.69460586 85.5337114 207.689812 90.33753878 C207.67871312 101.66929052 207.67828164 113.00100912 207.68432617 124.33276367 C207.69036806 136.02697803 207.67805029 147.72107214 207.6567561 159.41526598 C207.63915 169.45275259 207.63313716 179.4902009 207.63639385 189.52770239 C207.63820833 195.52387706 207.6355539 201.51996593 207.62167931 207.51612663 C207.60912168 213.15418432 207.61102559 218.79205428 207.62409019 224.43010902 C207.62645998 226.4997298 207.62370697 228.5693637 207.61546707 230.63896942 C207.60503207 233.46350623 207.61307428 236.28740935 207.6257782 239.11192322 C207.61840391 239.9314804 207.61102963 240.75103759 207.60343188 241.59542984 C207.649071 246.41660134 208.15683828 249.9166928 211 254 C214.91810593 256.38207329 218.73597335 256.25349959 223.24253845 256.26069641 C223.9612824 256.26452196 224.68002634 256.26834751 225.42055041 256.27228898 C227.8233292 256.28258856 230.22586768 256.27863267 232.62866211 256.2746582 C234.35363485 256.27900635 236.07860567 256.28418984 237.80357361 256.29014587 C242.48537103 256.30353572 247.16708772 256.30411458 251.84890056 256.30158257 C255.75801384 256.3005129 259.66711079 256.30539611 263.57622057 256.310188 C272.79846612 256.32128303 282.02067093 256.32172053 291.24291992 256.31567383 C300.75588208 256.30963242 310.26869639 256.32194931 319.78163332 256.3432439 C327.950772 256.3608578 336.11986362 256.36686161 344.2890206 256.36360615 C349.1673758 256.3617929 354.04562554 256.36443378 358.92396355 256.37832069 C363.51144266 256.39089105 368.09869121 256.38896244 372.68616676 256.37590981 C374.36877393 256.37354279 376.05139729 256.3762832 377.7339859 256.38453293 C380.03308412 256.39499169 382.33140742 256.38690734 384.63047791 256.3742218 C385.91633758 256.37438954 387.20219725 256.37455729 388.52702236 256.37473011 C392.40363399 255.95644838 394.76480574 255.17238834 398 253 C400.66568401 248.80160854 400.28287502 244.0614927 400.26069641 239.23890686 C400.26452196 238.35682082 400.26834751 237.47473478 400.27228898 236.56591886 C400.28260728 233.61037291 400.27862904 230.65502165 400.2746582 227.69946289 C400.27900531 225.5804069 400.28418845 223.46135249 400.29014587 221.34230042 C400.30354689 215.58616117 400.30411334 209.83008755 400.30158257 204.07393575 C400.30051367 199.27010552 400.30539414 194.4662886 400.310188 189.66246122 C400.32128688 178.33070948 400.32171836 166.99899088 400.31567383 155.66723633 C400.30963194 143.97302197 400.32194971 132.27892786 400.3432439 120.58473402 C400.36085 110.54724741 400.36686284 100.5097991 400.36360615 90.47229761 C400.36179167 84.47612294 400.3644461 78.48003407 400.37832069 72.48387337 C400.39087832 66.84581568 400.38897441 61.20794572 400.37590981 55.56989098 C400.37354002 53.5002702 400.37629303 51.4306363 400.38453293 49.36103058 C400.39496793 46.53649377 400.38692572 43.71259065 400.3742218 40.88807678 C400.38159609 40.0685196 400.38897037 39.24896241 400.39656812 38.40457016 C400.350929 33.58339866 399.84316172 30.0833072 397 26 C393.08189407 23.61792671 389.26402665 23.74650041 384.75746155 23.73930359 C383.67934563 23.73356527 383.67934563 23.73356527 382.57944959 23.72771102 C380.1766708 23.71741144 377.77413232 23.72136733 375.37133789 23.7253418 C373.64636515 23.72099365 371.92139433 23.71581016 370.19642639 23.70985413 C365.51462897 23.69646428 360.83291228 23.69588542 356.15109944 23.69841743 C352.24198616 23.6994871 348.33288921 23.69460389 344.42377943 23.689812 C335.20153388 23.67871697 325.97932907 23.67827947 316.75708008 23.68432617 C307.24411792 23.69036758 297.73130361 23.67805069 288.21836668 23.6567561 C280.049228 23.6391422 271.88013638 23.63313839 263.7109794 23.63639385 C258.8326242 23.6382071 253.95437446 23.63556622 249.07603645 23.62167931 C244.48855734 23.60910895 239.90130879 23.61103756 235.31383324 23.62409019 C233.63122607 23.62645721 231.94860271 23.6237168 230.2660141 23.61546707 C227.96691588 23.60500831 225.66859258 23.61309266 223.36952209 23.6257782 C222.08366242 23.62561046 220.79780275 23.62544271 219.47297764 23.62526989 C215.59636601 24.04355162 213.23519426 24.82761166 210 27 Z " fill="#FFFFFF" transform="translate(48,160)"/>
<path d="M0 0 C52.8 0 105.6 0 160 0 C160 55.44 160 110.88 160 168 C107.2 168 54.4 168 0 168 C0 112.56 0 57.12 0 0 Z " fill="#FFFFFF" transform="translate(272,200)"/>
<path d="M0 0 C47.52 0 95.04 0 144 0 C144 81.84 144 163.68 144 248 C96.48 248 48.96 248 0 248 C0 166.16 0 84.32 0 0 Z M64 22 C63.34128906 22.71671875 62.68257812 23.4334375 62.00390625 24.171875 C57.27511995 29.31863028 52.79562031 34.63159351 48.3984375 40.0625 C45.27713456 43.88533356 42.08864674 47.64866619 38.89306641 51.40942383 C37.59395105 52.93840494 36.29696198 54.46919185 35 56 C34.52498047 56.54446777 34.04996094 57.08893555 33.56054688 57.64990234 C30.86402321 60.42532124 30.86402321 60.42532124 30 64 C29.39671875 64.02578125 28.7934375 64.0515625 28.171875 64.078125 C22.97639492 64.4109673 22.97639492 64.4109673 18.5 66.875 C16.20134961 70.13142139 15.87083101 72.77571455 15.83886719 76.65161133 C15.82925964 77.59301468 15.8196521 78.53441803 15.80975342 79.50434875 C15.80550354 80.51998398 15.80125366 81.5356192 15.796875 82.58203125 C15.79117493 83.62896652 15.78547485 84.67590179 15.77960205 85.75456238 C15.77015234 87.97121164 15.76361818 90.18787496 15.75976562 92.40454102 C15.75006784 95.7888249 15.71904687 99.17249949 15.6875 102.55664062 C15.68096902 104.7109339 15.67571892 106.86523151 15.671875 109.01953125 C15.6595282 110.02909378 15.6471814 111.03865631 15.63446045 112.07881165 C15.65122365 117.39001954 15.73536384 121.55715932 19 126 C23.57568667 128.55676789 28.19151597 128.28915772 33.28491211 128.2746582 C34.67606483 128.2823246 34.67606483 128.2823246 36.09532166 128.29014587 C39.15606163 128.30402728 42.21657607 128.30308623 45.27734375 128.30078125 C47.40816837 128.30466886 49.53899222 128.30900366 51.66981506 128.31376648 C56.13431308 128.32122549 60.59873201 128.32093962 65.06323242 128.31567383 C70.78085923 128.30987842 76.49816218 128.32681363 82.21573544 128.3500185 C86.61582834 128.36475858 91.01584328 128.36562718 95.4159565 128.36250877 C97.52385665 128.3630218 99.63176119 128.36825613 101.73963737 128.37832069 C104.68853614 128.39067343 107.6368045 128.38390028 110.58569336 128.37231445 C111.45393738 128.37995819 112.3221814 128.38760193 113.21673584 128.39547729 C118.16765579 128.35253946 121.81847807 127.94949488 126 125 C127.87491707 121.71009333 128.25369913 118.86751416 128.2746582 115.12133789 C128.28419022 114.1800856 128.29372223 113.23883331 128.30354309 112.26905823 C128.30263168 111.26374557 128.30172028 110.25843292 128.30078125 109.22265625 C128.30720894 107.65649818 128.30720894 107.65649818 128.31376648 106.05870056 C128.31950083 103.8540011 128.32001664 101.64928272 128.31567383 99.44458008 C128.31251451 96.07795838 128.33598269 92.71221622 128.36132812 89.34570312 C128.36360132 87.20052194 128.36430452 85.0553384 128.36328125 82.91015625 C128.372491 81.90686783 128.38170074 80.90357941 128.39118958 79.86988831 C128.35587481 74.51549076 128.09509458 70.58789649 125 66 C121.3610752 63.83631498 118.17168256 63.80596825 114 64 C113.78472656 63.47535156 113.56945312 62.95070313 113.34765625 62.41015625 C111.47138589 59.05462345 108.96504351 56.30919302 106.4375 53.4375 C105.34276361 52.17793997 104.24902202 50.91751466 103.15625 49.65625 C102.61742187 49.03492188 102.07859375 48.41359375 101.5234375 47.7734375 C99.4521603 45.36225841 97.44078991 42.90532091 95.4375 40.4375 C92.07562533 36.30404754 88.68080021 32.20127245 85.25 28.125 C84.80197021 27.58931396 84.35394043 27.05362793 83.89233398 26.50170898 C78.91670596 19.96312061 78.91670596 19.96312061 72 16.375 C68.0498289 17.19795231 66.49783981 19.04255766 64 22 Z M16 144 C16 154.56 16 165.12 16 176 C21.28 176 26.56 176 32 176 C32 165.44 32 154.88 32 144 C26.72 144 21.44 144 16 144 Z " fill="#FFFFFF" transform="translate(80,200)"/>
<path d="M0 0 C1.06156885 -0.01838344 2.12313771 -0.03676688 3.21687531 -0.0557074 C6.78177025 -0.11086085 10.34593621 -0.13010463 13.91119385 -0.14915466 C16.46608789 -0.18048617 19.0209592 -0.21372093 21.57580566 -0.24871826 C29.25947273 -0.3449183 36.94301189 -0.3979246 44.62712801 -0.44235721 C47.53320011 -0.4599175 50.43924541 -0.48065232 53.34529512 -0.50155552 C66.19972533 -0.59400982 79.05415604 -0.67267283 91.9088707 -0.71104527 C95.05547872 -0.72059231 98.20208654 -0.73019417 101.34869385 -0.73997498 C102.13061514 -0.74239368 102.91253644 -0.74481238 103.71815231 -0.74730437 C116.29455408 -0.78852133 128.86853318 -0.9146625 141.44388434 -1.07787836 C154.41569835 -1.24483189 167.38629902 -1.33343495 180.35919023 -1.34926647 C187.61832929 -1.35996208 194.87393271 -1.40221918 202.13201141 -1.53157234 C237.95742086 -2.14754021 265.9473308 0.87715855 296.57623291 20.7358551 C295.61969071 21.85750504 294.66234083 22.97846623 293.70465088 24.09913635 C292.90509476 25.03559998 292.90509476 25.03559998 292.08938599 25.99098206 C286.78931111 32.10269536 280.76764787 37.54544735 274.57623291 42.7358551 C273.47734741 43.79945251 273.47734741 43.79945251 272.35626221 44.88453674 C269.57623291 46.7358551 269.57623291 46.7358551 266.51763916 46.71510315 C264.84508057 46.35992615 264.84508057 46.35992615 263.13873291 45.99757385 C261.91412354 45.75458557 260.68951416 45.51159729 259.42779541 45.26124573 C258.15677979 44.98474182 256.88576416 44.70823792 255.57623291 44.4233551 C253.05707626 43.89831789 250.53628114 43.38106647 248.01373291 42.87257385 C246.89869385 42.6324054 245.78365479 42.39223694 244.63482666 42.14479065 C239.89729376 41.51138008 236.57039178 42.53090417 232.40435791 44.73194885 C231.65799072 45.12575745 230.91162354 45.51956604 230.14263916 45.92530823 C229.3782251 46.3371637 228.61381104 46.74901917 227.82623291 47.1733551 C226.65640869 47.78533752 226.65640869 47.78533752 225.46295166 48.40968323 C221.3210955 50.34617925 221.3210955 50.34617925 218.57623291 53.7358551 C217.99144997 57.06659878 217.99144997 57.06659878 218.57623291 60.7358551 C220.54930117 63.09391229 222.24709745 64.81198091 224.57623291 66.7358551 C225.1662207 67.25059387 225.7562085 67.76533264 226.36407471 68.29566956 C228.0868723 69.79384655 229.82916213 71.26612988 231.57623291 72.7358551 C233.18283904 74.12887992 234.78753854 75.52411317 236.38873291 76.9233551 C237.01392822 77.45315979 237.63912354 77.98296448 238.28326416 78.52882385 C238.70994385 78.92714417 239.13662354 79.32546448 239.57623291 79.7358551 C239.57623291 80.0658551 239.57623291 80.3958551 239.57623291 80.7358551 C207.81285215 80.84988654 176.04952956 80.93838707 144.28599199 80.99118175 C140.53711688 80.99743538 136.78824218 81.00390698 133.03936768 81.01051331 C131.91985446 81.01248063 131.91985446 81.01248063 130.77772482 81.01448771 C118.68863512 81.03625191 106.59966414 81.07567898 94.51064489 81.12161908 C82.10874206 81.16835558 69.70690146 81.19614454 57.30491418 81.20629758 C49.65044818 81.21316261 41.99631775 81.23485471 34.34195503 81.27543744 C28.47531533 81.30495979 22.60884842 81.30813633 16.74213219 81.30139351 C14.33343817 81.30277213 11.92473177 81.31275851 9.51611328 81.33188248 C6.23309423 81.35667634 2.95152325 81.35080906 -0.33152771 81.33712769 C-1.28970058 81.35169189 -2.24787344 81.3662561 -3.23508185 81.38126165 C-7.78403676 81.32984732 -9.78818755 81.21617898 -13.51484966 78.39984417 C-15.94925219 75.00251455 -16.05714511 72.98209492 -16.07073975 68.8217926 C-16.08388214 67.80861969 -16.08388214 67.80861969 -16.09729004 66.77497864 C-16.11921078 64.55294129 -16.10476056 62.33291094 -16.08782959 60.1108551 C-16.09119991 58.56055827 -16.09605433 57.01026401 -16.10232544 55.4599762 C-16.10968672 52.2150907 -16.09901635 48.97089465 -16.07562256 45.72608948 C-16.04713391 41.5728518 -16.06354207 37.42122959 -16.09348488 33.26805115 C-16.11157877 30.06800733 -16.10579053 26.86834467 -16.09284592 23.66828918 C-16.08951762 22.13732206 -16.09357878 20.60631998 -16.10524368 19.07539368 C-16.11798856 16.93264021 -16.09853202 14.79247861 -16.07073975 12.6499176 C-16.06676178 11.4325592 -16.06278381 10.21520081 -16.0586853 8.96095276 C-14.30363906 0.04611081 -7.59647489 -0.00705572 0 0 Z M10.57623291 19.7358551 C7.23955156 25.22891557 8.24187358 32.22476208 8.26055908 38.45533752 C8.26371849 40.66327825 8.24023628 42.86987664 8.21490479 45.07765198 C8.21263131 46.49366593 8.21192852 47.90968345 8.21295166 49.32569885 C8.2099707 50.60307922 8.20698975 51.88045959 8.20391846 53.19654846 C8.61571176 57.11115009 9.38181167 59.47221103 11.57623291 62.7358551 C15.65549807 64.90862523 19.24836827 64.98925274 23.81877136 64.99655151 C24.89688728 65.00228983 24.89688728 65.00228983 25.99678332 65.00814408 C28.39956211 65.01844366 30.80210059 65.01448777 33.20489502 65.01051331 C34.92986776 65.01486145 36.65483858 65.02004495 38.37980652 65.02600098 C43.06160394 65.03939082 47.74332063 65.03996968 52.42513347 65.03743768 C56.33424675 65.03636801 60.2433437 65.04125121 64.15245348 65.0460431 C73.37469903 65.05713813 82.59690384 65.05757564 91.81915283 65.05152893 C101.33211499 65.04548752 110.8449293 65.05780442 120.35786623 65.079099 C128.52700491 65.09671291 136.69609653 65.10271671 144.86525351 65.09946126 C149.74360872 65.097648 154.62185845 65.10028888 159.50019646 65.1141758 C164.08767557 65.12674615 168.67492412 65.12481754 173.26239967 65.11176491 C174.94500684 65.10939789 176.6276302 65.11213831 178.31021881 65.12038803 C180.60931703 65.1308468 182.90764033 65.12276244 185.20671082 65.1100769 C186.49257049 65.11024465 187.77843016 65.11041239 189.10325527 65.11058521 C192.91025373 64.69981466 195.32926028 63.7355765 198.57623291 61.7358551 C201.91291426 56.24279463 200.91059224 49.24694812 200.89190674 43.01637268 C200.88874733 40.80843195 200.91222954 38.60183356 200.93756104 36.39405823 C200.93983451 34.97804428 200.9405373 33.56202676 200.93951416 32.14601135 C200.94249512 30.86863098 200.94547607 29.59125061 200.94854736 28.27516174 C200.53675406 24.36056011 199.77065415 21.99949918 197.57623291 18.7358551 C193.49696775 16.56308497 189.90409755 16.48245746 185.33369446 16.47515869 C184.25557854 16.46942037 184.25557854 16.46942037 183.1556825 16.46356612 C180.75290371 16.45326654 178.35036523 16.45722243 175.9475708 16.4611969 C174.22259806 16.45684875 172.49762724 16.45166526 170.7726593 16.44570923 C166.09086188 16.43231938 161.40914519 16.43174052 156.72733235 16.43427253 C152.81821907 16.4353422 148.90912212 16.430459 145.00001234 16.42566711 C135.77776679 16.41457208 126.55556198 16.41413457 117.33331299 16.42018127 C107.82035083 16.42622268 98.30753652 16.41390579 88.79459959 16.39261121 C80.62546091 16.3749973 72.45636929 16.3689935 64.28721231 16.37224895 C59.40885711 16.3740622 54.53060737 16.37142132 49.65226936 16.35753441 C45.06479025 16.34496405 40.4775417 16.34689266 35.89006615 16.3599453 C34.20745898 16.36231231 32.52483562 16.3595719 30.84224701 16.35132217 C28.54314879 16.34086341 26.24482549 16.34894777 23.945755 16.3616333 C22.65989533 16.36146556 21.37403566 16.36129782 20.04921055 16.36112499 C16.24221209 16.77189555 13.82320554 17.7361337 10.57623291 19.7358551 Z " fill="#FFFFFF" transform="translate(47.42376708984375,63.26414489746094)"/>
<path d="M0 0 C0.74377891 -0.0072672 1.48755783 -0.01453441 2.25387549 -0.02202183 C4.75446874 -0.04031783 7.25353698 -0.02289642 9.75411987 -0.00571251 C11.56154224 -0.01147191 13.36895876 -0.01941181 15.17636299 -0.02934873 C20.14946121 -0.05027022 25.12208126 -0.0398828 30.09518147 -0.02441764 C35.45587254 -0.01312974 40.81647995 -0.03055411 46.17715454 -0.04431725 C56.68123948 -0.06658156 67.18514606 -0.06173422 77.68923807 -0.04725404 C86.2240842 -0.03597436 94.75888025 -0.03442539 103.29373169 -0.03987312 C104.50721885 -0.04063929 105.72070601 -0.04140545 106.9709655 -0.04219484 C109.43593519 -0.04379342 111.90090487 -0.04541448 114.36587453 -0.04705779 C137.49444344 -0.06132465 160.62291336 -0.04490785 183.75146604 -0.01805596 C203.60835727 0.00428363 223.46510237 0.00040377 243.32199097 -0.02264977 C266.36628311 -0.0493912 289.41048844 -0.05995127 312.45479393 -0.04458845 C314.91083144 -0.04299566 317.36686896 -0.0414238 319.82290649 -0.03987312 C321.03140829 -0.03910175 322.23991009 -0.03833037 323.48503315 -0.03753562 C332.01227023 -0.03321365 340.53945235 -0.04051587 349.06668091 -0.05227089 C359.45477308 -0.06627601 369.84267629 -0.06253778 380.23074675 -0.03586717 C385.53365451 -0.02270228 390.83624691 -0.01762216 396.13915253 -0.03411293 C400.99001133 -0.0489701 405.84026133 -0.04089439 410.6910646 -0.01422517 C412.44939817 -0.00862219 414.20778278 -0.01152113 415.96608377 -0.02360411 C418.3503406 -0.03873664 420.73249259 -0.02329465 423.11663818 0 C423.80477718 -0.01170583 424.49291618 -0.02341166 425.20190787 -0.03547221 C428.64508523 0.03210512 430.59150532 0.64993181 433.52342415 2.48103106 C435.55831909 5.6292057 435.55831909 5.6292057 435.55831909 16.6292057 C287.71831909 16.6292057 139.87831909 16.6292057 -12.44168091 16.6292057 C-12.44168091 5.6292057 -12.44168091 5.6292057 -10.40678596 2.48103106 C-6.83643556 0.25120605 -4.08827618 -0.06954506 0 0 Z " fill="#FFFFFF" transform="translate(44.441680908203125,463.37079429626465)"/>
<path d="M0 0 C1.09085246 2.72934097 1.08024157 3.79647591 -0.01635742 6.57788086 C-0.54076416 7.53057861 -1.0651709 8.48327637 -1.60546875 9.46484375 C-2.17716797 10.51220703 -2.74886719 11.55957031 -3.33789062 12.63867188 C-3.94826172 13.72728516 -4.55863281 14.81589844 -5.1875 15.9375 C-5.77853516 17.02224609 -6.36957031 18.10699219 -6.97851562 19.22460938 C-10.89473826 26.32794743 -14.21732752 32.16474479 -21.19140625 36.59765625 C-22.79072998 37.63237061 -22.79072998 37.63237061 -24.42236328 38.68798828 C-24.99996399 39.05933899 -25.5775647 39.4306897 -26.17266846 39.81329346 C-29.46766168 41.95312957 -32.71305627 44.16639474 -35.96484375 46.37109375 C-37.41966703 47.35462841 -38.87458495 48.3380231 -40.32958984 49.32128906 C-41.8655647 50.36001894 -43.40153462 51.39875611 -44.9375 52.4375 C-46.56458998 53.53747321 -48.19170642 54.63740729 -49.81884766 55.73730469 C-52.34433014 57.4444739 -54.86978694 59.15168101 -57.3951416 60.85903931 C-62.33087388 64.19600298 -67.26714933 67.53215969 -72.20443726 70.86682129 C-73.77153864 71.92538313 -75.33845412 72.98422023 -76.90518188 74.04333496 C-80.76282179 76.65068914 -84.62333698 79.25355976 -88.49023438 81.84716797 C-95.24497854 86.38445606 -101.97132144 90.9447493 -108.57751465 95.69674683 C-111.36171419 97.69751891 -114.16170328 99.6755601 -116.96270752 101.65270996 C-118.25534325 102.57551324 -119.53976278 103.50996235 -120.81463623 104.45715332 C-128.40252602 110.09253054 -134.23233811 113.00734674 -144.04125977 112.58276367 C-148.03651422 111.79584459 -150.05149244 110.26050152 -152.79296875 107.33984375 C-155.73997646 104.21549399 -159.01541833 101.55783199 -162.3125 98.8125 C-169.45763344 92.8456736 -169.45763344 92.8456736 -172 89 C-165.4232148 85.7116074 -154.11191793 89.59169422 -147.05249023 90.98339844 C-142.64721416 91.82427828 -138.49024755 92.53778546 -134 92 C-131.6910241 90.37924789 -129.99747563 88.97892297 -128.0625 87 C-127.54526367 86.49887695 -127.02802734 85.99775391 -126.49511719 85.48144531 C-124.97864671 84.00460878 -123.48666742 82.50676448 -122 81 C-121.25105469 80.25234375 -120.50210938 79.5046875 -119.73046875 78.734375 C-118.43030611 77.43164794 -117.13457196 76.12448298 -115.84375 74.8125 C-114.03941693 73.03874885 -112.17510062 71.39106938 -110.25 69.75 C-106.57759037 66.56871102 -103.04650147 63.25998899 -99.5625 59.875 C-99.02979492 59.37194336 -98.49708984 58.86888672 -97.94824219 58.35058594 C-94.9234963 55.3728873 -93.27325279 53.2908074 -93 49 C-92.9853761 46.8064655 -92.9853761 46.8064655 -94 45 C-95.65017611 44.29350087 -97.32122732 43.6355663 -99 43 C-101.1091781 42.01219413 -103.21005914 41.00657626 -105.3046875 39.98828125 C-105.90159897 39.69887161 -106.49851044 39.40946198 -107.11351013 39.11128235 C-108.38212905 38.49612044 -109.65040654 37.880254 -110.91836548 37.26373291 C-114.18457906 35.67583807 -117.45346236 34.09346673 -120.72265625 32.51171875 C-121.35872299 32.20391479 -121.99478973 31.89611084 -122.65013123 31.57897949 C-129.40132767 28.31600109 -136.18633713 25.13028381 -143 22 C-141.51128283 17.53384849 -138.06621541 15.06316256 -134 13 C-131.06823023 12.85697268 -129.02134718 12.96051848 -126.203125 13.45703125 C-125.05689667 13.62112236 -125.05689667 13.62112236 -123.88751221 13.78852844 C-122.18597999 14.03452616 -120.48627306 14.29338952 -118.78833008 14.56304932 C-115.81544745 15.02892067 -112.83858703 15.44750095 -109.85742188 15.85693359 C-101.98526856 16.94028394 -94.11750624 18.05411706 -86.25341797 19.19458008 C-82.87317007 19.68340789 -79.49148102 20.16094169 -76.109375 20.63671875 C-75.08124695 20.78872238 -74.0531189 20.94072601 -72.99383545 21.09733582 C-64.47343857 22.36140076 -64.47343857 22.36140076 -56.56005859 19.49707031 C-55.76422363 18.86381836 -54.96838867 18.23056641 -54.1484375 17.578125 C-37.59907809 5.09766279 -20.91872096 -0.72866372 0 0 Z " fill="#FFFFFF" transform="translate(457,32)"/>
<path d="M0 0 C3.62784805 0.19684305 5.60393473 0.81805132 8.4649353 3.0703125 C11.30483456 6.61581856 11.40375546 8.36495999 11.41845703 12.86401367 C11.42721863 13.53946228 11.43598022 14.21491089 11.44500732 14.91082764 C11.46692806 17.13286499 11.45247785 19.35289533 11.43554688 21.57495117 C11.4389172 23.12524801 11.44377162 24.67554226 11.45004272 26.22583008 C11.45740401 29.47071557 11.44673364 32.71491162 11.42333984 35.9597168 C11.3948512 40.11295447 11.41125935 44.26457669 11.44120216 48.41775513 C11.45929605 51.61779894 11.45350782 54.81746161 11.4405632 58.01751709 C11.4372349 59.54848422 11.44129606 61.07948629 11.45296097 62.6104126 C11.46570585 64.75316607 11.44624931 66.89332766 11.41845703 69.03588867 C11.41447906 70.25324707 11.4105011 71.47060547 11.40640259 72.72485352 C10.77148438 75.94995117 10.77148438 75.94995117 8.98368835 78.84660339 C4.06046532 82.07032464 -0.50763927 81.60759721 -6.27075195 81.51757812 C-8.10064163 81.51867332 -8.10064163 81.51867332 -9.96749878 81.51979065 C-13.30448302 81.51690778 -16.63991274 81.49186919 -19.97662187 81.45692086 C-23.46660148 81.42562306 -26.95660275 81.42272396 -30.44670105 81.41679382 C-37.05181151 81.40126528 -43.65650722 81.36025076 -50.26143521 81.31004637 C-57.78251019 81.25412166 -65.30360517 81.22665864 -72.82483637 81.2015692 C-88.29296949 81.14933359 -103.76068903 81.06141119 -119.22851562 80.94995117 C-114.7396481 77.34315889 -110.13520708 73.99666665 -105.41601562 70.69995117 C-104.53421631 70.0835376 -103.65241699 69.46712402 -102.74389648 68.83203125 C-95.35080713 63.68735233 -87.8731711 58.6772959 -80.36791992 53.69824219 C-70.62108603 47.22769363 -60.92200407 40.68755836 -51.22851562 34.13745117 C-50.45259064 33.61355804 -49.67666565 33.08966492 -48.87722778 32.54989624 C-45.11993126 30.01280938 -41.36560166 27.47158054 -37.6171875 24.92138672 C-34.64939948 22.9040914 -31.66508293 20.9148384 -28.66796875 18.94140625 C-27.21935178 17.97557844 -25.77078212 17.00967967 -24.32226562 16.04370117 C-23.3256189 15.39868904 -23.3256189 15.39868904 -22.30883789 14.74064636 C-18.31330301 12.05574727 -16.00395021 9.62257486 -13.72851562 5.26245117 C-10.40301168 -0.3215501 -5.90162449 0.03493301 0 0 Z " fill="#FFFFFF" transform="translate(469.228515625,63.050048828125)"/>
<path d="M0 0 C52.8 0 105.6 0 160 0 C160 5.28 160 10.56 160 16 C107.2 16 54.4 16 0 16 C0 10.72 0 5.44 0 0 Z " fill="#FFFFFF" transform="translate(272,384)"/>
<path d="M0 0 C26.4 0 52.8 0 80 0 C80 10.56 80 21.12 80 32 C53.6 32 27.2 32 0 32 C0 21.44 0 10.88 0 0 Z " fill="#FFFFFF" transform="translate(112,280)"/>
<path d="M0 0 C52.8 0 105.6 0 160 0 C160 5.28 160 10.56 160 16 C107.2 16 54.4 16 0 16 C0 10.72 0 5.44 0 0 Z " fill="#FFFFFF" transform="translate(72,96)"/>
<path d="M0 0 C3.76381862 1.50721148 5.58463482 3.64916931 8.0625 6.8125 C8.8359375 7.78703125 9.609375 8.7615625 10.40625 9.765625 C10.82003906 10.28705078 11.23382813 10.80847656 11.66015625 11.34570312 C13.08682554 13.10720296 14.55175771 14.82954027 16.03125 16.546875 C16.78716431 17.42508911 16.78716431 17.42508911 17.55834961 18.32104492 C18.55065339 19.46990109 19.54619703 20.61596791 20.54516602 21.7590332 C24 25.779889 24 25.779889 24 28 C8.82 28 -6.36 28 -22 28 C-20.51124977 25.02249955 -19.55071504 23.27509213 -17.4609375 20.8984375 C-16.96625977 20.33012207 -16.47158203 19.76180664 -15.96191406 19.17626953 C-15.43823242 18.58185059 -14.91455078 17.98743164 -14.375 17.375 C-9.43176332 11.69341023 -4.64520159 5.92946321 0 0 Z " fill="#FFFFFF" transform="translate(151,236)"/>
</svg>
