<?xml version="1.0" encoding="UTF-8"?>
<svg version="1.1" viewBox="0 0 2048 2048" width="1280" height="1280" xmlns="http://www.w3.org/2000/svg">
<path transform="translate(695,402)" d="m0 0h655l8 2 8 7 3 7v1285l-8 12-8 13-8 14-8 15-10 25-4 12h-2l-6-14-11-25-11-21-12-19-14-19-13-15-24-24-14-11-18-13-16-10-18-10-22-10-22-8 2-4 16-12 18-18 12-16 9-15 8-17 6-18 4-18 2-18v-19l-2-19-4-19-7-21-8-17-10-16-10-13-13-14-11-9-15-11-25-13-24-8-21-4-10-1h-27l-22 3-22 6-21 9-17 10-16 12-12 11-7 8-8 10-10 15-10 19-7 20-5 20-2 18v24l2 18 6 24 8 20 9 17 9 13 9 11 10 11 11 9 10 8 3 2v2l-25 9-27 13-17 10-12 8-19 14-10 9h-2v2l-8 7-15 15-9 11-10 12-14 21-12 21-8 16-10 25-3 7h-2l-8-21-9-20-11-21-10-16-8-11-1-7v-1273l1-10 6-9 6-4zm84 92-6 2-1 5v97l2 5 2 1 54 1h401l41-1 3-3 1-8v-57l-1-39-2-2-4-1zm13 251-18 1-2 7v145l2 3 3 1h171l4-3v-148l-2-5-21-1zm321 0-16 1-1 1-1 18v120l1 15 4 2h171l4-3 1-8v-109l-1-33-2-3-10-1zm-331 270-8 1-2 6v145l1 4 2 1 45 1h103l26-1 3-2v-150l-2-4-17-1zm332 0-16 1-2 2-1 20v107l1 25 3 2 74 1h86l13-1 3-3 1-8v-110l-1-32-2-3-11-1z" fill="#FEFEFE"/>
<path transform="translate(621,706)" d="m0 0 3 1v941l-4-2-11-9-22-14-27-14-23-10-12-4v-3l14-10 13-12 8-8 12-16 9-15 7-14 7-20 4-16 3-26v-11l-2-23-6-25-7-19-11-21-12-17-12-13-9-9-17-13-15-9-17-8-21-7-21-4-9-1h-29l-21 3-19 5-16 6-19 10-12 8-11 9-10 9-6 7-5 5-11 15-7 11-8 17-7 19-5 23-1 9v35l4 23 6 20 9 20 8 14 12 16 11 12 7 7 14 11 5 3v3l-19 7-20 9-14 7-17 10-12 8-17 13-14 12-4 4h-2l-2 4-17 17-8 10-9 12-10 14-11 19-11 21-11 28-8 27-6 31-3 23-2 2-8-1-8-4-6-7-2-10v-915l2-8 7-8 17-8 137-56 186-76 42-17 39-16 27-11 64-26zm-103 145-16 6-49 20-27 11-42 17-34 14-86 35-32 13-37 15-6 3-1 3v98l1 3 3 2h7l52-21 34-14 108-44 81-33 30-12 19-8 4-4v-98l-4-6z" fill="#FEFEFE"/>
<path transform="translate(1424,707)" d="m0 0 7 1 64 26 274 112 76 31 41 17 30 12 26 11 9 6 4 5 1 3 1 22v676l-1 229-4 7-6 5-10 3-5-1-5-37-6-26-6-21-10-25-11-23-10-17-8-12-11-15-12-14-11-12-9-9-8-7-13-11-17-12-21-13-19-10-21-9-16-6-1-4 12-8 12-11 12-12 14-19 9-16 8-20 6-21 3-20v-31l-4-25-5-17-8-20-10-18-10-14-9-10-6-7-11-9-13-10-19-11-25-10-21-5-13-2-22-1-23 2-20 4-18 6-21 10-18 12-13 11-6 5-14 16-10 14-10 18-8 20-6 22-3 26v18l3 23 5 19 7 19 10 19 11 16 12 14 8 8 11 9 10 7v2l-28 11-23 11-20 12-16 11-9 7h-3zm102 144-4 3-1 3v98l4 4 171 70 94 38 34 14 25 10h7l3-4 1-10v-64l-1-27-6-4-108-44-108-44-88-36-18-7z" fill="#FEFEFE"/>
<path transform="translate(1601,1632)" d="m0 0h36l26 3 22 5 20 6 24 10 21 11 14 9 12 9 10 8 15 14 11 11 9 11 11 15 10 16 9 16 11 26 6 20 5 22 3 23v33l-4 12-6 11-9 11-10 9-17 11-27 13-30 10-29 7-35 6-37 4-36 2h-36l-38-2-41-5-27-5-25-6-23-7-24-10-17-9-11-8-12-10-9-11-6-10-4-11-1-6v-23l3-26 6-27 8-24 9-21 12-21 11-16 10-13 11-12 6-7h2v-2l8-7 10-9 11-8 15-10 21-12 20-9 24-8 22-5 19-3z" fill="#fff"/>
<path transform="translate(418,1634)" d="m0 0h19l25 2 23 4 25 7 21 8 17 8 17 10 16 11 10 8 11 10 8 7 16 17 15 20 11 18 8 14 9 21 7 21 6 25 3 23 1 11v17l-3 14-4 9-7 11-14 14-15 10-23 12-21 8-23 7-31 7-31 5-40 4-16 1h-62l-38-3-42-6-28-6-25-7-24-9-16-8-14-8-11-9-9-8-8-10-7-14-3-14v-16l2-22 4-23 7-25 8-21 8-17 12-20 10-14 10-13 7-7 7-8 8-8h2v-2l8-7 19-14 19-12 19-10 20-8 18-6 28-6z" fill="#FEFEFE"/>
<path transform="translate(1014,1634)" d="m0 0h20l23 2 24 4 25 7 20 8 21 10 18 11 14 10 11 9 13 12 14 14 9 11 12 16 12 20 8 16 8 19 6 19 6 26 3 27v24l-3 12-7 14-11 13-12 10-20 12-22 10-27 9-24 6-32 6-31 4-39 3h-62l-38-3-36-5-34-7-27-8-24-9-23-12-11-8-10-9-8-8-7-11-4-9-2-8v-29l3-24 5-23 8-25 9-21 10-18 11-17 9-12 11-13 13-14 8-7 13-11 19-13 15-9 16-8 19-8 26-8 20-4 17-2z" fill="#FEFEFE"/>
<path transform="translate(1009,1329)" d="m0 0h30l19 4 15 6 15 8 12 9 10 9 11 13 8 13 7 15 5 17 2 11v27l-4 20-6 16-9 17-9 11-9 10-15 12-16 9-16 6-17 4-6 1h-24l-17-3-18-6-17-9-13-10-16-16-9-13-8-15-7-21-2-11-1-18 2-17 4-16 4-11 7-14 9-13 9-10 8-8 14-10 17-9 20-6z" fill="#fff"/>
<path transform="translate(414,1329)" d="m0 0h28l16 3 15 5 16 8 12 8 10 9 10 10 9 13 9 17 5 15 3 14 1 11v12l-2 16-4 16-7 16-8 14-9 11-13 13-13 9-17 9-19 6-16 3h-23l-17-3-18-6-19-10-14-11-10-10-10-13-9-16-6-16-4-17-1-8v-18l3-18 5-16 8-17 8-12 7-9h2l2-4 14-12 13-8 12-6 11-4z" fill="#fff"/>
<path transform="translate(1603,1327)" d="m0 0h33l19 4 19 8 16 10 15 13 11 13 8 13 8 17 5 19 2 15v13l-3 20-5 16-5 12-8 13-10 13-8 8-10 8-13 8-15 7-21 6-8 1h-30l-18-4-16-6-16-9-14-11-9-9-10-13-9-16-6-16-4-17-1-8v-19l3-18 5-16 8-16 9-14 12-13 10-9 14-9 17-8 13-4z" fill="#fff"/>
<path transform="translate(1021,49)" d="m0 0 10 1 7 3 8 6 5 9 1 4v189h95l9 3 7 8 2 7v67l-1 1h-282l-1-1v-70l3-6 5-5 8-4h98v-185l2-9 6-9 8-6z" fill="#FDFDFD"/>
</svg>
