<?xml version="1.0" encoding="UTF-8"?>
<svg version="1.1" xmlns="http://www.w3.org/2000/svg" width="512" height="512">
<path d="M0 0 C0.67846513 -0.00623996 1.35693026 -0.01247993 2.05595493 -0.01890898 C4.32859142 -0.03485958 6.60015837 -0.02222777 8.87280273 -0.00964355 C10.50235622 -0.0150638 12.1319048 -0.02218591 13.76144409 -0.03088379 C18.18707652 -0.04913186 22.6123363 -0.04204359 27.03797531 -0.02936745 C31.66725425 -0.01924743 36.29650107 -0.02863035 40.92578125 -0.03491211 C48.70017227 -0.04219143 56.47441134 -0.03259336 64.2487793 -0.0135498 C73.23980034 0.00821951 82.23045858 0.00116834 91.22147083 -0.02085543 C98.93792993 -0.03900133 106.65427975 -0.04157172 114.37075329 -0.03110075 C118.98080073 -0.02486135 123.59067759 -0.0240424 128.20071411 -0.0372467 C132.53464891 -0.04879285 136.8681155 -0.04080235 141.20199966 -0.01766968 C142.7935216 -0.01237594 144.38508286 -0.01390776 145.9765892 -0.02272034 C148.1475242 -0.03363399 150.31695418 -0.01996558 152.48779297 0 C154.31068092 0.00226215 154.31068092 0.00226215 156.1703949 0.00457001 C159.94065299 0.62204629 160.89214065 1.55408353 163.24389648 4.50793457 C163.74989581 7.05329263 163.74989581 7.05329263 163.7584343 9.98981285 C163.77133208 11.11079664 163.78422987 12.23178042 163.79751849 13.38673341 C163.78822688 15.23425988 163.78822688 15.23425988 163.77874756 17.11911011 C163.78780978 18.42755375 163.79687201 19.73599738 163.80620885 21.08409083 C163.83071356 24.71943281 163.83014283 28.35440732 163.82543135 31.98981309 C163.82461606 35.90966882 163.84668397 39.8294059 163.86566162 43.74920654 C163.89891346 51.4322952 163.90988234 59.11526112 163.91211113 66.79841571 C163.91401164 73.04726505 163.92222998 79.2960739 163.93491364 85.54491043 C163.9701558 103.26906326 163.98858998 120.99311915 163.98559174 138.71730725 C163.98543191 139.67318009 163.98527209 140.62905292 163.98510742 141.6138916 C163.9849439 142.57093521 163.98478038 143.52797881 163.9846119 144.51402374 C163.98298808 160.00474296 164.02121051 175.4950723 164.07766089 190.98567884 C164.13519166 206.89873544 164.16273713 222.81160223 164.15928578 238.72476542 C164.15795994 247.65564014 164.16885593 256.5861068 164.21199799 265.51688766 C164.24851953 273.12598631 164.25703821 280.73449226 164.22996029 288.34364085 C164.21694562 292.22217832 164.21649687 296.09958052 164.25137329 299.97800827 C164.49418223 328.73451874 164.49418223 328.73451874 155.24389648 340.50793457 C153.75243644 343.46294153 152.51009971 346.44794344 151.24389648 349.50793457 C147.86460599 347.81828932 147.07858325 343.90650923 145.61889648 340.57043457 C142.33228721 333.34185049 138.68468069 327.35731522 133.24389648 321.50793457 C132.65350586 320.82730957 132.06311523 320.14668457 131.45483398 319.44543457 C122.76323321 309.97713756 111.18658779 303.86067371 99.24389648 299.50793457 C99.90389648 298.86855957 100.56389648 298.22918457 101.24389648 297.57043457 C111.73243976 286.99224563 118.11528711 278.03408574 118.61889648 262.75793457 C118.39683503 249.7812186 113.36995655 239.224604 104.11889648 230.25793457 C94.03426413 221.6800045 82.07884765 219.55570726 69.24389648 220.50793457 C57.20715718 223.0245766 47.2871745 229.3956901 40.24389648 239.50793457 C34.55086257 250.73860942 32.00487091 262.29125156 35.36889648 274.75793457 C38.44813617 283.52081761 43.44233971 290.29924957 50.24389648 296.50793457 C51.24848357 297.50332635 52.24992042 298.50194671 53.24389648 299.50793457 C52.50526367 299.78766113 51.76663086 300.0673877 51.00561523 300.35559082 C38.99927476 305.10015484 29.45918452 311.4829795 20.24389648 320.50793457 C19.32157227 321.37611816 19.32157227 321.37611816 18.38061523 322.26184082 C12.00075722 328.81769491 8.28788641 337.4052836 4.24389648 345.50793457 C3.87433838 346.24688965 3.50478027 346.98584473 3.12402344 347.74719238 C2.6883606 348.61875977 2.6883606 348.61875977 2.24389648 349.50793457 C-1.26355786 347.7542074 -1.81787839 343.50814929 -3.14672852 339.97668457 C-4.53112884 336.99283145 -5.81608751 335.15548719 -7.80991173 332.62349415 C-11.78200443 326.68724274 -11.58820326 321.15468374 -11.50454712 314.19023132 C-11.51003592 312.85299124 -11.51814661 311.51575981 -11.52863443 310.17854959 C-11.54971541 306.52355509 -11.53361336 302.86954544 -11.51113343 299.21459448 C-11.49339395 295.26572196 -11.51035196 291.31697447 -11.52285767 287.36810303 C-11.54180318 279.64148179 -11.52866264 271.91523495 -11.50433178 264.18864157 C-11.47705664 255.1913309 -11.48037037 246.19410887 -11.48459844 237.19676737 C-11.49097328 221.14717402 -11.46766777 205.09775842 -11.4284668 189.04821777 C-11.39042869 173.4706888 -11.37630055 157.89336799 -11.38745117 142.3157959 C-11.39956021 125.34913093 -11.39922713 108.38255741 -11.37647951 91.41590005 C-11.37406491 89.60786172 -11.37165294 87.79982339 -11.36924362 85.99178505 C-11.36803654 85.10219517 -11.36682947 84.21260529 -11.36558581 83.29605814 C-11.3578218 77.02204509 -11.35861681 70.74806606 -11.36241531 64.47405052 C-11.36665445 56.83378196 -11.35624676 49.19369584 -11.32718821 41.55347874 C-11.31267872 37.65420143 -11.30456431 33.75519016 -11.31367493 29.85589027 C-11.32329985 25.63390273 -11.30204118 21.41264655 -11.27749634 17.1907196 C-11.28505499 15.95173375 -11.29261363 14.71274789 -11.30040133 13.43621701 C-11.28873694 12.30866633 -11.27707256 11.18111566 -11.2650547 10.01939678 C-11.26332115 9.04459698 -11.26158759 8.06979719 -11.25980151 7.065458 C-10.01806815 0.7605646 -5.72760538 0.0071078 0 0 Z M13.24389648 25.50793457 C13.14440572 27.26479131 13.11309389 29.0256079 13.11108398 30.78527832 C13.10979492 31.85584473 13.10850586 32.92641113 13.10717773 34.02941895 C13.11104492 35.1567041 13.11491211 36.28398926 13.11889648 37.44543457 C13.1150293 38.56885254 13.11116211 39.69227051 13.10717773 40.84973145 C13.1084668 41.92158691 13.10975586 42.99344238 13.11108398 44.09777832 C13.11221191 45.08640869 13.11333984 46.07503906 13.11450195 47.09362793 C13.08363145 49.51965836 13.08363145 49.51965836 14.24389648 51.50793457 C55.16389648 51.50793457 96.08389648 51.50793457 138.24389648 51.50793457 C139.54166566 48.91239623 139.37339683 47.0008793 139.37670898 44.09777832 C139.37799805 43.02592285 139.37928711 41.95406738 139.38061523 40.84973145 C139.37674805 39.72631348 139.37288086 38.60289551 139.36889648 37.44543457 C139.37276367 36.31814941 139.37663086 35.19086426 139.38061523 34.02941895 C139.37932617 32.95885254 139.37803711 31.88828613 139.37670898 30.78527832 C139.37501709 29.30402466 139.37501709 29.30402466 139.37329102 27.79284668 C139.50028093 25.54232026 139.50028093 25.54232026 138.24389648 24.50793457 C136.63932457 24.40976249 135.03042375 24.38161536 133.42285156 24.38095093 C131.85792465 24.37672119 131.85792465 24.37672119 130.26138306 24.37240601 C128.52989517 24.37544235 128.52989517 24.37544235 126.76342773 24.37854004 C125.55544525 24.37678772 124.34746277 24.3750354 123.10287476 24.37322998 C119.78063695 24.36957179 116.45846105 24.37044489 113.13622665 24.37360907 C109.66666325 24.37613305 106.19710257 24.37379502 102.72753906 24.3722229 C96.89997887 24.37040132 91.07243132 24.37280722 85.24487305 24.37756348 C78.49828356 24.38300608 71.75172429 24.38124341 65.00513554 24.37573707 C59.22255475 24.37120562 53.43998308 24.37055555 47.65740108 24.37317574 C44.19938092 24.37473834 40.74137498 24.37493275 37.28335571 24.37163925 C33.43034685 24.36822618 29.57737209 24.3729508 25.72436523 24.37854004 C24.57003998 24.37651581 23.41571472 24.37449158 22.22640991 24.37240601 C21.18312531 24.37522583 20.1398407 24.37804565 19.06494141 24.38095093 C17.69664436 24.38151647 17.69664436 24.38151647 16.30070496 24.38209343 C14.25148461 24.2794781 14.25148461 24.2794781 13.24389648 25.50793457 Z M13.24389648 88.50793457 C13.14294084 91.1624965 13.1041865 93.79048633 13.11108398 96.44543457 C13.11012726 97.24070557 13.10917053 98.03597656 13.10818481 98.85534668 C13.10750305 100.53999918 13.10935706 102.22465428 13.11352539 103.90930176 C13.11887373 106.49692654 13.11358029 109.08437773 13.10717773 111.67199707 C13.10783852 113.30480996 13.10911968 114.93762273 13.11108398 116.57043457 C13.10905975 117.34959229 13.10703552 118.12875 13.10494995 118.93151855 C12.78550069 122.51587657 12.78550069 122.51587657 14.24389648 125.50793457 C15.58933975 125.60578798 16.93982211 125.63591442 18.28881836 125.6373291 C19.14640747 125.64048126 20.00399658 125.64363342 20.88757324 125.6468811 C22.2859845 125.64384476 22.2859845 125.64384476 23.71264648 125.64074707 C24.66328979 125.6417038 25.61393311 125.64266052 26.59338379 125.64364624 C28.60758531 125.64432814 30.62178901 125.64247319 32.63598633 125.63830566 C35.73060003 125.63295755 38.82506858 125.63825034 41.91967773 125.64465332 C43.87150097 125.64399254 45.82332412 125.64271138 47.77514648 125.64074707 C48.70742065 125.6427713 49.63969482 125.64479553 50.60021973 125.6468811 C51.45780884 125.64372894 52.31539795 125.64057678 53.19897461 125.6373291 C54.33695496 125.63613571 54.33695496 125.63613571 55.4979248 125.63491821 C57.2726696 125.69714545 57.2726696 125.69714545 58.24389648 124.50793457 C58.34485213 121.85337264 58.38360647 119.22538281 58.37670898 116.57043457 C58.37766571 115.77516357 58.37862244 114.97989258 58.37960815 114.16052246 C58.38028992 112.47586997 58.37843591 110.79121486 58.37426758 109.10656738 C58.36891924 106.5189426 58.37421267 103.93149141 58.38061523 101.34387207 C58.37995445 99.71105918 58.37867329 98.07824641 58.37670898 96.44543457 C58.37873322 95.66627686 58.38075745 94.88711914 58.38284302 94.08435059 C58.70229228 90.49999257 58.70229228 90.49999257 57.24389648 87.50793457 C55.89845322 87.41008116 54.54797086 87.37995472 53.19897461 87.37854004 C52.3413855 87.37538788 51.48379639 87.37223572 50.60021973 87.36898804 C49.20180847 87.37202438 49.20180847 87.37202438 47.77514648 87.37512207 C46.82450317 87.37416534 45.87385986 87.37320862 44.89440918 87.3722229 C42.88020766 87.371541 40.86600396 87.37339595 38.85180664 87.37756348 C35.75719294 87.38291159 32.66272439 87.3776188 29.56811523 87.37121582 C27.616292 87.3718766 25.66446885 87.37315776 23.71264648 87.37512207 C22.78037231 87.37309784 21.84809814 87.37107361 20.88757324 87.36898804 C20.02998413 87.3721402 19.17239502 87.37529236 18.28881836 87.37854004 C17.15083801 87.37973343 17.15083801 87.37973343 15.98986816 87.38095093 C14.21512337 87.3187237 14.21512337 87.3187237 13.24389648 88.50793457 Z M94.24389648 88.50793457 C94.14294084 91.1624965 94.1041865 93.79048633 94.11108398 96.44543457 C94.11012726 97.24070557 94.10917053 98.03597656 94.10818481 98.85534668 C94.10750305 100.53999918 94.10935706 102.22465428 94.11352539 103.90930176 C94.11887373 106.49692654 94.11358029 109.08437773 94.10717773 111.67199707 C94.10783852 113.30480996 94.10911968 114.93762273 94.11108398 116.57043457 C94.10905975 117.34959229 94.10703552 118.12875 94.10494995 118.93151855 C93.78550069 122.51587657 93.78550069 122.51587657 95.24389648 125.50793457 C96.58933975 125.60578798 97.93982211 125.63591442 99.28881836 125.6373291 C100.14640747 125.64048126 101.00399658 125.64363342 101.88757324 125.6468811 C103.2859845 125.64384476 103.2859845 125.64384476 104.71264648 125.64074707 C105.66328979 125.6417038 106.61393311 125.64266052 107.59338379 125.64364624 C109.60758531 125.64432814 111.62178901 125.64247319 113.63598633 125.63830566 C116.73060003 125.63295755 119.82506858 125.63825034 122.91967773 125.64465332 C124.87150097 125.64399254 126.82332412 125.64271138 128.77514648 125.64074707 C129.70742065 125.6427713 130.63969482 125.64479553 131.60021973 125.6468811 C132.45780884 125.64372894 133.31539795 125.64057678 134.19897461 125.6373291 C135.33695496 125.63613571 135.33695496 125.63613571 136.4979248 125.63491821 C138.2726696 125.69714545 138.2726696 125.69714545 139.24389648 124.50793457 C139.34485213 121.85337264 139.38360647 119.22538281 139.37670898 116.57043457 C139.37766571 115.77516357 139.37862244 114.97989258 139.37960815 114.16052246 C139.38028992 112.47586997 139.37843591 110.79121486 139.37426758 109.10656738 C139.36891924 106.5189426 139.37421267 103.93149141 139.38061523 101.34387207 C139.37995445 99.71105918 139.37867329 98.07824641 139.37670898 96.44543457 C139.37873322 95.66627686 139.38075745 94.88711914 139.38284302 94.08435059 C139.70229228 90.49999257 139.70229228 90.49999257 138.24389648 87.50793457 C136.89845322 87.41008116 135.54797086 87.37995472 134.19897461 87.37854004 C133.3413855 87.37538788 132.48379639 87.37223572 131.60021973 87.36898804 C130.20180847 87.37202438 130.20180847 87.37202438 128.77514648 87.37512207 C127.82450317 87.37416534 126.87385986 87.37320862 125.89440918 87.3722229 C123.88020766 87.371541 121.86600396 87.37339595 119.85180664 87.37756348 C116.75719294 87.38291159 113.66272439 87.3776188 110.56811523 87.37121582 C108.616292 87.3718766 106.66446885 87.37315776 104.71264648 87.37512207 C103.78037231 87.37309784 102.84809814 87.37107361 101.88757324 87.36898804 C101.02998413 87.3721402 100.17239502 87.37529236 99.28881836 87.37854004 C98.15083801 87.37973343 98.15083801 87.37973343 96.98986816 87.38095093 C95.21512337 87.3187237 95.21512337 87.3187237 94.24389648 88.50793457 Z M14.24389648 154.50793457 C12.69346314 157.60880126 13.10188898 160.88694223 13.11108398 164.28918457 C13.11012726 165.0584729 13.10917053 165.82776123 13.10818481 166.62036133 C13.10750395 168.24776288 13.10935176 169.87516714 13.11352539 171.50256348 C13.11887498 173.9979053 13.11357729 176.49306712 13.10717773 178.98840332 C13.10783853 180.5678308 13.10911973 182.14725817 13.11108398 183.72668457 C13.10905975 184.47567017 13.10703552 185.22465576 13.10494995 185.99633789 C13.04864022 189.87983041 13.04864022 189.87983041 14.24389648 193.50793457 C20.34944359 193.5325797 26.45496199 193.55076828 32.56054688 193.56286621 C34.63932804 193.56790745 36.71810565 193.57474031 38.796875 193.58337402 C41.77792234 193.59544879 44.75892298 193.60116481 47.73999023 193.60559082 C48.67540146 193.61075211 49.61081268 193.61591339 50.5745697 193.62123108 C51.43538651 193.62130661 52.29620331 193.62138214 53.18310547 193.62145996 C53.94477524 193.62368057 54.70644501 193.62590118 55.49119568 193.62818909 C57.27200253 193.69884412 57.27200253 193.69884412 58.24389648 192.50793457 C58.34489136 189.78069179 58.38360178 187.07930934 58.37670898 184.35168457 C58.37766571 183.53421753 58.37862244 182.71675049 58.37960815 181.87451172 C58.38028994 180.14278079 58.37843578 178.41104733 58.37426758 176.67932129 C58.36891927 174.01926975 58.37421261 171.35938707 58.38061523 168.69934082 C58.37995445 167.02095503 58.37867329 165.34256934 58.37670898 163.66418457 C58.37873322 162.86315308 58.38075745 162.06212158 58.38284302 161.23681641 C58.71603316 157.57211156 58.71603316 157.57211156 57.24389648 154.50793457 C55.89294666 154.41524458 54.53722558 154.39046131 53.18310547 154.39440918 C52.32228867 154.39448471 51.46147186 154.39456024 50.5745697 154.39463806 C49.17145287 154.40237999 49.17145287 154.40237999 47.73999023 154.41027832 C46.31046776 154.41240074 46.31046776 154.41240074 44.85206604 154.41456604 C41.79514483 154.42018305 38.73829572 154.43273841 35.68139648 154.44543457 C33.61434025 154.45044738 31.54728287 154.45501067 29.48022461 154.45910645 C24.40142061 154.47015801 19.32267078 154.48743402 14.24389648 154.50793457 Z M94.24389648 155.50793457 C94.14290161 158.23517736 94.10419119 160.9365598 94.11108398 163.66418457 C94.11012726 164.48165161 94.10917053 165.29911865 94.10818481 166.14135742 C94.10750303 167.87308835 94.10935719 169.60482181 94.11352539 171.33654785 C94.11887369 173.99659939 94.11358036 176.65648207 94.10717773 179.31652832 C94.10783852 180.99491411 94.10911968 182.6732998 94.11108398 184.35168457 C94.10905975 185.15271606 94.10703552 185.95374756 94.10494995 186.77905273 C93.77175981 190.44375758 93.77175981 190.44375758 95.24389648 193.50793457 C96.59484631 193.60062456 97.95056739 193.62540783 99.3046875 193.62145996 C100.5959127 193.62134666 100.5959127 193.62134666 101.91322327 193.62123108 C103.3163401 193.61348915 103.3163401 193.61348915 104.74780273 193.60559082 C106.17732521 193.6034684 106.17732521 193.6034684 107.63572693 193.6013031 C110.69264814 193.59568609 113.74949725 193.58313073 116.80639648 193.57043457 C118.87345272 193.56542176 120.9405101 193.56085848 123.00756836 193.5567627 C128.08637236 193.54571113 133.16512218 193.52843512 138.24389648 193.50793457 C139.79361421 190.40849912 139.40681091 187.12849859 139.41186523 183.72668457 C139.41519363 182.95739624 139.41852203 182.18810791 139.42195129 181.39550781 C139.42701653 179.76811319 139.42935974 178.14070817 139.42919922 176.51330566 C139.43138779 174.01785282 139.44955302 171.52284052 139.46850586 169.02746582 C139.4714394 167.44804025 139.47342446 165.86861258 139.47436523 164.28918457 C139.48155075 163.54019897 139.48873627 162.79121338 139.49613953 162.01953125 C139.6229399 157.80481735 139.6229399 157.80481735 137.24389648 154.50793457 C135.3534173 154.2101082 135.3534173 154.2101082 133.17724609 154.26501465 C131.92100685 154.2603997 131.92100685 154.2603997 130.63938904 154.25569153 C129.28153038 154.2664698 129.28153038 154.2664698 127.89624023 154.27746582 C126.96920792 154.27792404 126.0421756 154.27838226 125.08705139 154.27885437 C123.12589235 154.28187803 121.16473573 154.28976772 119.20361328 154.30212402 C116.19026246 154.32038085 113.1772187 154.32263375 110.16381836 154.3223877 C108.26212298 154.32730272 106.36042969 154.33313098 104.45874023 154.33996582 C103.5514769 154.34107864 102.64421356 154.34219147 101.7094574 154.34333801 C97.6545444 153.96370125 97.6545444 153.96370125 94.24389648 155.50793457 Z " fill="#FFFFFF" transform="translate(179.756103515625,99.4920654296875)"/>
<path d="M0 0 C0 77.88 0 155.76 0 236 C-3.34326939 234.32836531 -6.48466169 232.54251627 -9.6875 230.625 C-14.66166565 227.70153332 -19.65757359 225.1720471 -25 223 C-25 222.34 -25 221.68 -25 221 C-23.4609375 219.5546875 -23.4609375 219.5546875 -21.375 217.875 C-12.50567901 210.2436231 -7.76358365 201.86179488 -6.6171875 190.05859375 C-6.08093077 177.81940813 -9.16513957 167.53124762 -17 158 C-24.61520158 149.77498736 -33.8713622 144.61903484 -45.12890625 143.76171875 C-58.25689929 143.47795098 -69.24081224 146.72674117 -78.93359375 155.8125 C-87.65849294 165.11905914 -91.56748288 176.1595973 -91.3125 188.78125 C-89.99481647 202.35339038 -83.94716744 211.9407642 -73.7578125 220.56640625 C-72.88769531 221.27603516 -72.88769531 221.27603516 -72 222 C-74.21470115 224.21470115 -76.50065877 225.28043657 -79.30615234 226.61254883 C-99.0341766 235.9839253 -113.65346878 249.92000773 -121.22851562 270.66870117 C-123.7265929 277.98652045 -125.13340991 285.33003095 -126 293 C-130.75 292.25 -130.75 292.25 -133 290 C-133.20254588 286.92342005 -133.2779425 283.93631255 -133.26742554 280.85816956 C-133.27195665 279.8989426 -133.27648776 278.93971564 -133.28115618 277.9514212 C-133.29388007 274.71699637 -133.29217469 271.4827382 -133.29052734 268.24829102 C-133.29650758 265.93761985 -133.30331194 263.62695068 -133.31088257 261.31628418 C-133.32860034 255.02506888 -133.33324035 248.73390794 -133.33451414 242.44267011 C-133.33640913 237.19880403 -133.34376196 231.95495073 -133.35085833 226.71108955 C-133.36622937 215.05151121 -133.37219427 203.39195947 -133.37084763 191.73237181 C-133.37076772 191.03234683 -133.3706878 190.33232185 -133.37060547 189.61108398 C-133.37052371 188.91020745 -133.37044195 188.20933091 -133.37035771 187.48721569 C-133.36954453 176.12439236 -133.38868862 164.7617015 -133.4168822 153.39891649 C-133.44558183 141.74048919 -133.45905749 130.08213264 -133.45769465 118.42366928 C-133.45718349 111.87475312 -133.46295163 105.32598682 -133.48405075 98.77710152 C-133.50334397 92.62033147 -133.50361887 86.46385562 -133.48901749 80.3070755 C-133.48691723 78.04268657 -133.491702 75.77827965 -133.5037384 73.51392174 C-133.51906492 70.43186773 -133.50996633 67.35084425 -133.49447632 64.26881409 C-133.50476344 63.364544 -133.51505057 62.46027392 -133.52564943 61.52860171 C-133.45826285 55.49637976 -133.45826285 55.49637976 -131.16115761 53.00820827 C-128.20979065 51.63135701 -125.26508371 50.33590107 -122.23828125 49.12890625 C-121.21619568 48.71802513 -121.21619568 48.71802513 -120.17346191 48.29884338 C-118.68029232 47.69933242 -117.18602905 47.10254001 -115.69082642 46.50811768 C-112.39867489 45.19916502 -109.11187917 43.87699372 -105.82463074 42.55578613 C-104.04219497 41.83954041 -102.25948281 41.12398219 -100.47651672 40.40905762 C-90.60373286 36.44814607 -80.75836476 32.42062388 -70.91268921 28.39291382 C-54.55223921 21.70182524 -38.18435053 15.02888691 -21.80380249 8.387146 C-19.94290232 7.63241553 -18.08224321 6.87709042 -16.22183228 6.12115479 C-13.66941489 5.08425783 -11.11610312 4.04959769 -8.5625 3.015625 C-7.80462692 2.70730743 -7.04675385 2.39898987 -6.26591492 2.08132935 C-1.11450164 0 -1.11450164 0 0 0 Z M-31.21728516 38.62963867 C-32.53522568 39.16796326 -32.53522568 39.16796326 -33.87979126 39.71716309 C-35.31988052 40.31156189 -35.31988052 40.31156189 -36.7890625 40.91796875 C-37.78851898 41.32720581 -38.78797546 41.73644287 -39.81771851 42.15808105 C-43.08815358 43.49797581 -46.35658681 44.84268168 -49.625 46.1875 C-52.97747427 47.56294542 -56.33037842 48.93733935 -59.68328857 50.3117218 C-61.92308975 51.22998081 -64.16271344 52.14867285 -66.40216064 53.0677948 C-73.03997962 55.79128114 -79.68345191 58.50004253 -86.3359375 61.1875 C-87.47284531 61.64712883 -87.47284531 61.64712883 -88.63272095 62.11604309 C-91.43570527 63.24888828 -94.23881172 64.38139933 -97.04376221 65.5093689 C-98.90503965 66.25800556 -100.76506149 67.00976175 -102.625 67.76171875 C-104.16027344 68.3798645 -104.16027344 68.3798645 -105.7265625 69.01049805 C-107.92391391 69.80185962 -107.92391391 69.80185962 -109 71 C-109.08726223 72.78071246 -109.10699041 74.5648314 -109.09765625 76.34765625 C-109.09443359 77.42724609 -109.09121094 78.50683594 -109.08789062 79.61914062 C-109.07951172 80.75544922 -109.07113281 81.89175781 -109.0625 83.0625 C-109.05798828 84.20267578 -109.05347656 85.34285156 -109.04882812 86.51757812 C-109.03699747 89.34510351 -109.0205141 92.1725264 -109 95 C-104.3852339 96.47528797 -101.35429759 95.29926074 -97.11328125 93.4140625 C-96.43454956 93.1255542 -95.75581787 92.8370459 -95.05651855 92.53979492 C-92.80339786 91.5796979 -90.5582796 90.60212999 -88.3125 89.625 C-85.08579677 88.24420035 -81.85518936 86.87262064 -78.625 85.5 C-77.77895706 85.13895172 -76.93291412 84.77790344 -76.06123352 84.40591431 C-64.76731168 79.59839978 -53.36573982 75.05438627 -41.97329712 70.4866333 C-39.32123366 69.42277449 -36.6703398 68.35604335 -34.01953125 67.2890625 C-33.22019165 66.96993896 -32.42085205 66.65081543 -31.59729004 66.32202148 C-28.03722093 65.09213911 -28.03722093 65.09213911 -25 63 C-24.91251793 61.07332493 -24.89302666 59.14348139 -24.90234375 57.21484375 C-24.90556641 56.04501953 -24.90878906 54.87519531 -24.91210938 53.66992188 C-24.92048828 52.43822266 -24.92886719 51.20652344 -24.9375 49.9375 C-24.94201172 48.70193359 -24.94652344 47.46636719 -24.95117188 46.19335938 C-24.96300392 43.12885883 -24.97948827 40.06445279 -25 37 C-27.44232065 37 -28.95417779 37.70004713 -31.21728516 38.62963867 Z " fill="#FFFFFF" transform="translate(156,176)"/>
<path d="M0 0 C9.33188112 3.49945542 18.61454318 6.98849621 27.828125 10.765625 C29.4141024 11.41255562 29.4141024 11.41255562 31.03211975 12.07255554 C34.4389719 13.46286411 37.84450487 14.85637121 41.25 16.25 C43.63688679 17.22487711 46.02385074 18.19956531 48.41088867 19.17407227 C54.44820466 21.63947777 60.48439499 24.10762561 66.52020264 26.57672119 C70.90100623 28.36852234 75.28238158 30.15892242 79.66378784 31.94924927 C100.59960768 40.50441817 100.59960768 40.50441817 109.35009766 44.09716797 C112.53780439 45.40490411 115.73072419 46.6988316 118.92724609 47.98486328 C119.71471725 48.30370987 120.50218842 48.62255646 121.31352234 48.95106506 C122.80163019 49.55349091 124.29130791 50.15205858 125.78279114 50.74607849 C128.64899965 51.91079421 130.78888013 52.78888013 133 55 C133.20254588 58.07657995 133.2779425 61.06368745 133.26742554 64.14183044 C133.27195665 65.1010574 133.27648776 66.06028436 133.28115618 67.0485788 C133.29388007 70.28300363 133.29217469 73.5172618 133.29052734 76.75170898 C133.29650758 79.06238015 133.30331194 81.37304932 133.31088257 83.68371582 C133.32860034 89.97493112 133.33324035 96.26609206 133.33451414 102.55732989 C133.33640913 107.80119597 133.34376196 113.04504927 133.35085833 118.28891045 C133.36622937 129.94848879 133.37219427 141.60804053 133.37084763 153.26762819 C133.37076772 153.96765317 133.3706878 154.66767815 133.37060547 155.38891602 C133.37052371 156.08979255 133.37044195 156.79066909 133.37035771 157.51278431 C133.36954453 168.87560764 133.38868862 180.2382985 133.4168822 191.60108351 C133.44558183 203.25951081 133.45905749 214.91786736 133.45769465 226.57633072 C133.45718349 233.12524688 133.46295163 239.67401318 133.48405075 246.22289848 C133.50334397 252.37966853 133.50361887 258.53614438 133.48901749 264.6929245 C133.48691723 266.95731343 133.491702 269.22172035 133.5037384 271.48607826 C133.51906492 274.56813227 133.50996633 277.64915575 133.49447632 280.73118591 C133.50476344 281.635456 133.51505057 282.53972608 133.52564943 283.47139829 C133.45849507 289.48283241 133.45849507 289.48283241 131.15659523 292.07930088 C129 293 129 293 126 293 C125.91363281 292.16339844 125.82726562 291.32679688 125.73828125 290.46484375 C123.24207643 269.78527536 114.97967085 251.43405375 99.11328125 237.45703125 C92.51263273 232.30593691 85.57831885 228.50258434 78 225 C75.99720674 224.00560614 73.99645397 223.00706085 72 222 C77 217 77 217 79.4375 214.8125 C88.02182973 205.39067469 91.62618778 194.80486908 91.28515625 182.171875 C90.37400925 172.03692482 85.67647976 160.90699969 78 154 C68.04003831 146.70648475 57.62499448 141.81772627 45 143 C32.37987605 145.31312245 22.03179022 149.8570832 14.203125 160.42578125 C12.64988612 162.89789165 11.28715835 165.38030271 10 168 C9.6596875 168.68449219 9.319375 169.36898437 8.96875 170.07421875 C4.90303674 179.9561607 5.8949322 192.46186654 9.671875 202.25 C13.44709085 210.06691752 18.33918242 215.56259789 25 221 C25 221.66 25 222.32 25 223 C24.11699219 223.35191406 23.23398437 223.70382812 22.32421875 224.06640625 C20.52404297 224.80697266 20.52404297 224.80697266 18.6875 225.5625 C17.51574219 226.03816406 16.34398437 226.51382813 15.13671875 227.00390625 C9.85053868 229.55465036 4.95179672 232.84885663 0 236 C0 158.12 0 80.24 0 0 Z M25 37 C25 45.58 25 54.16 25 63 C31.367603 66.21392323 31.367603 66.21392323 37.84179688 69.03955078 C38.70545868 69.38766815 39.56912048 69.73578552 40.45895386 70.0944519 C41.36968658 70.4577359 42.28041931 70.8210199 43.21875 71.1953125 C44.18692657 71.58494171 45.15510315 71.97457092 46.15261841 72.37600708 C49.26713541 73.62887766 52.38343834 74.8772252 55.5 76.125 C59.74821509 77.8286948 63.99559191 79.53446001 68.2421875 81.2421875 C69.27370941 81.65686279 70.30523132 82.07153809 71.36801147 82.4987793 C77.02309059 84.7786301 82.65744273 87.09668506 88.2578125 89.5078125 C89.92553711 90.22300049 89.92553711 90.22300049 91.62695312 90.95263672 C93.56029238 91.78926252 95.48909811 92.63648257 97.41210938 93.49658203 C98.23775391 93.85349121 99.06339844 94.21040039 99.9140625 94.578125 C100.9342749 95.03300293 100.9342749 95.03300293 101.97509766 95.49707031 C104.48379288 96.27304882 104.48379288 96.27304882 109 95 C109 87.08 109 79.16 109 71 C102.65570872 67.79651807 102.65570872 67.79651807 96.20581055 64.97631836 C95.35172607 64.63138336 94.4976416 64.28644836 93.61767578 63.93106079 C92.71645996 63.57095917 91.81524414 63.21085754 90.88671875 62.83984375 C89.92660889 62.45299408 88.96649902 62.06614441 87.97729492 61.66757202 C84.88193959 60.42109864 81.78477142 59.17920362 78.6875 57.9375 C75.50181645 56.65670604 72.31653641 55.37491249 69.13130188 54.09300232 C67.02915231 53.24704486 64.92684807 52.40147166 62.8243866 51.55628967 C56.86422588 49.15900935 50.91095144 46.74614077 44.96875 44.3046875 C44.00108452 43.90755302 44.00108452 43.90755302 43.01387024 43.50239563 C40.13793279 42.32149137 37.26359836 41.13689213 34.39135742 39.94702148 C33.42045166 39.54813721 32.4495459 39.14925293 31.44921875 38.73828125 C30.62768311 38.39837158 29.80614746 38.05846191 28.9597168 37.70825195 C27.03380703 36.88670361 27.03380703 36.88670361 25 37 Z " fill="#FFFFFF" transform="translate(356,176)"/>
<path d="M0 0 C13.57069713 10.99437898 23.35679913 25.87805983 25.73535156 43.39453125 C26.54898712 52.11327855 26.74362503 57.31997653 21.16894531 64.24609375 C0.84961205 81.1068171 -29.61219156 81.38399132 -54.72705078 79.45654297 C-69.58886118 78.00492428 -88.72724978 75.33324632 -99.45214844 63.88671875 C-104.71165366 56.91377699 -104.05765493 50.06523199 -103.09326172 41.7578125 C-100.40355066 24.57601914 -90.24519959 9.53231052 -76.32324219 -0.65625 C-53.0801418 -15.76071126 -22.82413746 -16.98892175 0 0 Z " fill="#FFFFFF" transform="translate(294.7685546875,420.31640625)"/>
<path d="M0 0 C16.59089009 -0.60728002 32.65051891 4.69009222 45.16796875 15.65234375 C46.66756887 17.13191582 48.14875693 18.6305275 49.60546875 20.15234375 C50.22550781 20.74144531 50.84554687 21.33054687 51.484375 21.9375 C62.11836453 32.76180702 67.29588727 48.67626944 68.04296875 63.52734375 C67.80650441 69.29707376 66.04460575 73.67216358 61.98046875 77.8046875 C42.48117029 93.76973812 10.41394849 93.72246368 -13.28710938 91.93408203 C-30.61656408 90.14127117 -48.20501118 86.56239516 -60.30078125 73.15625 C-64.50792872 65.44815481 -62.05973235 54.30400393 -59.8515625 46.14648438 C-56.84385388 36.59653056 -51.9042822 28.75665459 -45.39453125 21.15234375 C-44.84152344 20.4871875 -44.28851563 19.82203125 -43.71875 19.13671875 C-32.71477619 7.01323395 -15.95957923 1.0153729 0 0 Z " fill="#FFFFFF" transform="translate(104.39453125,407.84765625)"/>
<path d="M0 0 C11.52736084 9.83361168 20.31861044 23.68342212 22.375 38.875 C22.519375 39.83277344 22.66375 40.79054688 22.8125 41.77734375 C23.60677613 48.33839555 23.74747443 54.01693024 20.375 59.875 C10.08953735 72.35431479 -9.51746753 75.32697426 -24.625 76.875 C-30.37053712 77.2202243 -36.12118553 77.21651539 -41.875 77.1875 C-42.6450235 77.18534485 -43.415047 77.1831897 -44.20840454 77.18096924 C-63.36009356 77.09496796 -86.98599667 76.16637528 -101.625 61.875 C-106.07163829 56.97229625 -106.92420596 53.31855514 -106.83984375 46.87890625 C-105.54293379 28.74574698 -97.94525659 13.76918702 -85.0625 1.125 C-78.67751996 -4.34499847 -71.31028739 -7.85405675 -63.625 -11.125 C-62.72265625 -11.50914062 -61.8203125 -11.89328125 -60.890625 -12.2890625 C-40.21214536 -19.33555078 -16.72032172 -12.80656221 0 0 Z " fill="#FFFFFF" transform="translate(446.625,422.125)"/>
<path d="M0 0 C7.27173168 5.29072837 11.87197278 11.58177444 13.5390625 20.5234375 C14.38608314 30.46080463 12.7645472 38.81712833 6.38671875 46.66796875 C-0.23453321 53.31721754 -8.18160129 56.15520987 -17.4609375 56.5234375 C-25.95635352 55.90960686 -33.35378137 53.09103205 -39.2109375 46.8359375 C-46.32207632 37.95108214 -47.65948821 29.87877878 -46.4609375 18.5234375 C-44.58568157 10.9003557 -39.59292768 4.12530007 -32.9609375 -0.05078125 C-22.15305557 -5.66380326 -10.70087728 -6.42052637 0 0 Z " fill="#FFFFFF" transform="translate(421.4609375,335.4765625)"/>
<path d="M0 0 C7.65218012 5.57758907 12.01232049 11.03696148 15 20 C15.87070503 31.10505756 14.7497766 38.7027367 7.625 47.3125 C2.25274345 53.07421651 -3.39984113 56.53620907 -11.33203125 57.3359375 C-22.40464402 57.46020925 -29.16191693 55.35983789 -37.27734375 47.79296875 C-44.22702891 40.55962297 -45.48215693 33.18198466 -45.30859375 23.47265625 C-44.54567071 14.88735773 -40.08853196 8.86253841 -34 3 C-24.74267747 -4.32871367 -10.5081787 -5.81538436 0 0 Z " fill="#FFFFFF" transform="translate(271,335)"/>
<path d="M0 0 C0.63421875 0.36996094 1.2684375 0.73992187 1.921875 1.12109375 C2.97375 1.67796875 4.025625 2.23484375 5.109375 2.80859375 C11.46597492 8.03513146 15.42206211 15.21595333 16.2578125 23.41796875 C16.36121939 32.55913763 15.00920459 39.08988998 10.234375 46.87109375 C3.51903439 53.40493867 -3.84186089 57.37926784 -13.328125 57.49609375 C-22.60345928 57.31670731 -29.55472288 54.47581761 -36.3203125 48.12109375 C-42.66990385 40.89666982 -44.46602738 33.69416944 -44.3515625 24.28515625 C-43.60437232 15.63909846 -39.42842036 8.88438702 -33.078125 3.12109375 C-23.45534628 -3.90771853 -10.65961013 -5.62158271 0 0 Z " fill="#FFFFFF" transform="translate(121.078125,334.87890625)"/>
<path d="M0 0 C2.16308594 1.33691406 2.16308594 1.33691406 4 4 C4.56727114 7.70338146 4.46405209 11.37075406 4.390625 15.109375 C4.38496521 16.19132141 4.37930542 17.27326782 4.37347412 18.38800049 C4.35108999 21.84245107 4.30088791 25.29586311 4.25 28.75 C4.22993772 31.09243293 4.21168648 33.43488213 4.1953125 35.77734375 C4.15121855 41.5185833 4.08428555 47.25921745 4 53 C4.77190674 52.97905273 5.54381348 52.95810547 6.33911133 52.93652344 C9.83010885 52.85347328 13.3208988 52.80137406 16.8125 52.75 C18.02744141 52.71648437 19.24238281 52.68296875 20.49414062 52.6484375 C21.65751953 52.63554688 22.82089844 52.62265625 24.01953125 52.609375 C25.09307861 52.58842773 26.16662598 52.56748047 27.27270508 52.54589844 C30 53 30 53 33 57 C33 62.94 33 68.88 33 75 C9.24 75 -14.52 75 -39 75 C-39 68.73 -39 62.46 -39 56 C-36 53 -36 53 -33.27270508 52.65942383 C-32.19915771 52.67513428 -31.12561035 52.69084473 -30.01953125 52.70703125 C-28.85615234 52.71669922 -27.69277344 52.72636719 -26.49414062 52.73632812 C-25.27919922 52.76146484 -24.06425781 52.78660156 -22.8125 52.8125 C-21.58595703 52.82603516 -20.35941406 52.83957031 -19.09570312 52.85351562 C-16.06336336 52.88891259 -13.03190004 52.9382924 -10 53 C-10.00888245 52.39500671 -10.01776489 51.79001343 -10.0269165 51.16668701 C-10.11537593 44.87277672 -10.17572842 38.57904287 -10.21972656 32.28466797 C-10.23984814 29.93531116 -10.26714851 27.58600446 -10.30175781 25.23681641 C-10.3502504 21.86087685 -10.37296357 18.48559914 -10.390625 15.109375 C-10.41127014 14.05820496 -10.43191528 13.00703491 -10.45318604 11.92401123 C-10.45542375 4.66025548 -10.45542375 4.66025548 -8.16308594 1.33691406 C-5.18825748 -0.50170452 -3.43454039 -0.5724234 0 0 Z " fill="#FFFFFF" transform="translate(259,12)"/>
</svg>
