<?xml version="1.0" encoding="UTF-8"?>
<svg version="1.1" viewBox="0 0 2048 2048" width="1280" height="1280" xmlns="http://www.w3.org/2000/svg">
<path transform="translate(239,127)" d="m0 0h1569l22 2 16 4 19 8 16 10 11 9 13 13 8 11 7 11 8 19 8 30 60 240 17 69 18 71 12 48 4 15 1 1v59l-2 1-4 23-8 32-8 23-12 27-11 20-13 20-10 14-11 13-1 2h-2l-2 4-22 22-11 9-17 13-15 10-23 13-17 8-24 9-21 6-26 5-26 3h-37l-21-2-22-4-26-7-22-8-20-9-17-9-19-12-17-13-14-12-10-9-13-13-9-11-10-12-3 1-9 11-12 14-19 19-11 9-17 13-20 13-12 7-23 11-27 10-27 7-23 4-20 2h-37l-21-2-22-4-26-7-22-8-20-9-17-9-19-12-17-13-14-12-10-9-13-13-9-11-10-12-3 1-9 11-12 14-19 19-11 9-17 13-17 11-25 14-23 10-24 8-25 6-27 4-11 1h-37l-21-2-22-4-26-7-22-8-20-9-22-12-15-10-16-12-14-12-10-9-13-13-9-11-10-12-3 1-9 11-12 14-19 19-11 9-17 13-17 11-25 14-23 10-24 8-25 6-27 4-11 1h-38l-27-3-28-6-30-10-21-9-21-11-19-12-17-13-13-11-12-11-12-12-9-11-10-12-12-17-11-18-14-27-11-28-9-31-6-31-2-8v-55l3-9 16-63 18-73 17-67 18-73 32-128 14-55 6-17 8-15 8-11 8-10h2l2-4 11-9 10-7 14-8 15-6 16-4z" fill="#FEFEFE"/>
<path transform="translate(542,1076)" d="m0 0 6 2 15 10 18 10 19 10 31 13 30 10 28 7 28 5 33 4 15 1h36l27-2 30-4 29-6 26-7 26-9 26-11 26-13 20-12 12-8 8 4 14 9 16 9 19 10 31 13 30 10 28 7 28 5 33 4 15 1h36l27-2 30-4 29-6 26-7 26-9 26-11 26-13 20-12 12-8 10 5 17 11 24 13 16 8 29 12 24 8 26 7 27 5 33 4 13 1h44l31-3 29-5 25-6 29-9 26-10 11-5h3l1 75v513l-1 105-3 17-5 17-8 16-9 14-5 7h-2l-2 4-8 8-12 9-13 8-15 7-17 5-10 2-11 1h-520l-1-1-1-510h-497l-12-1v510l-1 2h-521l-17-2-18-5-18-8-15-10-14-12-10-11-12-18-8-17-4-13-3-17-1-13v-680l1-2 4 1 27 11 30 10 32 8 31 5 32 3h42l33-3 30-5 32-8 30-10 24-10 23-11 23-13 14-9z" fill="#FEFEFE"/>
<path transform="translate(2047,684)" d="m0 0" fill="#fff"/>
</svg>
