<?xml version="1.0" encoding="UTF-8"?>
<svg version="1.1" xmlns="http://www.w3.org/2000/svg" width="512" height="512">
<path d="M0 0 C3.16788123 1.68721587 6.03305693 3.71028393 8.9375 5.8125 C10.19602783 6.69893188 10.19602783 6.69893188 11.47998047 7.60327148 C13.99921134 9.38539406 16.50235744 11.1877759 19 13 C20.02552979 13.7434668 20.02552979 13.7434668 21.07177734 14.50195312 C24.14866689 16.74054967 27.21191657 18.99689463 30.26953125 21.26171875 C34.24147718 24.19346848 38.27274315 27.03773886 42.3125 29.875 C48.24069363 34.03960672 54.13382299 38.24847745 60 42.5 C68.61518915 48.74053717 77.29751942 54.88201481 86 61 C95.46617056 67.65487164 104.89571236 74.35424955 114.26708984 81.14208984 C122.12955842 86.83044743 130.06121039 92.41890197 138 98 C146.92381758 104.27358869 155.830946 110.5691598 164.6875 116.9375 C165.80112915 117.73498657 165.80112915 117.73498657 166.93725586 118.54858398 C168.97127856 120.01559933 170.98968897 121.50069773 173 123 C173.90600952 123.66515625 173.90600952 123.66515625 174.83032227 124.34375 C178.81136714 127.41811557 178.81136714 127.41811557 179.69140625 130.1328125 C179.34446396 135.49464782 179.34446396 135.49464782 177.82495117 137.72387695 C175.24187221 139.53013163 173.36857677 139.34063822 170.23828125 139.29296875 C168.56088867 139.2784668 168.56088867 139.2784668 166.84960938 139.26367188 C165.68236328 139.23853516 164.51511719 139.21339844 163.3125 139.1875 C162.13365234 139.17396484 160.95480469 139.16042969 159.74023438 139.14648438 C156.82636589 139.11109326 153.91341055 139.06171809 151 139 C151.02094727 139.8878418 151.04189453 140.77568359 151.06347656 141.69042969 C151.13175677 144.99294455 151.1818487 148.2947067 151.21972656 151.59765625 C151.23980982 153.02551121 151.26708252 154.45328425 151.30175781 155.88085938 C151.35042669 157.93640368 151.37299967 159.99085855 151.390625 162.046875 C151.41157227 163.28276367 151.43251953 164.51865234 151.45410156 165.79199219 C151 169 151 169 147 173 C139.08 173 131.16 173 123 173 C123 211.28 123 249.56 123 289 C130.59 289 138.18 289 146 289 C150 291 150 291 151 293 C151.06269845 295.88206974 151.06687783 298.74008472 151.02734375 301.62109375 C151.01469785 303.37825324 151.00233686 305.13541481 150.99023438 306.89257812 C150.96539648 309.66876627 150.9374117 312.44484793 150.90405273 315.22094727 C150.87388918 317.89600312 150.85608722 320.57092229 150.83984375 323.24609375 C150.82638412 324.07741318 150.8129245 324.9087326 150.79905701 325.76524353 C150.77322523 330.67523782 150.77322523 330.67523782 153 335 C162.73305664 329.79394645 171.76368436 323.19334916 180.29296875 316.21484375 C182 315 182 315 184 315 C184.33 314.01 184.66 313.02 185 312 C186.6015625 310.52734375 186.6015625 310.52734375 188.625 308.9375 C193.9784359 304.37644992 199.08007546 299.00898934 200.6875 292.00390625 C199.90076234 288.56639908 199.417238 288.15316466 196.625 286.2109375 C191.85675533 283.59885961 187.36638902 282.97081015 182 282.625 C181.06462402 282.55104004 180.12924805 282.47708008 179.16552734 282.40087891 C168.09978314 281.66023663 157.05132188 282.26363328 146 283 C145.80606125 280.85473901 145.62001324 278.70876323 145.4375 276.5625 C145.33308594 275.36753906 145.22867187 274.17257812 145.12109375 272.94140625 C145.08113281 271.97074219 145.04117187 271.00007813 145 270 C146.52676585 268.47323415 147.90870831 268.85065285 150.03808594 268.82299805 C150.89698425 268.81016281 151.75588257 268.79732758 152.64080811 268.78410339 C154.04837372 268.77302299 154.04837372 268.77302299 155.484375 268.76171875 C156.45095032 268.753647 157.41752563 268.74557526 158.41339111 268.73725891 C160.47137649 268.72338771 162.52938517 268.71267923 164.58740234 268.70483398 C167.69545427 268.68779896 170.80239228 268.64396353 173.91015625 268.59960938 C187.97081691 268.48868287 202.00388985 268.8845307 213 279 C216.8451902 284.0798843 216.66174246 288.86011381 216.55859375 295.04296875 C215.68227556 301.25073324 212.98911382 306.19939622 209 311 C208.01 311.33 207.02 311.66 206 312 C205.67 312.99 205.34 313.98 205 315 C204.34 315 203.68 315 203 315 C202.7525 315.61875 202.505 316.2375 202.25 316.875 C200.77229238 319.38710296 199.56044823 319.76107344 197 321 C196.67 321.99 196.34 322.98 196 324 C192.55555556 327 192.55555556 327 190 327 C190 327.66 190 328.32 190 329 C188.62172012 329.97992078 187.23364891 330.94832797 185.80517578 331.85351562 C183.95710287 333.02724438 182.16421062 334.2597307 180.37109375 335.515625 C179.41601929 336.1794519 179.41601929 336.1794519 178.44165039 336.85668945 C177.07424135 337.80732941 175.7075732 338.75903573 174.34155273 339.71166992 C170.99038157 342.02680811 167.63632851 344.25895525 164.1015625 346.28515625 C163.50287354 346.63094727 162.90418457 346.97673828 162.28735352 347.33300781 C160.66106982 348.25652518 159.02036975 349.15452204 157.37890625 350.05078125 C154.30009404 352.1369256 154.30009404 352.1369256 154 358 C149.38 358 144.76 358 140 358 C139.67 356.02 139.34 354.04 139 352 C136.54295238 350.76709799 136.54295238 350.76709799 134 350 C133.67 349.01 133.34 348.02 133 347 C132.360625 346.896875 131.72125 346.79375 131.0625 346.6875 C128.4578051 346.10277257 126.07853693 345.37126279 123.5625 344.5 C112.2229685 340.68291633 100.75036897 341.95386222 89 343 C89 341.02 89 339.04 89 337 C85.04 337 81.08 337 77 337 C77.33 340.3 77.66 343.6 78 347 C75.22978141 348.08492609 72.45884605 349.16796051 69.6875 350.25 C68.92115234 350.55035156 68.15480469 350.85070312 67.36523438 351.16015625 C65.80507043 351.76868493 64.24228562 352.37053936 62.67687988 352.9654541 C60.94504954 353.63476242 59.22214228 354.32784635 57.51123047 355.0489502 C50.63408026 357.81652871 44.79599947 358.54383101 37.42578125 358.390625 C36.37593552 358.38496521 35.32608978 358.37930542 34.24443054 358.37347412 C30.93329769 358.35131214 27.62329866 358.30115438 24.3125 358.25 C22.05014598 358.22990891 19.78777478 358.21166275 17.52539062 358.1953125 C12.01615248 358.15493699 6.50932596 358.07660708 1 358 C1 351.07 1 344.14 1 337 C-3.29 337 -7.58 337 -12 337 C-12 343.93 -12 350.86 -12 358 C-16.3003125 358.061875 -16.3003125 358.061875 -20.6875 358.125 C-21.58170654 358.14320801 -22.47591309 358.16141602 -23.3972168 358.18017578 C-27.78178563 358.21066174 -30.98261225 357.92285225 -35 356 C-44.01970872 353.32112193 -50.76985038 351.50127562 -59.5625 355.5 C-68.97242849 359.42080354 -78.98745703 358.43814144 -89 358 C-89.18451025 343.21867882 -89.18451025 343.21867882 -88 337 C-91.96 337 -95.92 337 -100 337 C-100.33 343.93 -100.66 350.86 -101 358 C-122.12 358 -143.24 358 -165 358 C-165 351.35473764 -164.95161555 346.3581985 -163.75 340.0625 C-163.51796875 338.79535156 -163.2859375 337.52820313 -163.046875 336.22265625 C-162.33912904 332.9332775 -161.19906723 330.00205874 -159.91796875 326.89453125 C-156.97701869 319.06484329 -157.51837763 311.1069041 -157.59960938 302.85546875 C-157.51664031 293.78743746 -157.51664031 293.78743746 -154.81640625 289.671875 C-151.63890514 287.78564688 -150.03779769 287.43741737 -146.375 287.625 C-144.96347656 287.67527344 -144.96347656 287.67527344 -143.5234375 287.7265625 C-138.67828607 288.10257203 -133.83976183 288.56002165 -129 289 C-129 250.72 -129 212.44 -129 173 C-136.92 173 -144.84 173 -153 173 C-157 169 -157 169 -157.45410156 165.79199219 C-157.4331543 164.55610352 -157.41220703 163.32021484 -157.390625 162.046875 C-157.38496521 161.38665344 -157.37930542 160.72643188 -157.37347412 160.04620361 C-157.3511623 157.94671737 -157.30098314 155.8489663 -157.25 153.75 C-157.22992794 152.3229414 -157.21167839 150.89585592 -157.1953125 149.46875 C-157.15131693 145.97860707 -157.08232876 142.48947301 -157 139 C-157.74161377 139.01571045 -158.48322754 139.0314209 -159.24731445 139.04760742 C-162.60229896 139.10990714 -165.95716186 139.14897507 -169.3125 139.1875 C-170.47974609 139.21263672 -171.64699219 139.23777344 -172.84960938 139.26367188 C-173.96787109 139.27333984 -175.08613281 139.28300781 -176.23828125 139.29296875 C-177.7857605 139.31653442 -177.7857605 139.31653442 -179.36450195 139.34057617 C-182 139 -182 139 -183.82104492 137.7199707 C-185.49391571 135.27942924 -185.65606303 132.9424257 -185.53637695 130.03369141 C-184.87469039 127.52488438 -184.05034143 126.76279262 -182.04296875 125.1484375 C-181.40617187 124.63595459 -180.769375 124.12347168 -180.11328125 123.59545898 C-176.37424732 120.77260931 -172.54867373 118.09000763 -168.6875 115.4375 C-162.01563144 110.81240938 -155.38143538 106.14525535 -148.8125 101.375 C-142.37415144 96.70312974 -135.89786196 92.09045823 -129.3894043 87.5168457 C-124.26733947 83.91124774 -119.19138318 80.24579032 -114.125 76.5625 C-107.94841239 72.07451931 -101.69654921 67.71858153 -95.375 63.4375 C-89.46617745 59.43422782 -83.67717577 55.32553507 -78 51 C-71.54757446 46.08378917 -64.92411039 41.47520703 -58.20922852 36.92578125 C-49.67429295 31.13061433 -41.33837493 25.0729015 -33 19 C-29.81465852 16.68451178 -26.6265598 14.3728632 -23.4375 12.0625 C-22.72392334 11.54300781 -22.01034668 11.02351562 -21.27514648 10.48828125 C-19.89365378 9.48719491 -18.50756116 8.49242237 -17.11669922 7.50439453 C-15.62878908 6.44689716 -14.15214836 5.37345141 -12.68408203 4.28857422 C-4.96187347 -1.22267808 -4.96187347 -1.22267808 0 0 Z M-18.5 69.125 C-20.81231342 73.84253228 -20.76456688 78.88744169 -20 84 C-17.33506889 89.42856338 -13.64360848 92.76631604 -8.1875 95.3125 C-2.71711183 96.49238765 1.32098541 95.90408478 6.25 93.25 C10.07019049 90.1243896 13.72236044 86.74453537 14.23828125 81.64453125 C14.39974174 75.48353868 14.30789148 70.68513622 10 66 C6.06478564 62.43654552 2.32381308 60.67804782 -3 60.375 C-9.59062825 60.75015884 -14.74238917 63.67252274 -18.5 69.125 Z M-71 173 C-71 211.28 -71 249.56 -71 289 C-58.13 289 -45.26 289 -32 289 C-32 250.72 -32 212.44 -32 173 C-44.87 173 -57.74 173 -71 173 Z M26 173 C26 211.28 26 249.56 26 289 C38.87 289 51.74 289 65 289 C65 250.72 65 212.44 65 173 C52.13 173 39.26 173 26 173 Z " fill="#FFFFFF" transform="translate(259,0)"/>
<path d="M0 0 C2.11233542 2.77244023 3 4.14880906 3 7.625 C1.6875 10.4375 1.6875 10.4375 0 12.625 C-0.66 12.625 -1.32 12.625 -2 12.625 C-2 13.285 -2 13.945 -2 14.625 C-2.83402344 14.93953125 -3.66804688 15.2540625 -4.52734375 15.578125 C-5.65269531 16.00609375 -6.77804687 16.4340625 -7.9375 16.875 C-9.03964844 17.29265625 -10.14179688 17.7103125 -11.27734375 18.140625 C-13.97185506 19.1866694 -16.5953536 20.34252277 -19.22265625 21.546875 C-25.47873254 24.3562399 -31.97895346 26.44052179 -38.47265625 28.625 C-43.71852516 30.41320565 -48.77738666 32.36163266 -53.81494141 34.66943359 C-57.6057875 36.32724048 -61.52020001 37.61402449 -65.4375 38.9375 C-73.70245245 41.77731656 -81.85758079 44.83502501 -89.984375 48.046875 C-91.32283709 48.57311912 -92.66137924 49.09915964 -94 49.625 C-94.72123047 49.91181641 -95.44246094 50.19863281 -96.18554688 50.49414062 C-99.25712761 51.68973313 -101.67366586 52.625 -105 52.625 C-105.08918701 53.2840332 -105.17837402 53.94306641 -105.27026367 54.62207031 C-106.23275136 58.5827925 -107.90844748 62.01181475 -109.67578125 65.671875 C-110.22542793 66.82783173 -110.22542793 66.82783173 -110.78617859 68.00714111 C-111.95637598 70.46563535 -113.13413392 72.92041211 -114.3125 75.375 C-115.47860746 77.81601615 -116.64311733 80.25778513 -117.8066864 82.70001221 C-118.52949128 84.21581213 -119.25399131 85.73080542 -119.98054504 87.24481201 C-122.41445234 92.33145303 -124.72736696 97.46452764 -127 102.625 C-134.3202765 118.9452765 -134.3202765 118.9452765 -137 121.625 C-138.77158476 122.28573764 -140.56818187 122.88027918 -142.375 123.4375 C-147.81282474 125.17603532 -152.99701442 127.2545257 -158.2109375 129.57421875 C-161.14201967 130.67850601 -163.90212837 131.20920897 -167 131.625 C-165.65193953 125.2916593 -164.06097786 119.0903377 -162.25 112.875 C-161.71739581 111.02866086 -161.18484534 109.18230623 -160.65234375 107.3359375 C-160.38019043 106.39588867 -160.10803711 105.45583984 -159.82763672 104.48730469 C-158.48023772 99.82745046 -157.145767 95.16391413 -155.8125 90.5 C-155.56193848 89.6241626 -155.31137695 88.7483252 -155.05322266 87.84594727 C-153.32244556 81.78474963 -151.62597564 75.71527717 -150 69.625 C-150.825 69.98851562 -151.65 70.35203125 -152.5 70.7265625 C-160.81393336 74.34535046 -169.20292959 77.66783364 -177.71875 80.78027344 C-180.17486092 81.68974944 -182.61844413 82.6289461 -185.0625 83.5703125 C-224.37148699 98.5455054 -224.37148699 98.5455054 -244 95.625 C-245.95703125 94.26953125 -245.95703125 94.26953125 -247 92.625 C-247.60270082 88.00429373 -246.76352321 85.3451274 -244 81.625 C-243.01 81.13 -243.01 81.13 -242 80.625 C-242.28875 80.0475 -242.5775 79.47 -242.875 78.875 C-244 76.625 -244 76.625 -244.875 74.5 C-245.86578113 72.46841131 -245.86578113 72.46841131 -248 71.625 C-250.52845528 70.36077236 -250.76422764 69.09654472 -252 66.625 C-252.928125 66.1609375 -252.928125 66.1609375 -253.875 65.6875 C-256.7429707 64.25351465 -258.02967795 62.13268261 -260 59.625 C-260.86625 58.965 -261.7325 58.305 -262.625 57.625 C-265.2662818 55.40076269 -265.85662405 53.81386504 -267 50.625 C-266.03578125 50.28726563 -265.0715625 49.94953125 -264.078125 49.6015625 C-262.80203525 49.15117788 -261.52599624 48.70064947 -260.25 48.25 C-259.61578125 48.02828125 -258.9815625 47.8065625 -258.328125 47.578125 C-255.72993768 46.65793366 -253.25593084 45.7716465 -250.859375 44.3984375 C-246.25751297 42.48421758 -240.21301225 45.8427967 -235.75 47.4375 C-234.99074219 47.70667236 -234.23148438 47.97584473 -233.44921875 48.25317383 C-228.86182536 49.89918644 -224.40604201 51.70702124 -219.9765625 53.7421875 C-217.79778648 54.71531671 -215.61226249 55.60694436 -213.375 56.4375 C-212.36566406 56.81841797 -212.36566406 56.81841797 -211.3359375 57.20703125 C-200.82869348 59.08708996 -188.53406123 51.90639093 -179.109375 47.89453125 C-173.48227072 45.59703264 -167.74011687 43.62045483 -162 41.625 C-167.73235405 37.93645995 -174.00171632 35.2631164 -180.1640625 32.38476562 C-185.24943183 29.99100963 -190.14796645 27.4601098 -195 24.625 C-196.66072849 23.94367549 -198.327767 23.27757873 -200 22.625 C-202.68512216 21.32769379 -205.34475593 19.98227116 -208 18.625 C-208 17.635 -208 16.645 -208 15.625 C-207.09378906 15.31046875 -206.18757813 14.9959375 -205.25390625 14.671875 C-197.09955864 11.82643626 -197.09955864 11.82643626 -189.1875 8.375 C-175.89348381 2.46654836 -161.60992936 8.85140187 -148.3918457 12.61865234 C-141.39366948 14.58171088 -134.33183603 16.24311362 -127.25 17.875 C-126.13052979 18.1332959 -125.01105957 18.3915918 -123.85766602 18.65771484 C-119.43426353 19.66613344 -119.43426353 19.66613344 -115 20.625 C-114.00299072 20.84663818 -113.00598145 21.06827637 -111.97875977 21.29663086 C-108.67661263 21.66064921 -106.80547196 21.23146375 -103.69921875 20.11328125 C-102.72146484 19.76716797 -101.74371094 19.42105469 -100.73632812 19.06445312 C-99.73021484 18.69255859 -98.72410156 18.32066406 -97.6875 17.9375 C-96.19573242 17.40866211 -96.19573242 17.40866211 -94.67382812 16.86914062 C-89.32759509 14.94898996 -84.12606018 12.83970497 -78.95849609 10.48388672 C-76.36143123 9.3449595 -73.69753061 8.4957444 -71 7.625 C-68.17581579 6.55046412 -65.37123334 5.42669329 -62.5625 4.3125 C-56.70285194 2.01792192 -50.83122434 -0.21760602 -44.875 -2.25 C-43.73804688 -2.63929688 -42.60109375 -3.02859375 -41.4296875 -3.4296875 C-28.91057213 -6.8802865 -10.65300658 -8.43363021 0 0 Z " fill="#FFFFFF" transform="translate(387,357.375)"/>
<path d="M0 0 C1.75763672 0.08701172 1.75763672 0.08701172 3.55078125 0.17578125 C4.73027344 0.22089844 5.90976562 0.26601563 7.125 0.3125 C8.02863281 0.37050781 8.93226563 0.42851562 9.86328125 0.48828125 C11.25667969 21.95693874 2.41824308 46.93666464 -11.13671875 63.48828125 C-12.1485977 65.14776273 -13.14937335 66.81408687 -14.13671875 68.48828125 C-15.1191672 69.8345995 -16.11348439 71.17269422 -17.13671875 72.48828125 C-21.22099572 71.88320318 -25.01260195 70.97131655 -28.94921875 69.73828125 C-37.1453269 67.32714167 -45.47999595 65.7445965 -53.8684082 64.15136719 C-54.9224585 63.94930664 -55.97650879 63.74724609 -57.0625 63.5390625 C-58.01552002 63.36028564 -58.96854004 63.18150879 -59.95043945 62.99731445 C-62.13671875 62.48828125 -62.13671875 62.48828125 -63.13671875 61.48828125 C-62.62218207 55.29269575 -61.25214723 49.43375818 -59.69921875 43.42578125 C-59.3734082 42.13704102 -59.3734082 42.13704102 -59.04101562 40.82226562 C-58.61480879 39.146876 -58.17847378 37.47402299 -57.73095703 35.80419922 C-57.35533064 34.34027485 -57.01995317 32.86490605 -56.74169922 31.37939453 C-56.3515625 29.4921875 -56.3515625 29.4921875 -55.13671875 26.48828125 C-52.734375 25.3203125 -52.734375 25.3203125 -49.13671875 24.48828125 C-47.33610826 23.84657247 -45.5438573 23.18119914 -43.7578125 22.5 C-42.75991699 22.12584961 -41.76202148 21.75169922 -40.73388672 21.36621094 C-36.48325145 19.76475076 -32.23415461 18.15922143 -27.98486328 16.55419922 C-25.62366015 15.67051905 -23.25770137 14.80687728 -20.8828125 13.9609375 C-15.04587628 11.84394904 -10.44963566 10.02819379 -6.13671875 5.48828125 C-5.73066406 4.61816406 -5.32460938 3.74804688 -4.90625 2.8515625 C-3.13671875 0.48828125 -3.13671875 0.48828125 0 0 Z " fill="#FFFFFF" transform="translate(403.13671875,369.51171875)"/>
<path d="M0 0 C2.01953125 1.64453125 2.01953125 1.64453125 3.8125 3.8125 C4.41707031 4.52019531 5.02164063 5.22789062 5.64453125 5.95703125 C7 8 7 8 7 11 C5.07388399 12.70523115 3.20475316 14.19550317 1.125 15.6875 C0.56941406 16.10322266 0.01382813 16.51894531 -0.55859375 16.94726562 C-4.71913485 20 -4.71913485 20 -7 20 C-7.33 20.99 -7.66 21.98 -8 23 C-9.6015625 24.47265625 -9.6015625 24.47265625 -11.625 26.0625 C-16.85225172 30.51604298 -22.67915948 36.0780838 -23.26171875 43.19921875 C-23.23045461 45.96300283 -23.23045461 45.96300283 -21.8125 47.75 C-3.94282135 60.07391631 30.19106295 52.05657189 50 49 C49.2575 48.154375 48.515 47.30875 47.75 46.4375 C45.01141108 43.1573822 43.04526424 39.74965111 41 36 C40.53207031 35.22011719 40.06414062 34.44023437 39.58203125 33.63671875 C37.94433481 30.90722469 36.36322684 28.15482145 34.8125 25.375 C34.28269531 24.43398438 33.75289063 23.49296875 33.20703125 22.5234375 C32 20 32 20 32 17 C35 17 35 17 36.75390625 18.71484375 C37.64916016 19.81505859 37.64916016 19.81505859 38.5625 20.9375 C40.91285524 23.92648955 40.91285524 23.92648955 44 26 C44 26.99 44 27.98 44 29 C44.56589844 29.23847656 45.13179688 29.47695313 45.71484375 29.72265625 C48.48709873 31.2722757 50.35266293 33.16035825 52.5625 35.4375 C53.32691406 36.21996094 54.09132813 37.00242187 54.87890625 37.80859375 C55.57886719 38.53175781 56.27882813 39.25492187 57 40 C57.99780462 41.00219057 58.99680002 42.00321025 60 43 C58.25 46.875 58.25 46.875 56 48 C56.33 48.33 56.66 48.66 57 49 C57.23481693 51.18292774 57.41363323 53.37203174 57.5625 55.5625 C57.64628906 56.76003906 57.73007813 57.95757812 57.81640625 59.19140625 C57.87699219 60.11824219 57.93757813 61.04507813 58 62 C45.76590662 68.11704669 26.47548273 66.66936813 13 67 C11.86046875 67.02964844 10.7209375 67.05929687 9.546875 67.08984375 C6.69196635 67.12419426 3.8537475 67.08518649 1 67 C-0.18722656 66.97164063 -1.37445313 66.94328125 -2.59765625 66.9140625 C-14.54191146 66.4037281 -26.87430006 64.39485384 -36 56 C-39.84775421 50.91672839 -39.66365739 46.13238046 -39.5546875 39.9453125 C-38.44085223 32.02296305 -33.95908435 25.25729136 -28 20 C-27.34 20 -26.68 20 -26 20 C-25.7525 19.38125 -25.505 18.7625 -25.25 18.125 C-23.77229238 15.61289704 -22.56044823 15.23892656 -20 14 C-19.67 13.01 -19.34 12.02 -19 11 C-15.55555556 8 -15.55555556 8 -13 8 C-13 7.34 -13 6.68 -13 6 C-11.42578125 4.4921875 -11.42578125 4.4921875 -9.3125 2.875 C-8.62800781 2.33617187 -7.94351563 1.79734375 -7.23828125 1.2421875 C-4.51220063 -0.27071588 -3.07207171 -0.52011341 0 0 Z " fill="#FFFFFF" transform="translate(71,393)"/>
<path d="M0 0 C13.64307417 -0.42098629 26.54337491 0.75053431 40 3 C37.87290731 15.0886258 30.52825673 26.15019149 23.4375 35.9375 C22.97851318 36.5763916 22.51952637 37.2152832 22.04663086 37.87353516 C19.35286933 41.51250156 16.66334613 44.27707662 13 47 C12.113125 47.9075 11.22625 48.815 10.3125 49.75 C8 52 8 52 6 52 C6 52.66 6 53.32 6 54 C-2.69601078 60.16969935 -12.15785875 65.24427701 -23 65 C-24.15903649 52.8945078 -21.94180168 45.23520622 -15.95703125 34.75097656 C-14.67638618 32.40791879 -13.69597062 29.99461606 -12.75 27.5 C-11.42098357 24.01924268 -9.92111631 20.73553887 -8.21484375 17.42578125 C-6.49054439 13.9827269 -4.87345578 10.49150842 -3.25 7 C-2.93184326 6.31591064 -2.61368652 5.63182129 -2.28588867 4.92700195 C-1.52306437 3.28506789 -0.76140925 1.64259073 0 0 Z " fill="#FFFFFF" transform="translate(283,436)"/>
<path d="M0 0 C20.79 0 41.58 0 63 0 C61.35 1.32 59.7 2.64 58 4 C58.96164063 4.34289062 59.92328125 4.68578125 60.9140625 5.0390625 C64 7 64 7 65.0234375 10.3984375 C65.13945312 11.71070313 65.25546875 13.02296875 65.375 14.375 C65.57222656 16.33566406 65.57222656 16.33566406 65.7734375 18.3359375 C65.95304779 21.24066951 66.0561363 24.09213959 66 27 C60.0411507 25.84667433 54.87193861 24.25614155 49.359375 21.70703125 C44.89839635 20.3702148 40.75165825 22.36190577 36.54296875 23.9609375 C35.51236328 24.35023438 34.48175781 24.73953125 33.41992188 25.140625 C32.35322266 25.54796875 31.28652344 25.9553125 30.1875 26.375 C29.13240234 26.77460938 28.07730469 27.17421875 26.99023438 27.5859375 C25.43852539 28.17375 25.43852539 28.17375 23.85546875 28.7734375 C22.34992432 29.34336426 22.34992432 29.34336426 20.81396484 29.92480469 C19.07027579 30.59105548 17.33019543 31.26694222 15.59619141 31.95800781 C12.12153032 33.32791126 9.79608126 34 6 34 C1.2796352 22.56571828 0 12.38278882 0 0 Z " fill="#FFFFFF" transform="translate(94,370)"/>
<path d="M0 0 C8.40506915 0.64654378 16.77525207 2.73506038 25 4.5 C26.00305176 4.71350098 27.00610352 4.92700195 28.03955078 5.14697266 C28.99587402 5.35628418 29.95219727 5.5655957 30.9375 5.78125 C31.79214844 5.96751953 32.64679688 6.15378906 33.52734375 6.34570312 C36.12363357 7.03271504 38.52860624 7.95441033 41 9 C33.66347409 27.34131477 2.48369111 40.78205056 -14.05078125 47.97265625 C-30.43217693 54.85594102 -30.43217693 54.85594102 -36 53 C-32.83267443 49.1087143 -29.55064519 45.55064519 -26 42 C-23.95374009 39.70458409 -21.97387106 37.35767933 -20 35 C-19.319375 34.21625 -18.63875 33.4325 -17.9375 32.625 C-15.2241041 28.9487862 -13.14799624 25.02679191 -11 21 C-10.32463049 19.75238119 -9.64881723 18.50500254 -8.97265625 17.2578125 C-8.25215632 15.92211648 -7.53210552 14.58617809 -6.8125 13.25 C-6.46735352 12.6120752 -6.12220703 11.97415039 -5.76660156 11.31689453 C-3.95959615 7.93915719 -2.39317778 4.56547869 -1 1 C-0.67 0.67 -0.34 0.34 0 0 Z " fill="#FFFFFF" transform="translate(336,441)"/>
<path d="M0 0 C1.6953125 1.79296875 1.6953125 1.79296875 3.125 4.1875 C3.63417969 5.01636719 4.14335937 5.84523438 4.66796875 6.69921875 C5.59361063 8.29805472 6.51659712 9.89842977 7.4375 11.5 C9.97947861 15.56716578 13.02424661 19.24439399 16 23 C17.051875 24.3921875 17.051875 24.3921875 18.125 25.8125 C19.98451613 28.12577471 19.98451613 28.12577471 22.625 30.0625 C25.00806278 32.00657753 25.76237123 33.26926863 27 36 C6.24335362 34.09572052 -17.316099 21.47446257 -33 8 C-33.66 7.01 -34.32 6.02 -35 5 C-34.30438965 4.91959473 -33.6087793 4.83918945 -32.89208984 4.75634766 C-29.71891976 4.38580089 -26.54699219 4.00549272 -23.375 3.625 C-22.28058594 3.49867188 -21.18617188 3.37234375 -20.05859375 3.2421875 C-13.68058306 2.4690953 -6.22292901 -1.03715484 0 0 Z " fill="#FFFFFF" transform="translate(180,459)"/>
<path d="M0 0 C-0.3301875 6.16350009 -1.6566771 11.64205415 -3.5 17.5 C-3.72582764 18.21865234 -3.95165527 18.93730469 -4.18432617 19.67773438 C-5.85799722 24.85799722 -5.85799722 24.85799722 -7 26 C-8.44529056 25.93357589 -9.88733389 25.79423025 -11.32421875 25.625 C-15.1578841 25.19926461 -18.98774928 24.81721242 -22.83203125 24.5 C-23.81494141 24.4175 -24.79785156 24.335 -25.81054688 24.25 C-27.83124633 24.08171794 -29.85208346 23.91508189 -31.87304688 23.75 C-32.84951172 23.6675 -33.82597656 23.585 -34.83203125 23.5 C-35.70577393 23.4278125 -36.5795166 23.355625 -37.47973633 23.28125 C-40.02873643 22.99679314 -42.49371065 22.53965185 -45 22 C-44.49111644 18.23426166 -43.89919525 16.45316522 -41 14 C-38.94921875 12.90234375 -38.94921875 12.90234375 -36.6875 11.9375 C-35.57955078 11.45603516 -35.57955078 11.45603516 -34.44921875 10.96484375 C-31.66351386 9.86744485 -28.84424327 8.93509368 -26 8 C-23.70614734 7.19369216 -21.41455656 6.38092723 -19.125 5.5625 C-17.29195313 4.90894531 -17.29195313 4.90894531 -15.421875 4.2421875 C-12.72132838 3.26185208 -10.04678717 2.24215283 -7.375 1.1875 C-4 0 -4 0 0 0 Z " fill="#FFFFFF" transform="translate(334,403)"/>
<path d="M0 0 C-2.15310846 9.459934 -4.42850941 18.83473518 -7.16796875 28.14453125 C-7.83150996 30.42175483 -8.44723592 32.69402461 -9 35 C-12.15140423 34.65930765 -13.60781561 34.41923159 -15.8125 32.0625 C-17 30 -17 30 -17 28 C-17.66 28 -18.32 28 -19 28 C-20.65625 25.734375 -20.65625 25.734375 -22.5 22.75 C-23.1084375 21.77546875 -23.716875 20.8009375 -24.34375 19.796875 C-24.8903125 18.87390625 -25.436875 17.9509375 -26 17 C-26.4228125 16.30390625 -26.845625 15.6078125 -27.28125 14.890625 C-28.22369387 12.41158786 -28.04566416 11.43188598 -27 9 C-24.73095703 7.71972656 -24.73095703 7.71972656 -21.7578125 6.640625 C-20.69175781 6.24746094 -19.62570313 5.85429687 -18.52734375 5.44921875 C-17.40457031 5.05347656 -16.28179687 4.65773438 -15.125 4.25 C-13.45244141 3.63318359 -13.45244141 3.63318359 -11.74609375 3.00390625 C-3.47287687 0 -3.47287687 0 0 0 Z " fill="#FFFFFF" transform="translate(220,445)"/>
<path d="M0 0 C6.7946398 1.90726731 12.63993124 4.79331632 18.76977539 8.21875 C23.17788451 10.66236302 23.17788451 10.66236302 28 12 C27.67 12.99 27.34 13.98 27 15 C24.3033528 16.27830016 21.73844456 17.32545562 18.9375 18.3125 C18.19822266 18.60189453 17.45894531 18.89128906 16.69726562 19.18945312 C11.05308457 21.20911196 7.66851159 20.92381948 2 19 C0.67611771 12.56971459 -0.24794402 6.5705166 0 0 Z " fill="#FFFFFF" transform="translate(171,384)"/>
<path d="M0 0 C0 3.3 0 6.6 0 10 C-5.23880078 9.44854729 -9.97350697 8.57077907 -15 7 C-15 6.34 -15 5.68 -15 5 C-13.06532058 4.16013916 -11.12714871 3.32831973 -9.1875 2.5 C-8.10855469 2.0359375 -7.02960938 1.571875 -5.91796875 1.09375 C-3 0 -3 0 0 0 Z " fill="#FFFFFF" transform="translate(247,491)"/>
</svg>
