<?xml version="1.0" encoding="UTF-8"?>
<svg version="1.1" xmlns="http://www.w3.org/2000/svg" width="90" height="90">
<path d="M0 0 C0.99 0.33 1.98 0.66 3 1 C3.144375 1.78375 3.28875 2.5675 3.4375 3.375 C3.87798925 5.96421018 3.87798925 5.96421018 5 8 C5.35031691 13.34233293 5.49335294 16.69153137 2 21 C-3.05524862 26 -3.05524862 26 -7 26 C-7 26.66 -7 27.32 -7 28 C-2.38 27.67 2.24 27.34 7 27 C6.67 26.67 6.34 26.34 6 26 C5.90139869 24.59651265 5.86921063 23.18819523 5.8671875 21.78125 C5.86589844 20.93175781 5.86460938 20.08226563 5.86328125 19.20703125 C5.86714844 18.31371094 5.87101562 17.42039062 5.875 16.5 C5.86919922 15.16001953 5.86919922 15.16001953 5.86328125 13.79296875 C5.86457031 12.94347656 5.86585937 12.09398437 5.8671875 11.21875 C5.86831543 10.43435547 5.86944336 9.64996094 5.87060547 8.84179688 C6 7 6 7 7 6 C8.78071246 5.91273777 10.5648314 5.89300959 12.34765625 5.90234375 C13.42724609 5.90556641 14.50683594 5.90878906 15.61914062 5.91210938 C17.32360352 5.92467773 17.32360352 5.92467773 19.0625 5.9375 C20.77276367 5.94426758 20.77276367 5.94426758 22.51757812 5.95117188 C25.34510351 5.96300253 28.1725264 5.9794859 31 6 C31.495 7.98 31.495 7.98 32 10 C36.46959398 10.65878369 40.26567602 11.13462606 44.75 10.3125 C48 10 48 10 50.875 11.8125 C54.26754391 15.30482461 54.11328827 17.35090225 54.0625 22.125 C54.05347656 23.22070312 54.04445313 24.31640625 54.03515625 25.4453125 C54.02355469 26.28835937 54.01195313 27.13140625 54 28 C55.98 28.495 55.98 28.495 58 29 C59.125 33.75 59.125 33.75 58 36 C56.68 36 55.36 36 54 36 C54 38.64 54 41.28 54 44 C50.535 44.495 50.535 44.495 47 45 C46 43 46 43 46 36 C28.18 36 10.36 36 -8 36 C-8 38.31 -8 40.62 -8 43 C-8.33 43.66 -8.66 44.32 -9 45 C-11.31 44.67 -13.62 44.34 -16 44 C-16 41.36 -16 38.72 -16 36 C-17.32 36 -18.64 36 -20 36 C-20.625 33.125 -20.625 33.125 -21 30 C-19 28 -19 28 -17.0546875 27.8046875 C-15.03645833 27.86979167 -13.01822917 27.93489583 -11 28 C-11 27.34 -11 26.68 -11 26 C-15.53832753 24.18397483 -15.53832753 24.18397483 -20 25 C-20.6875 23.25 -20.6875 23.25 -21 21 C-19.5625 18.875 -19.5625 18.875 -18 17 C-18 16.34 -18 15.68 -18 15 C-18.66 14.67 -19.32 14.34 -20 14 C-17.88211921 5.78675497 -17.88211921 5.78675497 -14.6875 2.9375 C-10.45291219 1.46031821 -7.22792282 1.59069239 -3 3 C-2.01 2.01 -1.02 1.02 0 0 Z M0 7 C1 9 1 9 1 9 Z M1 10 C2 14 2 14 2 14 Z M9 10 C9 14.62 9 19.24 9 24 C10.98 24 12.96 24 15 24 C14.98839844 23.37351562 14.97679687 22.74703125 14.96484375 22.1015625 C14.95582031 21.28429688 14.94679688 20.46703125 14.9375 19.625 C14.92589844 18.81289063 14.91429687 18.00078125 14.90234375 17.1640625 C15 15 15 15 16 13 C17.98 13 19.96 13 22 13 C22.87867729 16.73437848 23.08912219 20.16774573 23 24 C24.98 24 26.96 24 29 24 C29 19.38 29 14.76 29 10 C22.4 10 15.8 10 9 10 Z M-10 11 C-10 11.66 -10 12.32 -10 13 C-9.34 13 -8.68 13 -8 13 C-8 12.34 -8 11.68 -8 11 C-8.66 11 -9.32 11 -10 11 Z M-3 11 C-2 13 -2 13 -2 13 Z M45 14 C42.60926555 17.82517513 42.44033448 21.59665524 42 26 C39.69 26.33 37.38 26.66 35 27 C35.09765625 25.046875 35.1953125 23.09375 35.29296875 21.140625 C34.91971614 18.4133926 33.76829424 17.06068935 32 15 C31.97421875 15.77085938 31.9484375 16.54171875 31.921875 17.3359375 C31.86515625 18.33882812 31.8084375 19.34171875 31.75 20.375 C31.70359375 21.37273438 31.6571875 22.37046875 31.609375 23.3984375 C31.40828125 24.25695312 31.2071875 25.11546875 31 26 C29.02 26.99 29.02 26.99 27 28 C34.92 28 42.84 28 51 28 C52 18.5 52 18.5 48 14 C47.01 14 46.02 14 45 14 Z M0 15 C1 17 1 17 1 17 Z M-1 17 C0 19 0 19 0 19 Z M-11 22 C-7 23 -7 23 -7 23 Z M12 27 C16 28 16 28 16 28 Z M-17 32 C-17 32.33 -17 32.66 -17 33 C6.76 33 30.52 33 55 33 C55 32.67 55 32.34 55 32 C31.24 32 7.48 32 -17 32 Z " fill="#FFFFFF" transform="translate(26,41)"/>
<path d="M0 0 C0.8125 2.625 0.8125 2.625 1 6 C-0.64633943 8.0167658 -2.31267723 10.01739574 -4 12 C-3.98333671 14.50324332 -3.98333671 14.50324332 -3 17 C-1.86075949 23.72151899 -1.86075949 23.72151899 -3 26 C-4.32 26 -5.64 26 -7 26 C-8.484375 24.46875 -8.484375 24.46875 -9.75 22.5 C-10.17796875 21.8503125 -10.6059375 21.200625 -11.046875 20.53125 C-11.36140625 20.0259375 -11.6759375 19.520625 -12 19 C-13.35618499 20.12534105 -13.35618499 20.12534105 -13.0625 23.0625 C-13.041875 24.031875 -13.02125 25.00125 -13 26 C-14.98 26.99 -14.98 26.99 -17 28 C-25.37775061 21.15189487 -25.37775061 21.15189487 -28 17 C-27.75 14.6875 -27.75 14.6875 -27 13 C-24.36 13 -21.72 13 -19 13 C-22.17539556 9.57421051 -22.17539556 9.57421051 -26 7 C-26 5.68 -26 4.36 -26 3 C-21.46203439 1.94465916 -19.22962016 2.2191073 -15 4 C-11.60007527 3.70000664 -10.29572919 2.3955435 -8 0 C-4.71023192 -1.09658936 -3.28696233 -0.79953138 0 0 Z " fill="#FFFFFF" transform="translate(33,14)"/>
<path d="M0 0 C2.22013779 1.60768599 2.8812502 2.69464338 3.875 5.25 C4.07912672 9.74078782 2.24894061 13.29689917 -0.375 16.875 C-2.67973803 18.47058786 -4.18401433 18.93295272 -7 19 C-10.85028005 16.98318664 -12.4662301 14.54612772 -14.0625 10.625 C-15.13630447 6.942518 -15.11420857 6.26172798 -13.5 2.5625 C-8.92215988 -2.12978612 -6.01345254 -2.74527181 0 0 Z " fill="#FFFFFF" transform="translate(70,33)"/>
<path d="M0 0 C2.72237083 1.98659493 3.80097036 3.53559752 5.125 6.625 C4.93007466 11.88798428 2.25202518 15.9367955 -1 20 C-3.20703125 21.296875 -3.20703125 21.296875 -5 22 C-5.33 21.67 -5.66 21.34 -6 21 C-6.33 21.66 -6.66 22.32 -7 23 C-8.32 22.67 -9.64 22.34 -11 22 C-11 21.01 -11 20.02 -11 19 C-10.01 19 -9.02 19 -8 19 C-8.37253906 18.43152344 -8.74507813 17.86304687 -9.12890625 17.27734375 C-11.56072337 13.30824715 -13 10.86876136 -13 6.125 C-12.03459544 3.10811074 -11.56621095 1.77660758 -9 0 C-5.41563853 -1.19478716 -3.63093708 -0.96330984 0 0 Z M-6 5 C-6.33 6.65 -6.66 8.3 -7 10 C-4.525 10.495 -4.525 10.495 -2 11 C-1.67 10.01 -1.34 9.02 -1 8 C-1.66 7.01 -2.32 6.02 -3 5 C-3.99 5 -4.98 5 -6 5 Z " fill="#FFFFFF" transform="translate(80,6)"/>
<path d="M0 0 C0.556875 0.350625 1.11375 0.70125 1.6875 1.0625 C4.53886783 2.21845993 6.08517222 1.80967438 9 1 C9 1.99 9 2.98 9 4 C8.01 4 7.02 4 6 4 C6.33 5.32 6.66 6.64 7 8 C5.68 7.67 4.36 7.34 3 7 C3 6.34 3 5.68 3 5 C2.01 5 1.02 5 0 5 C-0.33 5.99 -0.66 6.98 -1 8 C-2.32 7.67 -3.64 7.34 -5 7 C-4.0409375 6.1028125 -4.0409375 6.1028125 -3.0625 5.1875 C-0.79689611 3.09189663 -0.79689611 3.09189663 0 0 Z " fill="#FFFFFF" transform="translate(44,17)"/>
<path d="M0 0 C1.11375 0.2475 1.11375 0.2475 2.25 0.5 C5.19006578 1.11925696 5.19006578 1.11925696 9 1 C8.67 1.99 8.34 2.98 8 4 C1.25 4.125 1.25 4.125 -1 3 C-0.67 2.01 -0.34 1.02 0 0 Z " fill="#FFFFFF" transform="translate(41,34)"/>
<path d="M0 0 C1.98 0.495 1.98 0.495 4 1 C3.34 2.32 2.68 3.64 2 5 C1.01 4.34 0.02 3.68 -1 3 C-0.67 2.01 -0.34 1.02 0 0 Z " fill="#FFFFFF" transform="translate(55,18)"/>
<path d="M0 0 C1.98 0.495 1.98 0.495 4 1 C4 1.99 4 2.98 4 4 C2.68 3.67 1.36 3.34 0 3 C0 2.01 0 1.02 0 0 Z " fill="#FFFFFF" transform="translate(37,30)"/>
<path d="M0 0 C1.98 0.495 1.98 0.495 4 1 C4 1.99 4 2.98 4 4 C2.68 3.67 1.36 3.34 0 3 C0 2.01 0 1.02 0 0 Z " fill="#FFFFFF" transform="translate(49,26)"/>
<path d="M0 0 C0.99 0 1.98 0 3 0 C3 1.32 3 2.64 3 4 C1.68 3.67 0.36 3.34 -1 3 C-0.67 2.01 -0.34 1.02 0 0 Z " fill="#FFFFFF" transform="translate(35,13)"/>
<path d="M0 0 C1.32 0 2.64 0 4 0 C4 1.32 4 2.64 4 4 C3.01 4 2.02 4 1 4 C0.67 2.68 0.34 1.36 0 0 Z " fill="#FFFFFF" transform="translate(49,31)"/>
<path d="M0 0 C0.99 0.33 1.98 0.66 3 1 C2.67 1.99 2.34 2.98 2 4 C1.01 4 0.02 4 -1 4 C-0.67 2.68 -0.34 1.36 0 0 Z " fill="#FFFFFF" transform="translate(38,25)"/>
<path d="M0 0 C0.99 0.33 1.98 0.66 3 1 C3 1.99 3 2.98 3 4 C1.68 3.67 0.36 3.34 -1 3 C-0.67 2.01 -0.34 1.02 0 0 Z " fill="#FFFFFF" transform="translate(60,20)"/>
<path d="M0 0 C0.99 0.33 1.98 0.66 3 1 C3 1.99 3 2.98 3 4 C1.68 3.67 0.36 3.34 -1 3 C-0.67 2.01 -0.34 1.02 0 0 Z " fill="#FFFFFF" transform="translate(40,14)"/>
<path d="M0 0 C1.32 0.33 2.64 0.66 4 1 C3.67 1.99 3.34 2.98 3 4 C2.01 3.67 1.02 3.34 0 3 C0 2.01 0 1.02 0 0 Z " fill="#FFFFFF" transform="translate(64,23)"/>
<path d="" fill="#FFFFFF" transform="translate(0,0)"/>
</svg>
