<?xml version="1.0" encoding="UTF-8"?>
<svg version="1.1" xmlns="http://www.w3.org/2000/svg" width="30" height="30">
<path d="M0 0 C1.32 0.33 2.64 0.66 4 1 C4.8125 2.6875 4.8125 2.6875 5 5 C3.33333333 6.66666667 1.66666667 8.33333333 0 10 C0.14681461 12.17323569 0.14681461 12.17323569 1 14 C0.67 14.66 0.34 15.32 0 16 C0.99 16.33 1.98 16.66 3 17 C3 18.65 3 20.3 3 22 C3.66 22 4.32 22 5 22 C5 22.99 5 23.98 5 25 C4.34 25 3.68 25 3 25 C3 25.99 3 26.98 3 28 C1.68 27.67 0.36 27.34 -1 27 C-1 26.34 -1 25.68 -1 25 C-6.28 25 -11.56 25 -17 25 C-17.33 25.99 -17.66 26.98 -18 28 C-18.99 28 -19.98 28 -21 28 C-21 27.01 -21 26.02 -21 25 C-21.66 25 -22.32 25 -23 25 C-22.9278125 24.24074219 -22.855625 23.48148438 -22.78125 22.69921875 C-22.6884375 21.70535156 -22.595625 20.71148438 -22.5 19.6875 C-22.4071875 18.70136719 -22.314375 17.71523438 -22.21875 16.69921875 C-21.94967596 13.37903726 -21.93690506 11.18928481 -23 8 C-22.5625 5.8125 -22.5625 5.8125 -22 4 C-20.7934375 4.0309375 -20.7934375 4.0309375 -19.5625 4.0625 C-17.06645115 4.29633621 -17.06645115 4.29633621 -16 3 C-11.1784417 2.71637892 -7.49507119 3.24582588 -3 5 C-2.01 3.35 -1.02 1.7 0 0 Z M-12 5 C-14.41121859 6.95633975 -14.41121859 6.95633975 -14.125 10.625 C-14.08375 11.73875 -14.0425 12.8525 -14 14 C-11.36 14 -8.72 14 -6 14 C-6.33 13.01 -6.66 12.02 -7 11 C-8.32 11 -9.64 11 -11 11 C-11 9.02 -11 7.04 -11 5 C-11.33 5 -11.66 5 -12 5 Z M-6 7 C-5.67 8.32 -5.34 9.64 -5 11 C-3.68 10.01 -2.36 9.02 -1 8 C-2.65 7.67 -4.3 7.34 -6 7 Z M-10 8 C-10 8.66 -10 9.32 -10 10 C-9.34 10 -8.68 10 -8 10 C-8 9.34 -8 8.68 -8 8 C-8.66 8 -9.32 8 -10 8 Z M-17 11 C-16 13 -16 13 -16 13 Z M-12 16 C-11.67 17.32 -11.34 18.64 -11 20 C-10.67 18.68 -10.34 17.36 -10 16 C-10.66 16 -11.32 16 -12 16 Z M-8 16 C-7.34 17.32 -6.68 18.64 -6 20 C-6 18.68 -6 17.36 -6 16 C-6.66 16 -7.32 16 -8 16 Z M0 18 C0 19.32 0 20.64 0 22 C0.33 20.68 0.66 19.36 1 18 C0.67 18 0.34 18 0 18 Z " fill="#FFFFFF" transform="translate(24,1)"/>
</svg>
