<?xml version="1.0" encoding="UTF-8"?>
<svg version="1.1" xmlns="http://www.w3.org/2000/svg" width="512" height="512">
<path d="M0 0 C31.25799352 7.68518044 57.52929225 22.93795783 80 46 C80.54527344 46.50015625 81.09054687 47.0003125 81.65234375 47.515625 C107.48182176 71.81329347 124.85127942 111.67069284 126.06835938 146.98339844 C126.14894986 150.99181578 126.11114189 154.99271737 126 159 C125.39454346 158.93941406 124.78908691 158.87882813 124.1652832 158.81640625 C111.39573387 157.57629687 98.70863888 156.8057751 85.875 156.8125 C84.13730347 156.8115332 84.13730347 156.8115332 82.36450195 156.81054688 C76.44731238 156.84755822 70.58172445 157.06774518 64.6796875 157.49609375 C56.53148489 158.07825848 48.41588725 158.24323152 40.25 158.25 C39.50809418 158.25067474 38.76618835 158.25134949 38.00180054 158.25204468 C17.38323758 158.22239283 0.35215566 154.64196983 -18.75 146.875 C-32.2055145 141.42761178 -45.44347253 137.84067319 -59.4765625 143.74609375 C-71.94929686 149.94384566 -79.81418278 159.08407399 -85 172 C-88.49130417 182.76030854 -89.2153752 193.38983787 -88.80859375 204.625 C-88.75031597 206.65233415 -88.69238452 208.67967827 -88.63476562 210.70703125 C-88.53846421 213.84182528 -88.43830594 216.97639241 -88.33129883 220.11083984 C-87.98700969 230.45586969 -87.69306148 240.71677659 -88.7734375 251.02734375 C-88.8436058 251.73008423 -88.91377411 252.43282471 -88.98606873 253.15686035 C-91.08976802 270.09338106 -104.66695285 284.60648921 -117.4140625 294.9609375 C-118.74317884 295.95173332 -120.08369986 296.92766498 -121.44140625 297.87890625 C-123.15642435 299.04900308 -123.15642435 299.04900308 -125 301 C-134.76311767 300.25904911 -145.73403268 288.00233626 -152.51171875 281.43701172 C-154.00425479 279.99589178 -155.51658762 278.57796201 -157.03125 277.16015625 C-183.54662096 251.9496588 -202.95976211 212.35805087 -204.07568359 175.50024414 C-204.09774796 172.83266199 -204.08770203 170.16753748 -204.0625 167.5 C-204.05798828 166.5821875 -204.05347656 165.664375 -204.04882812 164.71875 C-204.03716326 162.47909609 -204.02079614 160.23958455 -204 158 C-191.19876565 154.14508284 -179.14193766 153.16296044 -165.98828125 155.5078125 C-147.54815496 158.54500977 -126.69763714 153.14018695 -111.42578125 142.796875 C-102.56211436 136.23119582 -97.73999055 127.56693176 -92.3359375 118.078125 C-86.5861882 108.11189287 -79.07310358 104.40365272 -68.58203125 100.21875 C-54.00125996 94.3814233 -42.31275513 87.09746048 -31 76 C-30.33742188 75.36191406 -29.67484375 74.72382813 -28.9921875 74.06640625 C-11.94340071 56.36189689 -2.26622666 30.96922925 -1.17578125 6.63671875 C-1.01914854 4.28722817 -0.65822525 2.25294984 0 0 Z " fill="#2E3167" transform="translate(295,95)"/>
<path d="M0 0 C3.23208625 1.23376429 6.43123182 2.53035327 9.62792969 3.85302734 C30.09508935 12.00477422 49.60860067 15.40298176 71.60791016 15.24633789 C74.2357774 15.22814608 76.86328728 15.22582885 79.49121094 15.22607422 C88.8093127 15.20614513 98.07715941 14.92684523 107.37936401 14.39102173 C118.86562605 13.74259761 130.15897522 14.11876986 141.62792969 14.97802734 C142.87960937 15.06503906 144.13128906 15.15205078 145.42089844 15.24169922 C154.61482798 15.91116011 154.61482798 15.91116011 158.00292969 17.04052734 C155.27911735 35.61433338 148.990653 52.60323286 140.00292969 69.04052734 C139.42671875 70.10787109 138.85050781 71.17521484 138.25683594 72.27490234 C131.89514606 83.6172224 123.93905786 93.62817917 115.00292969 103.04052734 C114.29958496 103.79269531 114.29958496 103.79269531 113.58203125 104.56005859 C85.1359484 134.82890015 44.65617493 152.81160486 3.20214844 154.42333984 C-18.90441221 154.99822909 -40.11501087 152.53350162 -60.99707031 145.04052734 C-60.99707031 144.05052734 -60.99707031 143.06052734 -60.99707031 142.04052734 C-59.19628906 140.27099609 -59.19628906 140.27099609 -56.68457031 138.22802734 C-46.08757204 128.96502178 -38.39721522 117.4919941 -31.99707031 105.04052734 C-31.57683594 104.26064453 -31.15660156 103.48076172 -30.72363281 102.67724609 C-21.90664922 84.0157357 -24.76245502 59.84090722 -25.1340332 39.92431641 C-25.20061763 36.04380489 -25.24237973 32.16357924 -25.28222656 28.28271484 C-25.31228287 27.11481415 -25.34233917 25.94691345 -25.37330627 24.74362183 C-25.44325025 16.95003625 -24.82577582 8.45059853 -19.47816467 2.29098511 C-13.18717466 -3.09661308 -7.63245968 -2.44343162 0 0 Z " fill="#2E3167" transform="translate(260.9970703125,266.95947265625)"/>
<path d="M0 0 C3.4936028 1.16453427 3.69245383 1.70619893 5.41796875 4.7890625 C5.86406494 5.5632251 6.31016113 6.3373877 6.76977539 7.13500977 C7.23762451 7.95670654 7.70547363 8.77840332 8.1875 9.625 C12.3757793 16.7528141 16.37835558 23.18917779 24 27 C23.8131665 27.66644531 23.62633301 28.33289063 23.43383789 29.01953125 C21.5982035 35.64611925 19.92958211 42.28798396 18.4375 49 C18.22931641 49.88816406 18.02113281 50.77632812 17.80664062 51.69140625 C14.18274524 68.02733592 13.61841007 84.57863618 13.6875 101.25 C13.68965515 102.19188171 13.6918103 103.13376343 13.69403076 104.10418701 C13.74587399 118.25259348 14.14199964 132.09717828 17 146 C17.20399414 147.00579102 17.40798828 148.01158203 17.61816406 149.04785156 C24.77815308 183.30532447 39.13418853 215.55692918 61 243 C62.175625 244.48306641 62.175625 244.48306641 63.375 245.99609375 C75.19558838 260.57757802 88.69547621 274.10150993 104 285 C104.64275879 285.46535156 105.28551758 285.93070312 105.94775391 286.41015625 C133.00175674 305.83155096 163.38275376 318.60655088 196 325 C196.89879883 325.17789062 197.79759766 325.35578125 198.72363281 325.5390625 C251.97018936 335.51166172 310.05239303 324.46747004 355.125 294.4375 C356.39730469 293.53837891 356.39730469 293.53837891 357.6953125 292.62109375 C360.06557062 290.9538783 362.49991939 289.46357032 365 288 C365.30703857 288.53367187 365.61407715 289.06734375 365.93041992 289.6171875 C367.34793226 292.07900047 368.76770276 294.53950414 370.1875 297 C370.67025391 297.83917969 371.15300781 298.67835938 371.65039062 299.54296875 C372.13056641 300.37441406 372.61074219 301.20585937 373.10546875 302.0625 C373.58290527 302.89007813 374.0603418 303.71765625 374.55224609 304.5703125 C376.33123047 307.55588628 378.24361433 310.44223495 380.20825195 313.30859375 C381 315 381 315 380 318 C378.47558594 319.26757812 378.47558594 319.26757812 376.484375 320.53125 C375.73921631 321.00643066 374.99405762 321.48161133 374.22631836 321.97119141 C373.00054077 322.72795166 373.00054077 322.72795166 371.75 323.5 C370.89736572 324.02899902 370.04473145 324.55799805 369.16625977 325.10302734 C333.36706378 347.01530758 292.82873848 361.00443468 250.55078125 361.203125 C249.57626511 361.20882507 248.60174896 361.21452515 247.59770203 361.22039795 C245.5413011 361.22978908 243.48488552 361.2363583 241.4284668 361.24023438 C238.36543491 361.2498341 235.3031064 361.2808705 232.24023438 361.3125 C213.89854801 361.41174456 195.86206654 359.60672831 178 355.3125 C176.92878906 355.05903809 175.85757813 354.80557617 174.75390625 354.54443359 C146.10043455 347.51184565 116.98082162 335.3643514 93 318 C92.39091797 317.55930176 91.78183594 317.11860352 91.15429688 316.66455078 C86.37478192 313.18821884 81.66567716 309.62752803 77 306 C76.45794922 305.57944336 75.91589844 305.15888672 75.35742188 304.72558594 C59.70691091 292.42304507 44.88085985 277.7975444 33.20947266 261.65380859 C31.94613954 259.92635229 30.64044528 258.23821483 29.32421875 256.55078125 C6.58099186 227.04104111 -7.81041698 191.06555424 -15.25 154.75 C-15.40106201 154.01982666 -15.55212402 153.28965332 -15.70776367 152.53735352 C-18.73693531 136.85844312 -19.34621336 121.38388811 -19.31567383 105.44677734 C-19.31253057 102.03319815 -19.33600126 98.62050307 -19.36132812 95.20703125 C-19.41818485 75.75099217 -18.14272046 56.16949254 -13.3125 37.25 C-13.06338867 36.23977783 -12.81427734 35.22955566 -12.55761719 34.1887207 C-9.54409967 22.4815896 -5.51437061 10.78261788 0 0 Z " fill="#2E3167" transform="translate(19,151)"/>
<path d="M0 0 C0.99705963 0.00215515 1.99411926 0.0043103 3.02139282 0.00653076 C17.52269977 0.0568608 31.68420137 0.41245546 45.9375 3.3125 C46.93555664 3.50585938 47.93361328 3.69921875 48.96191406 3.8984375 C87.57864041 11.5299223 123.70412976 27.2516138 154.9375 51.3125 C155.74960937 51.93253906 156.56171875 52.55257812 157.3984375 53.19140625 C174.46358372 66.51514029 190.82394896 82.13175144 203.66357422 99.59423828 C204.96000666 101.34285682 206.29038718 103.06078803 207.62890625 104.77734375 C215.49317241 114.9920598 221.8786092 125.94975258 227.9375 137.3125 C228.60096436 138.55314209 228.60096436 138.55314209 229.27783203 139.81884766 C247.97313755 175.37464091 256.56449535 215.53678761 256.32861328 255.51879883 C256.31252301 258.74538521 256.32858305 261.97071648 256.34765625 265.19726562 C256.37350917 290.09610419 254.33923004 318.23791982 243.9375 341.3125 C243.2775 341.6425 242.6175 341.9725 241.9375 342.3125 C240.21551133 341.507493 238.53460348 340.6143212 236.875 339.6875 C229.23564139 335.70498419 221.2304621 333.53312729 212.9375 331.3125 C213.59959588 327.57533661 214.58710276 323.97710805 215.65136719 320.33618164 C225.23408875 287.38053692 226.76176676 248.97641014 219.9375 215.3125 C219.74414062 214.3318457 219.55078125 213.35119141 219.3515625 212.34082031 C212.37016497 177.98329449 197.80807779 145.76155287 175.9375 118.3125 C174.761875 116.82943359 174.761875 116.82943359 173.5625 115.31640625 C161.74487647 100.73857933 148.24677417 87.19882345 132.9375 76.3125 C132.28410645 75.84183105 131.63071289 75.37116211 130.95751953 74.88623047 C82.91329281 40.58827298 22.67516244 25.9456924 -35.7265625 35.47412109 C-46.37480726 37.38879482 -56.74177566 40.08950221 -67.0625 43.3125 C-67.86075195 43.55274902 -68.65900391 43.79299805 -69.48144531 44.04052734 C-85.78784327 49.0023217 -100.8681338 56.70673528 -116.0625 64.3125 C-117.18092285 64.87163086 -118.2993457 65.43076172 -119.45166016 66.00683594 C-120.3132373 66.43770508 -121.17481445 66.86857422 -122.0625 67.3125 C-122.02769531 65.46398437 -122.02769531 65.46398437 -121.9921875 63.578125 C-121.88289232 55.13677994 -121.88146619 47.06381383 -123.625 38.7578125 C-124.07797042 36.22603142 -124.13608667 33.87883526 -124.0625 31.3125 C-97.16831235 16.96358915 -68.22995177 6.8761934 -38.0625 2.3125 C-36.93787354 2.13517334 -35.81324707 1.95784668 -34.65454102 1.77514648 C-23.10079192 0.12377099 -11.65770588 -0.04528581 0 0 Z " fill="#2E3167" transform="translate(256.0625,-0.31250000000000006)"/>
<path d="M0 0 C0.96148609 23.3160378 -5.53345294 42.2729576 -21 60 C-29.82260082 69.16888037 -40.21376486 74.31478931 -51.9375 78.875 C-60.51996472 82.34246463 -68.16377401 85.60904543 -75 92 C-75.94746094 92.88171875 -75.94746094 92.88171875 -76.9140625 93.78125 C-81.20780229 98.24522617 -84.09792255 103.47253144 -87.09057617 108.84594727 C-92.60707629 118.7408768 -97.73911475 125.07064681 -108.6875 128.8125 C-119.56679312 131.52084723 -132.00981564 130.67040197 -143 129 C-152.02564598 128.60505539 -161.00892437 129.24512708 -170 130 C-163.34248778 100.72701915 -150.42436725 75.2173994 -130.0078125 53.21875 C-127.97160729 51.03693228 -127.97160729 51.03693228 -126.2421875 48.65625 C-103.26760457 21.43897405 -63.62396879 4.52338723 -28.96875 0.234375 C-19.32799278 -0.33496106 -9.6523704 -0.14779837 0 0 Z " fill="#2E3167" transform="translate(264,91)"/>
<path d="M0 0 C9.8684052 9.20107452 15.60957685 21.34564175 16.75 34.75 C16.97669767 56.81524027 3.78995341 75.05292665 -6.7578125 93.5859375 C-9.2159686 97.91044546 -11.64415245 102.25033206 -14.0546875 106.6015625 C-14.68221924 107.73207031 -15.30975098 108.86257812 -15.95629883 110.02734375 C-17.16810387 112.21283247 -18.37643525 114.40025189 -19.58081055 116.58984375 C-20.13293213 117.58371094 -20.68505371 118.57757813 -21.25390625 119.6015625 C-21.73674072 120.47635254 -22.2195752 121.35114258 -22.71704102 122.25244141 C-27.12317106 129.43108615 -27.12317106 129.43108615 -31.5625 130.6875 C-35.84208292 129.59947045 -36.15800213 128.97539783 -38.51171875 125.44921875 C-39.42473755 124.08567261 -39.42473755 124.08567261 -40.35620117 122.69458008 C-43.55940913 117.71406039 -46.67426068 112.68509965 -49.75 107.625 C-51.15416252 105.32763914 -52.55896729 103.03068592 -53.96484375 100.734375 C-54.31921005 100.15499176 -54.67357635 99.57560852 -55.03868103 98.97866821 C-59.33902748 91.95606616 -63.72125738 84.98459276 -68.11328125 78.01904297 C-79.03193434 60.63588328 -86.05540311 46.6578232 -82.78125 25.7578125 C-79.43788008 13.29977935 -72.03921895 2.71139171 -61.25 -4.25 C-40.95652156 -15.63567647 -18.47024424 -15.00265049 0 0 Z M-47.25 31.75 C-48.8646745 34.97934899 -48.69315974 38.24903802 -48.25 41.75 C-46.8472625 45.94976227 -44.66218459 48.79665516 -40.9375 51.1875 C-37.28720897 52.99704598 -34.32663884 53.26884494 -30.25 52.75 C-25.57510344 51.00837187 -22.92828338 48.95873103 -20.25 44.75 C-18.05693655 39.36702608 -18.05693655 36.13297392 -20.25 30.75 C-23.09800923 26.10879978 -26.12317209 24.45894264 -31.25 22.75 C-38.70484383 21.65904724 -43.14215726 26.23375403 -47.25 31.75 Z " fill="#2E3167" transform="translate(88.25,16.25)"/>
<path d="M0 0 C3.29130614 2.0743112 6.14063297 4.36984075 9 7 C9.61230469 7.49886719 10.22460938 7.99773437 10.85546875 8.51171875 C19.42671855 16.023388 24.47782105 28.39939523 25.24609375 39.58203125 C25.79412372 54.57828736 20.96560262 65.96728229 13.5625 78.875 C12.84778528 80.14212575 12.13417951 81.40987758 11.42163086 82.67822266 C9.98198386 85.23606864 8.53533359 87.78973235 7.08203125 90.33984375 C5.1636239 93.70722329 3.26640931 97.08611821 1.375 100.46875 C-3.38646631 108.97087608 -8.19776253 117.44188962 -13.1875 125.8125 C-13.55029053 126.42335449 -13.91308105 127.03420898 -14.28686523 127.66357422 C-15.71504525 130.03197564 -17.03550635 132.03550635 -19 134 C-22.1875 134.75 -22.1875 134.75 -26 134 C-28.97866403 131.13814632 -30.91389775 127.53198047 -33 124 C-33.894981 122.51641258 -34.79088439 121.03338136 -35.6875 119.55078125 C-37.745378 116.13611688 -39.78725089 112.71232555 -41.82421875 109.28515625 C-44.79967426 104.30238395 -47.88194084 99.3943956 -51 94.5 C-52.490329 92.14549144 -53.97831288 89.78952546 -55.46484375 87.43261719 C-56.51716369 85.76510511 -57.57197965 84.09916634 -58.62890625 82.43457031 C-68.93733402 66.12507791 -75.87910714 51.74311538 -72.4921875 32.046875 C-71.82042732 29.59147572 -71.00725361 27.33682837 -70 25 C-69.63648438 24.14921875 -69.27296875 23.2984375 -68.8984375 22.421875 C-63.10379767 9.93536079 -53.61809246 2.25278057 -41 -3 C-27.84068951 -7.56253466 -12.30501777 -6.39409955 0 0 Z M-35.8125 34.6875 C-38.38685095 38.58580287 -39.43629502 41.3403692 -39 46 C-37.69926626 50.41607135 -35.69867692 53.33459341 -32.375 56.5 C-27.7933928 58.53626987 -23.93688188 58.79471757 -19 58 C-14.5500055 55.81545725 -12.00669315 53.54146346 -10 49 C-8.53624616 43.35409232 -9.09781349 40.05542166 -12 35 C-15.91180964 30.71563706 -19.16570831 29.18461682 -24.828125 28.87109375 C-29.7220768 29.16156211 -32.37232116 31.400218 -35.8125 34.6875 Z " fill="#2E3167" transform="translate(482,366)"/>
</svg>
