<?xml version="1.0" encoding="UTF-8"?>
<svg version="1.1" xmlns="http://www.w3.org/2000/svg" width="512" height="512">
<path d="M0 0 C1.1920669 -0.00538554 2.3841338 -0.01077108 3.61232394 -0.01631981 C6.88562181 -0.02806271 10.15858813 -0.02657028 13.43188822 -0.019153 C16.97598798 -0.0143916 20.520035 -0.02695731 24.06411743 -0.03717041 C30.99379942 -0.0543065 37.92339052 -0.05520917 44.85308818 -0.04995751 C50.49007763 -0.0459045 56.12704036 -0.04737274 61.76402855 -0.05270576 C62.97070169 -0.0538284 62.97070169 -0.0538284 64.20175206 -0.05497371 C65.83637169 -0.0565053 67.47099131 -0.05804365 69.10561093 -0.05958868 C84.41153999 -0.07329519 99.71741785 -0.06788928 115.02334573 -0.05640347 C128.99959704 -0.04647523 142.97571589 -0.05940794 156.95194677 -0.08333766 C171.33182066 -0.10777136 185.71163295 -0.11732592 200.09152716 -0.11068493 C208.15307606 -0.1072019 216.21452318 -0.10936385 224.27605629 -0.12693596 C231.13931315 -0.14171159 238.00239656 -0.14222393 244.86565021 -0.12486505 C248.36128545 -0.11639606 251.85661156 -0.1141036 255.35223007 -0.1295166 C279.33996482 -0.21323995 298.981077 1.93599489 316.84977722 19.5712738 C332.29389342 35.54718166 337.72867084 53.77139864 337.71769714 75.55052185 C337.72273506 77.01105736 337.72273506 77.01105736 337.72787476 78.50109863 C337.73731549 81.69637861 337.7393245 84.89160578 337.74040222 88.0868988 C337.74361996 90.32736227 337.74698441 92.56782553 337.75048828 94.80828857 C337.75646265 99.49776191 337.75832996 104.18721686 337.75773621 108.87669373 C337.75763477 114.85341316 337.77127556 120.8300133 337.78850842 126.80670452 C337.79968792 131.43356862 337.80165358 136.06040444 337.80112648 140.68728065 C337.80229808 142.88904544 337.80667319 145.09081116 337.81445885 147.29256248 C337.891067 171.19723784 335.8893622 194.00503671 318.62321472 212.45799255 C300.34816891 229.65394042 279.92384555 233.99222815 255.57243347 233.57518005 C254.00734248 233.56007488 252.44223705 233.54639699 250.87712097 233.53416443 C247.10852294 233.50169144 243.34064697 233.45024831 239.57243347 233.38768005 C239.55055969 231.87585144 239.55055969 231.87585144 239.52824402 230.33348083 C239.46972842 226.54977618 239.3925054 222.76663399 239.3099823 218.98338318 C239.27698099 217.35424513 239.24887412 215.72499955 239.22599792 214.09568787 C239.02333092 200.03835966 237.95228198 188.41058648 227.94352722 177.6337738 C221.0794671 171.27934227 212.80047061 168.27734936 203.54678345 168.24050903 C202.31188675 168.23335373 201.07699005 168.22619843 199.80467224 168.21882629 C198.43876673 168.21598619 197.07286095 168.21327444 195.70695496 168.2106781 C194.26610145 168.20441032 192.82524956 168.19776324 191.38439941 168.19076538 C186.65412007 168.1697535 181.92384052 168.15936315 177.19352722 168.1493988 C175.56178839 168.14534966 173.93004973 168.14123269 172.29831123 168.13704872 C164.6283151 168.11800045 156.95832856 168.10377073 149.28831333 168.09543675 C140.45274098 168.08567648 131.61741996 168.05938721 122.78193611 168.01893586 C115.94182297 167.98870171 109.10178156 167.97396083 102.26160294 167.97065574 C98.18168829 167.96831286 94.10204222 167.95945286 90.02219963 167.93419456 C86.17828916 167.91078166 82.33482158 167.90673307 78.49085808 167.91695595 C77.08769755 167.91744829 75.68451424 167.91121782 74.28142166 167.8973999 C62.13992954 167.78461558 51.60784209 169.78819027 42.57243347 178.38768005 C34.7905586 186.91237026 32.60799059 195.95397877 32.25602722 207.31736755 C32.21413269 208.60643005 32.17223816 209.89549255 32.1290741 211.22361755 C32.08927319 212.56996914 32.04956074 213.91632335 32.00993347 215.26268005 C31.96668164 216.63248339 31.92306535 218.00227527 31.8790741 219.37205505 C31.77327825 222.71050162 31.67118976 226.04901905 31.57243347 229.38768005 C27.02329528 229.43803666 22.47432781 229.4738389 17.92497253 229.49754333 C16.38523017 229.50745035 14.8455058 229.52097974 13.30583191 229.53855896 C-2.25139784 229.71141707 -17.10412526 229.16768461 -31.42756653 222.38768005 C-32.42272278 221.91717224 -33.41787903 221.44666443 -34.44319153 220.9618988 C-50.56133834 212.45978733 -62.09829568 197.63322251 -67.61439514 180.34300232 C-71.14595941 167.5081797 -70.72272059 154.2634479 -70.69319153 141.07518005 C-70.69454223 138.93154354 -70.69648612 136.78790733 -70.69898987 134.64427185 C-70.70192208 130.17296911 -70.69770514 125.70174681 -70.68830872 121.23045349 C-70.67691543 115.5352335 -70.68348515 109.84020211 -70.69545364 104.14498901 C-70.70272388 99.72486482 -70.70036074 95.30478442 -70.69519806 90.88465881 C-70.69387581 88.78616818 -70.69545857 86.68767341 -70.70015717 84.58918762 C-70.74583396 58.4636379 -67.43039723 37.78435181 -48.42756653 18.38768005 C-47.83588684 17.75990662 -47.24420715 17.13213318 -46.63459778 16.4853363 C-42.48065613 12.44143285 -37.79394722 9.76916839 -32.67756653 7.13768005 C-32.04648987 6.80816345 -31.41541321 6.47864685 -30.76521301 6.1391449 C-20.91883636 1.31164236 -10.85793369 -0.05981522 0 0 Z M-14.42756653 57.38768005 C-15.87259134 60.27772968 -15.58691339 62.80789965 -15.62043762 66.03709412 C-15.62861511 66.72025192 -15.6367926 67.40340973 -15.6452179 68.10726929 C-15.67006933 70.37260563 -15.6865888 72.63787924 -15.70100403 74.90330505 C-15.70632771 75.67729393 -15.71165138 76.45128281 -15.71713638 77.24872589 C-15.7438693 81.34695445 -15.76324205 85.44515255 -15.77766418 89.54344177 C-15.79429561 93.77157515 -15.83905925 97.99892655 -15.89003563 102.22676468 C-15.92373687 105.48164233 -15.93524477 108.73633521 -15.94089127 111.99137115 C-15.9475979 113.54948133 -15.96280492 115.1075796 -15.98678207 116.66551971 C-16.01849609 118.85121786 -16.01846245 121.0348189 -16.01106262 123.22068787 C-16.01914948 124.46263916 -16.02723633 125.70459045 -16.03556824 126.98417664 C-15.2212298 131.54272247 -13.72266967 133.17177574 -10.42756653 136.38768005 C-7.38416526 137.22117956 -7.38416526 137.22117956 -4.42756653 136.38768005 C-2.12481097 134.52058095 -0.74932782 133.03120264 0.57243347 130.38768005 C0.65787243 128.28239072 0.67958072 126.17436848 0.67008972 124.06736755 C0.66686707 122.81053162 0.66364441 121.55369568 0.6603241 120.2587738 C0.65194519 118.94006287 0.64356628 117.62135193 0.63493347 116.26268005 C0.62991837 114.92283794 0.62535548 113.58299405 0.6212616 112.2431488 C0.60944442 108.95797349 0.59150849 105.67282124 0.57243347 102.38768005 C7.17243347 102.38768005 13.77243347 102.38768005 20.57243347 102.38768005 C20.48542175 105.44082458 20.48542175 105.44082458 20.39665222 108.5556488 C20.36187201 110.53812094 20.3272741 112.52060081 20.29777527 114.50315857 C20.2727073 115.87575107 20.23864265 117.24821107 20.19523621 118.62034607 C20.13425816 120.59818702 20.10882338 122.57702189 20.08415222 124.5556488 C20.05796814 125.74440613 20.03178406 126.93316345 20.00480652 128.15794373 C20.74127159 132.34835081 22.23985101 133.82524614 25.57243347 136.38768005 C29.20004517 136.38768005 31.49249098 136.17963788 34.44743347 134.01268005 C36.92384558 130.43564034 36.70972195 126.99712222 36.73356628 122.79246521 C36.74101364 121.79436073 36.74101364 121.79436073 36.74861145 120.77609253 C36.76320824 118.57629866 36.77003074 116.37657689 36.77555847 114.17674255 C36.78131178 112.64601134 36.78706949 111.11528014 36.79283142 109.58454895 C36.80333421 106.37504237 36.80918166 103.16556078 36.81266785 99.95603943 C36.81815241 95.84799749 36.84218241 91.74028701 36.8706398 87.63234901 C36.88928363 84.47015931 36.89447269 81.3080492 36.89600372 78.14580917 C36.89902663 76.63157208 36.907043 75.11733627 36.9201889 73.60315323 C36.93728728 71.4824084 36.93536051 69.36247018 36.92887878 67.24168396 C36.93252441 66.03605804 36.93617004 64.83043213 36.93992615 63.58827209 C36.53349503 60.04855473 35.7120392 58.21007277 33.57243347 55.38768005 C30.76577256 53.10326387 30.76577256 53.10326387 27.63493347 53.45018005 C23.73536324 54.64392604 22.75864891 55.98285625 20.57243347 59.38768005 C20.02571063 62.57061772 20.02571063 62.57061772 20.18180847 66.0009613 C20.1946991 67.24812927 20.20758972 68.49529724 20.22087097 69.78025818 C20.27114441 71.72061951 20.27114441 71.72061951 20.32243347 73.70018005 C20.34048035 75.01309021 20.35852722 76.32600037 20.37712097 77.67869568 C20.42419938 80.91533621 20.49594047 84.15160108 20.57243347 87.38768005 C13.97243347 87.38768005 7.37243347 87.38768005 0.57243347 87.38768005 C0.61883972 85.42443787 0.66524597 83.46119568 0.71305847 81.4384613 C0.75057719 78.85904943 0.78697724 76.27962111 0.82243347 73.70018005 C0.8559491 72.40660583 0.88946472 71.11303162 0.92399597 69.78025818 C0.94333191 67.90950623 0.94333191 67.90950623 0.96305847 66.0009613 C0.98400574 64.85409851 1.004953 63.70723572 1.02653503 62.52561951 C0.47355664 58.70441988 -0.7177475 57.08983903 -3.42756653 54.38768005 C-8.55104059 52.53450858 -10.66536938 53.6254829 -14.42756653 57.38768005 Z M57.57243347 64.38768005 C48.69380642 78.69213474 46.83056619 94.0612243 50.57243347 110.38768005 C53.85820557 121.08881332 59.05036223 128.6931566 68.67790222 134.4775238 C74.05668411 137.06155717 80.30404329 137.41004522 85.98258972 135.6337738 C94.23308086 132.12146122 99.3895015 127.32835585 103.57243347 119.38768005 C106.03719665 112.93717641 108.04110882 106.29490049 108.57243347 99.38768005 C108.62399597 98.7637738 108.67555847 98.13986755 108.72868347 97.49705505 C109.33034109 83.95975863 105.4121569 70.5903668 96.32243347 60.45018005 C91.40361174 55.92312288 85.58114966 53.75717152 79.00993347 52.95018005 C69.93624651 54.10501294 63.57093655 57.3292911 57.57243347 64.38768005 Z M107.57243347 56.38768005 C106.15201527 59.22851647 106.25791075 61.24245283 106.57243347 64.38768005 C108.43953258 66.69043562 109.92891088 68.06591876 112.57243347 69.38768005 C115.4561368 69.45962874 118.31483011 69.48059713 121.19743347 69.45018005 C121.99923035 69.44566833 122.80102722 69.44115662 123.62712097 69.43650818 C125.60892353 69.42471173 127.59068781 69.4067761 129.57243347 69.38768005 C129.56133041 70.15331772 129.55022736 70.91895538 129.53878784 71.70779419 C129.43850131 78.93180657 129.36242666 86.15548032 129.31337261 93.38000774 C129.28730506 97.09404949 129.25196138 100.80751491 129.19523621 104.52122498 C129.14081133 108.10687718 129.11099155 111.69197597 129.09804726 115.27800941 C129.08882583 116.64438907 129.07081766 118.01073925 129.04378319 119.37688255 C128.49401384 127.64251775 128.49401384 127.64251775 131.87638855 134.76585388 C134.56576866 136.69911395 134.56576866 136.69911395 138.19743347 136.38768005 C142.05463809 135.25472343 142.05463809 135.25472343 144.57243347 132.38768005 C145.64025834 129.18420546 145.69301654 126.90580183 145.68595886 123.53929138 C145.68588333 122.33827286 145.6858078 121.13725433 145.68572998 119.89984131 C145.6805687 118.60289841 145.67540741 117.30595551 145.67008972 115.9697113 C145.66822425 114.62878472 145.66680095 113.28785745 145.665802 111.94692993 C145.66198703 108.42058932 145.65216546 104.89429001 145.64109802 101.3679657 C145.63086197 97.76842304 145.62629968 94.1688737 145.6212616 90.56932068 C145.61054227 83.50875693 145.59347809 76.44822119 145.57243347 69.38768005 C146.74161316 69.4340863 147.91079285 69.48049255 149.11540222 69.52830505 C150.66355367 69.565836 152.21173286 69.60223474 153.75993347 69.63768005 C154.91332214 69.68795349 154.91332214 69.68795349 156.0900116 69.73924255 C160.07414617 69.80763971 162.07878913 69.69071565 165.55680847 67.5556488 C168.15153571 64.76480846 168.6500525 63.19101233 168.57243347 59.38768005 C166.80203898 56.64051619 165.50951503 54.85622083 162.57243347 53.38768005 C160.99584226 53.2824955 159.41493192 53.23896613 157.83488464 53.22654724 C156.85013657 53.2169397 155.86538849 53.20733215 154.85079956 53.19743347 C153.78311844 53.19318359 152.71543732 53.18893372 151.61540222 53.18455505 C150.52028824 53.17885498 149.42517426 53.17315491 148.296875 53.1672821 C145.97589588 53.15782292 143.65490328 53.15129449 141.33390808 53.14744568 C137.78492227 53.13774833 134.23651744 53.10673634 130.68766785 53.07518005 C128.43441608 53.06864932 126.18116017 53.06339913 123.92790222 53.05955505 C122.86629379 53.04720825 121.80468536 53.03486145 120.71090698 53.0221405 C113.61661176 52.95429043 113.61661176 52.95429043 107.57243347 56.38768005 Z M234.57243347 56.38768005 C233.10354327 59.32546045 233.41258667 61.95653618 233.37956238 65.23655701 C233.37138489 65.94082825 233.3632074 66.64509949 233.3547821 67.37071228 C233.3299316 69.70578662 233.31341293 72.04080018 233.29899597 74.3759613 C233.29367229 75.17326345 233.28834862 75.97056561 233.28286362 76.79202843 C233.25613327 81.01229771 233.23675822 85.23253742 233.22233582 89.4528656 C233.20568963 93.81112228 233.16091269 98.16862251 233.10996437 102.52659321 C233.07630131 105.87836572 233.0647595 109.22995849 233.05910873 112.58188438 C233.05239337 114.1882677 233.0371637 115.79463906 233.01321793 117.40085793 C232.98158135 119.65140459 232.98152595 121.89990868 232.98893738 124.15061951 C232.98085052 125.4303212 232.97276367 126.71002289 232.96443176 128.02850342 C233.73924202 132.30928827 235.14758504 133.77756228 238.57243347 136.38768005 C240.71686921 137.10461781 240.71686921 137.10461781 242.93205261 136.98704529 C243.75963577 136.99312302 244.58721893 136.99920074 245.43988037 137.00546265 C246.32022446 136.98593033 247.20056854 136.96639801 248.10758972 136.9462738 C249.02326218 136.94394241 249.93893463 136.94161102 250.88235474 136.93920898 C252.81307832 136.92948794 254.74377406 136.90773864 256.67424011 136.8747406 C259.62836452 136.82529001 262.58082292 136.81325577 265.5353241 136.80760193 C267.41359701 136.79351661 269.29185548 136.77731245 271.17008972 136.7587738 C272.05245804 136.7534111 272.93482635 136.7480484 273.84393311 136.74252319 C274.66836411 136.7265358 275.4927951 136.7105484 276.34220886 136.69407654 C277.06437088 136.68343674 277.7865329 136.67279694 278.53057861 136.66183472 C280.90858743 136.34254552 282.52123397 135.61799337 284.57243347 134.38768005 C286.49442461 131.8250252 286.58271983 130.55569056 286.38493347 127.32518005 C285.5532622 124.31836855 285.05014583 123.19831601 282.57243347 121.38768005 C279.03417093 120.20825921 276.23094622 120.27478816 272.49821472 120.2900238 C271.81438217 120.29143875 271.13054962 120.2928537 270.42599487 120.29431152 C268.24559625 120.29990129 266.06530097 120.31245184 263.88493347 120.32518005 C262.40511725 120.33019638 260.92529941 120.33475906 259.44548035 120.33885193 C255.82109791 120.34986734 252.19677578 120.36712493 248.57243347 120.38768005 C248.58353653 119.6072937 248.59463959 118.82690735 248.6060791 118.02287292 C248.70629162 110.66610266 248.78240278 103.30966359 248.83149433 95.95238876 C248.85758165 92.16994344 248.89296172 88.38806235 248.94963074 84.60594177 C249.00398469 80.95545667 249.03386053 77.30551399 249.04681969 73.65465546 C249.0560538 72.26233124 249.07408667 70.87003651 249.10108376 69.47794342 C249.13740701 67.52725209 249.13947612 65.57601414 249.14006042 63.62498474 C249.15116348 62.51467896 249.16226654 61.40437317 249.17370605 60.26042175 C248.79761491 57.20176601 248.79761491 57.20176601 246.28695679 54.99784851 C241.56477694 52.19680238 238.76877685 53.43889822 234.57243347 56.38768005 Z M175.57243347 57.38768005 C173.5056157 61.3292488 173.31957829 64.71085108 173.31364441 69.1181488 C173.31013977 69.77409027 173.30663513 70.43003174 173.30302429 71.10585022 C173.29426077 73.26240288 173.30003688 75.41862437 173.30680847 77.57518005 C173.30546027 79.08063316 173.30351844 80.58608585 173.30101013 82.09153748 C173.29806616 85.24205177 173.30233305 88.39245243 173.31169128 91.54295349 C173.32308545 95.57465664 173.31652208 99.60609348 173.30454636 103.63778687 C173.29730808 106.74508153 173.29962471 109.8523134 173.30480194 112.95960999 C173.306133 114.44591809 173.30450983 115.93223195 173.29984283 117.41853333 C173.29474514 119.49824558 173.30253286 121.57753073 173.31364441 123.6572113 C173.3152356 124.83903992 173.31682678 126.02086853 173.31846619 127.23851013 C173.57482824 130.4173749 174.07998614 132.57900787 175.57243347 135.38768005 C179.40715465 137.94416084 182.58843367 137.71128948 187.03727722 137.72361755 C188.28185448 137.73360275 188.28185448 137.73360275 189.55157471 137.74378967 C191.30581954 137.75391117 193.06010283 137.75860685 194.81437683 137.75828552 C197.49674453 137.76265855 200.17746633 137.79898089 202.85954285 137.8368988 C204.56461535 137.84276714 206.26969566 137.84673642 207.97477722 137.84861755 C208.77592453 137.86298859 209.57707184 137.87735962 210.40249634 137.89216614 C214.04141648 137.86234312 216.12501425 137.73148316 219.05509949 135.47996521 C220.65011846 133.28055852 221.40837553 132.09463606 221.57243347 129.38768005 C220.4921391 125.60664975 219.92937084 124.6256383 216.57243347 122.38768005 C213.66313005 122.11097512 213.66313005 122.11097512 210.37321472 122.19236755 C208.56047058 122.20203552 208.56047058 122.20203552 206.71110535 122.2118988 C205.44846863 122.22865662 204.18583191 122.24541443 202.88493347 122.26268005 C200.97357605 122.27621521 200.97357605 122.27621521 199.02360535 122.2900238 C195.87313494 122.31362283 192.72276085 122.34949427 189.57243347 122.38768005 C189.57243347 116.77768005 189.57243347 111.16768005 189.57243347 105.38768005 C191.46348816 105.44568787 193.35454285 105.50369568 195.30290222 105.5634613 C197.78855464 105.61036041 200.27423373 105.65586039 202.75993347 105.70018005 C204.62875183 105.76302185 204.62875183 105.76302185 206.5353241 105.82713318 C213.77572463 106.24773583 213.77572463 106.24773583 219.90055847 103.05955505 C221.94660301 99.78970818 222.29757051 98.1745068 221.57243347 94.38768005 C219.70533437 92.08492449 218.21595606 90.70944135 215.57243347 89.38768005 C213.61307308 89.302578 211.65080553 89.28050349 209.68962097 89.2900238 C207.93971863 89.29485779 207.93971863 89.29485779 206.15446472 89.29978943 C204.93114441 89.30816833 203.7078241 89.31654724 202.44743347 89.32518005 C201.21637878 89.32969177 199.9853241 89.33420349 198.71696472 89.33885193 C195.66876708 89.35066665 192.62059431 89.36860255 189.57243347 89.38768005 C189.57243347 83.11768005 189.57243347 76.84768005 189.57243347 70.38768005 C191.46348816 70.44568787 193.35454285 70.50369568 195.30290222 70.5634613 C197.78855464 70.61036041 200.27423373 70.65586039 202.75993347 70.70018005 C204.00581238 70.74207458 205.25169128 70.78396912 206.5353241 70.82713318 C213.77572463 71.24773583 213.77572463 71.24773583 219.90055847 68.05955505 C221.94660301 64.78970818 222.29757051 63.1745068 221.57243347 59.38768005 C219.34036916 56.53987387 218.02250349 55.53770339 214.57243347 54.38768005 C212.12934162 54.26746529 209.71556636 54.19966183 207.27165222 54.18455505 C206.55765762 54.17885498 205.84366302 54.17315491 205.10803223 54.1672821 C203.59756446 54.15784355 202.0870762 54.15130267 200.57658386 54.14744568 C198.27860561 54.13775876 195.98152933 54.10673399 193.6837616 54.07518005 C192.21306376 54.06864749 190.74235955 54.06339801 189.27165222 54.05955505 C188.24946846 54.04103485 188.24946846 54.04103485 187.20663452 54.0221405 C182.60521033 54.04336771 179.39418646 54.79725924 175.57243347 57.38768005 Z " fill="#2E3167" transform="translate(122.42756652832031,31.612319946289063)"/>
<path d="M0 0 C1.25743515 -0.01134979 2.5148703 -0.02269958 3.81040955 -0.03439331 C5.19633548 -0.03175018 6.58226082 -0.02877899 7.96818542 -0.0255127 C9.43376309 -0.03285549 10.89933496 -0.04144233 12.36489868 -0.05117798 C16.34027086 -0.07338375 20.31543569 -0.07632505 24.29086137 -0.07443047 C27.61326072 -0.07431069 30.93561626 -0.08287791 34.25800341 -0.09120798 C42.09957823 -0.11043967 49.94104661 -0.11332716 57.78263855 -0.10656738 C65.86196047 -0.09993052 73.94082539 -0.12277695 82.02005464 -0.15988111 C88.96462339 -0.19061264 95.90904543 -0.2019343 102.85368079 -0.1980443 C106.99778647 -0.1959799 111.1415367 -0.20140749 115.28557777 -0.22593689 C119.1854205 -0.24825817 123.08452266 -0.24628234 126.98436928 -0.22600937 C128.41135742 -0.22260845 129.83839591 -0.22764886 131.26531601 -0.24199295 C139.22206699 -0.31642485 145.70684896 -0.25661542 151.75798035 5.39440918 C155.14998795 9.74313688 156.88377345 13.17924491 156.88102818 18.68351269 C156.88301922 19.56381812 156.88501027 20.44412356 156.88706166 21.35110492 C156.88414881 22.31899441 156.88123597 23.28688391 156.87823486 24.28410339 C156.8795165 25.82540577 156.8795165 25.82540577 156.88082403 27.39784557 C156.88247736 30.85724817 156.87695982 34.3166028 156.87150574 37.77600098 C156.87122381 40.24931843 156.87138171 42.72263597 156.87194824 45.19595337 C156.87217631 50.52923391 156.86933119 55.86249937 156.8637104 61.19577599 C156.85558894 68.90683025 156.85297952 76.6178786 156.85172241 84.32893667 C156.84953291 96.83912682 156.84287558 109.34931046 156.8334198 121.85949707 C156.82424305 134.01314257 156.8171635 146.1667863 156.81291199 158.32043457 C156.81264926 159.06938229 156.81238654 159.81833001 156.81211586 160.58997311 C156.81081083 164.34716308 156.80954712 168.10435307 156.80830395 171.86154306 C156.79793451 203.03916998 156.78004406 234.21678824 156.75798035 265.39440918 C146.19798035 265.39440918 135.63798035 265.39440918 124.75798035 265.39440918 C124.75387146 261.90660889 124.74976257 258.41880859 124.74552917 254.82531738 C124.7283427 243.31006816 124.68411162 231.79501166 124.62588978 220.27990437 C124.59124669 213.2972852 124.56588519 206.31486331 124.56242371 199.33215332 C124.55905791 192.59517133 124.5297612 185.85876065 124.48454857 179.12190819 C124.47154482 176.54989701 124.46727599 173.97782654 124.47182655 171.40578651 C124.4767117 167.80680187 124.45072926 164.20927881 124.41740417 160.61047363 C124.42602982 159.54376434 124.43465546 158.47705505 124.44354248 157.37802124 C124.37317567 152.85375529 124.21627138 150.14306029 121.82200623 146.2318573 C117.50843551 143.6450768 114.02083961 143.7071411 109.07414246 143.7791748 C107.61964943 143.77085129 107.61964943 143.77085129 106.13577271 143.76235962 C102.9351183 143.75056227 99.73587918 143.77483856 96.5353241 143.80065918 C94.31002873 143.80237017 92.08473135 143.80230471 89.85943604 143.80053711 C85.19806104 143.80219036 80.53716696 143.82089139 75.87590027 143.85241699 C69.8979553 143.89211727 63.92063965 143.89645954 57.94258785 143.88895416 C53.34866561 143.88588642 48.75488513 143.89799772 44.16099739 143.91508484 C41.95656282 143.92212052 39.75211218 143.92523869 37.54766655 143.9243927 C34.46895612 143.9261882 31.39100332 143.94754867 28.31242371 143.9744873 C26.94316742 143.9700914 26.94316742 143.9700914 25.54624939 143.96560669 C20.69270356 144.02213551 20.69270356 144.02213551 16.22332764 145.7331543 C13.66725913 148.63095287 13.62793958 151.42974905 13.59976196 155.12101746 C13.58507874 156.57864502 13.58507874 156.57864502 13.57009888 158.0657196 C13.56434341 159.13026871 13.55858795 160.19481781 13.55265808 161.29162598 C13.54275848 162.41372467 13.53285889 163.53582336 13.5226593 164.69192505 C13.49101542 168.40913772 13.46627535 172.12636317 13.4415741 175.84362793 C13.42100707 178.41767208 13.40001067 180.99171284 13.37860107 183.56575012 C13.3290044 189.65363276 13.28374579 195.74153356 13.24057871 201.82946473 C13.19119212 208.76050964 13.13627927 215.6915073 13.08089912 222.6225065 C12.96710459 236.87976452 12.86098959 251.13706926 12.75798035 265.39440918 C2.19798035 265.39440918 -8.36201965 265.39440918 -19.24201965 265.39440918 C-19.30984493 233.66504832 -19.36355181 201.9357151 -19.39521564 170.20629891 C-19.39896774 166.46000156 -19.40285071 162.71370436 -19.40681458 158.96740723 C-19.40760151 158.22158971 -19.40838844 157.47577219 -19.40919922 156.70735414 C-19.42225167 144.63258891 -19.44590462 132.55786655 -19.47347804 120.48312675 C-19.50153672 108.09250965 -19.51819689 95.701915 -19.52428514 83.31126744 C-19.52840063 75.66611355 -19.54139715 68.02108082 -19.56576905 60.37596423 C-19.58350766 54.51280593 -19.5853841 48.64970975 -19.5813427 42.78652382 C-19.58216866 40.38190846 -19.5881444 37.97728855 -19.59963608 35.5727005 C-19.61455291 32.29068377 -19.61097582 29.00918624 -19.6027832 25.72715759 C-19.61152173 24.77481041 -19.62026025 23.82246323 -19.62926358 22.84125704 C-19.5822551 15.87801454 -18.54466338 11.06062823 -13.86701965 5.64440918 C-9.24946262 1.68650316 -6.14781132 0.02100847 0 0 Z M19.79875183 34.51525879 C17.41063062 38.82709762 18.09427584 44.10770959 18.19548035 48.89440918 C18.18452332 50.02233887 18.17356628 51.15026855 18.16227722 52.31237793 C18.18798512 58.77596899 18.18798512 58.77596899 20.6759491 64.61315918 C23.36431765 66.95799178 23.36431765 66.95799178 26.75798035 67.39440918 C29.9769593 66.23557676 32.14011084 65.43875427 33.9181366 62.43347168 C35.16435639 57.92389494 35.08649419 53.55123517 35.07048035 48.89440918 C35.08659363 47.95726074 35.10270691 47.0201123 35.11930847 46.05456543 C35.1228776 41.02209503 35.07180039 37.45807172 31.75798035 33.39440918 C29.88834037 31.13142481 29.88834037 31.13142481 26.94548035 30.95690918 C23.64764507 31.40955324 22.08082894 32.09294471 19.79875183 34.51525879 Z M63.44548035 33.26940918 C59.70142271 37.98414843 60.53630377 42.89706722 60.50798035 48.70690918 C60.48735535 49.7529834 60.46673035 50.79905762 60.44548035 51.87683105 C60.4403241 52.88938965 60.43516785 53.90194824 60.42985535 54.94519043 C60.42050964 55.86985107 60.41116394 56.79451172 60.40153503 57.74719238 C60.83015108 60.93040042 61.88827437 62.80521349 63.75798035 65.39440918 C66.8865853 66.95871166 69.31400959 66.75068202 72.75798035 66.39440918 C75.5186795 64.16819707 76.6250999 62.33579411 77.12223816 58.81384277 C77.26148185 55.66435668 77.2537793 52.546314 77.19548035 49.39440918 C77.20257019 48.3141748 77.20966003 47.23394043 77.21696472 46.12097168 C77.17244949 40.57368949 77.09631234 37.02165866 73.75798035 32.39440918 C69.93616981 30.48350391 66.76480913 30.57806152 63.44548035 33.26940918 Z M103.75798035 35.39440918 C103.00885626 38.30898871 103.00885626 38.30898871 103.1290741 41.55065918 C103.1271405 42.73788574 103.12520691 43.9251123 103.12321472 45.14831543 C103.14706238 46.38452637 103.17091003 47.6207373 103.19548035 48.89440918 C103.18452332 50.13062012 103.17356628 51.36683105 103.16227722 52.64050293 C102.89329131 59.15381217 102.89329131 59.15381217 105.67228699 64.72058105 C107.87563835 66.48883307 108.93692049 67.30892252 111.75798035 67.39440918 C114.55642415 65.99518728 116.54589417 64.60649535 118.75798035 62.39440918 C119.27183342 58.14396399 119.17481397 53.85984992 119.19548035 49.58190918 C119.22835144 48.39274902 119.26122253 47.20358887 119.29508972 45.97839355 C119.60085648 38.97425657 119.60085648 38.97425657 116.3868866 33.10534668 C113.91005011 31.27620293 113.91005011 31.27620293 111.25798035 30.83190918 C107.8562176 31.5973058 106.23436266 32.952784 103.75798035 35.39440918 Z M19.75798035 90.39440918 C17.6544244 94.60152108 18.48423759 100.08446211 18.44548035 104.70690918 C18.41647644 105.84837402 18.38747253 106.98983887 18.35758972 108.16589355 C18.23934671 114.69244704 18.23934671 114.69244704 20.62516785 120.62487793 C23.15162352 122.72100324 24.46716666 123.39440918 27.75798035 123.39440918 C30.70744705 122.1597487 32.29936153 121.2037365 33.8868866 118.40222168 C35.14560351 114.05597941 35.04711902 109.89535693 35.00798035 105.39440918 C35.01571472 104.50495605 35.0234491 103.61550293 35.03141785 102.69909668 C35.01799806 98.20346953 34.99161789 94.42604575 32.75798035 90.39440918 C28.25821646 86.04463742 24.60081795 86.99133411 19.75798035 90.39440918 Z M61.75798035 91.39440918 C59.77455919 95.36125149 60.5292433 100.34534656 60.50798035 104.70690918 C60.48735535 105.7529834 60.46673035 106.79905762 60.44548035 107.87683105 C60.4403241 108.88938965 60.43516785 109.90194824 60.42985535 110.94519043 C60.42050964 111.86985107 60.41116394 112.79451172 60.40153503 113.74719238 C60.82981401 116.92789716 61.90938576 118.7947877 63.75798035 121.39440918 C66.12141667 123.12759582 67.32560283 123.40521862 70.25798035 123.33190918 C73.86316006 121.97996679 74.79361197 120.75602702 76.75798035 117.39440918 C77.30552573 113.36479366 77.22463452 109.39122425 77.13298035 105.33190918 C77.13104675 103.69898926 77.13104675 103.69898926 77.1290741 102.03308105 C77.20375936 95.40509572 77.20375936 95.40509572 74.75798035 89.39440918 C69.53343208 85.911377 66.09800831 87.40627538 61.75798035 91.39440918 Z M104.82292175 90.48620605 C102.33920479 94.93662599 103.09553712 100.51106991 103.19548035 105.45690918 C103.18452332 106.64091309 103.17356628 107.82491699 103.16227722 109.0447998 C102.92820095 115.33060797 102.92820095 115.33060797 105.63713074 120.70861816 C108.11596558 122.67895943 109.60356723 123.23668852 112.75798035 123.39440918 C116.08342816 122.25425564 116.7358651 121.42758205 118.75798035 118.39440918 C119.25273059 114.11866324 119.17455526 109.8206765 119.19548035 105.51940918 C119.22835144 104.33476074 119.26122253 103.1501123 119.29508972 101.92956543 C119.59676589 94.95381814 119.59676589 94.95381814 116.3868866 89.11315918 C113.90635406 87.28634869 113.90635406 87.28634869 111.25798035 86.76940918 C108.50466937 87.45773692 106.79316055 88.43323333 104.82292175 90.48620605 Z " fill="#2E3167" transform="translate(189.2420196533203,214.6055908203125)"/>
<path d="M0 0 C26.4 0 52.8 0 80 0 C80 34.98 80 69.96 80 106 C53.6 106 27.2 106 0 106 C0 71.02 0 36.04 0 0 Z " fill="#2E3267" transform="translate(218,374)"/>
<path d="M0 0 C3.80764687 1.52305875 5.7585667 2.35954037 8.7578125 4.765625 C9.45559814 5.31847168 10.15338379 5.87131836 10.87231445 6.44091797 C11.61570068 7.03791504 12.35908691 7.63491211 13.125 8.25 C19.4392775 13.24340414 25.81142451 18.12728415 32.3125 22.875 C81.36358223 58.81791114 81.36358223 58.81791114 87 87 C58.29 87 29.58 87 0 87 C0 58.29 0 29.58 0 0 Z " fill="#2F3267" transform="translate(362,305)"/>
<path d="M0 0 C21.45 0 42.9 0 65 0 C65 23.76 65 47.52 65 72 C43.55 72 22.1 72 0 72 C0 48.24 0 24.48 0 0 Z M26 21 C23.83419973 25.33160053 24.68118394 31.05474144 24.625 35.8125 C24.58761719 37.00166016 24.55023438 38.19082031 24.51171875 39.41601562 C24.17872975 46.40440439 24.17872975 46.40440439 27.296875 52.3203125 C29.98290408 54.30977712 29.98290408 54.30977712 33.625 54.0625 C37.39286325 52.87632083 38.09507032 52.33565872 40 49 C40.62704841 44.68984731 40.46345407 40.35084634 40.4375 36 C40.45748047 34.81148438 40.47746094 33.62296875 40.49804688 32.3984375 C40.49740234 31.25632812 40.49675781 30.11421875 40.49609375 28.9375 C40.49794678 27.89464844 40.4997998 26.85179687 40.50170898 25.77734375 C39.87624784 22.31493696 38.7183486 21.16241518 36 19 C31.68998518 17.34230199 29.61696978 18.28727266 26 21 Z " fill="#2E3167" transform="translate(362,408)"/>
<path d="M0 0 C0 24.09 0 48.18 0 73 C-24.09 73 -48.18 73 -73 73 C-70.92798702 68.85597403 -68.44376131 66.16837528 -65.20849609 62.96557617 C-64.61633301 62.37151474 -64.02416992 61.77745331 -63.4140625 61.16539001 C-61.45537293 59.20299686 -59.48957414 57.2478984 -57.5234375 55.29296875 C-56.15504076 53.92576492 -54.78701436 52.55819034 -53.41934204 51.19026184 C-50.54908315 48.32156749 -47.67549621 45.45626359 -44.79931641 42.59350586 C-41.12935785 38.94046469 -37.46594306 35.28094877 -33.80481529 31.61905956 C-30.9773789 28.79189653 -28.14733219 25.96735863 -25.31642532 23.14367104 C-23.96597045 21.7963795 -22.6161038 20.44849807 -21.26685715 19.09999657 C-2.14476003 0 -2.14476003 0 0 0 Z " fill="#2E3167" transform="translate(154,307)"/>
<path d="M0 0 C18.15 0 36.3 0 55 0 C55 14.52 55 29.04 55 44 C36.85 44 18.7 44 0 44 C0 29.48 0 14.96 0 0 Z M21 13 C19.49856456 16.00287088 19.73425982 19.083109 19.6875 22.375 C19.65849609 23.04789062 19.62949219 23.72078125 19.59960938 24.4140625 C19.55581629 27.8366608 19.73900593 29.65682057 21.8359375 32.4140625 C24.67237219 34.49274929 26.48053555 35 30 35 C32.72543382 33.36473971 34.58061497 32.24232923 35.62109375 29.16015625 C36.75286397 22.70789921 36.86914761 16.52735374 33 11 C28.00458023 7.56564891 25.2155544 9.22818817 21 13 Z " fill="#2E3267" transform="translate(99,395)"/>
<path d="M0 0 C4.31516471 1.47347088 5.73182302 3.98899733 7.75 7.875 C12.39600769 17.49047162 12.7501914 30.09871303 9.25 40.1875 C7.39167912 44.56971059 5.42018198 48.78990901 1 51 C-6.04693141 51.69314079 -6.04693141 51.69314079 -9.75 49 C-16.97505084 39.36659887 -17.81891164 29.79232768 -17 18 C-15.6853832 11.03094709 -13.69467645 5.19790666 -7.796875 0.92578125 C-4.97942868 -0.52581609 -3.08953962 -0.60447514 0 0 Z " fill="#2E3167" transform="translate(204,101)"/>
</svg>
