<?xml version="1.0" encoding="UTF-8"?>
<svg version="1.1" xmlns="http://www.w3.org/2000/svg" width="512" height="512">
<path d="M0 0 C11.34186388 8.94215134 21.27531073 19.5890251 28.6875 31.9921875 C29.20449463 32.85529541 29.20449463 32.85529541 29.73193359 33.73583984 C45.44764649 60.38673815 50.79217872 93.4106367 43.52197266 123.68017578 C42.95502126 125.80064077 42.33819308 127.8960084 41.6875 129.9921875 C41.47851074 130.67732422 41.26952148 131.36246094 41.05419922 132.06835938 C31.40306362 162.63390342 9.81597847 187.08000576 -18.11669922 202.29516602 C-46.31073937 216.9228142 -79.78497105 219.13590299 -110.02880859 210.09326172 C-125.50034834 205.17425817 -138.93819816 197.41778039 -151.3125 186.9921875 C-152.23289062 186.24710938 -153.15328125 185.50203125 -154.1015625 184.734375 C-176.96156609 165.300078 -190.86090124 135.70086028 -193.3125 105.9921875 C-195.00871922 73.98384182 -187.10205078 43.87092264 -166.3125 18.9921875 C-165.06533203 17.49945313 -165.06533203 17.49945313 -163.79296875 15.9765625 C-153.50882921 4.05947481 -141.22879206 -4.78522387 -127.3125 -12.0078125 C-126.41273438 -12.47832031 -125.51296875 -12.94882813 -124.5859375 -13.43359375 C-119.18005345 -16.07120787 -113.62154017 -17.96427327 -107.875 -19.6953125 C-107.20750732 -19.89793701 -106.54001465 -20.10056152 -105.85229492 -20.30932617 C-69.4816575 -30.76386723 -30.0126564 -22.56244115 0 0 Z M-80.3125 15.9921875 C-86.3293554 22.0090429 -88.29757779 30.1957254 -89.9375 38.3046875 C-90.07816895 38.97628906 -90.21883789 39.64789063 -90.36376953 40.33984375 C-91.11997656 44.37047361 -91.31636525 47.9327979 -90.95703125 52.0234375 C-90.61332698 57.74472603 -90.67692047 62.78948505 -93.3125 67.9921875 C-99.31068961 74.39789465 -107.2738041 78.69602449 -114.79188538 83.09695435 C-122.96344434 87.89215653 -130.76705376 93.22636978 -138.61431885 98.52938843 C-142.53814013 101.17440455 -146.48004671 103.79208486 -150.421875 106.41015625 C-151.76533818 107.30357137 -153.10876679 108.19703847 -154.45214844 109.09057617 C-155.86802246 110.03187378 -155.86802246 110.03187378 -157.3125 110.9921875 C-156.9825 112.3121875 -156.6525 113.6321875 -156.3125 114.9921875 C-148.7049356 114.36676302 -141.5702063 112.71912251 -134.18359375 110.83203125 C-132.95334976 110.52270157 -131.72310577 110.21337189 -130.45558167 109.89466858 C-127.21429822 109.07856847 -123.97438984 108.25739674 -120.73504639 107.43365479 C-117.41755738 106.59140448 -114.0983542 105.75596623 -110.77929688 104.91992188 C-104.28878129 103.28356034 -97.79999491 101.64048157 -91.3125 99.9921875 C-91.23782249 100.98503502 -91.23782249 100.98503502 -91.16163635 101.99794006 C-89.89309167 119.30047489 -89.89309167 119.30047489 -87.25 136.4296875 C-86.73981457 139.11716983 -86.23636411 141.80491849 -85.75683594 144.49804688 C-85.45986342 146.16500908 -85.14002481 147.82805399 -84.79785156 149.48632812 C-84.40788678 151.74089887 -84.14010892 153.71054092 -84.3125 155.9921875 C-86.3046875 158.59375 -86.3046875 158.59375 -89.1875 160.6171875 C-90.69763672 161.72707031 -90.69763672 161.72707031 -92.23828125 162.859375 C-93.25277344 163.56320313 -94.26726562 164.26703125 -95.3125 164.9921875 C-97.00937051 166.22943716 -98.69792957 167.47822903 -100.375 168.7421875 C-101.08785156 169.25265625 -101.80070312 169.763125 -102.53515625 170.2890625 C-104.66494319 172.32991328 -105.40089163 174.21485215 -106.3125 176.9921875 C-103.31645073 177.99087059 -102.09599304 178.01312266 -99.05859375 177.65234375 C-97.79136475 177.5116748 -97.79136475 177.5116748 -96.49853516 177.36816406 C-95.59151855 177.2647168 -94.68450195 177.16126953 -93.75 177.0546875 C-76.02662314 175.23178081 -59.01808831 176.21168437 -41.3125 177.9921875 C-40.8680195 173.97542904 -40.8680195 173.97542904 -43.3671875 171.6953125 C-44.29789062 170.88578125 -45.22859375 170.07625 -46.1875 169.2421875 C-46.67911621 168.80970703 -47.17073242 168.37722656 -47.67724609 167.93164062 C-51.80343227 164.33492666 -56.07681706 160.9243851 -60.4140625 157.5859375 C-62.3125 155.9921875 -62.3125 155.9921875 -63.3125 153.9921875 C-63.07518961 152.23110434 -62.7510488 150.48143841 -62.38671875 148.7421875 C-62.16781982 147.66710937 -61.9489209 146.59203125 -61.72338867 145.484375 C-61.48467041 144.33195313 -61.24595215 143.17953125 -61 141.9921875 C-59.40771724 134.01708017 -57.8841736 126.0801145 -57 117.9921875 C-56.92418701 117.31929688 -56.84837402 116.64640625 -56.77026367 115.953125 C-56.3957244 112.2067994 -56.28317595 108.50754085 -56.29614258 104.7421875 C-56.29850418 103.85015625 -56.30086578 102.958125 -56.30329895 102.0390625 C-56.3063353 101.36359375 -56.30937164 100.688125 -56.3125 99.9921875 C-55.55939041 100.18010864 -54.80628082 100.36802979 -54.03034973 100.56164551 C-46.9254441 102.3334107 -39.81917772 104.09956242 -32.71132374 105.85945892 C-29.0573434 106.76438919 -25.40392384 107.67146426 -21.75170898 108.58349609 C-18.22572095 109.46392188 -14.69836177 110.33864129 -11.16998863 111.2094574 C-9.82551598 111.54233346 -8.481546 111.87724678 -7.13810158 112.21424866 C-5.25333125 112.68666863 -3.36656801 113.15111585 -1.47973633 113.61523438 C-0.40718094 113.88170776 0.66537445 114.14818115 1.77043152 114.42272949 C4.499875 114.95556013 6.91669546 115.10495594 9.6875 114.9921875 C9.6875 113.6721875 9.6875 112.3521875 9.6875 110.9921875 C7.64190884 109.03853583 7.64190884 109.03853583 4.828125 107.2890625 C3.74837402 106.56895996 2.66862305 105.84885742 1.55615234 105.10693359 C0.968078 104.72365906 0.38000366 104.34038452 -0.22589111 103.94549561 C-2.08840686 102.72521386 -3.93077748 101.47871024 -5.77099609 100.22509766 C-12.26461972 95.83010001 -18.82849286 91.64507002 -25.62097168 87.72532654 C-54.32198322 71.12161101 -54.32198322 71.12161101 -56.8984375 61.50390625 C-57.54485195 56.20562354 -57.16254686 51.10816484 -56.52880859 45.82470703 C-56.19818592 41.49526651 -57.02045425 37.6598066 -58.125 33.4921875 C-58.29918457 32.8101123 -58.47336914 32.12803711 -58.65283203 31.42529297 C-60.54671083 24.48571683 -62.82192712 19.07613624 -68.375 14.4296875 C-73.31376445 12.01284532 -76.07048696 12.91672805 -80.3125 15.9921875 Z " fill="#2E3167" transform="translate(462.3125,79.0078125)"/>
<path d="M0 0 C2.36972113 1.15181665 4.26242234 2.57545099 6.3359375 4.203125 C18.92693987 13.28209704 34.11438181 15.36679513 49.234375 13.5625 C57.94883071 11.88416038 69.42599762 7.84664152 75.640625 1.140625 C76.29417969 0.5528125 76.29417969 0.5528125 76.9609375 -0.046875 C80.53666751 0.1612756 83.02176456 2.21324597 85.8984375 4.203125 C99.3573195 12.97124384 114.02136936 15.94305302 129.8515625 13.3046875 C139.04113924 11.09238199 147.90008556 7.56368837 154.98046875 1.11328125 C156.9609375 -0.046875 156.9609375 -0.046875 159.39453125 0.5546875 C162.06101203 2.00765572 164.52512905 3.60229503 167.0234375 5.328125 C179.43678796 13.39092367 193.59842864 15.4859387 208.1171875 13.52734375 C216.7769881 11.63010249 226.51660538 7.70073839 233.328125 1.95703125 C235.9609375 0.953125 235.9609375 0.953125 237.83911133 1.56005859 C240.17706039 2.73986811 242.40519552 4.03944444 244.6484375 5.390625 C251.12128276 9.04670596 257.44416137 12.15732731 264.5234375 14.453125 C265.22364014 14.68314209 265.92384277 14.91315918 266.64526367 15.15014648 C272.06828813 16.84480164 277.32384548 17.8257066 282.9609375 18.953125 C282.9609375 70.433125 282.9609375 121.913125 282.9609375 174.953125 C218.2809375 174.953125 153.6009375 174.953125 86.9609375 174.953125 C86.7109375 109.703125 86.7109375 109.703125 86.66308594 89.08886719 C86.62987216 82.99891569 86.62987216 82.99891569 86.59136963 76.90899658 C86.57673956 74.19310462 86.56850687 71.47789211 86.56939697 68.76202393 C86.57031109 64.65191566 86.53972365 60.54259383 86.50683594 56.43261719 C86.51437204 54.61332262 86.51437204 54.61332262 86.52206039 52.75727463 C86.50815388 51.65181919 86.49424736 50.54636375 86.47991943 49.40740967 C86.47623226 48.44505779 86.47254509 47.48270592 86.46874619 46.49119186 C85.80553861 43.17642942 84.62105327 41.98664247 81.9609375 39.953125 C78.92492223 39.55860704 76.2522606 39.40594391 73.21679688 39.43554688 C71.89419609 39.42503296 71.89419609 39.42503296 70.5448761 39.41430664 C67.63115925 39.39670579 64.71841417 39.4083568 61.8046875 39.421875 C59.77974257 39.41918069 57.7547989 39.41529878 55.7298584 39.41027832 C51.48628418 39.40438044 47.24304678 39.41295569 42.99951172 39.43164062 C37.55839987 39.4544302 32.11807721 39.44130869 26.67699432 39.41735077 C22.49568733 39.40290072 18.31456762 39.40749517 14.133255 39.41786194 C12.12697761 39.42053141 10.12068324 39.41725173 8.11442566 39.40794373 C5.31085126 39.3977913 2.5085571 39.41326083 -0.29492188 39.43554688 C-1.1251738 39.42744995 -1.95542572 39.41935303 -2.81083679 39.41101074 C-6.23544738 39.46147703 -8.48166291 39.52702256 -11.25092697 41.64397812 C-13.43733124 44.46743781 -13.54448099 45.86735076 -13.55804443 49.40740967 C-13.57891365 51.06903893 -13.57891365 51.06903893 -13.60020447 52.76423645 C-13.59265892 54.58008492 -13.59265892 54.58008492 -13.58496094 56.43261719 C-13.59529861 57.71091904 -13.60563629 58.98922089 -13.61628723 60.30625916 C-13.64415726 63.80806281 -13.64755172 67.30951339 -13.64656734 70.81141186 C-13.64969563 74.47235721 -13.67531202 78.13314334 -13.69854736 81.79400635 C-13.73911752 88.72477582 -13.75945039 95.65545118 -13.77252126 102.58632112 C-13.78838792 110.47752108 -13.82680207 118.36856082 -13.86711454 126.25966787 C-13.94952745 142.49079713 -14.00063424 158.72182296 -14.0390625 174.953125 C-27.8990625 174.953125 -41.7590625 174.953125 -56.0390625 174.953125 C-56.0390625 121.493125 -56.0390625 68.033125 -56.0390625 12.953125 C-53.3990625 13.283125 -50.7590625 13.613125 -48.0390625 13.953125 C-32.47684598 14.82140317 -16.58338939 12.15199612 -4.37890625 1.66796875 C-2.0390625 -0.046875 -2.0390625 -0.046875 0 0 Z M116.9609375 41.953125 C115.68721293 44.50057415 115.82007781 46.31350536 115.79980469 49.16552734 C115.79019714 50.25360687 115.7805896 51.3416864 115.77069092 52.46273804 C115.76644104 53.64292511 115.76219116 54.82311218 115.7578125 56.0390625 C115.75211243 57.24752838 115.74641235 58.45599426 115.74053955 59.70108032 C115.73107975 62.26164878 115.7245517 64.82222946 115.72070312 67.3828125 C115.71099498 71.30490294 115.67997883 75.22647009 115.6484375 79.1484375 C115.64190795 81.63280938 115.63665729 84.11718502 115.6328125 86.6015625 C115.6204657 87.77770111 115.6081189 88.95383972 115.59539795 90.1656189 C115.59839905 91.26000275 115.60140015 92.3543866 115.60449219 93.48193359 C115.60084656 94.44408783 115.59720093 95.40624207 115.59344482 96.39755249 C116.0285731 99.42346822 116.84774643 100.76972143 118.9609375 102.953125 C121.93526486 103.94456745 123.89130276 104.08336519 126.99557495 104.09356689 C128.03582825 104.09927704 129.07608154 104.10498718 130.14785767 104.11087036 C131.28870819 104.11198822 132.42955872 104.11310608 133.60498047 104.11425781 C134.80682983 104.11922272 136.0086792 104.12418762 137.24694824 104.12930298 C140.54453805 104.1414115 143.84206445 104.1488696 147.13966894 104.15331364 C149.2002639 104.15624593 151.2608533 104.16035101 153.32144547 104.16481781 C159.76979003 104.17848919 166.21812189 104.18815785 172.66647995 104.1920197 C180.10806647 104.19650102 187.54946937 104.2140537 194.99100006 104.2430203 C200.74481039 104.26463938 206.49856907 104.27472408 212.25241959 104.27606082 C215.68824775 104.27710861 219.1239032 104.28301073 222.55968857 104.30088043 C226.39255445 104.32042799 230.22519091 104.31607123 234.05810547 104.30957031 C235.19490753 104.3187851 236.33170959 104.32799988 237.50296021 104.3374939 C238.54885315 104.33192474 239.59474609 104.32635559 240.67233276 104.32061768 C242.03120259 104.32281752 242.03120259 104.32281752 243.41752434 104.3250618 C246.52865252 103.87010502 248.42076605 102.77637953 250.9609375 100.953125 C252.23466207 98.40567585 252.10179719 96.59274464 252.12207031 93.74072266 C252.13167786 92.65264313 252.1412854 91.5645636 252.15118408 90.44351196 C252.15543396 89.26332489 252.15968384 88.08313782 252.1640625 86.8671875 C252.16976257 85.65872162 252.17546265 84.45025574 252.18133545 83.20516968 C252.19079525 80.64460122 252.1973233 78.08402054 252.20117188 75.5234375 C252.21088002 71.60134706 252.24189617 67.67977991 252.2734375 63.7578125 C252.27996705 61.27344062 252.28521771 58.78906498 252.2890625 56.3046875 C252.3075827 54.54047958 252.3075827 54.54047958 252.32647705 52.7406311 C252.3219754 51.09905533 252.3219754 51.09905533 252.31738281 49.42431641 C252.32102844 48.46216217 252.32467407 47.50000793 252.32843018 46.50869751 C251.8933019 43.48278178 251.07412857 42.13652857 248.9609375 39.953125 C245.98661014 38.96168255 244.03057224 38.82288481 240.92630005 38.81268311 C239.88604675 38.80697296 238.84579346 38.80126282 237.77401733 38.79537964 C236.63316681 38.79426178 235.49231628 38.79314392 234.31689453 38.79199219 C233.11504517 38.78702728 231.9131958 38.78206238 230.67492676 38.77694702 C227.37733695 38.7648385 224.07981055 38.7573804 220.78220606 38.75293636 C218.7216111 38.75000407 216.6610217 38.74589899 214.60042953 38.74143219 C208.15208497 38.72776081 201.70375311 38.71809215 195.25539505 38.7142303 C187.81380853 38.70974898 180.37240563 38.6921963 172.93087494 38.6632297 C167.17706461 38.64161062 161.42330593 38.63152592 155.66945541 38.63018918 C152.23362725 38.62914139 148.7979718 38.62323927 145.36218643 38.60536957 C141.52932055 38.58582201 137.69668409 38.59017877 133.86376953 38.59667969 C132.72696747 38.5874649 131.59016541 38.57825012 130.41891479 38.5687561 C129.37302185 38.57432526 128.32712891 38.57989441 127.24954224 38.58563232 C126.34362902 38.58416576 125.4377158 38.5826992 124.50435066 38.5811882 C121.39322248 39.03614498 119.50110895 40.12987047 116.9609375 41.953125 Z " fill="#2E3167" transform="translate(84.0390625,282.046875)"/>
<path d="M0 0 C2.11908331 0.00282125 4.2381764 0.0012364 6.35725403 -0.00442505 C12.10757168 -0.00729531 17.85580502 0.05150868 23.60563803 0.12131453 C29.61533137 0.18381293 35.62507211 0.18970059 41.63504028 0.2015686 C53.01445185 0.2326545 64.3929031 0.31472169 75.77189171 0.4150635 C88.72690848 0.52682397 101.68197104 0.58181645 114.63734984 0.63201785 C141.28627222 0.73655408 167.93434208 0.91245463 194.58251953 1.13525391 C193.9594531 6.33307225 193.12143311 11.32378638 192.02001953 16.44775391 C187.94074892 37.87739158 189.93544386 60.11273159 196.81298828 80.69384766 C197.58251953 83.13525391 197.58251953 83.13525391 197.58251953 85.13525391 C110.46251953 85.13525391 23.34251953 85.13525391 -66.41748047 85.13525391 C-65.58002728 80.94798795 -64.96581192 78.94533122 -62.93310547 75.42431641 C-62.41683594 74.52132812 -61.90056641 73.61833984 -61.36865234 72.68798828 C-60.52657227 71.23875977 -60.52657227 71.23875977 -59.66748047 69.76025391 C-58.4745892 67.67962961 -57.28188604 65.59889746 -56.08935547 63.51806641 C-55.47769531 62.45620117 -54.86603516 61.39433594 -54.23583984 60.30029297 C-51.43613034 55.4271144 -48.67775995 50.53083597 -45.91748047 45.63525391 C-44.84344362 43.73541148 -43.76922387 41.83567244 -42.69482422 39.93603516 C-40.43339354 35.93546147 -38.17619741 31.93253101 -35.92138672 27.92822266 C-35.34517578 26.90599609 -34.76896484 25.88376953 -34.17529297 24.83056641 C-33.08433511 22.89499602 -31.9944078 20.95884423 -30.90576172 19.02197266 C-30.40560547 18.13509766 -29.90544922 17.24822266 -29.39013672 16.33447266 C-28.74443726 15.18724731 -28.74443726 15.18724731 -28.08569336 14.0168457 C-27.53518311 13.06592041 -26.98467285 12.11499512 -26.41748047 11.13525391 C-26.16746938 10.33368583 -25.91745829 9.53211775 -25.6598711 8.70625973 C-21.16806578 -2.53898098 -10.27772624 -0.19037242 0 0 Z " fill="#2E3167" transform="translate(70.41748046875,134.86474609375)"/>
<path d="M0 0 C24.75 0 49.5 0 75 0 C75 39.93 75 79.86 75 121 C50.25 121 25.5 121 0 121 C0 81.07 0 41.14 0 0 Z " fill="#2F3167" transform="translate(83,336)"/>
<path d="M0 0 C76.89 0 153.78 0 233 0 C231.55008023 3.62479942 230.26526218 6.38541187 228.25 9.625 C224.9222417 14.98232517 222.04206557 20.42287979 219 26 C146.73 26 74.46 26 0 26 C0 17.42 0 8.84 0 0 Z " fill="#2F3168" transform="translate(50,100)"/>
<path d="M0 0 C35.97 0 71.94 0 109 0 C109 12.21 109 24.42 109 37 C73.03 37 37.06 37 0 37 C0 24.79 0 12.58 0 0 Z " fill="#2E3267" transform="translate(213,335)"/>
<path d="M0 0 C24.09 0 48.18 0 73 0 C73.2165625 11.199375 73.2165625 11.199375 73.4375 22.625 C73.50122803 24.97189941 73.56495605 27.31879883 73.63061523 29.73681641 C73.6510698 31.60836998 73.66890493 33.4799548 73.68359375 35.3515625 C73.7373114 36.79535278 73.7373114 36.79535278 73.79211426 38.26831055 C73.79819417 44.97531996 73.79819417 44.97531996 71.49131775 47.93676758 C62.10426611 56.14104779 49.77990971 59.49449774 37.5 59.1875 C25.48837825 58.28662837 14.82967976 54.31304956 6 46 C5.50267365 45.53474915 5.00534729 45.06949829 4.49295044 44.59014893 C0.60978219 40.58557823 -0.68406487 37.80232318 -0.67895508 32.22839355 C-0.64825928 31.42212524 -0.61756348 30.61585693 -0.5859375 29.78515625 C-0.57989502 29.02553589 -0.57385254 28.26591553 -0.56762695 27.48327637 C-0.53649653 24.6757892 -0.45272818 21.86908362 -0.375 19.0625 C-0.25125 12.771875 -0.1275 6.48125 0 0 Z " fill="#2E3168" transform="translate(4,229)"/>
<path d="M0 0 C21.78 0 43.56 0 66 0 C66.309375 11.4159375 66.309375 11.4159375 66.625 23.0625 C66.71604004 25.45250244 66.80708008 27.84250488 66.90087891 30.30493164 C67.23514446 45.22367799 67.23514446 45.22367799 63.93164062 49.97460938 C61.32320678 51.84558024 59.03114049 52.97414208 56 54 C54.95328125 54.50273437 53.9065625 55.00546875 52.828125 55.5234375 C39.00609453 60.08889605 25.46736724 60.66523109 11.87109375 54.60546875 C9.14319702 53.17068951 6.54534151 51.73797108 4 50 C3.29979736 49.52264404 2.59959473 49.04528809 1.87817383 48.5534668 C-1.09854348 44.5064778 -0.49351521 40.43780568 -0.390625 35.546875 C-0.38659668 34.64662598 -0.38256836 33.74637695 -0.37841797 32.81884766 C-0.35752109 29.46235719 -0.30167541 26.10615771 -0.25 22.75 C-0.1675 15.2425 -0.085 7.735 0 0 Z " fill="#2F3167" transform="translate(169,229)"/>
<path d="M0 0 C21.78 0 43.56 0 66 0 C66.226875 7.610625 66.45375 15.22125 66.6875 23.0625 C66.78764404 25.45250244 66.88778809 27.84250488 66.9909668 30.30493164 C67.35837708 45.23799996 67.35837708 45.23799996 63.70678711 49.97460938 C60.81221 51.852914 58.28508727 52.97358017 55 54 C53.06236489 54.79133592 51.12484584 55.58295616 49.1875 56.375 C36.75059538 60.48550237 23.89611407 60.05982263 11.8671875 54.5703125 C9.17686314 53.12829864 6.56938881 51.6471541 4 50 C3.30110657 49.57007248 2.60221313 49.14014496 1.88214111 48.69718933 C0 47 0 47 -0.48101807 44.85493469 C-0.47213562 44.02664658 -0.46325317 43.19835846 -0.45410156 42.3449707 C-0.45361816 41.39110474 -0.45313477 40.43723877 -0.45263672 39.45446777 C-0.43217285 38.45500122 -0.41170898 37.45553467 -0.390625 36.42578125 C-0.38659668 35.50486694 -0.38256836 34.58395264 -0.37841797 33.63513184 C-0.35748493 30.19405198 -0.30163933 26.75325605 -0.25 23.3125 C-0.1675 15.619375 -0.085 7.92625 0 0 Z " fill="#2F3267" transform="translate(90,229)"/>
<path d="M0 0 C3.71125299 -0.22423515 7.42076099 -0.36010309 11.13671875 -0.48046875 C12.18500854 -0.54488159 13.23329834 -0.60929443 14.31335449 -0.67565918 C21.9304234 -0.86085378 21.9304234 -0.86085378 24.96253967 1.57955933 C26.48833522 3.54743923 27.68439767 5.47040877 28.8125 7.6875 C29.24699463 8.52990234 29.68148926 9.37230469 30.12915039 10.24023438 C30.40750732 10.95501953 30.68586426 11.66980469 30.97265625 12.40625 C36.54195703 25.55380692 48.75116158 37.56215154 59.91796875 46.27734375 C60.60503906 46.84582031 61.29210937 47.41429687 62 48 C62 48.66 62 49.32 62 50 C47.34685567 57.89665127 34.55102437 61.56063918 17.9296875 56.984375 C13.36821928 55.45172168 9.10556288 53.51172218 5 51 C4.13858398 50.53166748 3.27716797 50.06333496 2.38964844 49.58081055 C-1.32925834 45.56440643 -0.62351671 41.60740081 -0.48828125 36.328125 C-0.48120651 35.29057068 -0.47413177 34.25301636 -0.46684265 33.184021 C-0.43886641 29.87194552 -0.37611929 26.56156401 -0.3125 23.25 C-0.28742143 21.00393067 -0.26460749 18.75783483 -0.24414062 16.51171875 C-0.1890294 11.00723508 -0.10537061 5.50373855 0 0 Z " fill="#2E3168" transform="translate(249,229)"/>
</svg>
