<?xml version="1.0" encoding="UTF-8"?>
<svg version="1.1" xmlns="http://www.w3.org/2000/svg" width="236" height="352">
<path d="M0 0 C9.9 0 19.8 0 30 0 C30 20.46 30 40.92 30 62 C28.02 62 26.04 62 24 62 C24.99 63.98 25.98 65.96 27 68 C33.87860034 68.14549345 40.75726735 68.28747532 47.63598633 68.42724609 C49.96608035 68.47497882 52.29615926 68.52345619 54.6262207 68.57275391 C58.0150978 68.64431391 61.40402136 68.71310767 64.79296875 68.78125 C65.90469452 68.80493652 67.01642029 68.82862305 68.16183472 68.85302734 C73.53003131 68.95753786 78.88753485 69.00834072 84.25634766 68.92578125 C85.22663406 68.91317261 86.19692047 68.90056396 87.1966095 68.88757324 C89.00927913 68.85911823 90.82181016 68.81794305 92.63383484 68.76184082 C98.55560001 68.67081308 98.55560001 68.67081308 100.72819519 70.28015137 C102.89729538 73.21340336 102.3065974 76.69092248 102.1875 80.1875 C102.17396484 80.93708984 102.16042969 81.68667969 102.14648438 82.45898438 C102.11118539 84.30629767 102.05737917 86.15324066 102 88 C102.75925781 87.94199219 103.51851562 87.88398438 104.30078125 87.82421875 C105.79158203 87.75654297 105.79158203 87.75654297 107.3125 87.6875 C108.29863281 87.62949219 109.28476563 87.57148438 110.30078125 87.51171875 C113 88 113 88 114.6640625 90.0625 C116.35666221 93.7842397 116.25288341 96.41147852 116.07421875 100.48828125 C116.03455742 101.5430793 116.03455742 101.5430793 115.99409485 102.6191864 C115.90676546 104.85119773 115.79747373 107.08150127 115.6875 109.3125 C115.62419559 110.83132024 115.56233109 112.35020123 115.50195312 113.86914062 C115.35129869 117.5802762 115.18094249 121.29020371 115 125 C107.72964213 125.02372032 100.45929327 125.04120572 93.18890381 125.05181217 C89.80885882 125.05691608 86.42886167 125.06437039 83.04882812 125.07543945 C79.11587892 125.08796946 75.18296594 125.09333055 71.25 125.09765625 C70.10273438 125.10281754 68.95546875 125.10797882 67.7734375 125.11329651 C52.82863538 125.11423809 37.95875755 124.46746117 23 124 C23 154.69 23 185.38 23 217 C11.07296218 217 1.34669733 216.61753211 -10 214 C-11.46179688 213.69255859 -11.46179688 213.69255859 -12.953125 213.37890625 C-28.76425739 209.65728006 -43.02701867 199.71076944 -55 189 C-55 188.34 -55 187.68 -55 187 C-55.66 187 -56.32 187 -57 187 C-57 186.34 -57 185.68 -57 185 C-57.66 185 -58.32 185 -59 185 C-77.33968113 165.06556399 -85.01795696 140.08204092 -85.68798828 113.49121094 C-85.75044377 111.10806704 -85.83350879 108.72620448 -85.91796875 106.34375 C-85.96217195 104.81513936 -86.00518388 103.28649371 -86.046875 101.7578125 C-86.07279724 101.05254425 -86.09871948 100.347276 -86.12542725 99.62063599 C-86.20822063 95.60758833 -85.83108253 92.59044063 -84 89 C-82.26043342 87.26043342 -79.8063378 87.62809614 -77.4375 87.4375 C-76.42558594 87.35371094 -75.41367188 87.26992187 -74.37109375 87.18359375 C-73.58863281 87.12300781 -72.80617188 87.06242187 -72 87 C-72.02320313 85.95199219 -72.04640625 84.90398437 -72.0703125 83.82421875 C-72.08907303 82.44531963 -72.10727293 81.0664128 -72.125 79.6875 C-72.14175781 78.99720703 -72.15851563 78.30691406 -72.17578125 77.59570312 C-72.21217794 73.82864604 -72.14378864 72.21568296 -70 69 C-67.47021484 68.67529297 -67.47021484 68.67529297 -64.2109375 68.7421875 C-62.97746582 68.75725342 -61.74399414 68.77231934 -60.47314453 68.7878418 C-59.47374847 68.8095192 -59.47374847 68.8095192 -58.4541626 68.83163452 C-54.87083516 68.90637264 -51.28708688 68.92438229 -47.703125 68.94921875 C-46.55440414 68.95883385 -46.55440414 68.95883385 -45.38247681 68.96864319 C-36.52804817 69.03239743 -27.67804156 68.92132981 -18.82550049 68.73956299 C-17.02478209 68.70484691 -15.22394101 68.67599989 -13.42303467 68.65301514 C-10.88829737 68.62007519 -8.35461636 68.56835275 -5.8203125 68.51171875 C-5.05716736 68.5053389 -4.29402222 68.49895905 -3.50775146 68.49238586 C-1.17166179 68.46086108 -1.17166179 68.46086108 2 68 C2.99 66.515 2.99 66.515 4 65 C4.66 65 5.32 65 6 65 C6 64.01 6 63.02 6 62 C4.02 62 2.04 62 0 62 C0 41.54 0 21.08 0 0 Z M-69 124 C-67.3192584 134.28912202 -67.3192584 134.28912202 -64.5625 144.0625 C-63.94568359 145.93615234 -63.94568359 145.93615234 -63.31640625 147.84765625 C-62.06881706 150.83520663 -61.52207536 152.11106119 -59 154 C-56.38845909 154.4137098 -56.38845909 154.4137098 -53.45703125 154.29296875 C-52.38388672 154.28330078 -51.31074219 154.27363281 -50.20507812 154.26367188 C-49.08552734 154.23853516 -47.96597656 154.21339844 -46.8125 154.1875 C-45.11577148 154.16719727 -45.11577148 154.16719727 -43.38476562 154.14648438 C-40.58936683 154.11109958 -37.79492108 154.06172948 -35 154 C-35.1431665 153.1352002 -35.28633301 152.27040039 -35.43383789 151.37939453 C-36.56233745 144.50774577 -37.31233451 137.73303459 -37.65625 130.77734375 C-37.8829631 127.67746932 -37.8829631 127.67746932 -40 124 C-49.57 124 -59.14 124 -69 124 Z M-23 124 C-23.0917183 139.93437524 -23.0917183 139.93437524 -18 154 C-16.23140807 154.09946453 -14.45888549 154.13080217 -12.6875 154.1328125 C-11.61242187 154.13410156 -10.53734375 154.13539063 -9.4296875 154.13671875 C-8.29789063 154.13285156 -7.16609375 154.12898438 -6 154.125 C-4.86820313 154.12886719 -3.73640625 154.13273437 -2.5703125 154.13671875 C-1.49523437 154.13542969 -0.42015625 154.13414062 0.6875 154.1328125 C1.68136719 154.13168457 2.67523438 154.13055664 3.69921875 154.12939453 C5.96375226 154.2583433 5.96375226 154.2583433 7 153 C7.08775605 150.85441173 7.10695219 148.70595579 7.09765625 146.55859375 C7.09515869 145.38353271 7.09266113 144.20847168 7.09008789 142.99780273 C7.08098389 141.49290283 7.07187988 139.98800293 7.0625 138.4375 C7.0315625 131.2909375 7.0315625 131.2909375 7 124 C-2.9 124 -12.8 124 -23 124 Z M-49 170 C-41.84629635 179.08713707 -32.73960329 185.86765719 -23 192 C-22.34 191.67 -21.68 191.34 -21 191 C-22.29107084 188.24971886 -23.58283341 185.49976627 -24.875 182.75 C-25.23980469 181.97269531 -25.60460937 181.19539062 -25.98046875 180.39453125 C-26.51220703 179.26337891 -26.51220703 179.26337891 -27.0546875 178.109375 C-27.37937012 177.41811523 -27.70405273 176.72685547 -28.03857422 176.01464844 C-29.00104672 173.99780661 -30.00059975 171.9988005 -31 170 C-36.94 170 -42.88 170 -49 170 Z M-14 170 C-6.61366651 186.61098611 -6.61366651 186.61098611 7 198 C7 188.76 7 179.52 7 170 C0.07 170 -6.86 170 -14 170 Z " fill="#34376C" transform="translate(101,112)"/>
<path d="M0 0 C6.1977744 0.09231901 10.58937569 3.86581067 15.4921875 7.30078125 C17.55197849 8.69478947 19.61319052 10.08670015 21.67578125 11.4765625 C22.68753418 12.16443848 23.69928711 12.85231445 24.74169922 13.56103516 C28.61122624 16.15451846 32.56224181 18.58996143 36.5546875 20.98828125 C43.6177151 25.25556064 50.62582394 29.60454591 57.6171875 33.98828125 C65.7715832 39.09887922 73.94897218 44.16758778 82.17382812 49.1640625 C90.53406513 54.24530816 90.53406513 54.24530816 91.328125 56.56640625 C91.71735294 60.50076436 91.50781998 64.30027981 91.2421875 68.23828125 C91.17644531 69.40810547 91.17644531 69.40810547 91.109375 70.6015625 C90.74907236 76.35639639 90.74907236 76.35639639 89.6171875 77.48828125 C87.32858531 77.58758669 85.03684933 77.61460581 82.74609375 77.61526489 C82.01907257 77.61682488 81.29205139 77.61838487 80.54299927 77.61999214 C78.08854185 77.62400472 75.63414546 77.62081151 73.1796875 77.61767578 C71.42748986 77.61902971 69.67529251 77.62080959 67.9230957 77.62298584 C63.15050566 77.6275612 58.37793712 77.62577019 53.60534668 77.62260675 C48.62231384 77.62008368 43.63928291 77.62242054 38.65625 77.62399292 C30.28645495 77.62581477 21.91666871 77.6234079 13.546875 77.61865234 C3.85558364 77.61320969 -5.83568669 77.61497234 -15.52697754 77.62047875 C-23.83182964 77.62500944 -32.13667539 77.62566064 -40.44152832 77.62304008 C-45.40861354 77.62147706 -50.37568885 77.62128421 -55.34277344 77.62457657 C-60.01137278 77.62745465 -64.67994488 77.62548076 -69.34854126 77.61968231 C-71.06710769 77.61835437 -72.7856764 77.6187494 -74.50424194 77.62094498 C-76.84009904 77.62365516 -79.17586739 77.620277 -81.51171875 77.61526489 C-82.82213135 77.61488787 -84.13254395 77.61451084 -85.48266602 77.61412239 C-88.3828125 77.48828125 -88.3828125 77.48828125 -89.3828125 76.48828125 C-90.83096984 69.38301018 -91.48104914 61.49421334 -89.3828125 54.48828125 C-85.63360105 49.55125087 -79.55195384 47.31907806 -74.05712891 44.80712891 C-69.37770055 42.4994539 -65.13728878 39.52866835 -60.8203125 36.61328125 C-55.48480466 33.0685232 -50.12267351 29.72584479 -44.49780273 26.65917969 C-41.32459872 24.90243417 -38.26037547 22.98836091 -35.1953125 21.05078125 C-34.21292603 20.4331189 -34.21292603 20.4331189 -33.21069336 19.80297852 C-30.93251873 18.36822324 -28.65744687 16.9286425 -26.3828125 15.48828125 C-24.96645508 14.59254395 -24.96645508 14.59254395 -23.52148438 13.67871094 C-20.49467608 11.76329357 -17.46960792 9.84516349 -14.4453125 7.92578125 C-13.46731689 7.30582275 -12.48932129 6.68586426 -11.48168945 6.04711914 C-10.57378662 5.46953857 -9.66588379 4.89195801 -8.73046875 4.296875 C-7.50855835 3.52041626 -7.50855835 3.52041626 -6.26196289 2.72827148 C-2.72303447 0.3930477 -2.72303447 0.3930477 0 0 Z M-12.3203125 35.55078125 C-15.98643893 40.77223404 -16.27481492 45.18479751 -15.3828125 51.48828125 C-13.30392234 55.90502367 -10.48385529 58.72233844 -6.5078125 61.48828125 C-1.34895269 63.13911639 2.68749987 63.16934747 7.8046875 61.36328125 C11.68915428 58.77363673 14.50375771 55.71514084 16.6171875 51.48828125 C16.73926621 49.69968614 16.79267198 47.90599744 16.8046875 46.11328125 C16.81886719 45.15679687 16.83304688 44.2003125 16.84765625 43.21484375 C16.61464322 40.45818108 16.02638914 38.8388073 14.6171875 36.48828125 C13.9571875 36.48828125 13.2971875 36.48828125 12.6171875 36.48828125 C12.4315625 35.89015625 12.2459375 35.29203125 12.0546875 34.67578125 C9.89032091 31.38217992 7.27958244 30.72977106 3.6171875 29.48828125 C-2.35783217 28.56904746 -8.45613132 30.96976646 -12.3203125 35.55078125 Z " fill="#33366B" transform="translate(115.3828125,27.51171875)"/>
<path d="M0 0 C1.60498065 1.60498065 1.32440643 3.27925351 1.4375 5.5 C1.38478888 11.63205993 -1.02858847 15.46923473 -5 20 C-6.66666667 21.33333333 -8.33333333 22.66666667 -10 24 C-11.47711159 28.47749451 -10.75914081 32.82422921 -10.1875 37.40625 C-10.0949292 38.20857056 -10.0023584 39.01089111 -9.90698242 39.83752441 C-9.61199793 42.39260706 -9.30722627 44.9463622 -9 47.5 C-8.59532526 50.86362091 -8.20081258 54.22820534 -7.8125 57.59375 C-7.66880981 58.7455072 -7.66880981 58.7455072 -7.5222168 59.92053223 C-6.93781369 64.99636963 -6.69816595 68.90574522 -9.4375 73.3125 C-9.953125 73.869375 -10.46875 74.42625 -11 75 C-11.66 75 -12.32 75 -13 75 C-13.495 76.485 -13.495 76.485 -14 78 C-14.99 78 -15.98 78 -17 78 C-18.57247211 73.49967304 -20.13888352 68.99730019 -21.69970703 64.49291992 C-22.23157201 62.96076587 -22.76509085 61.4291849 -23.30029297 59.89819336 C-24.06913435 57.69793764 -24.83201147 55.49569199 -25.59375 53.29296875 C-25.83436157 52.60849167 -26.07497314 51.92401459 -26.32287598 51.21879578 C-27.31225239 48.34162782 -28 46.06690063 -28 43 C-32.41190596 46.5634625 -36.21827514 50.22422771 -39.73828125 54.6796875 C-40.15464844 55.11539063 -40.57101563 55.55109375 -41 56 C-41.66 56 -42.32 56 -43 56 C-43 56.66 -43 57.32 -43 58 C-43.66 58 -44.32 58 -45 58 C-45 58.66 -45 59.32 -45 60 C-45.66 60 -46.32 60 -47 60 C-47.04898438 61.13179688 -47.09796875 62.26359375 -47.1484375 63.4296875 C-47.22346514 64.91148339 -47.29901297 66.393253 -47.375 67.875 C-47.42140625 68.99455078 -47.42140625 68.99455078 -47.46875 70.13671875 C-47.7734375 75.7734375 -47.7734375 75.7734375 -50 78 C-50.99 78 -51.98 78 -53 78 C-54.17154293 75.71070947 -55.33738074 73.41881638 -56.5 71.125 C-56.83386719 70.47402344 -57.16773438 69.82304687 -57.51171875 69.15234375 C-60 64.2265625 -60 64.2265625 -60 62 C-61.1446875 61.6596875 -61.1446875 61.6596875 -62.3125 61.3125 C-65.54197812 60.16302474 -68.66735001 58.92212213 -71.8125 57.5625 C-73.24529297 56.94568359 -73.24529297 56.94568359 -74.70703125 56.31640625 C-77 55 -77 55 -78 52 C-76.9140625 50.4765625 -76.9140625 50.4765625 -75 49 C-72.78905304 49.06383311 -70.57995852 49.20030307 -68.375 49.375 C-61.4400652 49.47071969 -57.79920196 46.69019587 -52.92041016 41.95361328 C-46.79418266 35.97701884 -46.79418266 35.97701884 -42 29 C-43.42505859 28.85884766 -43.42505859 28.85884766 -44.87890625 28.71484375 C-49.79367287 28.01167498 -54.29670173 26.27190131 -58.9375 24.5625 C-64.91603162 22.37743004 -70.79336151 20.43119474 -77 19 C-76.25912096 15.2956048 -74.89313903 12.83077677 -72.09863281 10.1887207 C-63.64121382 5.39821662 -47.97430196 9.89106944 -38.7578125 11.02148438 C-37.56929687 11.16005859 -36.38078125 11.29863281 -35.15625 11.44140625 C-33.56006836 11.63778687 -33.56006836 11.63778687 -31.93164062 11.83813477 C-27.82041371 12.06512872 -25.05607069 11.83216878 -21.7890625 9.2578125 C-20.71785156 8.20207031 -20.71785156 8.20207031 -19.625 7.125 C-13.38856082 1.37304452 -8.53636199 -0.58871462 0 0 Z " fill="#3C3F71" transform="translate(215,250)"/>
<path d="M0 0 C9.9 0 19.8 0 30 0 C30 20.46 30 40.92 30 62 C20.1 62 10.2 62 0 62 C0 41.54 0 21.08 0 0 Z " fill="#35386C" transform="translate(158,112)"/>
<path d="M0 0 C9.9 0 19.8 0 30 0 C30 20.46 30 40.92 30 62 C20.1 62 10.2 62 0 62 C0 41.54 0 21.08 0 0 Z " fill="#36386D" transform="translate(44,112)"/>
<path d="M0 0 C-1.00313062 2.23775292 -1.84476835 3.8507388 -3.625 5.5625 C-5.34561132 7.02978279 -5.34561132 7.02978279 -5 10 C-6.32 10 -7.64 10 -9 10 C-8.42110619 6.71245489 -7.45171589 5.06327505 -5.0625 2.75 C-4.53785156 2.22921875 -4.01320312 1.7084375 -3.47265625 1.171875 C-2 0 -2 0 0 0 Z " fill="#9596B2" transform="translate(147,259)"/>
</svg>
