<?xml version="1.0" encoding="UTF-8"?>
<svg version="1.1" xmlns="http://www.w3.org/2000/svg" width="512" height="512">
<path d="M0 0 C9.03472322 6.68049754 16.28839475 15.17487356 18.43359375 26.45703125 C19.91559653 45.68072449 14.48344344 62.30260412 2.3125 77.44140625 C-0.63356613 80.6018431 -3.97393135 83.07759983 -7.56640625 85.45703125 C-3.4528851 84.73999545 0.51898903 83.92979862 4.43359375 82.45703125 C6.15980254 79.6132847 6.15980254 79.6132847 6.43359375 76.45703125 C7.62109375 74.08203125 7.62109375 74.08203125 9.43359375 72.45703125 C12.99609375 72.08203125 12.99609375 72.08203125 16.43359375 72.45703125 C18.43359375 74.45703125 18.43359375 74.45703125 18.43359375 78.45703125 C19.50609375 78.49828125 20.57859375 78.53953125 21.68359375 78.58203125 C32.71713084 80.04407238 41.69948431 86.92556164 48.43359375 95.45703125 C55.66114425 107.09308765 56.72765688 117.54115059 56.62890625 130.89453125 C56.62517022 132.38525197 56.62232604 133.87597516 56.62033081 135.36669922 C56.61274078 139.26620413 56.59313279 143.16555706 56.57092285 147.06500244 C56.55036397 151.05373072 56.54130774 155.04248386 56.53125 159.03125 C56.50988192 166.83991259 56.47580281 174.64845052 56.43359375 182.45703125 C57.34854614 182.43346558 57.34854614 182.43346558 58.28198242 182.40942383 C61.06159085 182.34683312 63.84105067 182.30796503 66.62109375 182.26953125 C67.58080078 182.24439453 68.54050781 182.21925781 69.52929688 182.19335938 C78.50775818 182.10015735 78.50775818 182.10015735 82.43359375 185.45703125 C84.05994101 188.70972576 83.61812846 192.26181625 83.62109375 195.83203125 C83.63333984 196.6003125 83.64558594 197.36859375 83.65820312 198.16015625 C83.67782423 205.72082232 83.67782423 205.72082232 81.43359375 208.45703125 C76.43359375 210.45703125 76.43359375 210.45703125 58.43359375 210.45703125 C58.43359375 224.64703125 58.43359375 238.83703125 58.43359375 253.45703125 C48.53359375 253.45703125 38.63359375 253.45703125 28.43359375 253.45703125 C28.43359375 239.26703125 28.43359375 225.07703125 28.43359375 210.45703125 C-81.12640625 210.45703125 -190.68640625 210.45703125 -303.56640625 210.45703125 C-303.56640625 222.99703125 -303.56640625 235.53703125 -303.56640625 248.45703125 C-313.46640625 248.45703125 -323.36640625 248.45703125 -333.56640625 248.45703125 C-333.56640625 235.91703125 -333.56640625 223.37703125 -333.56640625 210.45703125 C-338.51640625 210.45703125 -343.46640625 210.45703125 -348.56640625 210.45703125 C-353.56640625 208.45703125 -353.56640625 208.45703125 -354.86328125 206.83203125 C-355.88344849 203.38613301 -355.85509424 200.01632677 -355.81640625 196.45703125 C-355.82800781 195.3896875 -355.82800781 195.3896875 -355.83984375 194.30078125 C-355.81415461 187.41609239 -355.81415461 187.41609239 -353.56640625 184.45703125 C-350.5520882 182.61471819 -348.30520869 182.21112371 -344.79785156 182.22998047 C-343.38684174 182.23020706 -343.38684174 182.23020706 -341.94732666 182.23043823 C-340.43619293 182.24592209 -340.43619293 182.24592209 -338.89453125 182.26171875 C-337.33819977 182.26596359 -337.33819977 182.26596359 -335.75042725 182.27029419 C-332.43896924 182.2814826 -329.12778241 182.30658498 -325.81640625 182.33203125 C-323.57031641 182.34206277 -321.32422232 182.35118832 -319.078125 182.359375 C-313.5740304 182.37971533 -308.07052163 182.41886712 -302.56640625 182.45703125 C-302.56640625 174.20703125 -302.56640625 165.95703125 -302.56640625 157.45703125 C-306.19640625 157.12703125 -309.82640625 156.79703125 -313.56640625 156.45703125 C-325.76735271 153.44282105 -336.56250858 148.01553171 -346.56640625 140.45703125 C-347.89671875 141.44703125 -347.89671875 141.44703125 -349.25390625 142.45703125 C-352.55093606 144.44769076 -353.84404994 145.16126082 -357.56640625 144.45703125 C-359.44140625 143.39453125 -359.44140625 143.39453125 -360.56640625 141.45703125 C-360.34692982 135.57960068 -358.91445217 133.10105818 -354.65625 129.13671875 C-354.16935196 128.67016876 -353.68245392 128.20361877 -353.18080139 127.72293091 C-351.63555724 126.24395022 -350.07233291 124.78637736 -348.50390625 123.33203125 C-346.93294314 121.86965119 -345.36736533 120.40319042 -343.81629944 118.91970825 C-342.41306244 117.57799237 -340.9919789 116.25501544 -339.57006836 114.93310547 C-337.36099949 112.63641009 -337.36099949 112.63641009 -337.19018555 109.81152344 C-337.68284972 106.72829615 -338.91101274 104.5486628 -340.44140625 101.83203125 C-346.20645002 90.65629628 -346.8067639 79.27589364 -343.70703125 67.07421875 C-342.44111827 63.11093734 -341.18260024 59.47570132 -339.0234375 55.90625 C-337.60950169 53.52947318 -336.8622341 51.4829431 -336.12890625 48.83203125 C-335.26673213 46.17952619 -334.72400325 44.63797596 -332.87890625 42.51953125 C-330.25987735 41.31619365 -327.63924067 40.73452099 -324.83203125 40.12109375 C-322.23606716 39.36020772 -320.07255281 38.23745912 -317.69140625 36.95703125 C-306.21075298 31.01513589 -293.96447595 31.42627065 -281.65234375 34.453125 C-277.91112115 35.67020628 -274.81103468 37.36107286 -271.56640625 39.56640625 C-268.77842634 40.80792855 -267.46452946 40.37356338 -264.56640625 39.45703125 C-262.08080801 37.42505868 -262.08080801 37.42505868 -259.73046875 34.80078125 C-258.38082031 33.39119141 -258.38082031 33.39119141 -257.00390625 31.953125 C-255.59453753 30.45689755 -254.19051823 28.95607475 -252.79199219 27.44970703 C-251.43085241 25.99147963 -250.04957849 24.55212911 -248.66796875 23.11328125 C-247.85666504 22.24509766 -247.04536133 21.37691406 -246.20947266 20.48242188 C-242.95144799 17.98578668 -240.62742599 17.63237027 -236.56640625 17.45703125 C-234.62890625 18.51953125 -234.62890625 18.51953125 -233.56640625 20.45703125 C-232.9580147 24.45503289 -233.23389322 25.97904377 -235.56640625 29.33203125 C-236.22640625 30.03328125 -236.88640625 30.73453125 -237.56640625 31.45703125 C-237.13070312 31.95589844 -236.695 32.45476562 -236.24609375 32.96875 C-221.71279298 50.49050006 -218.84982384 71.44946809 -220.56640625 93.45703125 C-222.31693945 107.37793815 -229.25321826 121.08380561 -238.56640625 131.45703125 C-239.283125 132.2665625 -239.99984375 133.07609375 -240.73828125 133.91015625 C-252.9234869 146.89178057 -268.74397693 155.32089035 -286.56640625 157.45703125 C-288.21640625 157.45703125 -289.86640625 157.45703125 -291.56640625 157.45703125 C-291.56640625 165.70703125 -291.56640625 173.95703125 -291.56640625 182.45703125 C-244.04640625 182.45703125 -196.52640625 182.45703125 -147.56640625 182.45703125 C-147.56640625 174.20703125 -147.56640625 165.95703125 -147.56640625 157.45703125 C-153.25310547 157.52664063 -153.25310547 157.52664063 -159.0546875 157.59765625 C-162.71832947 157.62883321 -166.38195678 157.65313172 -170.0456543 157.67675781 C-172.59585157 157.69689822 -175.14600253 157.72421222 -177.69604492 157.75878906 C-181.35737522 157.80719864 -185.01809607 157.82997599 -188.6796875 157.84765625 C-190.39542717 157.87862396 -190.39542717 157.87862396 -192.14582825 157.91021729 C-193.20670151 157.91051941 -194.26757477 157.91082153 -195.3605957 157.91113281 C-196.29547318 157.92001526 -197.23035065 157.92889771 -198.19355774 157.93804932 C-200.56640625 157.45703125 -200.56640625 157.45703125 -202.36750793 155.9866333 C-204.1647469 152.1945691 -203.98425717 148.67674493 -203.95458984 144.52929688 C-203.96247528 143.17743538 -203.96247528 143.17743538 -203.97052002 141.79826355 C-203.98372172 138.81975972 -203.97498125 135.8417905 -203.96484375 132.86328125 C-203.96686443 130.79349668 -203.96977582 128.7237128 -203.97354126 126.65393066 C-203.97796485 122.31625591 -203.97153235 117.97876649 -203.95751953 113.64111328 C-203.94042773 108.07905576 -203.95026871 102.51743252 -203.96823692 96.95539093 C-203.97907375 92.68146488 -203.97562886 88.40764191 -203.96785355 84.13371277 C-203.96585127 82.08277841 -203.96831179 80.03183471 -203.97529221 77.98091125 C-203.98290491 75.11527693 -203.97130484 72.25034741 -203.95458984 69.38476562 C-203.96066254 68.53581223 -203.96673523 67.68685883 -203.97299194 66.81217957 C-203.96030273 65.63882805 -203.96030273 65.63882805 -203.94735718 64.44177246 C-203.9462261 63.76484093 -203.94509502 63.08790939 -203.94392967 62.39046478 C-203.41902796 59.7022539 -202.51152717 58.37965415 -200.56640625 56.45703125 C-198.19100189 55.95366669 -198.19100189 55.95366669 -195.32849121 55.94909668 C-194.24327682 55.93781738 -193.15806244 55.92653809 -192.03996277 55.91491699 C-190.84921646 55.92301392 -189.65847015 55.93111084 -188.43164062 55.93945312 C-187.17781082 55.93244385 -185.92398102 55.92543457 -184.63215637 55.91821289 C-181.19182178 55.90360743 -177.75244734 55.90705342 -174.31216621 55.91972923 C-170.714079 55.929848 -167.11603314 55.9204667 -163.51794434 55.91418457 C-157.47526675 55.90690484 -151.43278464 55.91650423 -145.39013672 55.93554688 C-138.4014124 55.95731646 -131.41315482 55.9502653 -124.42444181 55.92824125 C-118.42689118 55.91009635 -112.42948115 55.9075244 -106.43191195 55.91799593 C-102.84858835 55.92423596 -99.26548423 55.92505278 -95.68217468 55.91184998 C-91.68832214 55.89816273 -87.69499348 55.91712649 -83.70117188 55.93945312 C-82.51042557 55.9313562 -81.31967926 55.92325928 -80.09284973 55.91491699 C-79.00763535 55.92619629 -77.92242096 55.93747559 -76.80432129 55.94909668 C-75.85969276 55.95060478 -74.91506424 55.95211288 -73.94181061 55.95366669 C-71.56640625 56.45703125 -71.56640625 56.45703125 -69.76605988 58.35712433 C-68.43685808 60.68379595 -68.14970916 62.12454981 -68.0546875 64.78515625 C-68.00151367 65.98398437 -68.00151367 65.98398437 -67.94726562 67.20703125 C-67.92470703 68.03203125 -67.90214844 68.85703125 -67.87890625 69.70703125 C-67.84474609 70.5475 -67.81058594 71.38796875 -67.77539062 72.25390625 C-67.69317057 74.32115329 -67.62810468 76.38906999 -67.56640625 78.45703125 C-66.24640625 78.45703125 -64.92640625 78.45703125 -63.56640625 78.45703125 C-63.10234375 77.25046875 -63.10234375 77.25046875 -62.62890625 76.01953125 C-61.56640625 73.45703125 -61.56640625 73.45703125 -60.56640625 72.45703125 C-55.25871394 71.99549279 -55.25871394 71.99549279 -52.87890625 73.58203125 C-51.56640625 75.45703125 -51.56640625 75.45703125 -50.56640625 78.39453125 C-47.47356184 83.13044926 -42.83423751 83.93660457 -37.56640625 85.45703125 C-38.26765625 84.88597656 -38.96890625 84.31492187 -39.69140625 83.7265625 C-53.60125343 71.83893495 -61.96289001 55.54946207 -63.78515625 37.26171875 C-64.30202118 25.24460918 -59.89578928 14.48636958 -51.90625 5.61328125 C-38.01413052 -7.26073964 -16.2974338 -9.79830495 0 0 Z M-249.8515625 41.64453125 C-250.76808594 42.57265625 -251.68460937 43.50078125 -252.62890625 44.45703125 C-254.00755859 45.84921875 -254.00755859 45.84921875 -255.4140625 47.26953125 C-256.12433594 47.99140625 -256.83460938 48.71328125 -257.56640625 49.45703125 C-256.54582762 53.45429755 -255.34323774 57.04348909 -253.56640625 60.76953125 C-248.04540075 72.94458442 -248.30599765 85.92740439 -252.56640625 98.45703125 C-253.77031108 101.07306344 -255.07125696 103.600483 -256.44140625 106.1328125 C-257.54432981 108.41142194 -258.12478682 110.42344584 -258.62890625 112.89453125 C-259.56640625 116.45703125 -259.56640625 116.45703125 -261.19140625 118.33203125 C-263.86666114 119.59925725 -266.53978141 120.22306862 -269.421875 120.859375 C-271.68210054 121.48927392 -273.55504622 122.36573791 -275.62890625 123.45703125 C-286.53335998 129.1197688 -299.81011061 129.91025125 -311.56640625 126.45703125 C-314.76466959 125.0043261 -317.82196202 123.4355043 -320.875 121.69921875 C-323.86378231 120.31978076 -325.33448779 119.81674552 -328.56640625 120.45703125 C-331.34567351 122.63097669 -331.34567351 122.63097669 -333.87890625 125.45703125 C-334.76191406 126.38515625 -335.64492188 127.31328125 -336.5546875 128.26953125 C-337.55048828 129.35234375 -337.55048828 129.35234375 -338.56640625 130.45703125 C-329.1080448 140.78492311 -313.92832431 145.68192536 -300.21875 146.6171875 C-282.68586241 147.21108502 -266.06795184 141.07601089 -252.8046875 129.640625 C-239.22603422 116.39373637 -231.66595078 99.92262313 -231.06640625 80.95703125 C-231.53436978 66.15378503 -236.04164406 50.28250094 -246.56640625 39.45703125 C-247.97324387 39.34178076 -247.97324387 39.34178076 -249.8515625 41.64453125 Z M-124.56640625 157.45703125 C-124.56640625 165.70703125 -124.56640625 173.95703125 -124.56640625 182.45703125 C-116.97640625 182.45703125 -109.38640625 182.45703125 -101.56640625 182.45703125 C-101.56640625 174.20703125 -101.56640625 165.95703125 -101.56640625 157.45703125 C-109.15640625 157.45703125 -116.74640625 157.45703125 -124.56640625 157.45703125 Z " fill="#2F3268" transform="translate(394.56640625,221.54296875)"/>
<path d="M0 0 C2 3 2 3 1.8125 6.0625 C1 9 1 9 -2 11 C-2.21270328 13.75829454 -2.21270328 13.75829454 -1.9375 16.9375 C-1.74450355 26.65165452 -4.27541047 33.99249619 -11.015625 41.03515625 C-11.67046875 41.68355469 -12.3253125 42.33195312 -13 43 C-13.71671875 43.74121094 -14.4334375 44.48242188 -15.171875 45.24609375 C-19.90588301 50.08620884 -24.84396307 54.61632488 -30 59 C-31.33337249 60.14578777 -32.66670802 61.29161854 -34 62.4375 C-34.99 63.283125 -35.98 64.12875 -37 65 C-34.97572037 72.19345275 -32.49802427 79.10746626 -29.734375 86.046875 C-28.91864246 88.12866014 -28.10355702 90.21069893 -27.2890625 92.29296875 C-26.01602451 95.5367011 -24.73866684 98.77847765 -23.45019531 102.01611328 C-22.19849252 105.16722991 -20.96507731 108.32500803 -19.734375 111.484375 C-19.15015778 112.93296906 -19.15015778 112.93296906 -18.55413818 114.41082764 C-16.23855191 120.40662044 -15.41596077 124.22607387 -17.98046875 130.3359375 C-21.19421129 135.76497829 -21.19421129 135.76497829 -25 136.875 C-31.73086294 134.91183164 -35.8949901 125.88361487 -39.61328125 120.296875 C-40.22769577 119.37787415 -40.84211029 118.45887329 -41.47514343 117.51202393 C-42.76519794 115.58014007 -44.05348233 113.64707314 -45.34008789 111.71289062 C-47.31777769 108.74207204 -49.3040591 105.77712639 -51.29101562 102.8125 C-52.54479273 100.93263964 -53.79806595 99.0524431 -55.05078125 97.171875 C-55.6475618 96.28232117 -56.24434235 95.39276733 -56.85920715 94.47625732 C-57.40364975 93.65490295 -57.94809235 92.83354858 -58.5090332 91.98730469 C-58.99136917 91.26371765 -59.47370514 90.54013062 -59.97065735 89.7946167 C-61 88 -61 88 -61 86 C-67.45038248 90.04428743 -73.40358533 94.59196204 -79.30126953 99.3918457 C-83.78917253 103 -83.78917253 103 -86 103 C-85.75241943 103.71542969 -85.50483887 104.43085938 -85.24975586 105.16796875 C-84.12840986 108.4396855 -83.0328328 111.7194874 -81.9375 115 C-81.54755859 116.12535156 -81.15761719 117.25070313 -80.75585938 118.41015625 C-78.28412017 125.89099525 -77.20305655 130.90056587 -79.8671875 138.4609375 C-80.19976562 139.09257812 -80.53234375 139.72421875 -80.875 140.375 C-81.20242187 141.02210938 -81.52984375 141.66921875 -81.8671875 142.3359375 C-83 144 -83 144 -86 146 C-89.4375 145.9375 -89.4375 145.9375 -93 145 C-97.0799594 140.723313 -99.82337192 135.40913447 -102.75 130.3125 C-103.25660156 129.44560547 -103.76320312 128.57871094 -104.28515625 127.68554688 C-104.76339844 126.85732422 -105.24164063 126.02910156 -105.734375 125.17578125 C-106.16975586 124.42208252 -106.60513672 123.66838379 -107.05371094 122.8918457 C-108 121 -108 121 -108 119 C-108.99 119.495 -109.98 119.99 -111 120.5 C-115.13477234 122.30103581 -118.53198453 122.23515871 -123 122 C-123.36263859 116.1977825 -122.25684543 112.36000789 -120 107 C-120.73138184 106.72075684 -121.46276367 106.44151367 -122.21630859 106.15380859 C-126.56500479 104.35132322 -130.55066846 101.97082725 -134.625 99.625 C-135.48351562 99.14289063 -136.34203125 98.66078125 -137.2265625 98.1640625 C-138.0515625 97.6896875 -138.8765625 97.2153125 -139.7265625 96.7265625 C-140.47502441 96.29939941 -141.22348633 95.87223633 -141.99462891 95.43212891 C-144.23456234 93.8324881 -145.57469827 92.35126498 -147 90 C-146.87488832 86.93476377 -146.71432447 84.86865383 -144.734375 82.4609375 C-142.71116065 80.75669838 -140.80018552 79.74611273 -138.375 78.6875 C-137.18003906 78.13642578 -137.18003906 78.13642578 -135.9609375 77.57421875 C-128.72440918 76.17082869 -120.77812524 79.9067057 -113.9375 82.125 C-113.07189453 82.40214844 -112.20628906 82.67929688 -111.31445312 82.96484375 C-109.2084686 83.63968962 -107.10371313 84.31811341 -105 85 C-102.93559136 82.3139614 -100.87383022 79.62590155 -98.8125 76.9375 C-98.23435547 76.18533203 -97.65621094 75.43316406 -97.06054688 74.65820312 C-93.61736525 70.16455931 -90.26254823 65.62655144 -87 61 C-87.56058105 60.63463135 -88.12116211 60.2692627 -88.69873047 59.89282227 C-89.49682129 59.37260498 -90.29491211 58.8523877 -91.1171875 58.31640625 C-92.02259277 57.72666016 -92.92799805 57.13691406 -93.86083984 56.52929688 C-95.8917275 55.20410402 -97.9206629 53.87591505 -99.94775391 52.54492188 C-105.08564527 49.17647932 -110.23398897 45.83648542 -115.45553589 42.59886169 C-117.85433431 41.10888009 -120.24228029 39.60198983 -122.62945557 38.09347534 C-123.78889546 37.36715815 -124.95342646 36.64890267 -126.12298584 35.93899536 C-135.29681878 30.36367893 -135.29681878 30.36367893 -137.01757812 27.02661133 C-137.3671875 25.14453125 -137.3671875 25.14453125 -137 22 C-134.75 19.6875 -134.75 19.6875 -132 18 C-131.01 17.34 -130.02 16.68 -129 16 C-121.86147802 15.24820782 -116.32473014 17.33428906 -109.7109375 19.8671875 C-108.64888092 20.26197296 -107.58682434 20.65675842 -106.49258423 21.06350708 C-103.11535788 22.32183915 -99.74518131 23.59793444 -96.375 24.875 C-94.10201808 25.72647755 -91.82858456 26.57675062 -89.5546875 27.42578125 C-86.34992197 28.62252528 -83.14591964 29.82095538 -79.94540405 31.02902222 C-75.32222204 32.77334041 -70.70646378 34.48951648 -66 36 C-63.64351776 33.50217427 -61.29025984 31.00133185 -58.9375 28.5 C-58.28072266 27.80390625 -57.62394531 27.1078125 -56.94726562 26.390625 C-53.07733432 22.27286558 -49.2942128 18.09909059 -45.60620117 13.81738281 C-39.06849311 6.42010377 -32.81824052 2.84374793 -23 1 C-19.84824444 0.84093252 -16.80449212 0.85576011 -13.65625 1.0546875 C-8.33809775 0.94519613 -5.54170074 -1.60093577 0 0 Z " fill="#2E3167" transform="translate(186,82)"/>
<path d="M0 0 C9.03472322 6.68049754 16.28839475 15.17487356 18.43359375 26.45703125 C19.91559653 45.68072449 14.48344344 62.30260412 2.3125 77.44140625 C-0.66306027 80.63348337 -3.96988229 82.9962517 -7.56640625 85.45703125 C-3.60640625 84.46703125 0.35359375 83.47703125 4.43359375 82.45703125 C3.16005017 86.52255982 1.65064939 90.25182591 -0.28125 94.046875 C-0.80267578 95.07876953 -1.32410156 96.11066406 -1.86132812 97.17382812 C-2.40337891 98.23666016 -2.94542969 99.29949219 -3.50390625 100.39453125 C-4.57742083 102.50684796 -5.64908553 104.62010601 -6.71875 106.734375 C-7.19304443 107.66499756 -7.66733887 108.59562012 -8.15600586 109.55444336 C-9.73525259 112.80451509 -11.14300044 116.13575102 -12.56640625 119.45703125 C-18.83640625 119.45703125 -25.10640625 119.45703125 -31.56640625 119.45703125 C-35.00390625 112.58203125 -35.00390625 112.58203125 -36.16186523 110.25952148 C-38.12306883 106.32731061 -40.10059203 102.40432654 -42.1015625 98.4921875 C-42.71849976 97.27861572 -42.71849976 97.27861572 -43.34790039 96.04052734 C-44.15088702 94.46158309 -44.95856179 92.88501299 -45.77124023 91.31103516 C-46.13677002 90.58964355 -46.5022998 89.86825195 -46.87890625 89.125 C-47.20503906 88.48844482 -47.53117187 87.85188965 -47.8671875 87.19604492 C-48.56640625 85.45703125 -48.56640625 85.45703125 -48.56640625 82.45703125 C-44.93640625 83.44703125 -41.30640625 84.43703125 -37.56640625 85.45703125 C-38.26765625 84.88597656 -38.96890625 84.31492187 -39.69140625 83.7265625 C-53.60125343 71.83893495 -61.96289001 55.54946207 -63.78515625 37.26171875 C-64.30202118 25.24460918 -59.89578928 14.48636958 -51.90625 5.61328125 C-38.01413052 -7.26073964 -16.2974338 -9.79830495 0 0 Z " fill="#2F3268" transform="translate(394.56640625,221.54296875)"/>
<path d="M0 0 C10.09074986 7.29247469 16.4206085 17.21659582 18.51171875 29.4921875 C21.45880505 52.64786558 1.08555971 77.80774935 -12.12890625 94.95703125 C-12.86625 95.91738281 -13.60359375 96.87773437 -14.36328125 97.8671875 C-15.00007813 98.65867187 -15.636875 99.45015625 -16.29296875 100.265625 C-17.82699173 103.12311878 -17.31109584 104.4317186 -16.48828125 107.4921875 C-17.36328125 110.2421875 -17.36328125 110.2421875 -19.48828125 112.4921875 C-22.49786744 113.40960783 -25.35548451 113.85541031 -28.48828125 113.4921875 C-30.24609375 112.1796875 -30.24609375 112.1796875 -31.48828125 110.4921875 C-31.86328125 107.4921875 -31.86328125 107.4921875 -31.48828125 104.4921875 C-29.96484375 102.8046875 -29.96484375 102.8046875 -28.48828125 101.4921875 C-28.81924805 101.04641357 -29.15021484 100.60063965 -29.49121094 100.14135742 C-65.50351702 51.44543287 -65.50351702 51.44543287 -63.48828125 27.4921875 C-61.23605888 16.23107565 -54.95673459 6.99939149 -45.48828125 0.4921875 C-31.40650924 -7.5514253 -14.25349053 -8.63712299 0 0 Z " fill="#2F3268" transform="translate(459.48828125,42.5078125)"/>
<path d="M0 0 C7.14995124 7.14995124 9.91787943 21.4104733 10.25 31.125 C10.13566112 40.48808378 7.54914979 48.50683629 3.12109375 56.6796875 C2.02568891 58.94683201 1.47676493 60.91398482 1 63.375 C0 67 0 67 -2.125 69.375 C-5.01821232 71.01029392 -7.65196144 71.75567609 -10.890625 72.4375 C-13.15054901 73.0401464 -14.99605732 73.91071239 -17.0625 75 C-27.97631212 80.66759741 -41.23369772 81.44079858 -53 78 C-56.19772437 76.58221377 -59.25255491 75.04041502 -62.30859375 73.33984375 C-64.92271773 72.03847288 -67.12545728 71.42257343 -70 71 C-69.37875841 67.83166788 -69.03348948 66.43712181 -67 64 C-64.24436818 62.74710607 -61.48422701 61.81103497 -58.60107422 60.89990234 C-37.93679115 54.26138936 -20.78834612 34.85929469 -10.57421875 16.31640625 C-8.79168756 12.56114823 -7.72062643 8.87983822 -6.71484375 4.86328125 C-6 3 -6 3 -3.375 1.4375 C-2.199375 1.2209375 -2.199375 1.2209375 -1 1 C-0.67 0.67 -0.34 0.34 0 0 Z " fill="#2F3368" transform="translate(136,271)"/>
<path d="M0 0 C1.32634146 0.68047084 2.65781951 1.35132925 4 2 C3.34 2.66 2.68 3.32 2 4 C1.82597656 5.00933594 1.82597656 5.00933594 1.6484375 6.0390625 C1.43445313 6.68617188 1.22046875 7.33328125 1 8 C-0.8984375 8.8359375 -0.8984375 8.8359375 -3.375 9.375 C-13.78722296 12.14862634 -21.92291442 18.06396302 -30 25 C-30.81210938 25.66644531 -31.62421875 26.33289063 -32.4609375 27.01953125 C-44.02588585 36.85156147 -56.58731563 51.5316521 -59.55859375 66.88671875 C-59.70425781 67.58410156 -59.84992188 68.28148437 -60 69 C-62.4375 70.25 -62.4375 70.25 -65 71 C-65.99 71.495 -65.99 71.495 -67 72 C-67.3403125 70.8553125 -67.3403125 70.8553125 -67.6875 69.6875 C-68.79559807 66.57427209 -70.06059819 63.77622408 -71.5 60.8125 C-77.52947176 47.57620401 -76.92340083 34.21957478 -72.1328125 20.62109375 C-71 18 -71 18 -69.45703125 15.44921875 C-68.04309544 13.07244193 -67.29582785 11.02591185 -66.5625 8.375 C-65.70032588 5.72249494 -65.157597 4.18094471 -63.3125 2.0625 C-60.6934711 0.8591624 -58.07283442 0.27748974 -55.265625 -0.3359375 C-52.66966091 -1.09682353 -50.50614656 -2.21957213 -48.125 -3.5 C-32.67572372 -11.49588498 -14.41889854 -8.97110114 0 0 Z " fill="#2F3268" transform="translate(125,262)"/>
<path d="M0 0 C3.125 0.25 3.125 0.25 4.71679688 1.54956055 C7.04013604 4.35504898 8.22813789 7.73179741 9.625 11.0625 C13.2838516 19.56340515 17.33645425 27.82739441 21.53125 36.07543945 C21.98371094 36.96706787 22.43617188 37.85869629 22.90234375 38.77734375 C23.50937134 39.96444946 23.50937134 39.96444946 24.12866211 41.17553711 C25.125 43.25 25.125 43.25 26.125 46.25 C32.395 46.58 38.665 46.91 45.125 47.25 C46.115 44.28 47.105 41.31 48.125 38.25 C49.07307244 36.15473315 50.06889483 34.08011638 51.12109375 32.03515625 C51.95930664 30.38676758 51.95930664 30.38676758 52.81445312 28.70507812 C53.39130859 27.58552734 53.96816406 26.46597656 54.5625 25.3125 C58.1300626 18.36598611 61.59220143 11.51245724 64.28540039 4.17358398 C65.125 2.25 65.125 2.25 67.125 0.25 C70.625 0 70.625 0 74.125 0.25 C75.115 1.24 75.115 1.24 76.125 2.25 C75.97380019 8.70119189 73.20435461 13.62761812 70.25 19.25 C69.25190993 21.19298623 68.25588508 23.13703445 67.26171875 25.08203125 C66.74657715 26.0870166 66.23143555 27.09200195 65.70068359 28.12744141 C62.5678076 34.33591428 59.61976794 40.63390974 56.65478516 46.92382812 C56.00388916 48.29764648 56.00388916 48.29764648 55.33984375 49.69921875 C54.95948975 50.50705811 54.57913574 51.31489746 54.18725586 52.1472168 C51.70760424 57.05579859 51.70760424 57.05579859 48.125 58.25 C47.795 66.5 47.465 74.75 47.125 83.25 C39.205 83.25 31.285 83.25 23.125 83.25 C23.125 74.67 23.125 66.09 23.125 57.25 C21.805 56.92 20.485 56.59 19.125 56.25 C17.94335938 54.7890625 17.94335938 54.7890625 16.96875 52.875 C16.59177979 52.14885498 16.21480957 51.42270996 15.82641602 50.67456055 C15.42994873 49.87445557 15.03348145 49.07435059 14.625 48.25 C13.9906604 47.00827026 13.9906604 47.00827026 13.34350586 45.74145508 C8.15953318 35.5097076 3.23432713 25.14415401 -1.66064453 14.77172852 C-2.65099855 12.71516102 -3.68985027 10.70531756 -4.76953125 8.6953125 C-5.875 6.25 -5.875 6.25 -5.125 3.4375 C-3.32598039 0.28921569 -3.32598039 0.28921569 0 0 Z " fill="#FCFCFD" transform="translate(336.875,293.75)"/>
<path d="M0 0 C4.61627422 1.99598904 7.47380732 4.70566121 9.890625 9.11328125 C12.0000707 14.77087296 11.526301 20.2840621 9.11328125 25.76171875 C6.4636879 30.42915188 2.77766567 32.70692394 -2.26171875 34.38671875 C-7.17438354 34.90250628 -11.09074145 34.96116044 -15.57421875 32.76171875 C-23.96686085 25.34496527 -23.96686085 25.34496527 -24.5 19.99609375 C-24.65833153 13.89616322 -24.53514788 10.10998253 -20.26171875 5.38671875 C-13.9871291 -0.48770575 -8.51589884 -2.30914701 0 0 Z " fill="#FCFCFD" transform="translate(265.26171875,311.61328125)"/>
<path d="M0 0 C1.74926239 2.59265676 2.04785473 3.70928249 1.53125 6.84765625 C-2.52926168 19.50599379 -8.28140243 29.00267478 -17 39 C-18.06734375 40.2684375 -18.06734375 40.2684375 -19.15625 41.5625 C-30.15627037 54.31614681 -47.38493064 69.81618608 -65.1640625 71.1640625 C-66.77685386 71.18333889 -68.39051264 71.10496657 -70 71 C-69.37875841 67.83166788 -69.03348948 66.43712181 -67 64 C-64.24436818 62.74710607 -61.48422701 61.81103497 -58.60107422 60.89990234 C-37.93679115 54.26138936 -20.78834612 34.85929469 -10.57421875 16.31640625 C-8.79168756 12.56114823 -7.72062643 8.87983822 -6.71484375 4.86328125 C-6 3 -6 3 -3.375 1.4375 C-2.199375 1.2209375 -2.199375 1.2209375 -1 1 C-0.67 0.67 -0.34 0.34 0 0 Z " fill="#F7F7F9" transform="translate(136,271)"/>
<path d="M0 0 C-0.76115655 2.88152121 -1.25530795 4.65259615 -3 7 C-5.35753425 8.06585839 -7.67355304 8.60437472 -10.1875 9.2109375 C-19.36784429 11.78653409 -26.88793486 17.89265518 -34 24 C-35.21816406 24.99966797 -35.21816406 24.99966797 -36.4609375 26.01953125 C-48.02588585 35.85156147 -60.58731563 50.5316521 -63.55859375 65.88671875 C-63.70425781 66.58410156 -63.84992188 67.28148437 -64 68 C-66.4375 69.25 -66.4375 69.25 -69 70 C-69.99 70.495 -69.99 70.495 -71 71 C-72.37227245 57.00282096 -63.55867216 44.84669803 -55.16796875 34.453125 C-42.27444925 18.84308587 -21.9863529 -1.83219608 0 0 Z " fill="#F6F6F8" transform="translate(129,263)"/>
<path d="M0 0 C3.48805691 1.98102187 6.19713391 4.39426782 8 8 C8.37414872 13.61223087 8.16077934 17.14594602 5 22 C2.01682683 25.32738546 -1.46958643 25.72481962 -5.75390625 26.0625 C-10.30461969 25.93587145 -13.00899221 23.83453287 -16.375 21 C-18.8499719 16.4308211 -18.77205662 12.08334306 -18 7 C-13.70418438 -0.25844708 -7.91490941 -1.30077898 0 0 Z " fill="#FBFBFC" transform="translate(442,65)"/>
<path d="M0 0 C4.49789065 0.65423864 6.32369507 2.66604579 9.5078125 5.7734375 C11.3448447 7.58602484 11.3448447 7.58602484 13.62109375 8.51171875 C14.22050781 8.83785156 14.81992187 9.16398437 15.4375 9.5 C16.375 12.9375 16.375 12.9375 16.4375 16.5 C14.92453773 19.08093563 13.38610276 19.52170106 10.625 20.6875 C7.34259919 21.5241904 4.80423002 21.87408111 1.4375 21.5 C-0.4375 20.375 -0.4375 20.375 -1.5625 18.5 C-1.541875 17.55125 -1.52125 16.6025 -1.5 15.625 C-1.23605048 12.35018189 -1.23605048 12.35018189 -3.6875 10 C-4.30625 9.175 -4.925 8.35 -5.5625 7.5 C-4.14713796 0.80919765 -4.14713796 0.80919765 0 0 Z " fill="#2E3166" transform="translate(258.5625,99.5)"/>
<path d="M0 0 C2.96671273 0.98499553 4.43400227 1.99852177 7 4 C8.125 7.5625 8.125 7.5625 8 11 C6.9375 12.9375 6.9375 12.9375 5 14 C0.00301166 14.92967225 -3.29875585 13.23292709 -7.3515625 10.5 C-9 9 -9 9 -10.1875 5.875 C-10 3 -10 3 -9 1.125 C-5.83431633 -0.65569706 -3.57866248 -0.41751062 0 0 Z " fill="#2D3066" transform="translate(238,84)"/>
<path d="M0 0 C2.15502531 3.23253796 2.46856135 4.25150923 2 8 C0.31096016 10.68259269 -1.31127887 11.11746372 -4.3125 12.25 C-8.04339272 13.00882564 -10.35760365 13.0164827 -14 12 C-16 10 -16 10 -16.375 7.0625 C-16 4 -16 4 -14.4375 2.25 C-9.71222393 -0.1732185 -5.16764039 -1.91940929 0 0 Z " fill="#2F3267" transform="translate(281,199)"/>
<path d="M0 0 C3.06982009 1.82982726 3.21302094 2.25789963 4.375 5.9375 C4.25 9.375 4.25 9.375 3.25 11.375 C-0.01810669 13.00905335 -2.26635141 12.24591215 -5.75 11.375 C-8.47989504 10.27980495 -10.30719739 9.13381788 -12.75 7.375 C-13.99940855 4.43521518 -14.00297832 3.13393496 -13 0.125 C-9.64582104 -4.57085055 -4.28547227 -2.04613737 0 0 Z " fill="#2E3166" transform="translate(356.75,119.625)"/>
<path d="M0 0 C3.125 0.25 3.125 0.25 5.0625 1.25 C6.81664926 4.55192802 6.01976442 7.77939862 5.125 11.25 C3.42687219 14.80063088 2.43478137 16.04347909 -0.875 18.25 C-3.4375 18.0625 -3.4375 18.0625 -5.875 17.25 C-7.875 14.25 -7.875 14.25 -7.6875 10.9375 C-5.38063486 0.46788129 -5.38063486 0.46788129 0 0 Z " fill="#2E3167" transform="translate(296.875,177.75)"/>
<path d="M0 0 C3.43323056 3.54051901 4.88793848 7.00745512 5.4375 11.875 C5 15 5 15 3 17 C-0.375 17.5 -0.375 17.5 -4 17 C-8.05588343 12.73064902 -8.9065887 8.69808956 -9 3 C-7.0018518 -0.76122014 -3.92530865 -0.8635679 0 0 Z " fill="#2F3267" transform="translate(226,174)"/>
<path d="M0 0 C4.3941824 0.84503508 5.66731725 2.7760461 8.1171875 6.38671875 C9.7507274 9.61436827 9.81571332 12.08929177 9.25 15.625 C7.25 17.625 7.25 17.625 4.375 18 C1.25 17.625 1.25 17.625 -0.9375 16 C-3.66020464 12.43231805 -5.8772544 9.49139784 -5.5625 4.875 C-4.38072363 1.6023885 -3.39631749 0.77189034 0 0 Z " fill="#2F3267" transform="translate(278.75,121.375)"/>
<path d="M0 0 C3.79494288 0.58716543 6.70966618 1.23297873 9.625 3.875 C10.5625 6.875 10.5625 6.875 10.625 9.875 C9.635 11.36 9.635 11.36 8.625 12.875 C2.67773392 13.47980672 -1.08608128 12.57342792 -6.375 9.875 C-7.375 8.875 -7.375 8.875 -7.625 6 C-7.375 2.875 -7.375 2.875 -6.1328125 1.171875 C-3.85144131 -0.51126997 -2.77749602 -0.36970084 0 0 Z " fill="#2E3167" transform="translate(323.375,106.125)"/>
<path d="M0 0 C2.25 1.25 2.25 1.25 3.25 2.25 C3.75 5.4375 3.75 5.4375 3.25 9.25 C1.30385627 11.90645732 -0.86319561 13.67792242 -3.75 15.25 C-7.5625 15.75 -7.5625 15.75 -10.75 15.25 C-12.75 13.25 -12.75 13.25 -13.1875 10.4375 C-12.48004557 5.28318919 -9.18331876 3.36082204 -5.25 0.3125 C-2.75 -0.75 -2.75 -0.75 0 0 Z " fill="#2E3166" transform="translate(244.75,121.75)"/>
<path d="M0 0 C1.11375 0.185625 2.2275 0.37125 3.375 0.5625 C5.6704439 4.00566584 5.47348663 5.56652721 4.86328125 9.55859375 C4.09974908 12.69212976 2.65692928 15.28057072 0.375 17.5625 C-2.65012811 17.82555462 -4.82957456 17.97304216 -7.5625 16.5625 C-9.33436644 13.22722199 -8.57703602 10.04892157 -7.625 6.5625 C-5.56995629 2.13625201 -4.90394858 0.76095754 0 0 Z " fill="#2E3166" transform="translate(224.625,144.4375)"/>
<path d="M0 0 C3.59317608 1.49470234 6.45901983 2.79782185 8.125 6.5 C8 9 8 9 7 11.3125 C5 13 5 13 1.8125 13.5625 C-2.97459367 12.85620749 -6.49515999 11.39007195 -10 8 C-10.75 4.875 -10.75 4.875 -10 2 C-6.92508221 -1.66624813 -4.37155475 -1.2857514 0 0 Z " fill="#2F3267" transform="translate(246,197)"/>
<path d="M0 0 C3.5625 0.375 3.5625 0.375 5.375 1.8125 C7.11355868 5.56412663 8.24370765 9.23828976 8.5625 13.375 C7.5625 15.9375 7.5625 15.9375 5.5625 17.375 C2.43899242 17.83051152 0.51096746 17.98472908 -2.1875 16.25 C-5.07090802 11.92488798 -5.90423704 7.50910748 -5.4375 2.375 C-3.4375 0.375 -3.4375 0.375 0 0 Z " fill="#2E3166" transform="translate(292.4375,148.625)"/>
<path d="M0 0 C4.78128341 0.53982232 8.32733385 2.14941918 11.875 5.4375 C12.78740747 7.8878314 12.96025878 9.06449285 12.375 11.625 C10.875 13.4375 10.875 13.4375 7.75 14.5 C2.51953303 14.41563763 -1.41840046 12.14409954 -5.125 8.4375 C-5.3125 5.5 -5.3125 5.5 -5.125 2.4375 C-3.125 0.4375 -3.125 0.4375 0 0 Z " fill="#2E3166" transform="translate(375.125,131.5625)"/>
<path d="M0 0 C3.72670989 0.10163754 6.82065031 0.69862752 10.25 2.25 C12.25 5.25 12.25 5.25 12 8.375 C11.7525 9.32375 11.505 10.2725 11.25 11.25 C7.80389094 12.97305453 4.02537825 12.629435 0.25 12.25 C-3.3125 10.75 -3.3125 10.75 -5.75 9.25 C-5.875 5.875 -5.875 5.875 -5.75 2.25 C-3.75 0.25 -3.75 0.25 0 0 Z " fill="#2E3167" transform="translate(403.75,142.75)"/>
<path d="M0 0 C1.06347656 0.00515625 2.12695312 0.0103125 3.22265625 0.015625 C4.28355469 0.01046875 5.34445313 0.0053125 6.4375 0 C9.28515625 0.265625 9.28515625 0.265625 12.28515625 2.265625 C12.78515625 5.703125 12.78515625 5.703125 12.28515625 9.265625 C10.47265625 11.265625 10.47265625 11.265625 7.28515625 12.265625 C3.54008772 12.34117393 -0.07712869 12.19116281 -3.71484375 11.265625 C-5.71484375 8.265625 -5.71484375 8.265625 -5.46484375 5.203125 C-4.51007178 1.46360146 -3.91175225 0.38273259 0 0 Z " fill="#2F3267" transform="translate(204.71484375,77.734375)"/>
<path d="M0 0 C0 3.96 0 7.92 0 12 C-8.36923077 12.36923077 -8.36923077 12.36923077 -11.5625 10.5 C-12.036875 10.005 -12.51125 9.51 -13 9 C-12.6875 5.625 -12.6875 5.625 -12 2 C-7.7975546 -0.80163026 -4.99895065 -0.14489712 0 0 Z " fill="#2E3167" transform="translate(299,103)"/>
</svg>
