<?xml version="1.0" encoding="UTF-8"?>
<svg version="1.1" xmlns="http://www.w3.org/2000/svg" width="512" height="512">
<path d="M0 0 C13.68932965 9.9874964 25.96229827 22.95850838 36.3125 36.3125 C37.29544389 37.5547896 38.2785261 38.79696977 39.26171875 40.0390625 C86.26804838 99.93991447 86.26804838 99.93991447 83.3125 126.3125 C79.86451097 144.93667432 69.76454239 155.03372002 54.890625 166.1171875 C48.29834623 171.09457919 41.09314161 176.80662521 39.3125 185.3125 C37.71940314 202.03018313 43.61967765 215.01210544 51.3125 229.3125 C51.63766602 229.92270996 51.96283203 230.53291992 52.29785156 231.16162109 C65.90563207 256.50144024 85.28455178 278.19426539 108.3125 295.3125 C109.149021 295.94816895 109.149021 295.94816895 110.00244141 296.59667969 C119.56486076 303.85708679 129.69694058 309.72887206 140.3125 315.3125 C141.03856445 315.69744629 141.76462891 316.08239258 142.51269531 316.47900391 C158.52004432 325.16627388 158.52004432 325.16627388 176.3125 326.3125 C186.35253454 323.06115448 191.29429427 316.19626666 197.125 307.875 C205.11284919 296.76280903 216.67626895 287.2515292 230.3125 284.3125 C257.79465575 280.01281462 278.97969816 294.45526847 300.11230469 309.72558594 C302.32094437 311.31859059 304.53832591 312.89871461 306.7578125 314.4765625 C316.77553465 321.62194855 326.54344798 329.04708024 336.20800781 336.66210938 C338.22051492 338.24036321 340.24430297 339.802583 342.2734375 341.359375 C357.14327411 352.79890686 368.96526627 364.54308787 371.69140625 384.01953125 C372.65408428 404.73263596 360.69593616 425.60540847 347.296875 440.5625 C345.67561154 442.19786141 344.0162403 443.76404853 342.3125 445.3125 C341.1678125 446.488125 341.1678125 446.488125 340 447.6875 C338.6696875 448.986875 338.6696875 448.986875 337.3125 450.3125 C336.63960938 450.96992188 335.96671875 451.62734375 335.2734375 452.3046875 C318.02592763 468.54094272 294.01813006 481.27138617 269.84375 480.83618164 C248.8420066 479.77808214 229.91086261 469.25211296 211.3125 460.3125 C210.63952881 459.99009338 209.96655762 459.66768677 209.27319336 459.33551025 C192.44004855 451.26298569 176.06462724 442.61302074 160.06591797 432.96923828 C157.35575324 431.33852558 154.63489954 429.72730531 151.91015625 428.12109375 C141.82512506 422.15815638 131.956326 415.96484718 122.3125 409.3125 C121.52842773 408.77334961 120.74435547 408.23419922 119.93652344 407.67871094 C109.50610953 400.49099593 99.25954501 393.15609346 89.3125 385.3125 C88.17652119 384.43263759 87.039778 383.55376134 85.90234375 382.67578125 C73.99478044 373.45424646 62.6432768 363.6764211 51.640625 353.39453125 C48.99428632 350.92308828 46.29531437 348.51586332 43.58984375 346.109375 C38.08734363 341.16621481 32.8429141 335.99068318 27.625 330.75 C26.72716797 329.85603516 25.82933594 328.96207031 24.90429688 328.04101562 C20.37735158 323.50743744 15.98483419 318.91955262 11.81225586 314.05737305 C9.74456308 311.65174057 7.58983164 309.32988088 5.4375 307 C0.51742695 301.59756684 -4.13105013 296.02335243 -8.6875 290.3125 C-9.29948242 289.54993896 -9.29948242 289.54993896 -9.92382812 288.77197266 C-36.74883418 255.3021464 -59.82497356 219.31568615 -79.6875 181.3125 C-80.47954834 179.80429687 -80.47954834 179.80429687 -81.28759766 178.265625 C-88.13174449 165.15547562 -94.36020651 151.83640765 -100.1875 138.25 C-100.47914032 137.57720001 -100.77078064 136.90440002 -101.07125854 136.21121216 C-112.73198271 109.2030967 -119.07628177 79.75809764 -107.9375 51.4375 C-103.35699851 40.48002577 -96.84925323 31.84524202 -88.6875 23.3125 C-88.07390625 22.62414062 -87.4603125 21.93578125 -86.828125 21.2265625 C-66.96651466 -0.2477427 -26.65884195 -16.7609882 0 0 Z " fill="#06062B" transform="translate(119.6875,31.6875)"/>
<path d="M0 0 C0.8465918 0.18191895 1.69318359 0.36383789 2.56542969 0.55126953 C41.92742531 9.30098608 78.57523133 30.05441612 107.21923828 58.25 C109.0158347 60.01556116 110.83252449 61.75841596 112.65234375 63.5 C120.53916291 71.12413788 127.5301332 79.1443539 134 88 C134.59288818 88.80969238 134.59288818 88.80969238 135.19775391 89.63574219 C163.85369296 129.13219777 177.59670315 173.49963528 179 222 C179.04302246 223.21212158 179.04302246 223.21212158 179.08691406 224.44873047 C179.40855225 233.89634332 179.5588234 242.47653385 173.75 250.375 C168.77750045 255.12147685 164.7675924 256.17571428 158.0625 256.4375 C151.20331164 256.24863624 146.65588278 254.51232155 141.6875 249.8125 C137.50219536 242.83699226 136.57324875 235.67633576 136.125 227.6875 C132.3068987 175.43686935 114.64096764 119.78965339 74.0390625 84.453125 C40.48966897 57.37212354 -1.30563972 43.79123576 -43.6875 38.234375 C-44.62875732 38.1096582 -45.57001465 37.98494141 -46.53979492 37.85644531 C-48.32452254 37.62700952 -50.11114853 37.4116716 -51.8996582 37.21386719 C-58.7949365 36.35289695 -64.61811024 34.56511205 -69.4375 29.375 C-73.18477957 23.67913506 -72.61878689 17.65195906 -72 11 C-70.46431509 5.90311473 -68.30441637 1.549165 -63.875 -1.5625 C-47.19983922 -9.90008039 -17.25319802 -3.75619714 0 0 Z " fill="#06062B" transform="translate(327,4)"/>
<path d="M0 0 C36.37681896 18.86486934 65.14436364 51.44410414 77.73925781 90.50488281 C78.19318605 91.96827403 78.64251219 93.43310179 79.08691406 94.89941406 C79.28583252 95.55167969 79.48475098 96.20394531 79.68969727 96.87597656 C82.95677931 108.20073974 83.70991711 119.34402111 83.70751953 131.05859375 C83.71193319 133.47237716 83.74849876 135.88438476 83.78613281 138.29785156 C83.89292965 152.81707416 83.89292965 152.81707416 79.33691406 159.21191406 C71.95679549 165.08588599 64.36177765 164.89141068 55.33691406 164.21191406 C51.11001865 163.00913894 48.81885899 160.7980633 46.02441406 157.39941406 C43.00985762 151.7052519 42.10330765 146.07338209 41.52441406 139.71191406 C38.45215493 110.72313982 30.4106693 78.67051648 8.33691406 58.21191406 C7.76199219 57.63183594 7.18707031 57.05175781 6.59472656 56.45410156 C-13.10260232 37.50006811 -43.89045609 29.79549869 -70.10058594 25.58691406 C-77.50331682 24.3887046 -83.45158425 22.97629553 -88.60058594 17.14941406 C-92.84999788 11.09722129 -92.22546355 4.35648593 -91.66308594 -2.78808594 C-90.04207901 -8.77191724 -86.66678461 -12.31613176 -81.66308594 -15.78808594 C-59.30010106 -26.4264238 -20.50011372 -10.17976603 0 0 Z " fill="#06062B" transform="translate(354.6630859375,82.7880859375)"/>
<path d="M0 0 C13.78797147 13.03930333 24.3763821 32.24839532 25.37890625 51.33203125 C25.42557938 53.09864173 25.45825533 54.86568042 25.4765625 56.6328125 C25.49203125 57.86294067 25.49203125 57.86294067 25.5078125 59.11791992 C25.41066203 65.78689471 24.38629152 72.20131211 20.2421875 77.59765625 C14.37644511 82.39583353 9.69453413 84.57120252 1.9765625 84.1328125 C-4.49810747 83.27933328 -8.85693233 80.22698689 -12.87109375 75.05859375 C-16.3506175 69.30927314 -17.12168118 62.38723982 -18.2734375 55.8828125 C-20.2438014 45.6802476 -24.40700815 34.97664163 -33.109375 28.7109375 C-42.16347526 22.94144775 -51.88977299 20.03457662 -62.30322266 17.82763672 C-69.24348558 16.25132669 -73.92190285 13.09197366 -77.9609375 7.2578125 C-80.2405467 0.41898489 -79.49443571 -6.29275847 -76.296875 -12.69921875 C-73.1344557 -17.53531611 -68.57594104 -21.23572314 -62.9609375 -22.7421875 C-38.60586831 -27.7034053 -17.57004278 -15.61003801 0 0 Z " fill="#06062B" transform="translate(348.9609375,155.7421875)"/>
</svg>
